<svg xmlns="http://www.w3.org/2000/svg" xmlns:xlink="http://www.w3.org/1999/xlink" width="512" zoomAndPan="magnify" viewBox="0 0 384 383.999986" height="512" preserveAspectRatio="xMidYMid meet" version="1.0"><path fill="#303030" d="M 58.753906 296.433594 C 63.980469 299.734375 69.878906 301.40625 76.171875 301.40625 C 79.71875 301.40625 83.394531 300.875 87.148438 299.804688 C 87.214844 299.785156 87.261719 299.742188 87.324219 299.71875 C 99.058594 296.339844 111.503906 287.746094 124.328125 274.144531 C 164.902344 231.039062 190.53125 235.953125 190.710938 235.988281 C 191.40625 236.15625 192.195312 236.152344 192.898438 236.003906 C 193.164062 235.945312 218.78125 231.042969 259.378906 274.152344 C 272.203125 287.753906 284.652344 296.347656 296.386719 299.722656 C 296.445312 299.742188 296.492188 299.789062 296.554688 299.804688 C 306.949219 302.769531 316.757812 301.601562 324.929688 296.4375 C 333.273438 291.164062 339.488281 281.675781 341.160156 271.679688 C 344.324219 252.730469 341.871094 126.175781 289.007812 94.226562 C 286.09375 91.902344 270.195312 81.253906 240.472656 97.292969 C 213.984375 111.585938 170.328125 111.578125 143.167969 97.269531 C 113.339844 81.558594 97.570312 91.957031 94.691406 94.214844 C 41.917969 126.074219 39.375 252.707031 42.515625 271.679688 C 44.183594 281.667969 50.40625 291.152344 58.753906 296.433594 Z M 266.277344 267.648438 C 225.679688 224.542969 197.730469 225.714844 191.832031 226.570312 C 185.933594 225.71875 157.988281 224.546875 117.421875 267.644531 C 112.242188 273.136719 107.1875 277.71875 102.285156 281.363281 C 103.722656 279.449219 105.1875 277.492188 106.652344 275.527344 C 106.808594 275.320312 106.957031 275.113281 107.113281 274.90625 C 107.929688 273.816406 108.742188 272.722656 109.550781 271.628906 C 109.609375 271.546875 109.671875 271.46875 109.730469 271.386719 C 110.507812 270.335938 111.277344 269.296875 112.039062 268.265625 C 112.265625 267.953125 112.488281 267.652344 112.714844 267.34375 C 113.40625 266.402344 114.089844 265.472656 114.757812 264.558594 C 114.914062 264.339844 115.074219 264.121094 115.234375 263.90625 C 115.890625 263.003906 116.53125 262.121094 117.15625 261.25 C 117.390625 260.929688 117.621094 260.613281 117.847656 260.296875 C 118.441406 259.472656 119.019531 258.664062 119.574219 257.882812 C 119.746094 257.648438 119.914062 257.410156 120.078125 257.175781 C 120.632812 256.398438 121.15625 255.648438 121.664062 254.925781 C 121.855469 254.65625 122.039062 254.390625 122.222656 254.128906 C 122.753906 253.363281 123.265625 252.621094 123.734375 251.933594 C 123.785156 251.859375 123.835938 251.785156 123.886719 251.710938 C 124.363281 251.011719 124.792969 250.367188 125.191406 249.753906 C 125.304688 249.582031 125.414062 249.414062 125.519531 249.25 C 125.917969 248.632812 126.285156 248.050781 126.585938 247.554688 C 127.226562 246.46875 127.945312 245.429688 128.699219 244.402344 C 140.34375 228.355469 162.171875 219.875 191.832031 219.875 C 221.496094 219.875 243.328125 228.355469 254.980469 244.417969 C 255.722656 245.429688 256.441406 246.46875 257.113281 247.597656 C 257.328125 247.953125 257.574219 248.347656 257.839844 248.761719 C 257.925781 248.894531 258.019531 249.039062 258.105469 249.175781 C 258.300781 249.476562 258.503906 249.785156 258.71875 250.109375 C 258.828125 250.277344 258.945312 250.449219 259.0625 250.628906 C 259.28125 250.953125 259.507812 251.292969 259.742188 251.640625 C 259.863281 251.820312 259.988281 252.003906 260.113281 252.1875 C 260.375 252.574219 260.652344 252.972656 260.933594 253.378906 C 261.046875 253.546875 261.15625 253.707031 261.277344 253.875 C 262.097656 255.050781 262.980469 256.308594 263.925781 257.632812 C 264.035156 257.789062 264.152344 257.949219 264.265625 258.109375 C 264.636719 258.632812 265.019531 259.164062 265.410156 259.703125 C 265.542969 259.890625 265.675781 260.082031 265.816406 260.269531 C 266.203125 260.804688 266.597656 261.351562 267 261.90625 C 267.121094 262.074219 267.242188 262.242188 267.367188 262.414062 C 271.789062 268.507812 276.859375 275.316406 281.390625 281.347656 C 276.496094 277.703125 271.445312 273.132812 266.277344 267.648438 Z M 99.835938 102.179688 C 100.0625 102.046875 100.34375 101.839844 100.542969 101.667969 C 100.824219 101.433594 104.835938 98.175781 113.269531 98.175781 C 119.367188 98.175781 127.773438 99.878906 138.742188 105.65625 C 168.378906 121.265625 216.027344 121.257812 244.972656 105.636719 C 270.964844 91.613281 282.617188 101.234375 283.046875 101.59375 C 283.285156 101.816406 283.550781 102.011719 283.835938 102.183594 C 329.757812 129.503906 335.378906 248.703125 331.804688 270.121094 C 330.832031 275.933594 327.183594 283.792969 319.859375 288.425781 C 314.332031 291.917969 307.871094 292.808594 300.660156 291.082031 C 300.46875 290.828125 300.28125 290.582031 300.082031 290.324219 C 299.738281 289.878906 299.390625 289.417969 299.035156 288.949219 C 298.703125 288.515625 298.363281 288.066406 298.019531 287.613281 C 297.554688 287.007812 297.089844 286.394531 296.609375 285.757812 C 296.34375 285.40625 296.070312 285.050781 295.796875 284.691406 C 295.242188 283.957031 294.679688 283.214844 294.105469 282.453125 C 293.878906 282.152344 293.648438 281.847656 293.417969 281.546875 C 292.785156 280.707031 292.144531 279.859375 291.492188 278.996094 C 291.300781 278.738281 291.109375 278.484375 290.914062 278.222656 C 290.234375 277.320312 289.550781 276.410156 288.859375 275.488281 C 288.664062 275.230469 288.472656 274.972656 288.28125 274.710938 C 287.582031 273.78125 286.882812 272.847656 286.179688 271.910156 C 285.980469 271.644531 285.78125 271.378906 285.585938 271.113281 C 284.902344 270.199219 284.222656 269.285156 283.542969 268.375 C 283.3125 268.058594 283.078125 267.746094 282.84375 267.433594 C 282.191406 266.558594 281.542969 265.683594 280.902344 264.8125 C 280.644531 264.464844 280.398438 264.125 280.140625 263.78125 C 279.539062 262.96875 278.941406 262.160156 278.359375 261.363281 C 278.0625 260.964844 277.78125 260.578125 277.492188 260.179688 C 276.945312 259.433594 276.402344 258.691406 275.875 257.964844 C 275.589844 257.570312 275.316406 257.199219 275.039062 256.8125 C 274.535156 256.117188 274.027344 255.421875 273.546875 254.753906 C 273.257812 254.355469 272.988281 253.976562 272.707031 253.582031 C 272.257812 252.957031 271.800781 252.324219 271.378906 251.726562 C 271.105469 251.34375 270.859375 250.992188 270.597656 250.621094 C 270.203125 250.066406 269.800781 249.496094 269.4375 248.972656 C 269.15625 248.574219 268.914062 248.214844 268.652344 247.835938 C 268.34375 247.394531 268.023438 246.929688 267.746094 246.519531 C 267.472656 246.121094 267.246094 245.777344 267.003906 245.414062 C 266.78125 245.078125 266.535156 244.714844 266.335938 244.40625 C 265.921875 243.773438 265.554688 243.195312 265.253906 242.703125 C 264.53125 241.488281 263.703125 240.246094 262.652344 238.816406 C 249.15625 220.210938 224.671875 210.375 191.847656 210.375 C 159.023438 210.375 134.523438 220.222656 121.042969 238.808594 C 119.980469 240.257812 119.148438 241.503906 118.449219 242.679688 C 118.121094 243.226562 117.722656 243.855469 117.261719 244.558594 C 117.109375 244.792969 116.914062 245.078125 116.746094 245.332031 C 116.414062 245.832031 116.085938 246.324219 115.703125 246.886719 C 115.472656 247.230469 115.203125 247.613281 114.953125 247.976562 C 114.589844 248.503906 114.230469 249.019531 113.832031 249.585938 C 113.527344 250.027344 113.183594 250.503906 112.859375 250.964844 C 112.476562 251.507812 112.105469 252.039062 111.695312 252.605469 C 111.328125 253.117188 110.9375 253.660156 110.554688 254.195312 C 110.152344 254.753906 109.753906 255.308594 109.339844 255.886719 C 108.914062 256.472656 108.476562 257.074219 108.035156 257.675781 C 107.636719 258.226562 107.238281 258.769531 106.832031 259.328125 C 106.347656 259.992188 105.851562 260.664062 105.355469 261.34375 C 104.96875 261.871094 104.585938 262.390625 104.191406 262.925781 C 103.667969 263.636719 103.140625 264.351562 102.609375 265.070312 C 102.238281 265.566406 101.871094 266.066406 101.5 266.566406 C 100.914062 267.355469 100.328125 268.144531 99.738281 268.933594 C 99.429688 269.347656 99.125 269.761719 98.8125 270.175781 C 98.179688 271.027344 97.550781 271.871094 96.921875 272.710938 C 96.65625 273.066406 96.390625 273.417969 96.125 273.773438 C 95.46875 274.652344 94.816406 275.519531 94.171875 276.378906 C 93.957031 276.664062 93.746094 276.945312 93.535156 277.226562 C 92.8125 278.1875 92.101562 279.132812 91.410156 280.050781 C 91.328125 280.160156 91.246094 280.269531 91.164062 280.375 C 87.917969 284.679688 85.050781 288.449219 83.042969 291.085938 C 75.820312 292.816406 69.363281 291.914062 63.828125 288.421875 C 56.496094 283.785156 52.839844 275.925781 51.875 270.125 C 48.320312 248.691406 54.019531 129.4375 99.835938 102.179688 Z M 99.835938 102.179688 " fill-opacity="1" fill-rule="nonzero"/><path fill="#303030" d="M 254.058594 215.636719 C 268.171875 215.636719 279.652344 204.160156 279.652344 190.046875 C 279.652344 175.933594 268.171875 164.449219 254.058594 164.449219 C 239.945312 164.449219 228.460938 175.933594 228.460938 190.046875 C 228.460938 204.160156 239.945312 215.636719 254.058594 215.636719 Z M 254.058594 173.933594 C 262.941406 173.933594 270.171875 181.160156 270.171875 190.046875 C 270.171875 198.929688 262.941406 206.15625 254.058594 206.15625 C 245.171875 206.15625 237.945312 198.925781 237.945312 190.046875 C 237.945312 181.160156 245.171875 173.933594 254.058594 173.933594 Z M 254.058594 173.933594 " fill-opacity="1" fill-rule="nonzero"/><path fill="#303030" d="M 104.027344 190.046875 C 104.027344 204.160156 115.511719 215.636719 129.625 215.636719 C 143.738281 215.636719 155.21875 204.160156 155.21875 190.046875 C 155.21875 175.933594 143.738281 164.449219 129.625 164.449219 C 115.511719 164.449219 104.027344 175.933594 104.027344 190.046875 Z M 145.734375 190.046875 C 145.734375 198.929688 138.503906 206.15625 129.621094 206.15625 C 120.734375 206.15625 113.507812 198.925781 113.507812 190.046875 C 113.507812 181.160156 120.734375 173.933594 129.621094 173.933594 C 138.503906 173.933594 145.734375 181.160156 145.734375 190.046875 Z M 145.734375 190.046875 " fill-opacity="1" fill-rule="nonzero"/><path fill="#303030" d="M 116.441406 159.148438 C 119.058594 159.148438 121.183594 157.027344 121.183594 154.40625 L 121.183594 145.59375 C 121.183594 144.492188 120.796875 143.417969 120.089844 142.570312 L 115.371094 136.867188 C 113.570312 134.691406 109.871094 134.691406 108.066406 136.867188 L 103.347656 142.570312 C 102.648438 143.417969 102.261719 144.488281 102.261719 145.589844 L 102.261719 154.402344 C 102.261719 157.023438 104.386719 159.144531 107.003906 159.144531 L 116.441406 159.144531 Z M 116.441406 159.148438 " fill-opacity="1" fill-rule="nonzero"/><path fill="#303030" d="M 108.066406 128.46875 C 108.964844 129.554688 110.304688 130.1875 111.71875 130.1875 C 113.132812 130.1875 114.472656 129.558594 115.371094 128.472656 L 120.089844 122.769531 C 120.792969 121.917969 121.179688 120.851562 121.179688 119.746094 L 121.179688 110.933594 C 121.179688 108.3125 119.054688 106.191406 116.4375 106.191406 L 107.003906 106.191406 C 104.386719 106.191406 102.261719 108.3125 102.261719 110.933594 L 102.261719 119.746094 C 102.261719 120.847656 102.648438 121.917969 103.347656 122.765625 Z M 108.066406 128.46875 " fill-opacity="1" fill-rule="nonzero"/><path fill="#303030" d="M 114.203125 132.667969 C 114.203125 134.082031 114.832031 135.421875 115.921875 136.324219 L 121.628906 141.042969 C 122.476562 141.746094 123.546875 142.128906 124.648438 142.128906 L 133.457031 142.128906 C 136.074219 142.128906 138.199219 140.007812 138.199219 137.386719 L 138.199219 127.949219 C 138.199219 125.332031 136.074219 123.210938 133.457031 123.210938 L 124.648438 123.210938 C 123.546875 123.210938 122.472656 123.59375 121.628906 124.296875 L 115.921875 129.015625 C 114.832031 129.917969 114.203125 131.257812 114.203125 132.667969 Z M 114.203125 132.667969 " fill-opacity="1" fill-rule="nonzero"/><path fill="#303030" d="M 89.980469 142.128906 L 98.792969 142.128906 C 99.898438 142.128906 100.96875 141.742188 101.816406 141.042969 L 107.519531 136.324219 C 108.613281 135.421875 109.242188 134.085938 109.242188 132.667969 C 109.242188 131.257812 108.613281 129.917969 107.519531 129.015625 L 101.816406 124.296875 C 100.964844 123.59375 99.898438 123.210938 98.792969 123.210938 L 89.980469 123.210938 C 87.363281 123.210938 85.242188 125.332031 85.242188 127.949219 L 85.242188 137.386719 C 85.242188 140.007812 87.363281 142.128906 89.980469 142.128906 Z M 89.980469 142.128906 " fill-opacity="1" fill-rule="nonzero"/><path fill="#303030" d="M 265.152344 131.183594 C 265.152344 131.804688 265.09375 132.421875 264.96875 133.03125 C 264.847656 133.636719 264.671875 134.230469 264.433594 134.804688 C 264.195312 135.378906 263.902344 135.921875 263.558594 136.441406 C 263.214844 136.957031 262.820312 137.433594 262.382812 137.875 C 261.941406 138.3125 261.464844 138.703125 260.949219 139.050781 C 260.433594 139.394531 259.886719 139.6875 259.3125 139.921875 C 258.738281 140.160156 258.148438 140.339844 257.539062 140.460938 C 256.929688 140.582031 256.3125 140.644531 255.691406 140.644531 C 255.070312 140.644531 254.457031 140.582031 253.847656 140.460938 C 253.238281 140.339844 252.644531 140.160156 252.070312 139.921875 C 251.5 139.6875 250.953125 139.394531 250.4375 139.050781 C 249.921875 138.703125 249.441406 138.3125 249.003906 137.875 C 248.5625 137.433594 248.171875 136.957031 247.828125 136.441406 C 247.480469 135.921875 247.191406 135.378906 246.953125 134.804688 C 246.714844 134.230469 246.535156 133.636719 246.414062 133.03125 C 246.292969 132.421875 246.230469 131.804688 246.230469 131.183594 C 246.230469 130.5625 246.292969 129.949219 246.414062 129.339844 C 246.535156 128.730469 246.714844 128.136719 246.953125 127.5625 C 247.191406 126.988281 247.480469 126.445312 247.828125 125.929688 C 248.171875 125.410156 248.5625 124.933594 249.003906 124.496094 C 249.441406 124.054688 249.921875 123.664062 250.4375 123.316406 C 250.953125 122.972656 251.5 122.683594 252.070312 122.445312 C 252.644531 122.207031 253.238281 122.027344 253.847656 121.90625 C 254.457031 121.785156 255.070312 121.722656 255.691406 121.722656 C 256.3125 121.722656 256.929688 121.785156 257.539062 121.90625 C 258.148438 122.027344 258.738281 122.207031 259.3125 122.445312 C 259.886719 122.683594 260.433594 122.972656 260.949219 123.316406 C 261.464844 123.664062 261.941406 124.054688 262.382812 124.496094 C 262.820312 124.933594 263.214844 125.410156 263.558594 125.929688 C 263.902344 126.445312 264.195312 126.988281 264.433594 127.5625 C 264.671875 128.136719 264.847656 128.730469 264.96875 129.339844 C 265.09375 129.949219 265.152344 130.5625 265.152344 131.183594 Z M 265.152344 131.183594 " fill-opacity="1" fill-rule="nonzero"/><path fill="#303030" d="M 298.433594 131.183594 C 298.433594 131.804688 298.375 132.421875 298.253906 133.03125 C 298.132812 133.636719 297.953125 134.230469 297.714844 134.804688 C 297.476562 135.378906 297.1875 135.921875 296.839844 136.441406 C 296.496094 136.957031 296.101562 137.433594 295.664062 137.875 C 295.226562 138.3125 294.746094 138.703125 294.230469 139.050781 C 293.714844 139.394531 293.167969 139.6875 292.59375 139.921875 C 292.019531 140.160156 291.429688 140.339844 290.820312 140.460938 C 290.210938 140.582031 289.597656 140.644531 288.976562 140.644531 C 288.355469 140.644531 287.738281 140.582031 287.128906 140.460938 C 286.519531 140.339844 285.929688 140.160156 285.355469 139.921875 C 284.78125 139.6875 284.234375 139.394531 283.71875 139.050781 C 283.203125 138.703125 282.726562 138.3125 282.285156 137.875 C 281.847656 137.433594 281.453125 136.957031 281.109375 136.441406 C 280.765625 135.921875 280.472656 135.378906 280.234375 134.804688 C 279.996094 134.230469 279.816406 133.636719 279.695312 133.03125 C 279.574219 132.421875 279.515625 131.804688 279.515625 131.183594 C 279.515625 130.5625 279.574219 129.949219 279.695312 129.339844 C 279.816406 128.730469 279.996094 128.136719 280.234375 127.5625 C 280.472656 126.988281 280.765625 126.445312 281.109375 125.929688 C 281.453125 125.410156 281.847656 124.933594 282.285156 124.496094 C 282.726562 124.054688 283.203125 123.664062 283.71875 123.316406 C 284.234375 122.972656 284.78125 122.683594 285.355469 122.445312 C 285.929688 122.207031 286.519531 122.027344 287.128906 121.90625 C 287.738281 121.785156 288.355469 121.722656 288.976562 121.722656 C 289.597656 121.722656 290.210938 121.785156 290.820312 121.90625 C 291.429688 122.027344 292.019531 122.207031 292.59375 122.445312 C 293.167969 122.683594 293.714844 122.972656 294.230469 123.316406 C 294.746094 123.664062 295.226562 124.054688 295.664062 124.496094 C 296.101562 124.933594 296.496094 125.410156 296.839844 125.929688 C 297.1875 126.445312 297.476562 126.988281 297.714844 127.5625 C 297.953125 128.136719 298.132812 128.730469 298.253906 129.339844 C 298.375 129.949219 298.433594 130.5625 298.433594 131.183594 Z M 298.433594 131.183594 " fill-opacity="1" fill-rule="nonzero"/><path fill="#303030" d="M 272.332031 138.363281 C 267.121094 138.363281 262.875 142.609375 262.875 147.824219 C 262.875 153.039062 267.121094 157.285156 272.332031 157.285156 C 277.550781 157.285156 281.792969 153.042969 281.792969 147.824219 C 281.792969 142.605469 277.546875 138.363281 272.332031 138.363281 Z M 272.332031 147.847656 L 272.332031 143.105469 L 272.351562 147.839844 C 272.347656 147.839844 272.335938 147.847656 272.332031 147.847656 Z M 272.332031 147.847656 " fill-opacity="1" fill-rule="nonzero"/><path fill="#303030" d="M 272.332031 124.003906 C 277.550781 124.003906 281.792969 119.757812 281.792969 114.542969 C 281.792969 109.328125 277.550781 105.082031 272.332031 105.082031 C 267.121094 105.082031 262.875 109.328125 262.875 114.542969 C 262.875 119.757812 267.117188 124.003906 272.332031 124.003906 Z M 272.332031 109.820312 L 272.351562 114.554688 C 272.347656 114.558594 272.335938 114.5625 272.332031 114.5625 Z M 272.332031 109.820312 " fill-opacity="1" fill-rule="nonzero"/><path fill="#303030" d="M 170.433594 161.578125 L 213.246094 161.578125 C 215.863281 161.578125 217.988281 159.457031 217.988281 156.835938 L 217.988281 136.730469 C 217.988281 134.109375 215.863281 131.988281 213.246094 131.988281 L 170.433594 131.988281 C 167.816406 131.988281 165.695312 134.109375 165.695312 136.730469 L 165.695312 156.835938 C 165.695312 159.457031 167.816406 161.578125 170.433594 161.578125 Z M 175.175781 141.472656 L 208.507812 141.472656 L 208.507812 152.09375 L 175.175781 152.09375 Z M 175.175781 141.472656 " fill-opacity="1" fill-rule="nonzero"/></svg>