<svg xmlns="http://www.w3.org/2000/svg" xmlns:xlink="http://www.w3.org/1999/xlink" width="512" zoomAndPan="magnify" viewBox="0 0 384 383.999986" height="512" preserveAspectRatio="xMidYMid meet" version="1.0"><defs><clipPath id="d383aca645"><path d="M 81.214844 38.398438 L 302.464844 38.398438 L 302.464844 325 L 81.214844 325 Z M 81.214844 38.398438 " clip-rule="nonzero"/></clipPath><clipPath id="d959af887c"><path d="M 97 315 L 132 315 L 132 345.898438 L 97 345.898438 Z M 97 315 " clip-rule="nonzero"/></clipPath><clipPath id="001ce3dcaf"><path d="M 252 315 L 287 315 L 287 345.898438 L 252 345.898438 Z M 252 315 " clip-rule="nonzero"/></clipPath></defs><g clip-path="url(#d383aca645)"><path fill="#303030" d="M 285.898438 324.59375 L 97.5 324.59375 C 88.5 324.59375 81.300781 317.394531 81.300781 308.394531 L 81.300781 54.601562 C 81.300781 45.601562 88.5 38.398438 97.5 38.398438 L 285.898438 38.398438 C 294.898438 38.398438 302.097656 45.601562 302.097656 54.601562 L 302.097656 308.394531 C 302.699219 317.394531 294.898438 324.59375 285.898438 324.59375 Z M 97.5 47.398438 C 93.300781 47.398438 89.699219 50.398438 89.699219 54.601562 L 89.699219 308.394531 C 89.699219 312.597656 93.300781 316.195312 97.5 316.195312 L 285.898438 316.195312 C 290.097656 316.195312 293.699219 312.597656 293.699219 308.394531 L 293.699219 54.601562 C 293.699219 50.398438 290.097656 47.398438 285.898438 47.398438 Z M 97.5 47.398438 " fill-opacity="1" fill-rule="evenodd"/></g><path fill="#303030" d="M 191.699219 164.398438 C 162.300781 164.398438 138.300781 140.398438 138.300781 110.398438 C 138.300781 81 162.300781 57 191.699219 57 C 221.097656 57 245.097656 81 245.097656 110.398438 C 245.097656 140.398438 221.097656 164.398438 191.699219 164.398438 Z M 191.699219 66 C 167.097656 66 146.699219 85.800781 146.699219 110.398438 C 146.699219 135.597656 167.097656 155.398438 191.699219 155.398438 C 216.296875 155.398438 236.699219 135.597656 236.699219 110.398438 C 236.699219 85.800781 216.296875 66 191.699219 66 Z M 191.699219 66 " fill-opacity="1" fill-rule="evenodd"/><path fill="#303030" d="M 191.699219 305.996094 C 154.5 305.996094 123.898438 275.394531 123.898438 238.195312 C 123.898438 200.398438 154.5 170.398438 191.699219 170.398438 C 228.898438 170.398438 259.5 200.398438 259.5 238.195312 C 259.5 275.394531 228.898438 305.996094 191.699219 305.996094 Z M 191.699219 178.796875 C 159.300781 178.796875 132.300781 205.199219 132.300781 238.195312 C 132.300781 270.597656 158.699219 297.597656 191.699219 297.597656 C 224.097656 297.597656 251.097656 270.597656 251.097656 238.195312 C 251.097656 205.796875 224.699219 178.796875 191.699219 178.796875 Z M 191.699219 178.796875 " fill-opacity="1" fill-rule="evenodd"/><path fill="#303030" d="M 191.699219 143.398438 C 173.699219 143.398438 158.699219 128.398438 158.699219 110.398438 C 158.699219 92.398438 173.699219 77.398438 191.699219 77.398438 C 209.699219 77.398438 224.699219 92.398438 224.699219 110.398438 C 224.699219 128.398438 209.699219 143.398438 191.699219 143.398438 Z M 191.699219 86.398438 C 178.5 86.398438 167.699219 97.199219 167.699219 110.398438 C 167.699219 123.597656 178.5 134.398438 191.699219 134.398438 C 204.898438 134.398438 215.699219 123.597656 215.699219 110.398438 C 215.699219 97.199219 204.898438 86.398438 191.699219 86.398438 Z M 191.699219 86.398438 " fill-opacity="1" fill-rule="evenodd"/><path fill="#303030" d="M 191.699219 279.597656 C 168.898438 279.597656 150.898438 260.996094 150.898438 238.195312 C 150.898438 215.996094 169.5 197.398438 191.699219 197.398438 C 213.898438 197.398438 232.5 215.996094 232.5 238.195312 C 232.5 260.996094 214.5 279.597656 191.699219 279.597656 Z M 191.699219 205.796875 C 173.699219 205.796875 159.300781 220.195312 159.300781 238.195312 C 159.300781 255.597656 173.699219 270.597656 191.699219 270.597656 C 209.699219 270.597656 224.097656 255.597656 224.097656 238.195312 C 224.097656 220.195312 209.699219 205.796875 191.699219 205.796875 Z M 191.699219 205.796875 " fill-opacity="1" fill-rule="evenodd"/><path fill="#303030" d="M 111.300781 69 L 100.5 69 C 97.5 69 95.699219 67.199219 95.699219 64.800781 C 95.699219 62.398438 97.5 60 100.5 60 L 111.300781 60 C 113.699219 60 116.101562 62.398438 116.101562 64.800781 C 116.101562 67.199219 113.699219 69 111.300781 69 Z M 111.300781 69 " fill-opacity="1" fill-rule="evenodd"/><path fill="#303030" d="M 111.300781 302.996094 L 100.5 302.996094 C 97.5 302.996094 95.699219 300.597656 95.699219 298.195312 C 95.699219 295.796875 97.5 293.996094 100.5 293.996094 L 111.300781 293.996094 C 113.699219 293.996094 116.101562 295.796875 116.101562 298.195312 C 116.101562 300.597656 113.699219 302.996094 111.300781 302.996094 Z M 111.300781 302.996094 " fill-opacity="1" fill-rule="evenodd"/><path fill="#303030" d="M 282.898438 69 L 272.097656 69 C 269.699219 69 267.296875 67.199219 267.296875 64.800781 C 267.296875 62.398438 269.699219 60 272.097656 60 L 282.898438 60 C 285.898438 60 287.699219 62.398438 287.699219 64.800781 C 287.699219 67.199219 285.898438 69 282.898438 69 Z M 282.898438 69 " fill-opacity="1" fill-rule="evenodd"/><path fill="#303030" d="M 282.898438 302.996094 L 272.097656 302.996094 C 269.699219 302.996094 267.296875 300.597656 267.296875 298.195312 C 267.296875 295.796875 269.699219 293.996094 272.097656 293.996094 L 282.898438 293.996094 C 285.898438 293.996094 287.699219 295.796875 287.699219 298.195312 C 287.699219 300.597656 285.898438 302.996094 282.898438 302.996094 Z M 282.898438 302.996094 " fill-opacity="1" fill-rule="evenodd"/><g clip-path="url(#d959af887c)"><path fill="#303030" d="M 126.898438 345.59375 L 101.699219 345.59375 C 99.300781 345.59375 97.5 343.796875 97.5 341.394531 L 97.5 320.394531 C 97.5 317.996094 99.300781 315.597656 101.699219 315.597656 L 126.898438 315.597656 C 129.300781 315.597656 131.699219 317.996094 131.699219 320.394531 L 131.699219 341.394531 C 131.101562 343.796875 129.300781 345.59375 126.898438 345.59375 Z M 105.902344 336.59375 L 122.699219 336.59375 L 122.699219 324.59375 L 105.902344 324.59375 Z M 105.902344 336.59375 " fill-opacity="1" fill-rule="evenodd"/></g><g clip-path="url(#001ce3dcaf)"><path fill="#303030" d="M 282.296875 345.59375 L 257.097656 345.59375 C 254.699219 345.59375 252.296875 343.796875 252.296875 341.394531 L 252.296875 320.394531 C 252.296875 317.996094 254.699219 315.597656 257.097656 315.597656 L 282.296875 315.597656 C 284.699219 315.597656 286.496094 317.996094 286.496094 320.394531 L 286.496094 341.394531 C 286.496094 343.796875 284.699219 345.59375 282.296875 345.59375 Z M 261.296875 336.59375 L 278.097656 336.59375 L 278.097656 324.59375 L 261.296875 324.59375 Z M 261.296875 336.59375 " fill-opacity="1" fill-rule="evenodd"/></g></svg>