<svg xmlns="http://www.w3.org/2000/svg" xmlns:xlink="http://www.w3.org/1999/xlink" width="512" zoomAndPan="magnify" viewBox="0 0 384 383.999986" height="512" preserveAspectRatio="xMidYMid meet" version="1.0"><defs><clipPath id="2c23773e57"><path d="M 39 79.367188 L 345 79.367188 L 345 311 L 39 311 Z M 39 79.367188 " clip-rule="nonzero"/></clipPath></defs><path fill="#303030" d="M 201.140625 170.800781 C 199.246094 170.800781 197.351562 170.894531 195.464844 171.082031 C 193.578125 171.265625 191.703125 171.542969 189.84375 171.914062 C 187.984375 172.285156 186.144531 172.746094 184.332031 173.296875 C 182.515625 173.847656 180.734375 174.484375 178.980469 175.210938 C 177.226562 175.9375 175.515625 176.746094 173.84375 177.640625 C 172.171875 178.535156 170.546875 179.507812 168.96875 180.5625 C 167.390625 181.613281 165.871094 182.742188 164.40625 183.945312 C 162.9375 185.148438 161.535156 186.421875 160.195312 187.761719 C 158.851562 189.105469 157.582031 190.507812 156.378906 191.972656 C 155.175781 193.441406 154.046875 194.960938 152.992188 196.539062 C 151.9375 198.113281 150.964844 199.738281 150.070312 201.414062 C 149.175781 203.085938 148.367188 204.796875 147.640625 206.550781 C 146.914062 208.300781 146.277344 210.085938 145.726562 211.898438 C 145.175781 213.714844 144.714844 215.554688 144.34375 217.414062 C 143.976562 219.273438 143.699219 221.148438 143.511719 223.035156 C 143.324219 224.921875 143.234375 226.8125 143.234375 228.710938 C 143.234375 230.605469 143.324219 232.5 143.511719 234.386719 C 143.699219 236.273438 143.976562 238.148438 144.34375 240.007812 C 144.714844 241.867188 145.175781 243.703125 145.726562 245.519531 C 146.277344 247.335938 146.914062 249.117188 147.640625 250.871094 C 148.367188 252.621094 149.175781 254.335938 150.070312 256.007812 C 150.964844 257.679688 151.9375 259.304688 152.992188 260.882812 C 154.046875 262.460938 155.175781 263.980469 156.378906 265.445312 C 157.582031 266.914062 158.851562 268.316406 160.195312 269.65625 C 161.535156 271 162.9375 272.269531 164.40625 273.472656 C 165.871094 274.675781 167.390625 275.804688 168.96875 276.859375 C 170.546875 277.914062 172.171875 278.886719 173.84375 279.78125 C 175.515625 280.675781 177.226562 281.484375 178.980469 282.210938 C 180.734375 282.9375 182.515625 283.574219 184.332031 284.125 C 186.144531 284.675781 187.984375 285.136719 189.84375 285.503906 C 191.703125 285.875 193.578125 286.152344 195.464844 286.339844 C 197.351562 286.523438 199.246094 286.617188 201.140625 286.617188 C 203.039062 286.617188 204.929688 286.523438 206.816406 286.339844 C 208.703125 286.152344 210.578125 285.875 212.4375 285.503906 C 214.296875 285.136719 216.136719 284.675781 217.949219 284.125 C 219.765625 283.574219 221.550781 282.9375 223.300781 282.210938 C 225.054688 281.484375 226.765625 280.675781 228.4375 279.78125 C 230.113281 278.886719 231.734375 277.914062 233.3125 276.859375 C 234.890625 275.804688 236.410156 274.675781 237.878906 273.472656 C 239.34375 272.269531 240.746094 271 242.089844 269.65625 C 243.429688 268.316406 244.703125 266.914062 245.90625 265.445312 C 247.109375 263.980469 248.234375 262.460938 249.289062 260.882812 C 250.34375 259.304688 251.316406 257.679688 252.210938 256.007812 C 253.105469 254.335938 253.914062 252.621094 254.640625 250.871094 C 255.367188 249.117188 256.003906 247.335938 256.554688 245.519531 C 257.105469 243.703125 257.566406 241.867188 257.9375 240.007812 C 258.304688 238.148438 258.585938 236.273438 258.769531 234.386719 C 258.957031 232.5 259.050781 230.605469 259.050781 228.710938 C 259.046875 226.8125 258.953125 224.921875 258.765625 223.035156 C 258.578125 221.148438 258.296875 219.277344 257.925781 217.417969 C 257.554688 215.558594 257.09375 213.722656 256.539062 211.90625 C 255.988281 210.09375 255.351562 208.3125 254.625 206.558594 C 253.898438 204.808594 253.085938 203.097656 252.191406 201.425781 C 251.296875 199.753906 250.324219 198.128906 249.269531 196.554688 C 248.214844 194.976562 247.085938 193.457031 245.882812 191.992188 C 244.679688 190.527344 243.410156 189.121094 242.070312 187.78125 C 240.726562 186.441406 239.324219 185.167969 237.859375 183.964844 C 236.394531 182.765625 234.875 181.636719 233.296875 180.582031 C 231.722656 179.527344 230.097656 178.554688 228.425781 177.660156 C 226.753906 176.765625 225.042969 175.953125 223.292969 175.226562 C 221.539062 174.5 219.757812 173.863281 217.945312 173.308594 C 216.128906 172.757812 214.292969 172.296875 212.433594 171.925781 C 210.574219 171.554688 208.703125 171.273438 206.816406 171.085938 C 204.929688 170.898438 203.035156 170.804688 201.140625 170.800781 Z M 201.140625 274.425781 C 199.644531 274.425781 198.148438 274.355469 196.660156 274.207031 C 195.167969 274.058594 193.691406 273.839844 192.222656 273.546875 C 190.753906 273.257812 189.304688 272.894531 187.871094 272.457031 C 186.4375 272.023438 185.027344 271.519531 183.644531 270.945312 C 182.261719 270.375 180.910156 269.734375 179.589844 269.027344 C 178.269531 268.324219 176.988281 267.554688 175.742188 266.722656 C 174.496094 265.890625 173.296875 265 172.136719 264.050781 C 170.980469 263.101562 169.875 262.09375 168.8125 261.035156 C 167.753906 259.976562 166.75 258.871094 165.800781 257.710938 C 164.851562 256.554688 163.960938 255.355469 163.128906 254.109375 C 162.296875 252.863281 161.527344 251.582031 160.824219 250.261719 C 160.117188 248.941406 159.476562 247.589844 158.902344 246.207031 C 158.332031 244.820312 157.828125 243.414062 157.394531 241.980469 C 156.957031 240.546875 156.59375 239.097656 156.300781 237.628906 C 156.011719 236.160156 155.792969 234.679688 155.644531 233.191406 C 155.496094 231.699219 155.425781 230.207031 155.425781 228.710938 C 155.425781 227.210938 155.496094 225.71875 155.644531 224.230469 C 155.792969 222.738281 156.011719 221.257812 156.300781 219.792969 C 156.59375 218.324219 156.957031 216.871094 157.394531 215.4375 C 157.828125 214.007812 158.332031 212.597656 158.902344 211.214844 C 159.476562 209.832031 160.117188 208.480469 160.824219 207.160156 C 161.527344 205.839844 162.296875 204.554688 163.128906 203.3125 C 163.960938 202.066406 164.851562 200.863281 165.800781 199.707031 C 166.75 198.550781 167.753906 197.441406 168.8125 196.382812 C 169.875 195.324219 170.980469 194.320312 172.136719 193.371094 C 173.296875 192.421875 174.496094 191.53125 175.742188 190.699219 C 176.988281 189.867188 178.269531 189.097656 179.589844 188.390625 C 180.910156 187.6875 182.261719 187.046875 183.644531 186.472656 C 185.027344 185.898438 186.4375 185.394531 187.871094 184.960938 C 189.304688 184.527344 190.753906 184.164062 192.222656 183.871094 C 193.691406 183.578125 195.171875 183.359375 196.660156 183.214844 C 198.148438 183.066406 199.644531 182.992188 201.140625 182.992188 C 202.636719 182.992188 204.132812 183.066406 205.621094 183.214844 C 207.113281 183.359375 208.589844 183.578125 210.058594 183.871094 C 211.527344 184.164062 212.980469 184.527344 214.410156 184.960938 C 215.84375 185.394531 217.253906 185.898438 218.636719 186.472656 C 220.019531 187.046875 221.371094 187.6875 222.691406 188.390625 C 224.011719 189.097656 225.296875 189.867188 226.539062 190.699219 C 227.785156 191.53125 228.984375 192.421875 230.144531 193.371094 C 231.300781 194.320312 232.410156 195.324219 233.46875 196.382812 C 234.527344 197.441406 235.53125 198.550781 236.480469 199.707031 C 237.429688 200.863281 238.320312 202.066406 239.152344 203.3125 C 239.984375 204.554688 240.753906 205.839844 241.460938 207.160156 C 242.164062 208.480469 242.804688 209.832031 243.378906 211.214844 C 243.949219 212.597656 244.453125 214.007812 244.890625 215.4375 C 245.324219 216.871094 245.6875 218.324219 245.980469 219.792969 C 246.273438 221.257812 246.492188 222.738281 246.636719 224.230469 C 246.785156 225.71875 246.859375 227.210938 246.859375 228.710938 C 246.855469 230.207031 246.78125 231.699219 246.632812 233.191406 C 246.484375 234.679688 246.265625 236.15625 245.972656 237.625 C 245.679688 239.09375 245.3125 240.542969 244.878906 241.976562 C 244.441406 243.40625 243.9375 244.816406 243.363281 246.199219 C 242.792969 247.582031 242.152344 248.929688 241.445312 250.25 C 240.738281 251.570312 239.96875 252.851562 239.136719 254.097656 C 238.304688 255.339844 237.414062 256.542969 236.464844 257.699219 C 235.515625 258.855469 234.511719 259.964844 233.453125 261.023438 C 232.394531 262.082031 231.285156 263.085938 230.128906 264.035156 C 228.972656 264.984375 227.773438 265.875 226.527344 266.707031 C 225.285156 267.539062 224 268.308594 222.683594 269.015625 C 221.363281 269.71875 220.011719 270.359375 218.628906 270.933594 C 217.246094 271.507812 215.839844 272.011719 214.40625 272.449219 C 212.972656 272.882812 211.523438 273.246094 210.054688 273.539062 C 208.589844 273.832031 207.109375 274.054688 205.621094 274.203125 C 204.132812 274.351562 202.636719 274.425781 201.140625 274.425781 Z M 201.140625 274.425781 " fill-opacity="1" fill-rule="nonzero"/><g clip-path="url(#2c23773e57)"><path fill="#303030" d="M 326.101562 122.039062 L 320.003906 122.039062 L 320.003906 109.847656 C 320.003906 109.246094 319.972656 108.648438 319.914062 108.054688 C 319.855469 107.457031 319.765625 106.867188 319.648438 106.28125 C 319.53125 105.691406 319.386719 105.113281 319.214844 104.539062 C 319.039062 103.96875 318.835938 103.40625 318.609375 102.851562 C 318.378906 102.296875 318.121094 101.757812 317.839844 101.230469 C 317.558594 100.703125 317.25 100.1875 316.917969 99.691406 C 316.585938 99.195312 316.226562 98.714844 315.847656 98.25 C 315.46875 97.789062 315.066406 97.34375 314.644531 96.921875 C 314.21875 96.496094 313.777344 96.097656 313.3125 95.714844 C 312.851562 95.335938 312.371094 94.980469 311.875 94.648438 C 311.375 94.316406 310.863281 94.007812 310.335938 93.726562 C 309.804688 93.441406 309.265625 93.1875 308.714844 92.957031 C 308.160156 92.726562 307.597656 92.527344 307.023438 92.351562 C 306.453125 92.175781 305.871094 92.03125 305.285156 91.914062 C 304.695312 91.796875 304.105469 91.707031 303.511719 91.648438 C 302.914062 91.589844 302.316406 91.558594 301.71875 91.558594 L 258.703125 91.558594 L 251.816406 81.921875 C 251.246094 81.121094 250.523438 80.496094 249.648438 80.042969 C 248.773438 79.59375 247.84375 79.367188 246.859375 79.367188 L 149.328125 79.367188 C 148.34375 79.367188 147.414062 79.59375 146.539062 80.042969 C 145.664062 80.496094 144.941406 81.121094 144.371094 81.921875 L 115.714844 122.039062 L 57.894531 122.039062 C 57.296875 122.039062 56.699219 122.066406 56.101562 122.128906 C 55.507812 122.1875 54.914062 122.273438 54.328125 122.390625 C 53.742188 122.507812 53.160156 122.65625 52.589844 122.828125 C 52.015625 123.003906 51.453125 123.207031 50.898438 123.433594 C 50.347656 123.664062 49.804688 123.921875 49.277344 124.203125 C 48.75 124.484375 48.238281 124.792969 47.738281 125.125 C 47.242188 125.457031 46.761719 125.816406 46.300781 126.195312 C 45.835938 126.574219 45.394531 126.976562 44.96875 127.398438 C 44.546875 127.824219 44.144531 128.265625 43.765625 128.730469 C 43.386719 129.191406 43.027344 129.671875 42.695312 130.167969 C 42.363281 130.667969 42.054688 131.179688 41.773438 131.707031 C 41.492188 132.234375 41.234375 132.777344 41.003906 133.328125 C 40.777344 133.882812 40.574219 134.445312 40.398438 135.019531 C 40.226562 135.589844 40.078125 136.171875 39.960938 136.757812 C 39.84375 137.34375 39.757812 137.9375 39.699219 138.53125 C 39.636719 139.128906 39.609375 139.726562 39.609375 140.324219 L 39.609375 286.617188 C 39.609375 287.21875 39.636719 287.8125 39.699219 288.410156 C 39.757812 289.003906 39.84375 289.597656 39.960938 290.183594 C 40.078125 290.773438 40.226562 291.351562 40.398438 291.925781 C 40.574219 292.496094 40.777344 293.058594 41.003906 293.613281 C 41.234375 294.167969 41.492188 294.707031 41.773438 295.234375 C 42.054688 295.761719 42.363281 296.273438 42.695312 296.773438 C 43.027344 297.269531 43.386719 297.75 43.765625 298.214844 C 44.144531 298.675781 44.546875 299.121094 44.96875 299.542969 C 45.394531 299.964844 45.835938 300.367188 46.300781 300.746094 C 46.761719 301.128906 47.242188 301.484375 47.738281 301.816406 C 48.238281 302.148438 48.75 302.457031 49.277344 302.738281 C 49.804688 303.023438 50.347656 303.277344 50.898438 303.507812 C 51.453125 303.738281 52.015625 303.9375 52.589844 304.113281 C 53.160156 304.289062 53.742188 304.433594 54.328125 304.550781 C 54.914062 304.667969 55.507812 304.753906 56.101562 304.816406 C 56.699219 304.875 57.296875 304.90625 57.894531 304.90625 L 170.179688 304.90625 C 172.628906 305.910156 175.125 306.792969 177.660156 307.554688 C 180.195312 308.3125 182.765625 308.949219 185.363281 309.460938 C 187.960938 309.972656 190.578125 310.359375 193.214844 310.613281 C 195.851562 310.871094 198.492188 311 201.140625 311 C 203.789062 311 206.429688 310.871094 209.066406 310.613281 C 211.703125 310.359375 214.320312 309.972656 216.917969 309.460938 C 219.515625 308.949219 222.085938 308.3125 224.621094 307.554688 C 227.160156 306.792969 229.652344 305.910156 232.101562 304.90625 L 326.101562 304.90625 C 326.699219 304.902344 327.296875 304.875 327.890625 304.816406 C 328.488281 304.753906 329.078125 304.667969 329.667969 304.550781 C 330.253906 304.433594 330.832031 304.289062 331.40625 304.113281 C 331.980469 303.9375 332.542969 303.738281 333.09375 303.507812 C 333.648438 303.277344 334.1875 303.023438 334.71875 302.738281 C 335.246094 302.457031 335.757812 302.148438 336.253906 301.816406 C 336.753906 301.484375 337.234375 301.128906 337.695312 300.746094 C 338.160156 300.367188 338.601562 299.964844 339.027344 299.542969 C 339.449219 299.121094 339.851562 298.675781 340.230469 298.214844 C 340.609375 297.75 340.964844 297.269531 341.300781 296.773438 C 341.632812 296.273438 341.941406 295.761719 342.222656 295.234375 C 342.503906 294.707031 342.761719 294.167969 342.988281 293.613281 C 343.21875 293.058594 343.421875 292.496094 343.59375 291.925781 C 343.769531 291.351562 343.914062 290.773438 344.03125 290.183594 C 344.148438 289.597656 344.238281 289.003906 344.296875 288.410156 C 344.355469 287.8125 344.386719 287.21875 344.386719 286.617188 L 344.386719 140.324219 C 344.386719 139.726562 344.355469 139.128906 344.296875 138.53125 C 344.238281 137.9375 344.148438 137.34375 344.03125 136.757812 C 343.914062 136.171875 343.769531 135.589844 343.59375 135.019531 C 343.421875 134.445312 343.21875 133.882812 342.988281 133.328125 C 342.761719 132.777344 342.503906 132.234375 342.222656 131.707031 C 341.941406 131.179688 341.632812 130.667969 341.300781 130.167969 C 340.964844 129.671875 340.609375 129.191406 340.230469 128.730469 C 339.851562 128.265625 339.449219 127.824219 339.027344 127.398438 C 338.601562 126.976562 338.160156 126.574219 337.695312 126.195312 C 337.234375 125.816406 336.753906 125.457031 336.253906 125.125 C 335.757812 124.792969 335.246094 124.484375 334.71875 124.203125 C 334.1875 123.921875 333.648438 123.664062 333.09375 123.433594 C 332.542969 123.207031 331.980469 123.003906 331.40625 122.828125 C 330.832031 122.65625 330.253906 122.507812 329.667969 122.390625 C 329.078125 122.273438 328.488281 122.1875 327.890625 122.128906 C 327.296875 122.066406 326.699219 122.039062 326.101562 122.039062 Z M 301.71875 103.75 C 302.117188 103.75 302.515625 103.789062 302.90625 103.867188 C 303.300781 103.945312 303.679688 104.0625 304.050781 104.214844 C 304.417969 104.371094 304.769531 104.558594 305.101562 104.78125 C 305.4375 105.003906 305.742188 105.253906 306.027344 105.539062 C 306.308594 105.820312 306.5625 106.128906 306.785156 106.460938 C 307.007812 106.792969 307.195312 107.144531 307.347656 107.515625 C 307.5 107.882812 307.617188 108.265625 307.695312 108.65625 C 307.773438 109.050781 307.8125 109.445312 307.8125 109.847656 L 307.8125 122.039062 L 280.472656 122.039062 L 267.410156 103.75 Z M 152.464844 91.558594 L 243.722656 91.558594 L 265.492188 122.039062 L 130.695312 122.039062 Z M 82.277344 286.617188 C 82.277344 287.019531 82.238281 287.414062 82.160156 287.808594 C 82.082031 288.199219 81.964844 288.582031 81.8125 288.949219 C 81.65625 289.320312 81.46875 289.671875 81.246094 290.003906 C 81.027344 290.335938 80.773438 290.644531 80.488281 290.925781 C 80.207031 291.210938 79.898438 291.460938 79.566406 291.683594 C 79.234375 291.90625 78.882812 292.09375 78.511719 292.25 C 78.144531 292.402344 77.761719 292.515625 77.371094 292.59375 C 76.976562 292.675781 76.582031 292.714844 76.179688 292.714844 L 57.894531 292.714844 C 57.496094 292.714844 57.097656 292.675781 56.707031 292.59375 C 56.3125 292.515625 55.933594 292.402344 55.5625 292.25 C 55.195312 292.09375 54.84375 291.90625 54.507812 291.683594 C 54.175781 291.460938 53.871094 291.210938 53.585938 290.925781 C 53.304688 290.644531 53.050781 290.335938 52.828125 290.003906 C 52.605469 289.671875 52.417969 289.320312 52.265625 288.949219 C 52.113281 288.582031 51.996094 288.199219 51.917969 287.808594 C 51.839844 287.414062 51.800781 287.019531 51.800781 286.617188 L 51.800781 140.324219 C 51.800781 139.925781 51.839844 139.527344 51.917969 139.136719 C 51.996094 138.742188 52.113281 138.363281 52.265625 137.992188 C 52.417969 137.621094 52.605469 137.273438 52.828125 136.9375 C 53.050781 136.605469 53.304688 136.296875 53.585938 136.015625 C 53.871094 135.734375 54.175781 135.480469 54.507812 135.257812 C 54.84375 135.035156 55.195312 134.847656 55.5625 134.695312 C 55.933594 134.539062 56.3125 134.425781 56.707031 134.347656 C 57.097656 134.269531 57.496094 134.230469 57.894531 134.230469 L 76.179688 134.230469 C 76.582031 134.230469 76.976562 134.269531 77.371094 134.347656 C 77.761719 134.425781 78.144531 134.539062 78.511719 134.695312 C 78.882812 134.847656 79.234375 135.035156 79.566406 135.257812 C 79.898438 135.480469 80.207031 135.734375 80.488281 136.015625 C 80.773438 136.296875 81.027344 136.605469 81.246094 136.9375 C 81.46875 137.273438 81.65625 137.621094 81.8125 137.992188 C 81.964844 138.363281 82.082031 138.742188 82.160156 139.136719 C 82.238281 139.527344 82.277344 139.925781 82.277344 140.324219 Z M 201.140625 298.808594 C 199.992188 298.808594 198.847656 298.78125 197.703125 298.726562 C 196.554688 298.667969 195.410156 298.585938 194.269531 298.472656 C 193.128906 298.359375 191.988281 298.21875 190.855469 298.050781 C 189.71875 297.882812 188.589844 297.6875 187.464844 297.460938 C 186.339844 297.238281 185.222656 296.988281 184.109375 296.707031 C 182.996094 296.429688 181.890625 296.125 180.792969 295.789062 C 179.695312 295.457031 178.605469 295.097656 177.523438 294.710938 C 176.445312 294.324219 175.375 293.914062 174.316406 293.472656 C 173.253906 293.035156 172.207031 292.570312 171.167969 292.078125 C 170.132812 291.589844 169.109375 291.074219 168.097656 290.53125 C 167.085938 289.992188 166.085938 289.425781 165.101562 288.835938 C 164.117188 288.246094 163.148438 287.632812 162.195312 286.996094 C 161.242188 286.359375 160.304688 285.699219 159.382812 285.015625 C 158.460938 284.332031 157.558594 283.625 156.671875 282.898438 C 155.785156 282.167969 154.914062 281.421875 154.066406 280.648438 C 153.214844 279.878906 152.382812 279.089844 151.574219 278.277344 C 150.761719 277.464844 149.972656 276.636719 149.199219 275.785156 C 148.429688 274.9375 147.679688 274.066406 146.953125 273.179688 C 146.226562 272.292969 145.519531 271.390625 144.835938 270.46875 C 144.152344 269.546875 143.492188 268.609375 142.855469 267.65625 C 142.21875 266.703125 141.605469 265.730469 141.015625 264.75 C 140.425781 263.765625 139.859375 262.765625 139.320312 261.753906 C 138.777344 260.742188 138.261719 259.71875 137.773438 258.679688 C 137.28125 257.644531 136.816406 256.597656 136.378906 255.535156 C 135.9375 254.476562 135.527344 253.40625 135.140625 252.324219 C 134.753906 251.246094 134.394531 250.15625 134.058594 249.058594 C 133.726562 247.960938 133.421875 246.855469 133.140625 245.742188 C 132.863281 244.628906 132.613281 243.511719 132.390625 242.386719 C 132.164062 241.261719 131.96875 240.128906 131.800781 238.996094 C 131.632812 237.859375 131.492188 236.722656 131.378906 235.582031 C 131.265625 234.4375 131.183594 233.296875 131.125 232.148438 C 131.070312 231.003906 131.042969 229.855469 131.042969 228.710938 C 131.042969 227.5625 131.070312 226.417969 131.125 225.269531 C 131.183594 224.125 131.265625 222.980469 131.378906 221.839844 C 131.492188 220.699219 131.632812 219.558594 131.800781 218.425781 C 131.96875 217.289062 132.164062 216.160156 132.390625 215.035156 C 132.613281 213.910156 132.863281 212.789062 133.140625 211.675781 C 133.421875 210.566406 133.726562 209.460938 134.058594 208.363281 C 134.394531 207.261719 134.753906 206.175781 135.140625 205.09375 C 135.527344 204.015625 135.9375 202.945312 136.378906 201.882812 C 136.816406 200.824219 137.28125 199.777344 137.773438 198.738281 C 138.261719 197.703125 138.777344 196.675781 139.320312 195.664062 C 139.859375 194.652344 140.425781 193.65625 141.015625 192.671875 C 141.605469 191.6875 142.21875 190.71875 142.855469 189.765625 C 143.492188 188.8125 144.152344 187.875 144.835938 186.953125 C 145.519531 186.03125 146.226562 185.125 146.953125 184.238281 C 147.679688 183.351562 148.429688 182.484375 149.199219 181.632812 C 149.972656 180.785156 150.761719 179.953125 151.574219 179.140625 C 152.382812 178.332031 153.214844 177.539062 154.066406 176.769531 C 154.914062 176 155.785156 175.25 156.671875 174.523438 C 157.558594 173.792969 158.460938 173.089844 159.382812 172.40625 C 160.304688 171.722656 161.242188 171.0625 162.195312 170.425781 C 163.148438 169.789062 164.117188 169.171875 165.101562 168.585938 C 166.085938 167.996094 167.085938 167.429688 168.097656 166.886719 C 169.109375 166.347656 170.132812 165.832031 171.167969 165.339844 C 172.207031 164.851562 173.253906 164.386719 174.316406 163.945312 C 175.375 163.507812 176.445312 163.09375 177.523438 162.707031 C 178.605469 162.320312 179.695312 161.960938 180.792969 161.628906 C 181.890625 161.296875 182.996094 160.992188 184.109375 160.710938 C 185.222656 160.433594 186.339844 160.183594 187.464844 159.957031 C 188.589844 159.734375 189.71875 159.539062 190.855469 159.371094 C 191.988281 159.203125 193.128906 159.0625 194.269531 158.949219 C 195.410156 158.835938 196.554688 158.75 197.703125 158.695312 C 198.847656 158.640625 199.992188 158.609375 201.140625 158.609375 C 202.289062 158.609375 203.433594 158.640625 204.582031 158.695312 C 205.726562 158.75 206.871094 158.835938 208.011719 158.949219 C 209.152344 159.0625 210.292969 159.203125 211.425781 159.371094 C 212.5625 159.539062 213.691406 159.734375 214.816406 159.957031 C 215.941406 160.183594 217.0625 160.433594 218.171875 160.710938 C 219.285156 160.992188 220.390625 161.296875 221.488281 161.628906 C 222.585938 161.960938 223.675781 162.320312 224.757812 162.707031 C 225.835938 163.09375 226.90625 163.507812 227.96875 163.945312 C 229.027344 164.386719 230.074219 164.851562 231.113281 165.339844 C 232.148438 165.832031 233.171875 166.347656 234.1875 166.886719 C 235.199219 167.429688 236.195312 167.996094 237.179688 168.585938 C 238.164062 169.171875 239.132812 169.789062 240.085938 170.425781 C 241.039062 171.0625 241.976562 171.722656 242.898438 172.40625 C 243.820312 173.089844 244.726562 173.792969 245.613281 174.523438 C 246.5 175.25 247.367188 176 248.214844 176.769531 C 249.066406 177.539062 249.898438 178.332031 250.707031 179.140625 C 251.519531 179.953125 252.3125 180.785156 253.082031 181.632812 C 253.851562 182.484375 254.601562 183.351562 255.328125 184.238281 C 256.054688 185.125 256.761719 186.03125 257.445312 186.953125 C 258.128906 187.875 258.789062 188.8125 259.425781 189.765625 C 260.0625 190.71875 260.675781 191.6875 261.265625 192.671875 C 261.855469 193.65625 262.421875 194.652344 262.964844 195.664062 C 263.503906 196.675781 264.019531 197.703125 264.511719 198.738281 C 265 199.777344 265.464844 200.824219 265.902344 201.882812 C 266.34375 202.945312 266.757812 204.015625 267.140625 205.09375 C 267.527344 206.175781 267.890625 207.261719 268.222656 208.363281 C 268.554688 209.460938 268.859375 210.566406 269.140625 211.675781 C 269.417969 212.789062 269.667969 213.910156 269.894531 215.035156 C 270.117188 216.160156 270.3125 217.289062 270.480469 218.425781 C 270.648438 219.558594 270.789062 220.699219 270.902344 221.839844 C 271.015625 222.980469 271.097656 224.125 271.15625 225.269531 C 271.210938 226.417969 271.242188 227.5625 271.242188 228.710938 C 271.238281 229.855469 271.210938 231.003906 271.152344 232.148438 C 271.09375 233.292969 271.007812 234.4375 270.894531 235.578125 C 270.78125 236.71875 270.640625 237.859375 270.472656 238.992188 C 270.300781 240.125 270.105469 241.253906 269.878906 242.378906 C 269.65625 243.503906 269.402344 244.625 269.125 245.734375 C 268.84375 246.847656 268.539062 247.953125 268.203125 249.050781 C 267.871094 250.148438 267.511719 251.234375 267.121094 252.316406 C 266.734375 253.394531 266.324219 254.464844 265.882812 255.523438 C 265.445312 256.582031 264.976562 257.628906 264.488281 258.667969 C 263.996094 259.703125 263.480469 260.726562 262.941406 261.738281 C 262.398438 262.75 261.832031 263.746094 261.242188 264.730469 C 260.652344 265.714844 260.039062 266.683594 259.402344 267.636719 C 258.765625 268.589844 258.105469 269.527344 257.421875 270.449219 C 256.738281 271.367188 256.03125 272.273438 255.304688 273.160156 C 254.578125 274.046875 253.828125 274.914062 253.058594 275.761719 C 252.285156 276.613281 251.496094 277.445312 250.683594 278.253906 C 249.875 279.066406 249.042969 279.855469 248.195312 280.625 C 247.34375 281.398438 246.476562 282.144531 245.589844 282.875 C 244.703125 283.601562 243.800781 284.304688 242.878906 284.988281 C 241.957031 285.671875 241.019531 286.332031 240.066406 286.972656 C 239.113281 287.609375 238.144531 288.222656 237.160156 288.8125 C 236.179688 289.402344 235.179688 289.96875 234.167969 290.507812 C 233.160156 291.050781 232.132812 291.566406 231.097656 292.054688 C 230.0625 292.546875 229.015625 293.011719 227.953125 293.453125 C 226.894531 293.890625 225.824219 294.304688 224.746094 294.691406 C 223.667969 295.078125 222.578125 295.4375 221.480469 295.773438 C 220.382812 296.105469 219.277344 296.414062 218.167969 296.691406 C 217.054688 296.972656 215.9375 297.222656 214.8125 297.449219 C 213.6875 297.675781 212.558594 297.871094 211.421875 298.039062 C 210.289062 298.210938 209.152344 298.351562 208.007812 298.464844 C 206.867188 298.578125 205.726562 298.664062 204.578125 298.722656 C 203.433594 298.777344 202.289062 298.808594 201.140625 298.808594 Z M 332.195312 286.617188 C 332.195312 287.019531 332.15625 287.414062 332.078125 287.808594 C 332 288.199219 331.882812 288.582031 331.730469 288.949219 C 331.578125 289.320312 331.390625 289.671875 331.167969 290.003906 C 330.945312 290.335938 330.691406 290.644531 330.410156 290.925781 C 330.125 291.210938 329.816406 291.460938 329.484375 291.683594 C 329.152344 291.90625 328.800781 292.09375 328.433594 292.25 C 328.0625 292.402344 327.683594 292.515625 327.289062 292.59375 C 326.898438 292.675781 326.5 292.714844 326.101562 292.714844 L 252.75 292.714844 C 253.847656 291.832031 254.921875 290.917969 255.972656 289.980469 C 257.019531 289.042969 258.046875 288.078125 259.046875 287.085938 C 260.046875 286.097656 261.023438 285.082031 261.96875 284.039062 C 262.917969 283 263.839844 281.933594 264.734375 280.847656 C 265.628906 279.757812 266.492188 278.648438 267.328125 277.515625 C 268.167969 276.382812 268.972656 275.230469 269.75 274.054688 C 270.527344 272.878906 271.273438 271.6875 271.992188 270.476562 C 272.707031 269.261719 273.390625 268.03125 274.046875 266.785156 C 274.699219 265.539062 275.320312 264.273438 275.90625 262.996094 C 276.496094 261.714844 277.050781 260.421875 277.574219 259.113281 C 278.09375 257.804688 278.582031 256.484375 279.035156 255.152344 C 279.492188 253.820312 279.910156 252.476562 280.296875 251.121094 C 280.679688 249.765625 281.03125 248.402344 281.34375 247.03125 C 281.660156 245.65625 281.941406 244.277344 282.183594 242.890625 C 282.429688 241.503906 282.636719 240.113281 282.808594 238.714844 C 282.984375 237.316406 283.121094 235.914062 283.21875 234.511719 C 283.320312 233.105469 283.386719 231.699219 283.414062 230.292969 C 283.441406 228.882812 283.4375 227.476562 283.390625 226.070312 C 283.347656 224.660156 283.269531 223.253906 283.152344 221.851562 C 283.035156 220.449219 282.886719 219.050781 282.699219 217.652344 C 282.511719 216.257812 282.285156 214.867188 282.027344 213.484375 C 281.769531 212.101562 281.472656 210.722656 281.144531 209.355469 C 280.816406 207.984375 280.449219 206.625 280.050781 205.273438 C 279.652344 203.925781 279.21875 202.585938 278.75 201.257812 C 278.28125 199.929688 277.777344 198.613281 277.242188 197.3125 C 276.707031 196.007812 276.140625 194.722656 275.535156 193.449219 C 274.933594 192.175781 274.300781 190.917969 273.632812 189.679688 C 272.96875 188.4375 272.269531 187.214844 271.542969 186.011719 C 270.8125 184.804688 270.050781 183.621094 269.261719 182.453125 C 268.472656 181.289062 267.652344 180.144531 266.804688 179.019531 C 265.957031 177.898438 265.078125 176.796875 264.171875 175.71875 C 263.269531 174.636719 262.335938 173.582031 261.375 172.550781 C 260.417969 171.523438 259.429688 170.515625 258.421875 169.535156 C 257.410156 168.554688 256.375 167.601562 255.3125 166.675781 C 254.253906 165.75 253.171875 164.847656 252.066406 163.976562 C 250.957031 163.105469 249.832031 162.261719 248.679688 161.449219 C 247.53125 160.636719 246.363281 159.851562 245.171875 159.097656 C 243.984375 158.347656 242.773438 157.625 241.546875 156.933594 C 240.320312 156.242188 239.078125 155.582031 237.816406 154.953125 C 236.554688 154.324219 235.28125 153.730469 233.988281 153.167969 C 232.699219 152.605469 231.394531 152.078125 230.074219 151.582031 C 228.757812 151.085938 227.425781 150.625 226.085938 150.199219 C 224.742188 149.773438 223.390625 149.382812 222.027344 149.023438 C 220.667969 148.667969 219.296875 148.34375 217.917969 148.058594 C 216.539062 147.769531 215.152344 147.519531 213.761719 147.300781 C 212.371094 147.085938 210.972656 146.90625 209.574219 146.761719 C 208.171875 146.617188 206.769531 146.507812 205.363281 146.4375 C 203.957031 146.363281 202.550781 146.328125 201.140625 146.328125 C 199.734375 146.328125 198.324219 146.363281 196.917969 146.4375 C 195.511719 146.507812 194.109375 146.617188 192.707031 146.761719 C 191.308594 146.90625 189.910156 147.085938 188.519531 147.300781 C 187.128906 147.519531 185.742188 147.769531 184.363281 148.058594 C 182.984375 148.34375 181.617188 148.667969 180.253906 149.023438 C 178.890625 149.382812 177.539062 149.773438 176.199219 150.199219 C 174.855469 150.625 173.527344 151.085938 172.207031 151.582031 C 170.890625 152.078125 169.585938 152.605469 168.292969 153.167969 C 167 153.730469 165.726562 154.324219 164.464844 154.953125 C 163.203125 155.582031 161.960938 156.242188 160.734375 156.933594 C 159.507812 157.625 158.300781 158.347656 157.109375 159.097656 C 155.921875 159.851562 154.75 160.636719 153.601562 161.449219 C 152.453125 162.261719 151.324219 163.105469 150.21875 163.976562 C 149.113281 164.847656 148.027344 165.75 146.96875 166.675781 C 145.910156 167.601562 144.871094 168.554688 143.863281 169.535156 C 142.851562 170.515625 141.867188 171.523438 140.90625 172.550781 C 139.945312 173.582031 139.015625 174.636719 138.109375 175.71875 C 137.203125 176.796875 136.328125 177.898438 135.476562 179.019531 C 134.628906 180.144531 133.808594 181.289062 133.019531 182.453125 C 132.230469 183.621094 131.46875 184.804688 130.742188 186.011719 C 130.011719 187.214844 129.3125 188.4375 128.648438 189.679688 C 127.980469 190.917969 127.347656 192.175781 126.746094 193.449219 C 126.144531 194.722656 125.574219 196.007812 125.039062 197.3125 C 124.503906 198.613281 124 199.929688 123.53125 201.257812 C 123.066406 202.585938 122.628906 203.925781 122.230469 205.273438 C 121.832031 206.625 121.46875 207.984375 121.136719 209.355469 C 120.808594 210.722656 120.511719 212.101562 120.253906 213.484375 C 119.996094 214.867188 119.773438 216.257812 119.585938 217.652344 C 119.398438 219.050781 119.246094 220.449219 119.128906 221.851562 C 119.011719 223.253906 118.933594 224.660156 118.890625 226.070312 C 118.847656 227.476562 118.839844 228.882812 118.867188 230.292969 C 118.894531 231.699219 118.960938 233.105469 119.0625 234.511719 C 119.164062 235.914062 119.300781 237.316406 119.472656 238.714844 C 119.644531 240.113281 119.851562 241.503906 120.097656 242.890625 C 120.34375 244.277344 120.621094 245.65625 120.9375 247.03125 C 121.25 248.402344 121.601562 249.765625 121.988281 251.121094 C 122.371094 252.476562 122.792969 253.820312 123.246094 255.152344 C 123.699219 256.484375 124.1875 257.804688 124.710938 259.113281 C 125.230469 260.421875 125.785156 261.714844 126.375 262.996094 C 126.960938 264.273438 127.582031 265.539062 128.238281 266.785156 C 128.890625 268.03125 129.574219 269.261719 130.289062 270.476562 C 131.007812 271.6875 131.753906 272.878906 132.53125 274.054688 C 133.308594 275.230469 134.117188 276.382812 134.953125 277.515625 C 135.789062 278.648438 136.65625 279.757812 137.546875 280.847656 C 138.441406 281.933594 139.363281 283 140.3125 284.039062 C 141.261719 285.082031 142.234375 286.097656 143.234375 287.085938 C 144.234375 288.078125 145.261719 289.042969 146.3125 289.980469 C 147.359375 290.917969 148.433594 291.832031 149.53125 292.714844 L 93.34375 292.714844 C 94.074219 290.746094 94.449219 288.714844 94.46875 286.617188 L 94.46875 140.324219 C 94.449219 138.226562 94.074219 136.195312 93.34375 134.230469 L 326.101562 134.230469 C 326.5 134.230469 326.898438 134.269531 327.289062 134.347656 C 327.683594 134.425781 328.0625 134.539062 328.433594 134.695312 C 328.800781 134.847656 329.152344 135.035156 329.484375 135.257812 C 329.816406 135.480469 330.125 135.734375 330.410156 136.015625 C 330.691406 136.296875 330.945312 136.605469 331.167969 136.9375 C 331.390625 137.273438 331.578125 137.621094 331.730469 137.992188 C 331.882812 138.363281 332 138.742188 332.078125 139.136719 C 332.15625 139.527344 332.195312 139.925781 332.195312 140.324219 Z M 332.195312 286.617188 " fill-opacity="1" fill-rule="nonzero"/></g></svg>