<svg xmlns="http://www.w3.org/2000/svg" xmlns:xlink="http://www.w3.org/1999/xlink" width="512" zoomAndPan="magnify" viewBox="0 0 384 383.999986" height="512" preserveAspectRatio="xMidYMid meet" version="1.0"><defs><clipPath id="a105f5df26"><path d="M 45.886719 38.398438 L 338 38.398438 L 338 345.898438 L 45.886719 345.898438 Z M 45.886719 38.398438 " clip-rule="nonzero"/></clipPath></defs><g clip-path="url(#a105f5df26)"><path fill="#303030" d="M 154.71875 340.757812 C 154.765625 340.773438 154.800781 340.804688 154.847656 340.8125 C 166.710938 343.941406 179.125 345.527344 191.742188 345.527344 C 204.355469 345.527344 216.773438 343.941406 228.632812 340.8125 C 228.679688 340.804688 228.714844 340.769531 228.761719 340.757812 C 292.941406 323.960938 337.75 265.902344 337.75 199.519531 C 337.75 126.113281 283.808594 64.699219 211.597656 54.914062 C 209.816406 45.566406 201.601562 38.460938 191.742188 38.460938 C 181.878906 38.460938 173.664062 45.5625 171.886719 54.910156 C 99.675781 64.699219 45.734375 126.109375 45.734375 199.519531 C 45.734375 266.023438 90.554688 324.085938 154.71875 340.753906 Z M 172.273438 99.988281 C 174.597656 108.605469 182.402344 114.996094 191.742188 114.996094 C 201.082031 114.996094 208.886719 108.605469 211.210938 99.988281 C 258.292969 109.21875 293.214844 151.0625 293.214844 199.519531 C 293.214844 242.160156 266.792969 279.804688 227.121094 294.546875 C 221.894531 287.195312 213.332031 282.375 203.644531 282.375 L 179.835938 282.375 C 170.15625 282.375 161.589844 287.195312 156.367188 294.546875 C 116.664062 279.816406 90.226562 242.171875 90.226562 199.527344 C 90.226562 151.019531 125.171875 109.179688 172.277344 99.988281 Z M 218.953125 332.519531 C 218.21875 332.667969 217.492188 332.820312 216.757812 332.957031 C 214.71875 333.335938 212.671875 333.65625 210.609375 333.941406 C 209.898438 334.039062 209.1875 334.15625 208.472656 334.242188 C 206.292969 334.507812 204.09375 334.703125 201.894531 334.867188 C 201.304688 334.910156 200.722656 334.980469 200.132812 335.015625 C 194.546875 335.355469 188.925781 335.355469 183.339844 335.015625 C 182.773438 334.980469 182.21875 334.917969 181.660156 334.878906 C 179.429688 334.714844 177.203125 334.515625 174.984375 334.242188 C 174.304688 334.160156 173.625 334.046875 172.949219 333.957031 C 170.851562 333.664062 168.757812 333.34375 166.679688 332.953125 C 165.984375 332.824219 165.289062 332.675781 164.597656 332.535156 C 163.480469 332.308594 162.382812 332.027344 161.269531 331.769531 L 161.269531 311.179688 C 161.269531 300.941406 169.601562 292.609375 179.835938 292.609375 L 203.644531 292.609375 C 213.878906 292.609375 222.210938 300.9375 222.210938 311.179688 L 222.210938 331.769531 C 221.128906 332.023438 220.042969 332.292969 218.945312 332.519531 Z M 327.519531 199.527344 C 327.519531 259.042969 288.726562 311.265625 232.453125 328.9375 L 232.453125 311.179688 C 232.453125 308.640625 232.089844 306.1875 231.46875 303.839844 C 274.714844 287.410156 303.453125 246.1875 303.453125 199.527344 C 303.453125 145.769531 264.417969 99.414062 211.988281 89.730469 L 211.988281 65.289062 C 278.242188 75.140625 327.519531 131.859375 327.519531 199.527344 Z M 181.738281 58.707031 C 181.738281 53.191406 186.226562 48.703125 191.742188 48.703125 C 197.257812 48.703125 201.746094 53.191406 201.746094 58.707031 L 201.746094 94.75 C 201.746094 100.269531 197.257812 104.757812 191.742188 104.757812 C 186.226562 104.757812 181.738281 100.269531 181.738281 94.75 Z M 171.5 65.285156 L 171.5 89.722656 C 119.046875 99.363281 79.988281 145.71875 79.988281 199.519531 C 79.988281 246.195312 108.742188 287.417969 152.019531 303.839844 C 151.398438 306.1875 151.035156 308.632812 151.035156 311.171875 L 151.035156 328.941406 C 94.761719 311.378906 55.96875 259.152344 55.96875 199.519531 C 55.96875 131.851562 105.246094 75.128906 171.5 65.285156 Z M 171.5 65.285156 " fill-opacity="1" fill-rule="nonzero"/></g><path fill="#303030" d="M 158.355469 233.707031 C 159.664062 233.707031 160.972656 233.207031 161.972656 232.207031 C 178.355469 215.824219 205.078125 215.808594 221.519531 232.191406 C 223.53125 234.191406 226.761719 234.175781 228.761719 232.175781 C 230.757812 230.175781 230.75 226.9375 228.746094 224.941406 C 208.300781 204.578125 175.105469 204.597656 154.734375 224.972656 C 152.734375 226.972656 152.734375 230.207031 154.734375 232.207031 C 155.734375 233.207031 157.042969 233.707031 158.355469 233.707031 Z M 158.355469 233.707031 " fill-opacity="1" fill-rule="nonzero"/><path fill="#303030" d="M 165.816406 236.046875 C 163.8125 238.046875 163.8125 241.28125 165.816406 243.28125 C 166.8125 244.28125 168.125 244.78125 169.433594 244.78125 C 170.742188 244.78125 172.054688 244.28125 173.050781 243.28125 C 183.339844 233 200.113281 232.988281 210.453125 243.265625 C 212.464844 245.265625 215.699219 245.257812 217.6875 243.246094 C 219.683594 241.238281 219.671875 238 217.667969 236.007812 C 203.347656 221.765625 180.082031 221.777344 165.816406 236.046875 Z M 165.816406 236.046875 " fill-opacity="1" fill-rule="nonzero"/><path fill="#303030" d="M 191.777344 240.957031 L 191.738281 240.957031 C 186.121094 240.96875 180.851562 243.160156 176.890625 247.125 C 174.890625 249.125 174.890625 252.367188 176.890625 254.363281 C 177.886719 255.359375 179.199219 255.859375 180.507812 255.859375 C 181.816406 255.859375 183.128906 255.359375 184.125 254.363281 C 186.164062 252.324219 188.875 251.199219 191.757812 251.195312 L 191.777344 251.195312 C 194.652344 251.195312 197.34375 252.308594 199.367188 254.332031 C 201.367188 256.332031 204.601562 256.332031 206.601562 254.332031 C 208.605469 252.328125 208.605469 249.09375 206.601562 247.09375 C 202.648438 243.136719 197.382812 240.957031 191.777344 240.957031 Z M 191.777344 240.957031 " fill-opacity="1" fill-rule="nonzero"/><path fill="#303030" d="M 191.742188 256.847656 C 187.253906 256.847656 183.605469 260.496094 183.605469 264.980469 C 183.605469 269.464844 187.253906 273.113281 191.742188 273.113281 C 196.230469 273.113281 199.878906 269.464844 199.878906 264.980469 C 199.878906 260.496094 196.230469 256.847656 191.742188 256.847656 Z M 191.742188 267.085938 C 190.578125 267.085938 189.644531 266.140625 189.644531 264.980469 C 189.644531 263.820312 190.585938 262.878906 191.742188 262.878906 C 192.898438 262.878906 193.839844 263.820312 193.839844 264.980469 C 193.839844 266.140625 192.898438 267.085938 191.742188 267.085938 Z M 191.742188 267.085938 " fill-opacity="1" fill-rule="nonzero"/></svg>