<svg xmlns="http://www.w3.org/2000/svg" xmlns:xlink="http://www.w3.org/1999/xlink" width="512" zoomAndPan="magnify" viewBox="0 0 384 383.999986" height="512" preserveAspectRatio="xMidYMid meet" version="1.0"><defs><clipPath id="859186e5db"><path d="M 39 38.398438 L 345 38.398438 L 345 345.898438 L 39 345.898438 Z M 39 38.398438 " clip-rule="nonzero"/></clipPath></defs><g clip-path="url(#859186e5db)"><path fill="#303030" d="M 344.816406 58.828125 C 344.816406 47.472656 335.59375 38.226562 324.226562 38.226562 L 85.644531 38.226562 C 74.277344 38.226562 65.042969 47.472656 65.042969 58.828125 L 65.042969 111.835938 C 65.042969 123.195312 74.277344 132.429688 85.644531 132.429688 L 145.664062 132.429688 L 145.664062 154.933594 C 145.664062 158.523438 148.574219 161.441406 152.171875 161.441406 C 155.765625 161.441406 158.675781 158.53125 158.675781 154.933594 L 158.675781 132.429688 L 233.082031 132.429688 L 233.082031 287.644531 L 203.347656 287.644531 C 209.554688 279.863281 211.703125 269.078125 213.699219 259.019531 C 214.179688 256.742188 214.640625 254.421875 215.128906 252.0625 C 218.535156 236.496094 220.738281 220.792969 222.625 206.109375 C 223.105469 202.332031 223.511719 199.152344 223.847656 196.941406 C 224.515625 192.234375 223.085938 187.570312 219.824219 183.804688 C 215.996094 179.394531 209.941406 176.648438 204.042969 176.648438 L 99.207031 176.648438 C 93.289062 176.648438 87.226562 179.382812 83.414062 183.785156 C 80.160156 187.550781 78.707031 192.214844 79.390625 196.921875 C 70.683594 193.875 60.402344 193.335938 52.179688 197.582031 C 43.792969 201.910156 39.1875 210.375 39.1875 221.398438 C 39.1875 235.257812 51.554688 242.738281 65.886719 251.414062 C 73.960938 256.300781 83.105469 261.8125 91.410156 269.25 C 91.5625 269.410156 91.707031 269.511719 91.878906 269.628906 L 92.015625 270.359375 C 93.585938 276.46875 95.792969 282.59375 99.785156 287.617188 L 85.644531 287.617188 C 74.277344 287.617188 65.054688 296.839844 65.054688 308.207031 L 65.054688 325.148438 C 65.054688 336.507812 74.277344 345.722656 85.644531 345.722656 L 324.246094 345.722656 C 335.613281 345.722656 344.828125 336.496094 344.828125 325.148438 Z M 72.617188 240.316406 C 59.949219 232.648438 52.179688 227.632812 52.179688 221.425781 C 52.179688 215.253906 54.128906 211.25 58.140625 209.171875 C 60.273438 208.082031 62.941406 207.546875 65.839844 207.546875 C 71.027344 207.546875 76.90625 209.253906 81.542969 212.417969 L 88.402344 250.390625 C 82.980469 246.578125 77.59375 243.335938 72.617188 240.316406 Z M 93.949219 207.898438 L 93.371094 203.417969 C 92.925781 199.992188 92.558594 197.15625 92.269531 195.132812 C 92.214844 194.78125 92.070312 193.714844 93.226562 192.339844 C 94.597656 190.761719 97.003906 189.695312 99.207031 189.695312 L 203.996094 189.695312 C 206.164062 189.695312 208.578125 190.761719 209.941406 192.359375 C 211.132812 193.714844 210.980469 194.78125 210.925781 195.105469 C 210.59375 197.363281 210.167969 200.617188 209.671875 204.484375 C 207.816406 218.878906 205.667969 234.238281 202.359375 249.316406 C 201.820312 251.757812 201.359375 254.140625 200.878906 256.519531 C 196.902344 276.53125 194.402344 285.375 177.125 285.710938 C 160.664062 286 142.484375 286 126.003906 285.710938 C 111.875 285.449219 107.699219 279.25 104.683594 267.621094 Z M 331.816406 325.175781 C 331.816406 329.359375 328.410156 332.765625 324.226562 332.765625 L 85.644531 332.765625 C 81.445312 332.765625 78.039062 329.359375 78.039062 325.175781 L 78.039062 308.234375 C 78.039062 304.050781 81.445312 300.644531 85.644531 300.644531 L 239.578125 300.644531 C 243.15625 300.644531 246.074219 297.734375 246.074219 294.132812 L 246.074219 125.933594 C 246.074219 122.34375 243.183594 119.417969 239.578125 119.417969 L 155.070312 119.417969 C 154.566406 119.417969 154.09375 119.480469 153.605469 119.589844 C 153.136719 119.480469 152.667969 119.417969 152.152344 119.417969 L 85.644531 119.417969 C 81.515625 119.417969 78.039062 115.949219 78.039062 111.835938 L 78.039062 58.828125 C 78.039062 54.644531 81.445312 51.238281 85.644531 51.238281 L 324.226562 51.238281 C 328.410156 51.238281 331.816406 54.644531 331.816406 58.828125 Z M 331.816406 325.175781 " fill-opacity="1" fill-rule="nonzero"/></g></svg>