<svg xmlns="http://www.w3.org/2000/svg" xmlns:xlink="http://www.w3.org/1999/xlink" width="512" zoomAndPan="magnify" viewBox="0 0 384 383.999986" height="512" preserveAspectRatio="xMidYMid meet" version="1.0"><defs><clipPath id="40e3baf98b"><path d="M 42 26 L 342 26 L 342 357 L 42 357 Z M 42 26 " clip-rule="nonzero"/></clipPath><clipPath id="80a81585ff"><path d="M 29.246094 117.871094 L 179.695312 13.6875 L 354.757812 266.488281 L 204.308594 370.671875 Z M 29.246094 117.871094 " clip-rule="nonzero"/></clipPath><clipPath id="24b8ebd507"><path d="M 29.246094 117.871094 L 179.695312 13.6875 L 354.757812 266.488281 L 204.308594 370.671875 Z M 29.246094 117.871094 " clip-rule="nonzero"/></clipPath><clipPath id="25a337fdc0"><path d="M 247 278 L 277 278 L 277 308 L 247 308 Z M 247 278 " clip-rule="nonzero"/></clipPath><clipPath id="80b14e0ef6"><path d="M 29.246094 117.871094 L 179.695312 13.6875 L 354.757812 266.488281 L 204.308594 370.671875 Z M 29.246094 117.871094 " clip-rule="nonzero"/></clipPath><clipPath id="93b1e02739"><path d="M 29.246094 117.871094 L 179.695312 13.6875 L 354.757812 266.488281 L 204.308594 370.671875 Z M 29.246094 117.871094 " clip-rule="nonzero"/></clipPath></defs><g clip-path="url(#40e3baf98b)"><g clip-path="url(#80a81585ff)"><g clip-path="url(#24b8ebd507)"><path fill="#303030" d="M 151.746094 33.042969 L 57.375 98.390625 C 41.894531 109.113281 38.023438 130.429688 48.742188 145.910156 L 184.734375 342.289062 C 195.453125 357.773438 216.769531 361.644531 232.25 350.925781 L 326.621094 285.574219 C 342.101562 274.855469 345.976562 253.539062 335.253906 238.058594 L 199.261719 41.675781 C 188.542969 26.195312 167.226562 22.320312 151.746094 33.042969 Z M 59.75 144.335938 L 193.917969 51.425781 L 311.421875 221.113281 L 177.257812 314.023438 Z M 63.039062 106.566406 L 157.40625 41.21875 C 166.976562 34.589844 179.695312 35.835938 187.832031 43.542969 L 54.511719 135.863281 C 50.160156 125.539062 53.46875 113.195312 63.039062 106.566406 Z M 320.957031 277.398438 L 226.589844 342.746094 C 215.617188 350.347656 200.507812 347.601562 192.910156 336.628906 L 182.917969 322.199219 L 317.085938 229.289062 L 327.078125 243.71875 C 334.675781 254.691406 331.929688 269.800781 320.957031 277.398438 Z M 320.957031 277.398438 " fill-opacity="1" fill-rule="nonzero"/></g></g></g><g clip-path="url(#25a337fdc0)"><g clip-path="url(#80b14e0ef6)"><g clip-path="url(#93b1e02739)"><path fill="#303030" d="M 253.644531 281.003906 C 247.136719 285.507812 245.507812 294.46875 250.015625 300.972656 C 254.519531 307.480469 263.476562 309.105469 269.984375 304.601562 C 276.488281 300.09375 278.117188 291.136719 273.613281 284.632812 C 269.105469 278.125 260.148438 276.496094 253.644531 281.003906 Z M 264.320312 296.421875 C 262.324219 297.804688 259.574219 297.308594 258.191406 295.308594 C 256.808594 293.3125 257.308594 290.5625 259.304688 289.179688 C 261.300781 287.796875 264.050781 288.296875 265.433594 290.292969 C 266.820312 292.289062 266.320312 295.039062 264.320312 296.421875 Z M 264.320312 296.421875 " fill-opacity="1" fill-rule="nonzero"/></g></g></g></svg>