<svg xmlns="http://www.w3.org/2000/svg" xmlns:xlink="http://www.w3.org/1999/xlink" width="512" zoomAndPan="magnify" viewBox="0 0 384 383.999986" height="512" preserveAspectRatio="xMidYMid meet" version="1.0"><defs><clipPath id="14b61029b5"><path d="M 38.398438 129 L 345.898438 129 L 345.898438 345.898438 L 38.398438 345.898438 Z M 38.398438 129 " clip-rule="nonzero"/></clipPath><clipPath id="065dc01aa4"><path d="M 49 38.398438 L 335 38.398438 L 335 96 L 49 96 Z M 49 38.398438 " clip-rule="nonzero"/></clipPath></defs><g clip-path="url(#14b61029b5)"><path fill="#303030" d="M 339.90625 254.574219 L 334.21875 254.574219 L 334.21875 169.242188 C 334.21875 166.101562 331.675781 163.554688 328.527344 163.554688 L 283.019531 163.554688 C 279.871094 163.554688 277.328125 166.101562 277.328125 169.242188 L 277.328125 254.574219 L 214.753906 254.574219 C 217.898438 254.574219 220.441406 252.03125 220.441406 248.886719 C 220.441406 245.738281 217.898438 243.195312 214.753906 243.195312 L 197.6875 243.195312 L 197.6875 231.820312 L 248.886719 231.820312 C 258.296875 231.820312 265.953125 224.160156 265.953125 214.753906 L 265.953125 146.488281 C 265.953125 137.078125 258.296875 129.421875 248.886719 129.421875 L 135.109375 129.421875 C 125.699219 129.421875 118.042969 137.078125 118.042969 146.488281 L 118.042969 214.753906 C 118.042969 224.160156 125.699219 231.820312 135.109375 231.820312 L 186.308594 231.820312 L 186.308594 243.195312 L 169.242188 243.195312 C 166.101562 243.195312 163.554688 245.738281 163.554688 248.886719 C 163.554688 252.03125 166.101562 254.574219 169.242188 254.574219 L 106.664062 254.574219 L 106.664062 169.242188 C 106.664062 166.101562 104.117188 163.554688 100.976562 163.554688 L 55.464844 163.554688 C 52.328125 163.554688 49.777344 166.101562 49.777344 169.242188 L 49.777344 254.574219 L 44.089844 254.574219 C 40.949219 254.574219 38.398438 257.117188 38.398438 260.261719 L 38.398438 328.527344 C 38.398438 331.675781 40.949219 334.21875 44.089844 334.21875 L 95.289062 334.21875 L 95.289062 339.90625 C 95.289062 343.050781 97.835938 345.59375 100.976562 345.59375 C 104.117188 345.59375 106.664062 343.050781 106.664062 339.90625 L 106.664062 334.21875 L 277.328125 334.21875 L 277.328125 339.90625 C 277.328125 343.050781 279.871094 345.59375 283.019531 345.59375 C 286.164062 345.59375 288.707031 343.050781 288.707031 339.90625 L 288.707031 334.21875 L 339.90625 334.21875 C 343.050781 334.21875 345.59375 331.675781 345.59375 328.527344 L 345.59375 260.261719 C 345.59375 257.117188 343.050781 254.574219 339.90625 254.574219 Z M 129.421875 214.753906 L 129.421875 146.488281 C 129.421875 143.351562 131.976562 140.796875 135.109375 140.796875 L 248.886719 140.796875 C 252.027344 140.796875 254.574219 143.351562 254.574219 146.488281 L 254.574219 214.753906 C 254.574219 217.894531 252.027344 220.441406 248.886719 220.441406 L 135.109375 220.441406 C 131.976562 220.441406 129.421875 217.894531 129.421875 214.753906 Z M 288.707031 174.929688 L 322.839844 174.929688 L 322.839844 254.574219 L 288.707031 254.574219 Z M 243.195312 265.953125 L 243.195312 322.839844 L 140.796875 322.839844 L 140.796875 265.953125 Z M 61.15625 174.929688 L 95.289062 174.929688 L 95.289062 254.574219 L 61.15625 254.574219 Z M 49.777344 265.953125 L 129.421875 265.953125 L 129.421875 322.839844 L 49.777344 322.839844 Z M 334.21875 322.839844 L 254.574219 322.839844 L 254.574219 265.953125 L 334.21875 265.953125 Z M 334.21875 322.839844 " fill-opacity="1" fill-rule="nonzero"/></g><path fill="#303030" d="M 89.597656 226.128906 C 89.597656 226.878906 89.527344 227.617188 89.378906 228.351562 C 89.234375 229.082031 89.019531 229.792969 88.734375 230.484375 C 88.445312 231.175781 88.097656 231.832031 87.683594 232.453125 C 87.265625 233.074219 86.796875 233.648438 86.265625 234.175781 C 85.738281 234.703125 85.164062 235.175781 84.542969 235.589844 C 83.921875 236.003906 83.265625 236.355469 82.574219 236.640625 C 81.886719 236.929688 81.175781 237.144531 80.441406 237.289062 C 79.707031 237.433594 78.96875 237.507812 78.222656 237.507812 C 77.472656 237.507812 76.734375 237.433594 76 237.289062 C 75.269531 237.144531 74.558594 236.929688 73.867188 236.640625 C 73.175781 236.355469 72.523438 236.003906 71.902344 235.589844 C 71.28125 235.175781 70.703125 234.703125 70.175781 234.175781 C 69.648438 233.648438 69.175781 233.074219 68.761719 232.453125 C 68.347656 231.832031 67.996094 231.175781 67.710938 230.484375 C 67.425781 229.792969 67.207031 229.082031 67.0625 228.351562 C 66.917969 227.617188 66.84375 226.878906 66.84375 226.128906 C 66.84375 225.382812 66.917969 224.644531 67.0625 223.910156 C 67.207031 223.179688 67.425781 222.464844 67.710938 221.777344 C 67.996094 221.085938 68.347656 220.429688 68.761719 219.808594 C 69.175781 219.1875 69.648438 218.613281 70.175781 218.085938 C 70.703125 217.558594 71.28125 217.085938 71.902344 216.671875 C 72.523438 216.253906 73.175781 215.90625 73.867188 215.617188 C 74.558594 215.332031 75.269531 215.117188 76 214.972656 C 76.734375 214.824219 77.472656 214.753906 78.222656 214.753906 C 78.96875 214.753906 79.707031 214.824219 80.441406 214.972656 C 81.175781 215.117188 81.886719 215.332031 82.574219 215.617188 C 83.265625 215.90625 83.921875 216.253906 84.542969 216.671875 C 85.164062 217.085938 85.738281 217.558594 86.265625 218.085938 C 86.796875 218.613281 87.265625 219.1875 87.683594 219.808594 C 88.097656 220.429688 88.445312 221.085938 88.734375 221.777344 C 89.019531 222.464844 89.234375 223.179688 89.378906 223.910156 C 89.527344 224.644531 89.597656 225.382812 89.597656 226.128906 Z M 89.597656 226.128906 " fill-opacity="1" fill-rule="nonzero"/><path fill="#303030" d="M 83.910156 191.996094 C 83.910156 192.371094 83.875 192.742188 83.800781 193.105469 C 83.726562 193.472656 83.621094 193.828125 83.476562 194.175781 C 83.335938 194.519531 83.160156 194.847656 82.953125 195.15625 C 82.746094 195.46875 82.507812 195.757812 82.246094 196.019531 C 81.980469 196.285156 81.691406 196.519531 81.382812 196.726562 C 81.070312 196.933594 80.742188 197.109375 80.398438 197.253906 C 80.054688 197.394531 79.699219 197.503906 79.332031 197.578125 C 78.964844 197.648438 78.59375 197.6875 78.222656 197.6875 C 77.847656 197.6875 77.476562 197.648438 77.113281 197.578125 C 76.746094 197.503906 76.390625 197.394531 76.042969 197.253906 C 75.699219 197.109375 75.371094 196.933594 75.0625 196.726562 C 74.75 196.519531 74.464844 196.285156 74.199219 196.019531 C 73.933594 195.757812 73.699219 195.46875 73.492188 195.15625 C 73.285156 194.847656 73.109375 194.519531 72.964844 194.175781 C 72.824219 193.828125 72.714844 193.472656 72.640625 193.105469 C 72.570312 192.742188 72.53125 192.371094 72.53125 191.996094 C 72.53125 191.625 72.570312 191.253906 72.640625 190.886719 C 72.714844 190.519531 72.824219 190.164062 72.964844 189.820312 C 73.109375 189.476562 73.285156 189.148438 73.492188 188.835938 C 73.699219 188.527344 73.933594 188.238281 74.199219 187.976562 C 74.464844 187.710938 74.75 187.476562 75.0625 187.265625 C 75.371094 187.058594 75.699219 186.882812 76.042969 186.742188 C 76.390625 186.597656 76.746094 186.492188 77.113281 186.417969 C 77.476562 186.34375 77.847656 186.308594 78.222656 186.308594 C 78.59375 186.308594 78.964844 186.34375 79.332031 186.417969 C 79.699219 186.492188 80.054688 186.597656 80.398438 186.742188 C 80.742188 186.882812 81.070312 187.058594 81.382812 187.265625 C 81.691406 187.476562 81.980469 187.710938 82.246094 187.976562 C 82.507812 188.238281 82.746094 188.527344 82.953125 188.835938 C 83.160156 189.148438 83.335938 189.476562 83.476562 189.820312 C 83.621094 190.164062 83.726562 190.519531 83.800781 190.886719 C 83.875 191.253906 83.910156 191.625 83.910156 191.996094 Z M 83.910156 191.996094 " fill-opacity="1" fill-rule="nonzero"/><path fill="#303030" d="M 317.152344 226.128906 C 317.152344 226.878906 317.078125 227.617188 316.933594 228.351562 C 316.785156 229.082031 316.570312 229.792969 316.285156 230.484375 C 316 231.175781 315.648438 231.832031 315.234375 232.453125 C 314.820312 233.074219 314.347656 233.648438 313.820312 234.175781 C 313.289062 234.703125 312.714844 235.175781 312.09375 235.589844 C 311.472656 236.003906 310.816406 236.355469 310.128906 236.640625 C 309.4375 236.929688 308.726562 237.144531 307.992188 237.289062 C 307.261719 237.433594 306.519531 237.507812 305.773438 237.507812 C 305.027344 237.507812 304.285156 237.433594 303.554688 237.289062 C 302.820312 237.144531 302.109375 236.929688 301.417969 236.640625 C 300.730469 236.355469 300.074219 236.003906 299.453125 235.589844 C 298.832031 235.175781 298.257812 234.703125 297.726562 234.175781 C 297.199219 233.648438 296.730469 233.074219 296.3125 232.453125 C 295.898438 231.832031 295.546875 231.175781 295.261719 230.484375 C 294.976562 229.792969 294.761719 229.082031 294.613281 228.351562 C 294.46875 227.617188 294.394531 226.878906 294.394531 226.128906 C 294.394531 225.382812 294.46875 224.644531 294.613281 223.910156 C 294.761719 223.179688 294.976562 222.464844 295.261719 221.777344 C 295.546875 221.085938 295.898438 220.429688 296.3125 219.808594 C 296.730469 219.1875 297.199219 218.613281 297.726562 218.085938 C 298.257812 217.558594 298.832031 217.085938 299.453125 216.671875 C 300.074219 216.253906 300.730469 215.90625 301.417969 215.617188 C 302.109375 215.332031 302.820312 215.117188 303.554688 214.972656 C 304.285156 214.824219 305.027344 214.753906 305.773438 214.753906 C 306.519531 214.753906 307.261719 214.824219 307.992188 214.972656 C 308.726562 215.117188 309.4375 215.332031 310.128906 215.617188 C 310.816406 215.90625 311.472656 216.253906 312.09375 216.671875 C 312.714844 217.085938 313.289062 217.558594 313.820312 218.085938 C 314.347656 218.613281 314.820312 219.1875 315.234375 219.808594 C 315.648438 220.429688 316 221.085938 316.285156 221.777344 C 316.570312 222.464844 316.785156 223.179688 316.933594 223.910156 C 317.078125 224.644531 317.152344 225.382812 317.152344 226.128906 Z M 317.152344 226.128906 " fill-opacity="1" fill-rule="nonzero"/><path fill="#303030" d="M 311.460938 191.996094 C 311.460938 192.371094 311.425781 192.742188 311.351562 193.105469 C 311.28125 193.472656 311.171875 193.828125 311.03125 194.175781 C 310.886719 194.519531 310.710938 194.847656 310.503906 195.15625 C 310.296875 195.46875 310.058594 195.757812 309.796875 196.019531 C 309.53125 196.285156 309.246094 196.519531 308.933594 196.726562 C 308.625 196.933594 308.296875 197.109375 307.949219 197.253906 C 307.605469 197.394531 307.25 197.503906 306.882812 197.578125 C 306.515625 197.648438 306.148438 197.6875 305.773438 197.6875 C 305.398438 197.6875 305.03125 197.648438 304.664062 197.578125 C 304.296875 197.503906 303.941406 197.394531 303.597656 197.253906 C 303.25 197.109375 302.921875 196.933594 302.613281 196.726562 C 302.300781 196.519531 302.015625 196.285156 301.75 196.019531 C 301.488281 195.757812 301.25 195.46875 301.042969 195.15625 C 300.835938 194.847656 300.660156 194.519531 300.519531 194.175781 C 300.375 193.828125 300.265625 193.472656 300.195312 193.105469 C 300.121094 192.742188 300.085938 192.371094 300.085938 191.996094 C 300.085938 191.625 300.121094 191.253906 300.195312 190.886719 C 300.265625 190.519531 300.375 190.164062 300.519531 189.820312 C 300.660156 189.476562 300.835938 189.148438 301.042969 188.835938 C 301.25 188.527344 301.488281 188.238281 301.75 187.976562 C 302.015625 187.710938 302.300781 187.476562 302.613281 187.265625 C 302.921875 187.058594 303.25 186.882812 303.597656 186.742188 C 303.941406 186.597656 304.296875 186.492188 304.664062 186.417969 C 305.03125 186.34375 305.398438 186.308594 305.773438 186.308594 C 306.148438 186.308594 306.515625 186.34375 306.882812 186.417969 C 307.25 186.492188 307.605469 186.597656 307.949219 186.742188 C 308.296875 186.882812 308.625 187.058594 308.933594 187.265625 C 309.246094 187.476562 309.53125 187.710938 309.796875 187.976562 C 310.058594 188.238281 310.296875 188.527344 310.503906 188.835938 C 310.710938 189.148438 310.886719 189.476562 311.03125 189.820312 C 311.171875 190.164062 311.28125 190.519531 311.351562 190.886719 C 311.425781 191.253906 311.460938 191.625 311.460938 191.996094 Z M 311.460938 191.996094 " fill-opacity="1" fill-rule="nonzero"/><g clip-path="url(#065dc01aa4)"><path fill="#303030" d="M 55.464844 38.398438 C 52.328125 38.398438 49.777344 40.949219 49.777344 44.089844 L 49.777344 89.597656 C 49.777344 92.738281 52.328125 95.289062 55.464844 95.289062 L 328.527344 95.289062 C 331.675781 95.289062 334.21875 92.738281 334.21875 89.597656 L 334.21875 44.089844 C 334.21875 40.949219 331.675781 38.398438 328.527344 38.398438 Z M 152.175781 49.777344 L 186.308594 49.777344 L 186.308594 83.910156 L 152.175781 83.910156 Z M 140.796875 83.910156 L 106.664062 83.910156 L 106.664062 49.777344 L 140.796875 49.777344 Z M 197.6875 49.777344 L 231.820312 49.777344 L 231.820312 83.910156 L 197.6875 83.910156 Z M 243.195312 49.777344 L 277.328125 49.777344 L 277.328125 83.910156 L 243.195312 83.910156 Z M 61.15625 49.777344 L 95.289062 49.777344 L 95.289062 83.910156 L 61.15625 83.910156 Z M 322.839844 83.910156 L 288.707031 83.910156 L 288.707031 49.777344 L 322.839844 49.777344 Z M 322.839844 83.910156 " fill-opacity="1" fill-rule="nonzero"/></g></svg>