<svg xmlns="http://www.w3.org/2000/svg" viewBox="0 0 1600 1200"><defs><style>.cls-1,.cls-16{fill:none;}.cls-1,.cls-11,.cls-3,.cls-6{stroke:#2f3030;}.cls-1,.cls-11,.cls-16,.cls-2,.cls-3,.cls-6,.cls-7,.cls-8{stroke-miterlimit:10;}.cls-2,.cls-4{fill:#2f3030;}.cls-15,.cls-2,.cls-7{stroke:#000;}.cls-3{fill:#d1d5db;}.cls-11,.cls-15,.cls-5,.cls-8,.cls-9{fill:#fff;}.cls-16,.cls-8,.cls-9{stroke:#fbb755;stroke-width:10px;}.cls-15,.cls-9{stroke-linecap:round;stroke-linejoin:round;}.cls-10{font-size:203.58px;}.cls-10,.cls-12{fill:#fbb755;font-family:Nunito-Bold, Nunito;font-weight:700;}.cls-12{font-size:50px;}.cls-13{letter-spacing:0em;}.cls-14{letter-spacing:-0.01em;}</style></defs><g id="_4" data-name="4"><path class="cls-1" d="M652.9,656.89l6.75-1.56a1.15,1.15,0,0,0,.84-.71l.54-1.49a1.18,1.18,0,0,1,1.31-.73l17,2.47a1.06,1.06,0,0,1,.65,1.85A40.62,40.62,0,0,1,666.67,665c-3.25,1.12-8.06,3.24-10.37,4.28a1.21,1.21,0,0,1-1.68-.73L652,658.19A1.09,1.09,0,0,1,652.9,656.89Z"/><path class="cls-2" d="M145.47,876.77c2.46-5.61,4.9-11.23,7.4-16.82,13.89-31.16,27-62.7,44.47-92.12a352,352,0,0,1,20.47-30.93c11-14.72,27-23,42.73-31.41,19.54-10.43,40.59-17.12,61.5-24.12,21.55-7.21,21.33-7.41,28.94-28.8,15-42.1,35.35-81.44,62.43-117.06,11.36-15,24.44-28.39,40.63-38.38,7.94-4.89,16.36-8.43,25.76-9.25a21.36,21.36,0,0,0,2.62-.65c-9.8-4.9-11.26-13.43-11.67-22.51-.2-4.33-.53-8.66-.83-13.46l17,3.08c3.47.63,6.51.27,8.89-2.87,5.83-7.71,3.16-14.72-6.49-15.65-6.25-.6-12.61-.11-18.81-.11-1.68-8.35,5.83-20.19,14.07-22.9,13.5-4.43,26.8,3.62,29,17.62,4.76,30.13,9.45,60.27,14.26,90.39,1.43,8.92,3.57,17.75,4.65,26.71.67,5.63,0,11.43-.15,17.15-.11,3.7-2.24,7.54,1.57,10.84.73.62.19,2.89,0,4.36-.65,4.79-1.47,9.55-2.12,14.34-1.18,8.59.48,16.56,5.77,23.54,3.11,4.1,11.48,8.17,13.9,11.12-6.07-2.81-18.7-6.53-26.33-10.06l-.74,1.48c9.71,6.2,18.42,14.08,30.37,16.44,22.67,4.48,45.29,9.19,68,13.73,8.87,1.78,17.8,3.26,26.66,5.1a4.37,4.37,0,0,1,2.57,2.82c1.11,4.21,1.87,8.52,2.87,13.34-2.18.41-4.62,1-7.09,1.3-35.23,4.46-70.48,8.75-106.09,7.67-13.32-.4-26.94-1-38.41-8.64-7.19-4.78-13.15-11.4-19.62-17.25a30.73,30.73,0,0,1-2.73-3.25c-7.5,9.2-14.46,18.31-22.05,26.85-4.79,5.38-6.2,10.8-5.55,18,1.83,20.45-4.5,38.06-20.32,51.88-1.48,1.3-2.13,4.21-2.18,6.4-.38,18.72,0,37.48-.94,56.17-.8,16-3,31.86-4.72,47.77-.27,2.54-.31,4.33,2.81,5,17,3.65,29.6,13.94,39.85,27.36,13.1,17.16,25.87,34.58,38.93,51.77,2.35,3.1,2.3,5.44-.14,8.39-5.81,7-6,7.19-13.56,2.4-24-15.2-48.1-30.16-71.77-45.79a192.12,192.12,0,0,1-26.88-21.44,82.06,82.06,0,0,1-16.21-21c-10.67-20.66-20.5-41.76-30.08-63-5-11-8.77-22.5-12.88-33.85-.92-2.54-2-3.18-4.59-2.7q-31.19,5.75-62.42,11.25c-3.39.6-6.89.54-11.2.85-.63,1.88-1.48,4.89-2.61,7.78-7.46,19.17-19.28,35.53-33.13,50.45a316.18,316.18,0,0,1-56.92,48.22,9.83,9.83,0,0,1-1.09.62c-6.2-2.9-4.76-2.17-10.76-5.17Z"/><path class="cls-2" d="M995.5,792.88c-5-2-12-11-12-11l14.86-19.2c13.75-18,26.94-36.4,41.07-54.07,8.69-10.88,18.6-20.8,28.18-31,6-6.31,12.08-12.48,18.51-18.28,17.43-15.75,38.45-19.69,61.14-18.26,25.34,1.58,49.8,7.56,74.17,14.11.86.24,1.73.44,3.33.84a27.75,27.75,0,0,0-.66-5c-3.27-9.88-6.75-19.7-9.94-29.61-.88-2.72-2.25-3.18-4.93-3.2-33.22-.18-66.43-.55-99.64-.83-2.59,0-4.36-.7-4.69-3.64a13.52,13.52,0,0,0-1.31-3.36c-2.19-5.32-1.9-6,3.49-7.51,8.88-2.44,17.78-4.79,26.66-7.22a5.07,5.07,0,0,0,3.06-2.11l-38.67-5.54,0-.48c1.46,0,2.92.06,4.38,0s3.26.17,4.41-.53,1.7-3.94,1.61-5.16c-.22-3.08,0-2,0-7.34,21.71-4.42,44.34-9,67-13.67,6.06-1.24,12.09-2.65,18.16-3.89,2.74-.55,3.43-1.87,3.24-4.75-1.46-22.6,2.58-43.87,15.54-63,1.82-2.69,2.89-5.94,4-9s.14-4.7-3.53-4.74a100.35,100.35,0,0,1-13.07-1.12c-6.29-.87-10.57-4.23-11.87-10.72-1-4.83-1.84-9.68-2.81-14.8,5.81,0,11.49-.06,17.17,0,6.11.08,10.55-3.33,10.79-8.45a9.81,9.81,0,0,0-10.08-10c-4.49,0-9,1-13.46,1.58-2,.25-4.09.46-6.06.67-2.1-9.45,1.6-18.2,9.41-23,9.42-5.76,16.77-5.56,24.57,1a26,26,0,0,1,5.68,6.39c14.42,24,34.55,42.13,58,56.84,19.66,12.32,35.24,28.44,44.89,49.7,5.55,12.22,5.92,25.53,6.21,38.67.67,31-.94,61.89-3.78,92.75-1,11.12-1.12,22.33-1.34,33.5-.34,17-3.35,33.35-12.2,48.17-3,5.06-3.18,10.31-3,16.08.49,16.59.86,33.23,0,49.8-.89,17.77-3.23,35.46-4.9,53.19-.68,7.13-.64,7.11,6.18,8.84,12.64,3.21,23,10.41,30.94,20.29,14.69,18.21,28.64,37,42.88,55.58,2,2.6,1.45,1.77,3.39,4.41l2.58,3.41L1383.6,961c-2.1-1.85-3.76-4.31-6.08-5.79-23.53-15-47.31-29.63-70.7-44.86-14.56-9.49-28.83-19.76-39.44-33.68-6.41-8.42-11.51-18.1-15.84-27.81-13-29.22-25.75-58.58-37.78-88.22-4-9.79-9.63-15.7-19.46-20-24.31-10.63-48-22.72-71.92-34.22-1.32-.64-2.64-1.26-4-1.88-13.13,24.68-34.22,40.73-56.33,55.69-17.61,11.92-36.95,20.43-56.63,28.26Zm197.79-331.83c1.34-1.87,2.51-2.89,2.72-4.08.1-.52-1.74-1.4-2.7-2.11-.69.93-1.77,1.8-2,2.82C1191.23,458.43,1192.28,459.39,1193.29,461.05Z"/><path class="cls-3" d="M136,992.13c-1.47.43-2.94,1.22-4.42,1.23-5.4.06-10.83,0-16.2-.33-1.34-.08-2.51-1.24-3.76-1.9,1.31-.55,2.59-1.53,3.93-1.56,4.94-.11,9.92,0,14.85.25,1.89.11,3.67,1,5.5,1.47Z"/><path class="cls-3" d="M963.49,986.66c2.49.47,5.45.87,8.3,1.69a3.39,3.39,0,0,1,1.93,2.59c-.05.8-1.39,2-2.33,2.19a29.6,29.6,0,0,1-6.65.57,54.82,54.82,0,0,1-8.5-.64c-1.24-.22-2.32-1.36-3.47-2.08.87-1.1,1.55-2.82,2.65-3.16C957.81,987.08,960.42,987.05,963.49,986.66Z"/><path class="cls-4" d="M1196.92,438.65c-2,1.16-3.09,2.31-4.17,2.28-.77,0-1.51-1.61-2.26-2.5,1.1-.78,2.11-1.84,3.34-2.21C1194.36,436.07,1195.32,437.35,1196.92,438.65Z"/><path class="cls-4" d="M474.37,441.76l6.22.45.7,1.08L477,445.5Z"/><path class="cls-5" d="M1192.6,461.05c-.65-1.66-1.33-2.62-1.24-3.37a9.2,9.2,0,0,1,1.25-2.82c.61.71,1.79,1.59,1.73,2.11C1194.2,458.16,1193.46,459.18,1192.6,461.05Z"/><path d="M440.5,560.88s17,62,33,81,2.41,9.68,2.41,9.68L464.5,662.88S416.5,650.88,440.5,560.88Z"/><path d="M331.5,762.88s50-4,86-10c0,0-8,28-33,34-5.55,1.33-21.11,1.86-32.12,1.19-11.38-.69-13.43-4.6-15.86-11.3Z"/><path class="cls-6" d="M527.61,574.63s-4.11,15.25-12.11,25.25,3.93,20.42,3.93,20.42l98.07,18.58,4-17S530.72,575.39,527.61,574.63Z"/><path class="cls-7" d="M134.5,891.88l-15,18s0,14,15,5l16-16-3-5S138.5,904.88,134.5,891.88Z"/><path d="M1206.55,748l17.36,38.81a91.9,91.9,0,0,0,39.09-.39c10.45-2.43,20.85-4.85,29.5-13.5,8.33-8.33,17-31,17-31h0S1281.61,766,1206.55,748Z"/><path d="M1213.5,618.88s15,0,40-9,39-57,39-57,1,48-4,53-6.61,31.89-67,38Z"/><polygon points="1107 589.38 1108.61 574.54 1195 557.38 1205 578.88 1138.58 593.6 1107 589.38"/><path d="M976.9,789.38s-5.29,3.88,9.17,10.31a1.53,1.53,0,0,1,.39,2.57l-15,12.89a1.48,1.48,0,0,1-.43.27c-1.95.78-15.15,5.67-14.12-6.56a1.55,1.55,0,0,1,.48-1Z"/><ellipse class="cls-3" cx="467.5" cy="983.38" rx="200" ry="7.5"/><line class="cls-8" x1="560.26" y1="345.66" x2="1104" y2="435.38"/><line class="cls-9" x1="1041" y1="361.38" x2="1071" y2="400.38"/><line class="cls-9" x1="1078" y1="366.38" x2="1035" y2="397.38"/><text class="cls-10" transform="translate(626.09 549.81) rotate(9) scale(0.98 1)">4o4</text><ellipse class="cls-3" cx="1223.5" cy="985.38" rx="200" ry="7.5"/><path d="M1386.82,964.86s9-7,9-14c0,0,7,5,7,11s-7,19-7,19-14,3-17,2-2.29-7.28,4.36-7.14Z"/><path class="cls-5" d="M639.33,639.44l-.17,0-21-3.51c-.46-.27-.33-1.65.32-3.34l3-10,3,3.4a1.76,1.76,0,0,0,.53.4l11.69,5.7a.71.71,0,0,1,.31.31l3,6.08a.67.67,0,0,1,0,.66A.69.69,0,0,1,639.33,639.44Z"/><path class="cls-4" d="M622.06,622.1h0m-.37,1.46,2.4,2.73a2.32,2.32,0,0,0,.68.52l11.69,5.7a.15.15,0,0,1,.08.08l3,6.08a.17.17,0,0,1,0,.18.18.18,0,0,1-.15.09h-.05l-.08,0-20.79-3.47a5.53,5.53,0,0,1,.52-2.7l0-.07,2.73-9.11m-.45-1.91c-.12,0-.16.22-.24.73l-3,10c-.21.54-1.29,3.46,0,4l21,3.52a1.55,1.55,0,0,0,.29,0,1.19,1.19,0,0,0,1.06-1.71l-2.95-6.08a1.15,1.15,0,0,0-.55-.54l-11.68-5.7a1.29,1.29,0,0,1-.37-.28l-3-3.4c-.32-.37-.5-.58-.6-.58Z"/><path class="cls-11" d="M1107.29,574.1l-9-5.78a2.83,2.83,0,0,0-1.51-.44h-5.62a2.57,2.57,0,0,0-2.61,2.1l-2.52,17.9a2.52,2.52,0,0,0,2.87,2.7l16.33-1.5a2.52,2.52,0,0,0,2.36-2.22l.82-10.61A2.35,2.35,0,0,0,1107.29,574.1Z"/><path class="cls-11" d="M1102.83,605.29l4.46,10.87a1.1,1.1,0,0,1-1.13,1.52c-2.69-.29-7.5-.8-8.72-.8s-11.8,5-16.1,7.1a1.1,1.1,0,0,1-1.57-1.14l2.23-16.9a1.1,1.1,0,0,1,1.18-1,57,57,0,0,0,12.15-.1c4.12-.65,6-.45,6.78-.24A1.09,1.09,0,0,1,1102.83,605.29Z"/><text class="cls-12" transform="translate(618.11 598.51) rotate(9) scale(0.98 1)">page n<tspan class="cls-13" x="157.45" y="0">o</tspan><tspan x="186" y="0">t </tspan><tspan class="cls-14" x="218.75" y="0">f</tspan><tspan x="236.3" y="0">ound</tspan></text><line class="cls-15" x1="470.54" y1="435.71" x2="469.92" y2="451.26"/><line class="cls-2" x1="1183.53" y1="432.67" x2="1185.17" y2="448.85"/><path class="cls-16" d="M1027.34,707.64,548.89,628.9a35.28,35.28,0,0,1-29.21-40.21l46.65-293.76a34.82,34.82,0,0,1,40.18-28.8L1085,344.87a35.28,35.28,0,0,1,29.21,40.21l-46.66,293.76A34.81,34.81,0,0,1,1027.34,707.64Z"/><line class="cls-7" x1="1383.5" y1="960.88" x2="1387.5" y2="965.88"/><line class="cls-7" x1="1393.08" y1="948.29" x2="1396.5" y2="951.88"/><line class="cls-2" x1="983.5" y1="781.88" x2="973.5" y2="793.88"/><line class="cls-2" x1="995.5" y1="792.88" x2="986.5" y2="800.88"/><line class="cls-6" x1="134.5" y1="891.88" x2="145.47" y2="876.77"/><line class="cls-6" x1="147.5" y1="893.88" x2="163.26" y2="885.05"/><line class="cls-7" x1="504.5" y1="966.88" x2="499.91" y2="957.21"/><line class="cls-7" x1="513.5" y1="952.88" x2="508.77" y2="946.32"/><path class="cls-7" d="M504.5,966.88s9-7,9-14c0,0,7,5,7,11s-7,19-7,19-14,3-17,2-2.3-7.27,4.35-7.14Z"/></g></svg>