<svg xmlns="http://www.w3.org/2000/svg" viewBox="0 0 1600 1200"><defs><style>.cls-1{fill:#f6ebda;}.cls-12,.cls-2,.cls-7{fill:#2f3030;}.cls-2,.cls-5,.cls-6,.cls-9{stroke:#000;}.cls-11,.cls-2,.cls-5,.cls-6,.cls-7,.cls-9{stroke-miterlimit:10;}.cls-3{fill:#fefefe;}.cls-4{fill:#261134;}.cls-5{fill:#fbb755;}.cls-6{fill:#d1d5db;}.cls-11,.cls-7{stroke:#2f3030;}.cls-10,.cls-11,.cls-8,.cls-9{fill:#fff;}.cls-10{font-size:18px;font-family:Nunito-Bold, Nunito;font-weight:700;}.cls-13{fill:#fad338;}</style></defs><g id="_5" data-name="5"><g id="Background"><rect class="cls-1" y="-8" width="1600" height="1200"/></g><rect class="cls-2" x="1227.24" y="634.12" width="165.24" height="212.26" transform="translate(79.78 1606.63) rotate(-64.63)"/><rect class="cls-3" x="1268.42" y="662.74" width="165.24" height="194.08" transform="translate(85.68 1655) rotate(-64.63)"/><path class="cls-4" d="M1403.56,876.67l-.45-.21L1227.3,793.09l.21-.45,71-149.76.45.22,175.82,83.36-.22.46Zm-174.93-84.06,174.46,82.73,70.36-148.4L1299,644.21Z"/><polygon class="cls-5" points="1414.07 698.23 1396.42 735.45 1388.38 724.2 1377.19 725.84 1369.76 715.38 1357.58 717.03 1375.23 679.81 1414.07 698.23"/><rect class="cls-4" x="1318.7" y="722.28" width="2" height="44.78" transform="translate(81.42 1618.06) rotate(-64.63)"/><rect class="cls-4" x="1311.22" y="738.06" width="2" height="44.78" transform="translate(62.87 1620.29) rotate(-64.63)"/><rect class="cls-4" x="1303.73" y="753.84" width="2" height="44.78" transform="translate(44.35 1622.57) rotate(-64.63)"/><rect class="cls-3" x="1354.24" y="755.07" width="45.23" height="72.54" transform="translate(71.9 1696.37) rotate(-64.63)"/><path class="cls-4" d="M1400.18,828l-.45-.22-66-31.29,19.8-41.77.46.21,66,31.3Zm-65.12-32,64.64,30.65,19-40L1354,756Z"/><rect class="cls-5" x="139.66" y="658.58" width="241.65" height="167.6" rx="10.72" transform="translate(-297.95 188.19) rotate(-25.88)"/><path class="cls-5" d="M193.34,867.41a11.23,11.23,0,0,1-10.11-6.32L119.43,729.6a11.22,11.22,0,0,1,5.19-15l198.13-96.13a11.21,11.21,0,0,1,15,5.2l63.8,131.5a11.23,11.23,0,0,1-5.19,15L198.22,866.29A11.19,11.19,0,0,1,193.34,867.41ZM327.63,618.34a10.25,10.25,0,0,0-4.45,1L125.06,715.5a10.23,10.23,0,0,0-4.73,13.66l63.8,131.5a10.24,10.24,0,0,0,13.66,4.73l198.12-96.13a10.23,10.23,0,0,0,4.73-13.66l-63.8-131.5a10.15,10.15,0,0,0-5.85-5.19A10.27,10.27,0,0,0,327.63,618.34Z"/><rect class="cls-6" x="121.86" y="691.58" width="241.65" height="28.26" transform="translate(-283.73 176.74) rotate(-25.88)"/><path class="cls-6" d="M139.92,771.83l-12.77-26.32.45-.22L345.46,639.58l12.77,26.32-.45.22ZM128.48,746l11.9,24.53L356.9,665.44,345,640.92Z"/><rect class="cls-2" x="132.71" y="711.82" width="241.65" height="32.48" transform="translate(-292.4 183.72) rotate(-25.88)"/><rect class="cls-3" x="153.74" y="757.07" width="58.46" height="9.74" rx="4.87" transform="translate(-314.27 156.31) rotate(-25.88)"/><path class="cls-4" d="M161.06,778a5.37,5.37,0,0,1-2.35-10.21l43.83-21.27a5.37,5.37,0,0,1,4.69,9.67L163.4,777.41A5.41,5.41,0,0,1,161.06,778Zm43.82-31a4.37,4.37,0,0,0-1.9.44l-43.83,21.27a4.37,4.37,0,0,0,3.81,7.87l43.84-21.27a4.38,4.38,0,0,0-.48-8.07A4.44,4.44,0,0,0,204.88,746.93Z"/><rect class="cls-3" x="224.46" y="722.76" width="58.46" height="9.74" rx="4.87" transform="translate(-292.19 183.74) rotate(-25.88)"/><path class="cls-4" d="M231.78,743.63a5.37,5.37,0,0,1-4.84-3h0a5.38,5.38,0,0,1,2.49-7.18l43.83-21.27a5.37,5.37,0,0,1,4.69,9.67l-43.83,21.26A5.33,5.33,0,0,1,231.78,743.63Zm-3.94-3.46a4.36,4.36,0,0,0,5.84,2l43.83-21.26a4.4,4.4,0,0,0,2-5.85,4.38,4.38,0,0,0-5.84-2l-43.84,21.27a4.37,4.37,0,0,0-2,5.84Z"/><circle class="cls-3" cx="303.34" cy="705.7" r="4.87"/><path class="cls-4" d="M303.35,711.07a5.36,5.36,0,1,1,2.33-.53A5.36,5.36,0,0,1,303.35,711.07Zm0-9.74a4.23,4.23,0,0,0-1.9.44,4.37,4.37,0,1,0,3.34-.2A4.44,4.44,0,0,0,303.33,701.33Z"/><circle class="cls-3" cx="317.37" cy="698.9" r="4.87"/><path class="cls-4" d="M317.37,704.27a5.38,5.38,0,1,1,2.34-.54A5.39,5.39,0,0,1,317.37,704.27Zm0-9.75A4.37,4.37,0,1,0,321.3,697h0a4.39,4.39,0,0,0-2.5-2.23A4.48,4.48,0,0,0,317.36,694.52Z"/><circle class="cls-3" cx="331.39" cy="692.09" r="4.87"/><path class="cls-4" d="M331.4,697.46a5.37,5.37,0,1,1,4.83-7.72h0a5.37,5.37,0,0,1-4.83,7.71Zm0-9.74a4.37,4.37,0,1,0,4.14,5.8,4.31,4.31,0,0,0-.19-3.34A4.38,4.38,0,0,0,331.38,687.72Z"/><circle class="cls-3" cx="345.42" cy="685.28" r="4.87"/><path class="cls-4" d="M345.43,690.66a5.38,5.38,0,1,1,2.33-.54A5.37,5.37,0,0,1,345.43,690.66Zm0-9.75a4.35,4.35,0,1,0,1.44.24A4.44,4.44,0,0,0,345.41,680.91Z"/><circle class="cls-3" cx="321.33" cy="756.18" r="20.46"/><path class="cls-4" d="M321.35,777.15a21,21,0,1,1,9.13-2.11A21,21,0,0,1,321.35,777.15Zm-.05-40.93a20,20,0,1,0,18,11.24h0A20,20,0,0,0,321.3,736.22Z"/><circle class="cls-6" cx="342.37" cy="745.97" r="20.46"/><path class="cls-6" d="M342.39,766.94a21,21,0,1,1,9.13-2.11A21,21,0,0,1,342.39,766.94ZM342.34,726a20,20,0,1,0,18,11.24A19.81,19.81,0,0,0,342.34,726Z"/><rect class="cls-3" x="189.44" y="776.7" width="87.7" height="9.74" rx="4.87" transform="translate(-317.79 180.25) rotate(-25.88)"/><path class="cls-4" d="M198.23,804a5.37,5.37,0,0,1-2.35-10.21l70.13-34a5.39,5.39,0,0,1,7.18,2.49,5.38,5.38,0,0,1-2.49,7.18l-70.13,34A5.35,5.35,0,0,1,198.23,804Zm70.12-43.78a4.37,4.37,0,0,0-1.9.44l-70.14,34a4.38,4.38,0,0,0-2,5.84h0a4.38,4.38,0,0,0,5.84,2l70.13-34a4.38,4.38,0,0,0-.47-8.07A4.48,4.48,0,0,0,268.35,760.18Z"/><rect class="cls-3" x="196.25" y="790.72" width="87.7" height="9.74" rx="4.87" transform="translate(-323.23 184.62) rotate(-25.88)"/><path class="cls-4" d="M205,818a5.36,5.36,0,0,1-4.84-3h0a5.36,5.36,0,0,1,2.48-7.18l70.14-34a5.37,5.37,0,1,1,4.69,9.66l-70.14,34A5.26,5.26,0,0,1,205,818Zm-3.94-3.46a4.36,4.36,0,0,0,5.84,2l70.13-34a4.37,4.37,0,1,0-3.82-7.86l-70.13,34a4.37,4.37,0,0,0-2,5.84Z"/><rect class="cls-3" x="203.05" y="804.75" width="87.7" height="9.74" rx="4.87" transform="translate(-328.67 189) rotate(-25.88)"/><path class="cls-4" d="M211.84,832a5.38,5.38,0,0,1-2.35-10.21l70.13-34a5.37,5.37,0,0,1,4.69,9.67l-70.13,34A5.27,5.27,0,0,1,211.84,832ZM282,788.23a4.37,4.37,0,0,0-1.9.44l-70.13,34a4.38,4.38,0,0,0-2,5.84h0a4.38,4.38,0,0,0,5.84,2l70.14-34a4.37,4.37,0,0,0-.48-8.06A4.2,4.2,0,0,0,282,788.23Z"/><path class="cls-4" d="M838.59,247.33a46.13,46.13,0,0,0-5.53-1.91l.55-1.92a47.79,47.79,0,0,1,5.8,2Z"/><path class="cls-4" d="M462.71,447l-.26-2c4.09-.54,8.08-1.12,11.88-1.73l.32,2C470.83,445.83,466.81,446.41,462.71,447Zm23.82-3.84-.39-2c4-.79,8-1.65,11.71-2.56l.47,2C494.55,441.45,490.58,442.31,486.53,443.11Zm23.46-5.7-.57-1.92c3.91-1.16,7.73-2.42,11.36-3.76l.69,1.88C517.8,435,513.94,436.24,510,437.41ZM532.67,429l-.83-1.82c3.63-1.64,7.22-3.45,10.68-5.36l1,1.75C540,425.54,536.34,427.37,532.67,429Zm21.16-11.7-1.1-1.67c3.17-2.08,6.37-4.34,9.78-6.9l1.2,1.6C560.27,412.94,557,415.22,553.83,417.33Zm19.31-14.57-1.33-1.49a84.86,84.86,0,0,0,8.33-8.48l1.52,1.29A85.55,85.55,0,0,1,573.14,402.76Zm51.28-1.26c-1.15,0-2.31,0-3.48-.07l.07-2a84.6,84.6,0,0,0,11.88-.35l.2,2C630.27,401.35,627.35,401.5,624.42,401.5Zm-15.57-1.26c-3.87-.61-7.86-1.45-11.87-2.49l.5-1.94a118.79,118.79,0,0,0,11.68,2.45Zm36.22-1.35-.52-1.93a67.77,67.77,0,0,0,11.14-4l.84,1.81A69.5,69.5,0,0,1,645.07,398.89Zm-59.68-4.7c-2.17-.76-4.41-1.6-6.65-2.5-1.57-.63-3.12-1.34-4.61-2.11l.93-1.77a47.82,47.82,0,0,0,4.42,2c2.21.89,4.43,1.72,6.58,2.48Zm81.68-5.59L665.91,387a65.94,65.94,0,0,0,9-7.71l1.43,1.39A67.36,67.36,0,0,1,667.07,388.6Zm-78.41-4.52-1.74-1a47,47,0,0,0,4.44-10.88l1.93.51A48,48,0,0,1,588.66,384.08Zm-24.6-1.48a45.25,45.25,0,0,1-6.3-7c-.56-.76-1.1-1.57-1.61-2.41l1.71-1c.48.79,1,1.56,1.51,2.28a43.72,43.72,0,0,0,6,6.68Zm120-11.42-1.66-1.12a64.14,64.14,0,0,0,5.71-10.37l1.83.8A67.31,67.31,0,0,1,684,371.18Zm-132.63-9.31a36.78,36.78,0,0,1-1.18-9.06,31,31,0,0,1,.17-3.22l2,.2a30.07,30.07,0,0,0-.16,3,34.85,34.85,0,0,0,1.12,8.57Zm41.24-1.26a39.83,39.83,0,0,0-2.21-11.49l1.89-.66a42.08,42.08,0,0,1,2.32,12.07Zm101.62-11.39-1.87-.73c1.5-3.8,3-7.55,4.61-11.15l1.84.8C697.27,341.71,695.73,345.44,694.25,349.22ZM556,338.91l-1.69-1.08c2-3.05,5.8-5.89,10.05-7.42l.68,1.88C561.23,333.66,557.68,336.25,556,338.91Zm29.09-.22a20.61,20.61,0,0,0-3-3.47,17.1,17.1,0,0,0-5.91-3.32l.6-1.91a19.2,19.2,0,0,1,6.6,3.7,22.58,22.58,0,0,1,3.3,3.84Zm118.74-11.45-1.8-.87c1.78-3.68,3.63-7.29,5.49-10.75l1.76.95C707.42,320,705.59,323.59,703.82,327.24Zm11.4-21.06-1.71-1c2.13-3.51,4.34-6.92,6.57-10.14l1.64,1.13C719.52,299.33,717.33,302.71,715.22,306.18Zm13.61-19.66-1.56-1.24c2.55-3.22,5.2-6.32,7.87-9.2l1.46,1.36C734,280.29,731.36,283.34,728.83,286.52ZM745.08,269l-1.35-1.49c3-2.75,6.19-5.34,9.37-7.7l1.19,1.61A118.87,118.87,0,0,0,745.08,269Zm19.15-14.14-1-1.73a102,102,0,0,1,10.85-5.46l.79,1.84A96.11,96.11,0,0,0,764.23,254.9Zm21.84-9.33-.55-1.92a89,89,0,0,1,11.9-2.51l.28,2A88.09,88.09,0,0,0,786.07,245.57ZM821.43,243a87.53,87.53,0,0,0-11.46-.76h-.41v-2H810a88.06,88.06,0,0,1,11.72.78Z"/><path class="cls-4" d="M444.46,449l-.19-2,6-.59.21,2C448.48,448.6,446.48,448.8,444.46,449Z"/><polygon class="cls-4" points="761 275.8 761 228.78 905.18 183.5 761 275.8"/><path class="cls-4" d="M760.5,276.72V228.41l.35-.11,147.76-46.41Zm1-47.58v45.75l140.25-89.8Z"/><polygon class="cls-3" points="731.45 202.52 761.92 229.15 901.09 184.59 731.45 202.52"/><path class="cls-4" d="M761.81,229.71l-.22-.18-31.33-27.39,175.62-18.56ZM732.64,202.9,762,228.59l134.26-43Z"/><polygon class="cls-3" points="771.71 244.79 760.91 275.89 822.06 236.59 810.68 226.85 771.71 244.79"/><path class="cls-4" d="M760,277.1l11.34-32.68,39.46-18.15,12.13,10.38Zm12.15-32-10.25,29.54,59.36-38.16-10.62-9.09Z"/><polygon class="cls-3" points="815.8 299.5 771.71 244.79 904.09 184.59 815.8 299.5"/><path class="cls-4" d="M815.81,300.31l-.4-.5-44.5-55.21.59-.27,134.2-61ZM772.5,245l43.29,53.71,86.68-112.82Z"/><g id="Location_icon" data-name="Location icon"><path class="cls-5" d="M1086,266.44a30.5,30.5,0,1,0-58.61,11.84h0a28.73,28.73,0,0,0,1.61,3.24l26.2,52.72L1081.71,282a31.38,31.38,0,0,0,1.9-3.75h0A30.31,30.31,0,0,0,1086,266.44Zm-30.2,12.88a12.14,12.14,0,1,1,12.14-12.14A12.14,12.14,0,0,1,1055.8,279.32Z"/><path class="cls-5" d="M1055.2,335.36l-26.65-53.6a32.13,32.13,0,0,1-1.62-3.28,31,31,0,1,1,57.14,0,30.4,30.4,0,0,1-1.93,3.82Zm.3-98.92a30,30,0,0,0-27.65,41.65,31.55,31.55,0,0,0,1.58,3.2l25.78,51.85,26-51.32a30.41,30.41,0,0,0,1.89-3.73,30,30,0,0,0-27.65-41.65Zm.3,43.38a12.64,12.64,0,1,1,12.64-12.64A12.65,12.65,0,0,1,1055.8,279.82Zm0-24.28a11.64,11.64,0,1,0,11.64,11.64A11.65,11.65,0,0,0,1055.8,255.54Z"/></g><rect class="cls-7" x="434.42" y="508.62" width="731.1" height="468.47" rx="14.31"/><rect class="cls-8" x="452.51" y="522.5" width="661.28" height="431.35"/><path class="cls-8" d="M1114.29,954.35H452V522h662.28Zm-661.28-1h660.28V523H453Z"/><circle class="cls-3" cx="1142.4" cy="711.85" r="16.25"/><path d="M1142.4,728.6a16.75,16.75,0,1,1,16.76-16.75A16.77,16.77,0,0,1,1142.4,728.6Zm0-32.5a15.75,15.75,0,1,0,15.76,15.75A15.77,15.77,0,0,0,1142.4,696.1Z"/><path class="cls-6" d="M404.9,530.57a56.54,56.54,0,0,1-113.08,0Z"/><path class="cls-6" d="M348.36,587.37a57.15,57.15,0,0,1-57-56.8v-.5H405.4v.5A57.15,57.15,0,0,1,348.36,587.37Zm-56-56.3a56,56,0,0,0,112.06,0Z"/><path class="cls-6" d="M518,530.57a56.54,56.54,0,0,1-113.07,0Z"/><path class="cls-6" d="M461.43,587.37a57.14,57.14,0,0,1-57-56.8v-.5H518.47v.5A57.14,57.14,0,0,1,461.43,587.37Zm-56-56.3a56,56,0,0,0,112.07,0Z"/><path class="cls-6" d="M631.05,530.57a56.54,56.54,0,0,1-113.08,0Z"/><path class="cls-6" d="M574.51,587.37a57.15,57.15,0,0,1-57-56.8v-.5H631.55v.5A57.15,57.15,0,0,1,574.51,587.37Zm-56-56.3a56,56,0,0,0,112.06,0Z"/><path class="cls-6" d="M744.12,530.57a56.54,56.54,0,0,1-113.07,0Z"/><path class="cls-6" d="M687.59,587.37a57.14,57.14,0,0,1-57-56.8v-.5H744.62v.5A57.14,57.14,0,0,1,687.59,587.37Zm-56-56.3a56,56,0,0,0,112.07,0Z"/><path class="cls-6" d="M857.2,530.57a56.54,56.54,0,0,1-113.08,0Z"/><path class="cls-6" d="M800.66,587.37a57.15,57.15,0,0,1-57-56.8v-.5H857.7v.5A57.15,57.15,0,0,1,800.66,587.37Zm-56-56.3a56,56,0,0,0,112.06,0Z"/><polygon class="cls-3" points="292.05 530.79 442.21 444.73 517.74 444.73 405.13 530.79 292.05 530.79"/><path class="cls-4" d="M405.3,531.29H290.17l151.9-87.06h77.15Zm-111.37-1H405l111.31-85.06H442.34Z"/><polygon class="cls-5" points="600.15 444.73 517.74 530.34 404.67 530.34 517.74 444.73 600.15 444.73"/><path class="cls-5" d="M518,530.84H403.18l114.4-86.61h83.74Zm-111.8-1H517.53L599,445.23H517.91Z"/><polygon class="cls-3" points="630.82 530.34 682.09 444.73 600.15 444.73 517.74 530.34 630.82 530.34"/><path class="cls-4" d="M631.1,530.84H516.57l83.36-86.61h83Zm-112.18-1H630.54l50.67-84.61H600.36Z"/><polygon class="cls-5" points="744.12 530.57 759.69 444.5 681.4 444.5 631.05 530.57 744.12 530.57"/><path class="cls-5" d="M744.54,531.07H630.18L681.12,444h79.17Zm-112.62-1H743.71L759.09,445h-77.4Z"/><path class="cls-6" d="M1196.42,530.57a56.54,56.54,0,0,0,113.08,0Z"/><path class="cls-6" d="M1253,587.37a57.15,57.15,0,0,1-57-56.8v-.5H1310v.5A57.14,57.14,0,0,1,1253,587.37Zm-56-56.3a56,56,0,0,0,112.07,0Z"/><path class="cls-6" d="M1083.35,530.57a56.54,56.54,0,0,0,113.07,0Z"/><path class="cls-6" d="M1139.89,587.37a57.14,57.14,0,0,1-57-56.8v-.5h114.08v.5A57.14,57.14,0,0,1,1139.89,587.37Zm-56-56.3a56,56,0,0,0,112.07,0Z"/><path class="cls-6" d="M970.27,530.57a56.54,56.54,0,0,0,113.08,0Z"/><path class="cls-6" d="M1026.81,587.37a57.15,57.15,0,0,1-57-56.8v-.5h114.08v.5A57.15,57.15,0,0,1,1026.81,587.37Zm-56-56.3a56,56,0,0,0,112.06,0Z"/><path class="cls-6" d="M857.2,530.57a56.54,56.54,0,0,0,113.07,0Z"/><path class="cls-6" d="M913.74,587.37a57.14,57.14,0,0,1-57-56.8v-.5H970.78v.5A57.14,57.14,0,0,1,913.74,587.37Zm-56-56.3a56,56,0,0,0,112.07,0Z"/><polygon class="cls-3" points="1309.27 530.79 1159.11 444.73 1083.58 444.73 1196.2 530.79 1309.27 530.79"/><path class="cls-4" d="M1311.15,531.29H1196l-.14-.1-113.79-87h77.15l.11.06Zm-114.78-1h111L1159,445.23h-73.92Z"/><polygon class="cls-5" points="1001.17 444.73 1083.58 530.34 1196.65 530.34 1083.58 444.73 1001.17 444.73"/><path class="cls-5" d="M1198.14,530.84H1083.37L1000,444.23h83.75l.13.1Zm-114.35-1h111.37l-111.75-84.61h-81.06Z"/><polygon class="cls-3" points="970.5 530.34 919.23 444.73 1001.17 444.73 1083.58 530.34 970.5 530.34"/><path class="cls-4" d="M1084.75,530.84H970.22l-.15-.25-51.72-86.36h83Zm-114-1H1082.4L1001,445.23H920.11Z"/><polygon class="cls-5" points="857.2 530.57 840.72 444.5 919.46 444.5 970.27 530.57 857.2 530.57"/><path class="cls-5" d="M971.15,531.07H856.79L840.11,444h79.63l.15.25Zm-113.54-1H969.4L919.17,445H841.32Z"/><polygon class="cls-3" points="857.2 530.57 840.72 444.5 759.69 444.5 744.12 530.57 857.2 530.57"/><path class="cls-4" d="M857.8,531.07H743.52L759.27,444h81.86Zm-113.08-1H856.59L840.3,445H760.11Z"/><rect class="cls-3" x="611.14" y="604.21" width="338.72" height="243.07"/><path class="cls-4" d="M951,847.78H610V603.71H951Zm-338.72-1H948.72V604.71H612.28Z"/><rect class="cls-3" x="709.33" y="865.21" width="128.64" height="5.95"/><path class="cls-4" d="M838.47,871.67H708.83v-7H838.47Zm-128.64-1H837.47v-5H709.83Z"/><rect class="cls-3" x="709.33" y="878.95" width="128.64" height="5.95"/><path class="cls-4" d="M838.47,885.4H708.83v-6.95H838.47Zm-128.64-1H837.47v-4.95H709.83Z"/><rect class="cls-5" x="698" y="906.19" width="149" height="32.5"/><path class="cls-5" d="M847.5,939.19h-150v-33.5h150Zm-149-1h148v-31.5h-148Z"/><g id="Hand"><path class="cls-9" d="M434.42,856.89S453,851,462.58,813c0,0,1.83-56.76,46.24-50.81,0,0,6.41,192.73-37.08,222.95l12.36,70.95s-67.76,18.77-114-6.86c0,0-21.05-158.4-7.78-219.74,0,0,9.16-22.85,72.1-67.74Z"/><path class="cls-9" d="M431,1063.17c-20,0-42.4-3.09-61.16-13.49l-.22-.12,0-.25c-.21-1.58-20.92-159.18-7.78-219.91.12-.31,10-23.58,72.3-68l.79-.57v95.35c3.35-1.49,18.75-10,27.16-43.2.06-1.45,1.5-29.82,18-43.82,7.62-6.46,17.3-9,28.77-7.42l.42.06,0,.42c0,.49,1.56,48.81-2.24,100.2-5.07,68.78-16.78,110.16-34.8,123l12.39,71.09-.44.13A225,225,0,0,1,431,1063.17Zm-60.45-14.24c43.59,24,107.06,8.35,113,6.82l-12.33-70.82.26-.18c41.79-29,37.17-212,36.88-222.1-11-1.38-20.27,1.05-27.57,7.24-16.55,14-17.67,42.86-17.68,43.15l0,.11c-9.57,37.83-27.72,44-28.48,44.22l-.66.21V762.74c-61.31,43.86-71,66.73-71.13,67C350,889,369.63,1041.75,370.57,1048.93Z"/></g><text class="cls-10" transform="translate(750.96 929.13)">RENT</text><circle class="cls-7" cx="777.11" cy="826.57" r="7.65"/><path class="cls-7" d="M777.11,834.46a7.89,7.89,0,1,1,7.89-7.89A7.89,7.89,0,0,1,777.11,834.46Zm0-15.3a7.42,7.42,0,0,0,0,14.83c4.09,0,6.42-3.33,6.42-7.42S781.2,819.16,777.11,819.16Z"/><circle class="cls-11" cx="752.57" cy="826.72" r="7.65"/><path class="cls-11" d="M752.57,834.61a7.89,7.89,0,1,1,7.89-7.89A7.9,7.9,0,0,1,752.57,834.61Zm0-15.3a7.42,7.42,0,1,0,7.42,7.41A7.42,7.42,0,0,0,752.57,819.31Z"/><circle class="cls-11" cx="798.57" cy="826.72" r="7.65"/><path class="cls-11" d="M798.57,834.61a7.89,7.89,0,1,1,7.89-7.89A7.9,7.9,0,0,1,798.57,834.61Zm0-15.3a7.42,7.42,0,1,0,7.42,7.41A7.42,7.42,0,0,0,798.57,819.31Z"/><g id="Hand-2" data-name="Hand"><path class="cls-9" d="M922.21,867.37S881.92,800.08,832,822.05c0,0,60,83.32,66.84,101.63s26.55,60,80.11,93.85l26.1,79.2s105.75,35.25,149.7-13.74l-33.42-90.64s-6.41-173.05-31.13-186.78-33,5.49-33,5.49-6.86-47.15-46.69-22.89c0,0-12.36-37.08-57.68-11L896.49,649.53a33.11,33.11,0,0,0-39.32-19.7,12.82,12.82,0,0,0-7.61,5.54c-2.11,3.4-3.77,8.86-1.13,16.63Z"/><path class="cls-9" d="M1080.75,1109.48c-6,0-11.88-.29-17.36-.75a284.07,284.07,0,0,1-58.48-11.53l-.24-.08-26.12-79.26c-51.25-32.47-72.22-72.83-80.16-94-6.77-18-66.18-100.68-66.78-101.52l-.36-.5.57-.25c20.59-9.06,42.84-4.05,64.33,14.5a146,146,0,0,1,24.27,27.61L848,652.17c-2.75-8.11-.87-13.75,1.18-17.06a13.3,13.3,0,0,1,7.91-5.76,33.58,33.58,0,0,1,39.91,20l56.16,127.13c15.6-8.87,29-11.28,39.88-7.15,11.78,4.48,16.77,15.46,17.83,18.11,11.53-6.9,21.44-8.48,29.46-4.71,12,5.65,16.19,21.88,17.2,26.82a19.17,19.17,0,0,1,10.17-8.41c6.41-2.2,14.09-.85,22.81,4,24.6,13.67,31.08,179,31.38,187.12l33.5,90.85-.2.23C1136.58,1104,1106.91,1109.48,1080.75,1109.48Zm-75.29-13.15a283.46,283.46,0,0,0,58,11.4c28.93,2.43,68.1.09,90.69-24.85l-33.34-90.43v-.08c-.07-1.73-6.68-172.92-30.88-186.36-8.45-4.7-15.85-6-22-3.93a18.5,18.5,0,0,0-10.27,9.18l-.69,1.62-.26-1.74c0-.21-3.22-21.08-16.91-27.51-7.82-3.67-17.58-2-29,5l-.54.33-.19-.6c-.05-.13-4.53-13.16-17.46-18.06-10.69-4.06-24-1.59-39.5,7.35l-.48.28-.23-.51L896,649.73a32.6,32.6,0,0,0-38.73-19.42,12.31,12.31,0,0,0-7.32,5.32c-1.94,3.13-3.71,8.48-1.08,16.21l75.32,219.87-2.44-4.08a144.19,144.19,0,0,0-26.3-30.8c-14.66-12.64-37.39-25.38-62.69-14.57,5,7,60,83.82,66.54,101.25,7.9,21.08,28.79,61.27,79.91,93.6l.15.09.06.17Z"/></g></g><g id="_4" data-name="4"><path class="cls-11" d="M827.24,718.2h13.7a2.13,2.13,0,0,1,1.67.81l6.93,8.7a2.14,2.14,0,0,1-1.67,3.46H827.24Z"/><path class="cls-11" d="M847.87,731.33H827.08V718h13.86a2.29,2.29,0,0,1,1.8.87l6.92,8.7a2.29,2.29,0,0,1-1.79,3.72ZM827.4,731h20.47a2,2,0,0,0,1.77-1.12,1.92,1.92,0,0,0-.23-2.08l-6.92-8.71a2,2,0,0,0-1.55-.74H827.4Z"/><rect class="cls-7" x="687.75" y="661.32" width="11.12" height="4.23" rx="2.12"/><rect class="cls-7" x="705.26" y="665.93" width="8.49" height="12.05"/><path class="cls-5" d="M691.88,755.19V684.82A10.83,10.83,0,0,1,702.71,674H734a10.83,10.83,0,0,1,10.83,10.83v64.8a9.92,9.92,0,0,0,9.92,9.92h8.79a9.93,9.93,0,0,0,9.93-9.92V721.3s-.21-8.55-5.51-9.79H822s22.47,18.31,27.19,47.85v3.26H691.88Z"/><path class="cls-5" d="M849.35,762.78H691.72v-78a11,11,0,0,1,11-11H734a11,11,0,0,1,11,11v64.8a9.77,9.77,0,0,0,9.76,9.76h8.79a9.78,9.78,0,0,0,9.77-9.76V721.3c0-.08-.27-8.44-5.38-9.63l-1.35-.32h55.52l0,0A79.89,79.89,0,0,1,834,724.26c5.68,7.56,12.95,19.78,15.39,35.07ZM692,762.46H849v-3.1c-2.43-15.2-9.68-27.37-15.33-34.9A80.94,80.94,0,0,0,822,711.67h-53c4.43,2,4.67,9.29,4.67,9.62v28.33a10.09,10.09,0,0,1-10.08,10.08h-8.79a10.09,10.09,0,0,1-10.08-10.08v-64.8A10.69,10.69,0,0,0,734,674.15H702.71A10.68,10.68,0,0,0,692,684.82Z"/><rect class="cls-7" x="709.38" y="673.99" width="3.83" height="70.73"/><rect class="cls-7" x="759.03" y="762.8" width="50.75" height="10.42"/><ellipse class="cls-7" cx="828.08" cy="767.51" rx="23.11" ry="26.28"/><ellipse class="cls-3" cx="831.98" cy="766.36" rx="15.04" ry="17.11"/><path class="cls-4" d="M832,783.62c-8.39,0-15.21-7.74-15.21-17.26s6.82-17.27,15.21-17.27,15.2,7.74,15.2,17.27S840.36,783.62,832,783.62Zm0-34.21c-8.21,0-14.89,7.6-14.89,17S823.77,783.3,832,783.3s14.88-7.6,14.88-16.94S840.18,749.41,832,749.41Z"/><path class="cls-7" d="M824,766.43c0,3.8,1.78,7.18,7.51,7.18,3.34,0,4.61-3.38,4.61-7.18s-1.27-6.89-4.61-6.89C825.81,759.54,824,762.62,824,766.43Z"/><ellipse class="cls-3" cx="831.9" cy="766.43" rx="6.06" ry="6.89"/><path class="cls-4" d="M831.9,773.47c-3.43,0-6.21-3.16-6.21-7s2.78-7,6.21-7,6.22,3.16,6.22,7S835.33,773.47,831.9,773.47Zm0-13.77c-3.25,0-5.89,3-5.89,6.73s2.64,6.72,5.89,6.72,5.9-3,5.9-6.72S835.15,759.7,831.9,759.7Z"/><ellipse class="cls-7" cx="697.88" cy="767.51" rx="23.11" ry="26.28"/><ellipse class="cls-3" cx="701.78" cy="766.36" rx="15.04" ry="17.11"/><path class="cls-4" d="M701.78,783.62c-8.38,0-15.2-7.74-15.2-17.26s6.82-17.27,15.2-17.27,15.2,7.74,15.2,17.27S710.16,783.62,701.78,783.62Zm0-34.21c-8.21,0-14.88,7.6-14.88,17s6.67,16.94,14.88,16.94,14.88-7.6,14.88-16.94S710,749.41,701.78,749.41Z"/><path class="cls-7" d="M693.84,766.43c0,3.8,1.78,6.88,7.5,6.88,3.35,0,4.61-3.08,4.61-6.88s-1.26-6.89-4.61-6.89C695.62,759.54,693.84,762.62,693.84,766.43Z"/><ellipse class="cls-3" cx="701.7" cy="766.43" rx="6.06" ry="6.89"/><path class="cls-4" d="M701.7,773.47c-3.42,0-6.21-3.16-6.21-7s2.79-7,6.21-7,6.22,3.16,6.22,7S705.13,773.47,701.7,773.47Zm0-13.77c-3.25,0-5.89,3-5.89,6.73s2.64,6.72,5.89,6.72,5.9-3,5.9-6.72S705,759.7,701.7,759.7Z"/><path class="cls-7" d="M870.56,759.46h-2.94a6.16,6.16,0,0,0-6.1-5.36H796.27v12.33h65.25a6.17,6.17,0,0,0,6-4.91h3Z"/><path class="cls-5" d="M859,762.62s4.07-32.48-33.89-41.32C811.41,718.11,780,716,787,762.62Z"/><path class="cls-5" d="M859.12,762.78H786.88l0-.14c-2.63-17.34-.17-29.64,7.31-36.55,9.14-8.45,23.32-6.73,31-5,8.68,2,15.87,5.46,21.37,10.22a36,36,0,0,1,9.92,13.85,38.84,38.84,0,0,1,2.72,17.43Zm-72-.32h71.69a38.77,38.77,0,0,0-2.72-17.14c-3.39-8.38-11.53-19.32-31.07-23.87-7.57-1.76-21.63-3.48-30.66,4.87C787,733.14,784.58,745.3,787.15,762.46Z"/><path class="cls-7" d="M771.53,713.41h47.59a9,9,0,0,0,9-9h0a9,9,0,0,0-9.67-8.93L771,699.3a7.07,7.07,0,0,0-6.51,7.05h0A7.07,7.07,0,0,0,771.53,713.41Z"/><path class="cls-5" d="M722.76,759H668.39a34.72,34.72,0,0,1,6.3-15.28c11.8-15.8,36.34-13.63,45,4.06A31.94,31.94,0,0,1,722.76,759Z"/><path class="cls-5" d="M722.93,759.18H668.21l0-.18a35.21,35.21,0,0,1,6.33-15.35,26.73,26.73,0,0,1,45.31,4.08,32.12,32.12,0,0,1,3,11.27Zm-54.36-.32h54a31.75,31.75,0,0,0-3-11,26.41,26.41,0,0,0-44.76-4A35,35,0,0,0,668.57,758.86Z"/><path class="cls-7" d="M859.34,764.72H719.44v-4.23H668.39v-3.83h51.14a3.75,3.75,0,0,1,3.74,3.74v.49H859.34Z"/><polygon class="cls-7" points="761.22 785.38 751.87 785.38 751.87 781.55 759.92 781.55 777.89 767.81 780.22 770.85 761.22 785.38"/><path class="cls-5" d="M714,669.94H702.39a8.74,8.74,0,0,1-2.06-.25,8.52,8.52,0,0,1,0-16.52,8.74,8.74,0,0,1,2.06-.25h1.68a16.83,16.83,0,0,1,14.44,7.92q.25.4.48.84A5.62,5.62,0,0,1,714,669.94Z"/><path class="cls-5" d="M714,670.1H702.39a8.67,8.67,0,0,1-6.13-14.8,8.76,8.76,0,0,1,4-2.29,9.34,9.34,0,0,1,2.1-.25h1.68a17.06,17.06,0,0,1,14.58,8q.26.4.48.84a5.78,5.78,0,0,1-5.1,8.5Zm-11.64-17a8.58,8.58,0,0,0-2,.24,8.35,8.35,0,0,0,0,16.21,8.1,8.1,0,0,0,2,.25H714a5.44,5.44,0,0,0,4.7-2.67,5.37,5.37,0,0,0,.12-5.36c-.15-.28-.31-.56-.47-.82a16.74,16.74,0,0,0-14.31-7.85Z"/><path class="cls-12" d="M706.2,661.43a11.43,11.43,0,0,1-3.79,8.51h0a8.51,8.51,0,0,1,0-17h0A11.43,11.43,0,0,1,706.2,661.43Z"/><path class="cls-3" d="M703.86,661.43a11.41,11.41,0,0,1-3.53,8.26,8.52,8.52,0,0,1,0-16.52A11.37,11.37,0,0,1,703.86,661.43Z"/><path class="cls-4" d="M700.38,669.86l-.08,0a8.67,8.67,0,0,1-4-14.54,8.76,8.76,0,0,1,4-2.29l.09,0,.06.06a11.61,11.61,0,0,1,0,16.75Zm-.1-16.52a8.36,8.36,0,0,0,0,16.17,11.28,11.28,0,0,0,0-16.17Z"/><rect class="cls-13" x="719.2" y="662.18" width="6.27" height="2.59"/><path class="cls-4" d="M725.63,664.93H719V662h6.59Zm-6.27-.32h5.95v-2.27h-5.95Z"/><rect class="cls-7" x="714.73" y="661.32" width="6.74" height="4.23" rx="2.12"/><rect class="cls-7" x="724.29" y="661.32" width="11.12" height="4.23" rx="2.12"/><rect class="cls-8" x="807.05" y="754.44" width="31.16" height="1.78"/><path d="M838.37,756.38H806.89v-2.1h31.48Zm-31.16-.32h30.84V754.6H807.21Z"/><rect class="cls-8" x="807.05" y="749.73" width="31.16" height="1.78"/><path d="M838.37,751.67H806.89v-2.1h31.48Zm-31.16-.32h30.84v-1.46H807.21Z"/><rect class="cls-8" x="807.05" y="745.02" width="31.16" height="1.78"/><path d="M838.37,747H806.89v-2.1h31.48Zm-31.16-.32h30.84v-1.46H807.21Z"/><rect class="cls-12" x="725.34" y="785.34" width="65.43" height="0.64"/></g></svg>