<svg xmlns="http://www.w3.org/2000/svg" viewBox="0 0 1600 1200"><defs><style>.cls-1{fill:#f6ebda;}.cls-2{fill:#261134;}.cls-3{fill:#fefefe;}.cls-13,.cls-4,.cls-7{fill:#2f3030;}.cls-11,.cls-4,.cls-6,.cls-8{stroke:#000;}.cls-11,.cls-13,.cls-14,.cls-4,.cls-6,.cls-8{stroke-miterlimit:10;}.cls-5{fill:#f9d9aa;}.cls-10,.cls-14,.cls-6{fill:#fff;}.cls-8,.cls-9{fill:#fbb755;}.cls-11{fill:#d1d5db;}.cls-12{fill:#cdcbcc;}.cls-13,.cls-14{stroke:#2f3030;}</style></defs><g id="_6" data-name="6"><g id="Background"><rect class="cls-1" y="5" width="1600" height="1200"/></g><g id="Dotted_line" data-name="Dotted line"><path class="cls-2" d="M504.11,988.18a422.32,422.32,0,0,1-83.75-236.07c-.24-5.83-.36-11.76-.36-17.61h1c0,5.84.12,11.75.36,17.57a421.41,421.41,0,0,0,83.55,235.52Z"/><path class="cls-2" d="M1172.51,466.59a427.72,427.72,0,0,0-143.69-113.48l.44-.9a428.68,428.68,0,0,1,144,113.75Z"/><path class="cls-2" d="M582.3,401.91l-.62-.79a425.15,425.15,0,0,1,414.41-63.25l-.36.93A421.72,421.72,0,0,0,844.5,311C748.3,311,657.63,342.44,582.3,401.91Z"/><path class="cls-2" d="M480.25,523.46l-.87-.5a425.72,425.72,0,0,1,72.23-92.84l.7.71A424.86,424.86,0,0,0,480.25,523.46Z"/></g><polygon class="cls-3" points="280.42 860.03 554.77 860.03 610.88 1050.2 336.54 1050.2 280.42 860.03"/><path class="cls-2" d="M611.55,1050.7H336.17l-.11-.35-56.3-190.81H555.14l.11.35Zm-274.64-1h273.3L554.39,860.54H281.09Z"/><rect class="cls-4" x="438.12" y="1050.37" width="280.32" height="16.04"/><path class="cls-4" d="M718.94,1066.91H437.62v-17H718.94Zm-280.32-1H717.94v-15H438.62Z"/><rect class="cls-3" x="334.98" y="1050.37" width="110.67" height="16.04"/><path class="cls-2" d="M446.15,1066.91H334.48v-17H446.15Zm-110.67-1H445.15v-15H335.48Z"/><polygon class="cls-5" points="303.81 877.18 540.74 877.18 585.94 1031.5 349.01 1031.5 303.81 877.18"/><path class="cls-5" d="M586.61,1032h-238l-.11-.36-45.39-155h238l.11.36Zm-237.23-1H585.27L540.36,877.68H304.47Z"/><polygon class="cls-3" points="384.5 923.5 482.5 923.5 493.5 963.5 395.5 963.5 384.5 923.5"/><path class="cls-2" d="M494.16,964h-99l-11.28-41h99Zm-98.28-1h97l-10.72-39h-97Z"/><polygon class="cls-2" points="432.87 956.42 414.79 942.59 417.21 939.41 433.13 951.58 467.96 930.29 470.04 933.71 432.87 956.42"/><path class="cls-6" d="M574.35,925.86l-2.56,42.08h0a10.41,10.41,0,0,0,9.94-7.3l10.47-33.51Z"/><path class="cls-6" d="M571.79,968.44h-.53l2.62-43.12,19,1.36-10.65,34.11A10.88,10.88,0,0,1,571.79,968.44Zm3-42.05-2.48,41a9.85,9.85,0,0,0,8.92-6.93l10.28-32.9Z"/><path class="cls-6" d="M561.59,929.68l-11.47,39.53h0A18.84,18.84,0,0,0,566.86,959L582,929.68Z"/><path class="cls-6" d="M550.12,969.71h-.67l11.77-40.53h21.6L567.3,959.25A19.27,19.27,0,0,1,550.12,969.71ZM562,930.18,550.79,968.7a18.27,18.27,0,0,0,15.62-9.91l14.77-28.61Z"/><path class="cls-6" d="M659.78,952.56l-19-3.35-.13,0L617,966.06l-40.48,9c-3.37-13.49,25.87-23.61,25.87-23.61l5.62-10.13L592.3,928.94l-58.44,9.45a20.28,20.28,0,0,1-3.19.26,19.91,19.91,0,0,1-17.47-10.38l99.35-34.19,37,11.75,9.07,2.87Z"/><path class="cls-6" d="M576.19,975.64l-.11-.47c-3.34-13.36,23.3-23.18,26-24.14l5.33-9.59-15.25-12-58.22,9.41a20.34,20.34,0,0,1-21.18-10.37l-.28-.52,100.06-34.44.16.05,46.45,14.73,1.15,44.83-19.52-3.44-23.53,16.81-.1,0Zm16.25-47.23,16.25,12.77-5.92,10.67-.18.06c-.28.1-28.07,9.88-25.65,22.54l39.89-8.86,23.71-16.93.33.06L659.26,952l-1.09-42.89-45.61-14.46-98.63,33.94a19.37,19.37,0,0,0,16.74,9.6,19.64,19.64,0,0,0,3.11-.25Z"/><path class="cls-6" d="M1268.66,692.86l-20.29,16.24s-11.16,12.17-21.31,16.23l-15.24,35.57-9.11,21.25-37.55-18.26,12.18-30.45,3-7.46s-11.13-16.81,5.14-34.13l4.06-6.09,4-16.24-7.07-19.74a6.44,6.44,0,0,1,6.06-8.6l15.22,25.3-4.15-32.57a8.87,8.87,0,0,1,8.21-10l9.13,43.56,3.21-36.91a12.24,12.24,0,0,1,11.49-11.16l-1.51,48.07L1242,648.9a16.07,16.07,0,0,1,15.5-9.8l-21.31,57.82S1256.49,681.7,1268.66,692.86Z"/><path class="cls-6" d="M1203,782.83l-38.44-18.69L1179.76,726c-1.25-2.1-10-18.21,5.34-34.52l4-6,4-16-7-19.6a6.94,6.94,0,0,1,6.53-9.27h.28L1207,664.19,1203.13,634a9.38,9.38,0,0,1,8.68-10.54l.43,0,8.52,40.68,2.92-33.54a12.82,12.82,0,0,1,12-11.62l.55,0-1.45,45.93,6.8-16.11a16.63,16.63,0,0,1,16-10.11l.69,0-21,57c4.75-3.13,21.27-12.77,31.8-3.12l.43.4-20.75,16.6c-.4.44-11.16,12.1-21.24,16.23Zm-37.16-19.19,36.66,17.83,24.22-56.53.19-.07c9.93-4,21-16,21.13-16.11l19.88-15.92c-11.77-10-31.19,4.33-31.39,4.48l-1.35,1,21.65-58.75a15.65,15.65,0,0,0-14.33,9.51l-8.88,21.07,1.57-50.2a11.81,11.81,0,0,0-10.47,10.66l-3.51,40.29-9.73-46.44a8.35,8.35,0,0,0-7.31,9.38l4.45,34.92-16.3-27.08a5.94,5.94,0,0,0-5.31,7.92l7.12,19.88L1189.94,686l-4.06,6.09c-15.85,16.88-5.25,33.41-5.14,33.58l.14.21-3.08,7.7Z"/><polygon class="cls-7" points="659.78 952.56 640.79 949.21 649.59 905.83 658.66 908.7 659.78 952.56"/><polygon class="cls-7" points="1211.82 760.9 1202.71 782.15 1165.16 763.89 1177.34 733.44 1211.82 760.9"/><path class="cls-4" d="M1026.56,751.4s-30.16-49-34.07-74l8.1-56.16s-1.8-53.18-70.94-36.11c0,0-1.12-25.11-18.12-29.95,0,0,9,13.58,6.83,27.66,0,0-15.32-30.07-39.69-12.21,0,0-19,12-12.58,31.32,0,0,1,22.33,31.69,21,0,0,1.25,27.9-64,70,0,0-54.57,30.4-46.37,88.75s62.84,92.27,62.84,92.27l192.43-11.4Z"/><path class="cls-6" d="M919,783.53l1.36-101.36s-15-7.54-12.36-24.43c0,0,2.75-13.53,16.59-4.09l2-23.43s47.61,14.64,73.19-13.33c0,0,32.43,90.92-16.19,92.67L997,786.09Z"/><path class="cls-6" d="M997.58,786.61l-.62,0L918.46,784l1.36-101.55c-2.07-1.17-14.78-9.05-12.35-24.8,0-.25,1.17-5.56,5.51-7.32,3-1.22,6.76-.41,11.14,2.42l1.93-23.21.6.18c.47.15,47.6,14.23,72.67-13.19l.56-.61.28.78c.85,2.38,20.59,58.52,4.19,82.69-4.47,6.59-11.29,10.17-20.26,10.63Zm-78.11-3.56,76.91,2.52-13.47-76.49.57,0c8.92-.32,15.66-3.75,20-10.21,15.09-22.23-1.67-74-4-81-24.06,25.41-67,14.57-72.53,13l-2,23.68-.71-.49c-4.4-3-8.07-3.94-10.91-2.78-3.85,1.56-4.9,6.51-4.91,6.56-2.51,16.32,11.95,23.81,12.09,23.89l.28.14v.31Z"/><path class="cls-8" d="M1224.67,792,1166,941.16c-20.4,37-58.65,21.68-58.65,21.68-17.86-5.1-40.81-68.86-40.81-68.86l-8.92,172.14-246,.18L822,1028.53l.41-2.57-16.26-5.69L647.5,967.5l7-63.41,133.44,21.13,41.88-125.63a78.49,78.49,0,0,1,46.12-48.37L917.5,735.5c46.54,49.09,71.27-9.84,71.27-9.84l72.34,15.88a67.24,67.24,0,0,1,46.34,36.88l20.31,42.88,44.63-84.16Z"/><path class="cls-8" d="M811,1066.8l10.5-38.4.33-2.11-15.86-5.55L647,967.85l7.09-64.33,133.54,21.14,41.75-125.23a78.71,78.71,0,0,1,46.41-48.68l41.88-15.83.23.24c14.06,14.83,27.49,21.2,39.91,18.92,19.83-3.62,30.43-28.36,30.54-28.61l.16-.39.41.09,72.34,15.88a68.16,68.16,0,0,1,46.68,37.16l19.88,42,44.49-83.89,53,55.56-58.77,149.49c-20.41,37-58.92,22.12-59.31,22-16.13-4.6-35.89-55.22-40.25-66.86l-8.82,170.18h-.47ZM648,967.15l158.22,52.65,16.66,5.82-.47,3-10.17,37.19,244.87-.18,9-174.15.84,2.34c.23.64,23.07,63.57,40.47,68.55.43.16,38.14,14.71,58.08-21.44l58.52-148.84L1172.5,738l-44.77,84.43L1107,778.63a67.16,67.16,0,0,0-46-36.6l-72-15.79c-1.45,3.19-12.13,25.36-31.11,28.83-12.7,2.32-26.36-4.07-40.58-19l-41.26,15.61a77.74,77.74,0,0,0-45.83,48.06l-42,126L654.93,904.67Z"/><polygon class="cls-7" points="821.95 1028.53 822.36 1025.96 806.1 1020.27 856.07 876.76 821.95 1028.53"/><path class="cls-2" d="M892.19,898.58c-8.37,0-23.27-1.44-31.25-10.83-6-7-7.11-17.21-3.36-30.25,9.52-33.06,22.93-48.5,23.06-48.65l.75.66c-.13.15-13.4,15.44-22.84,48.27-3.66,12.7-2.6,22.56,3.15,29.32,11.09,13.06,36.22,10.24,36.47,10.21l.12,1A58.58,58.58,0,0,1,892.19,898.58Z"/><path class="cls-2" d="M1002.75,920.55c-16.76,0-29.47-10.77-29.61-10.89l.65-.76c.15.13,15,12.73,33.67,10.36,12.8-1.63,24.39-9.8,34.45-24.29l.82.57c-10.23,14.74-22.06,23.05-35.15,24.71A38,38,0,0,1,1002.75,920.55Z"/><g id="Location_Icon" data-name="Location Icon"><path class="cls-8" d="M1337,906.51a34.52,34.52,0,1,0-66.33,13.41h0a33.91,33.91,0,0,0,1.83,3.67l29.65,59.66,30-59.08a34.6,34.6,0,0,0,2.16-4.25h0A34.38,34.38,0,0,0,1337,906.51Zm-34.18,14.58a13.74,13.74,0,1,1,13.74-13.74A13.74,13.74,0,0,1,1302.82,921.09Z"/><path class="cls-8" d="M1302.15,984.36l-30.1-60.54a35.34,35.34,0,0,1-1.84-3.7,35,35,0,1,1,64.55,0,35.77,35.77,0,0,1-2.19,4.32Zm.34-111.86a34,34,0,0,0-31.36,47.22,34.92,34.92,0,0,0,1.8,3.63l29.23,58.79L1331.69,924a35.72,35.72,0,0,0,2.15-4.22,34,34,0,0,0-31.35-47.23Zm.33,49.09a14.24,14.24,0,1,1,14.24-14.24A14.26,14.26,0,0,1,1302.82,921.59Zm0-27.48a13.24,13.24,0,1,0,13.24,13.24A13.26,13.26,0,0,0,1302.82,894.11Z"/></g><polygon class="cls-6" points="1255.87 418.13 1266.03 565.93 1164.54 565.93 1164.54 418.13 1255.87 418.13"/><path class="cls-6" d="M1266.57,566.43H1164V417.63h92.3l0,.47Zm-101.53-1h100.45l-10.09-146.8H1165Z"/><polygon class="cls-7" points="1168.53 418.08 1175.9 565.93 1135.46 565.93 1143.43 418.08 1168.53 418.08"/><path class="cls-7" d="M1176.42,566.43h-41.49l0-.52,8-148.33h26l0,.48Zm-40.43-1h39.38l-7.32-146.85H1143.9Z"/><path class="cls-2" d="M1225.55,460.09l-1,0c-20.15-1.09-23.62-18.14-24.11-21.55q-.35-2.46-.66-4.65c-2.11-15-2.89-20.6-8.48-20a7.72,7.72,0,0,0-6.1,4.47l-.93-.37a8.62,8.62,0,0,1,6.92-5.09c6.55-.69,7.43,5.62,9.58,20.87q.32,2.19.66,4.65c.47,3.27,3.81,19.64,23.17,20.69,2.39.12,6.91-.12,10.39-3.25,2.91-2.61,4.53-6.73,4.82-12.21.36-7-1.64-25-7.18-28a4.76,4.76,0,0,0-4.14-.59,5.54,5.54,0,0,0-2.66,3.28l-1-.27a6.42,6.42,0,0,1,3.23-3.93,5.68,5.68,0,0,1,5,.64c6.19,3.42,8,22.33,7.69,29-.3,5.76-2,10.1-5.15,12.91A15.05,15.05,0,0,1,1225.55,460.09Z"/><polygon class="cls-9" points="1275.89 479.29 1199.5 479.29 1205.28 565.93 1298 565.93 1275.89 479.29"/><path class="cls-9" d="M1298.64,566.43h-93.83L1199,478.79h77.31l.09.37Zm-92.9-1h91.62l-21.86-85.64H1200Z"/><polygon class="cls-7" points="1191.23 479.08 1202.19 479.08 1223.6 565.93 1193.52 565.93 1191.23 479.08"/><path class="cls-7" d="M1224.24,566.43H1193l0-.48-2.3-87.37h11.86Zm-30.23-1h29l-21.16-85.85h-10Z"/><path class="cls-2" d="M1250.47,508.67h-.15c-6.74,0-11.69-3.85-15.12-11.65l-7.38-17.54s-2.28-4.7-6-3.89a5.32,5.32,0,0,0-4,3.8l-1-.21a6.27,6.27,0,0,1,4.76-4.56c4.5-1,7,4.23,7.13,4.45l7.38,17.55c4.34,9.85,10.19,11,14.22,11.05,12.4.06,12.73-9.36,12.94-15,0-.45,0-.88.06-1.27.69-12.7-3.32-14.7-4.56-15a5.07,5.07,0,0,0-6.31,3.26l-1-.31c0-.05,1.83-5.34,7.5-3.92,1.84.46,6,2.95,5.32,16,0,.39,0,.81-.06,1.26C1264.06,498.29,1263.67,508.67,1250.47,508.67Z"/><polygon class="cls-10" points="1135.37 566.82 1134.6 566.18 1155.18 541.45 1155.18 418.13 1156.18 418.13 1156.18 541.81 1156.06 541.95 1135.37 566.82"/><rect class="cls-10" x="1165.01" y="537.86" width="1" height="31.27" transform="translate(-79.63 891.75) rotate(-40.6)"/><polygon class="cls-10" points="1194.2 565.63 1193.35 565.1 1204.57 547.16 1196.67 479.14 1197.66 479.02 1205.6 547.4 1205.51 547.54 1194.2 565.63"/><rect class="cls-10" x="1213.63" y="543.53" width="1" height="25.58" transform="translate(-37.77 1021.48) rotate(-45)"/><rect class="cls-8" x="693.95" y="230" width="222.05" height="154" rx="9.85"/><path class="cls-8" d="M906.15,384.5H703.8a10.36,10.36,0,0,1-10.35-10.35V239.85A10.36,10.36,0,0,1,703.8,229.5H906.15a10.36,10.36,0,0,1,10.35,10.35v134.3A10.36,10.36,0,0,1,906.15,384.5ZM703.8,230.5a9.36,9.36,0,0,0-9.35,9.35v134.3a9.36,9.36,0,0,0,9.35,9.35H906.15a9.35,9.35,0,0,0,9.35-9.35V239.85a9.35,9.35,0,0,0-9.35-9.35Z"/><rect class="cls-11" x="693.95" y="256.56" width="222.05" height="25.97"/><path class="cls-11" d="M916.5,283h-223v-27h223Zm-222-1h221v-25h-221Z"/><rect class="cls-7" x="693.95" y="277.45" width="222.05" height="29.84"/><rect class="cls-3" x="706.19" y="287.6" width="53.72" height="8.95" rx="4.48"/><path class="cls-2" d="M755.43,297.05H710.67a5,5,0,1,1,0-9.95h44.76a5,5,0,1,1,0,9.95Zm-44.76-8.95a4,4,0,1,0,0,7.95h44.76a4,4,0,1,0,0-7.95Z"/><rect class="cls-3" x="778.41" y="287.6" width="53.72" height="8.95" rx="4.48"/><path class="cls-2" d="M827.66,297.05H782.89a5,5,0,1,1,0-9.95h44.77a5,5,0,1,1,0,9.95Zm-44.77-8.95a4,4,0,1,0,0,7.95h44.77a4,4,0,1,0,0-7.95Z"/><circle class="cls-3" cx="855.12" cy="293.87" r="4.48"/><path class="cls-2" d="M855.12,298.84a5,5,0,1,1,5-5A5,5,0,0,1,855.12,298.84Zm0-8.95a4,4,0,1,0,4,4A4,4,0,0,0,855.12,289.89Z"/><circle class="cls-3" cx="869.44" cy="293.87" r="4.48"/><path class="cls-2" d="M869.44,298.84a5,5,0,1,1,5-5A5,5,0,0,1,869.44,298.84Zm0-8.95a4,4,0,1,0,4,4A4,4,0,0,0,869.44,289.89Z"/><circle class="cls-3" cx="883.77" cy="293.87" r="4.48"/><path class="cls-2" d="M883.77,298.84a5,5,0,1,1,5-5A5,5,0,0,1,883.77,298.84Zm0-8.95a4,4,0,1,0,4,4A4,4,0,0,0,883.77,289.89Z"/><circle class="cls-3" cx="898.09" cy="293.87" r="4.48"/><path class="cls-2" d="M898.09,298.84a5,5,0,1,1,5-5A5,5,0,0,1,898.09,298.84Zm0-8.95a4,4,0,1,0,4,4A4,4,0,0,0,898.09,289.89Z"/><circle class="cls-3" cx="849.74" cy="342.81" r="18.8"/><path class="cls-2" d="M849.74,362.12a19.31,19.31,0,1,1,19.31-19.31A19.33,19.33,0,0,1,849.74,362.12Zm0-37.61a18.31,18.31,0,1,0,18.31,18.3A18.32,18.32,0,0,0,849.74,324.51Z"/><circle class="cls-12" cx="871.23" cy="342.81" r="18.8"/><path class="cls-2" d="M871.23,362.12a19.31,19.31,0,1,1,19.3-19.31A19.33,19.33,0,0,1,871.23,362.12Zm0-37.61a18.31,18.31,0,1,0,18.3,18.3A18.32,18.32,0,0,0,871.23,324.51Z"/><rect class="cls-3" x="726.48" y="324.01" width="80.58" height="8.95" rx="4.48"/><path class="cls-2" d="M802.59,333.46H731a5,5,0,1,1,0-9.95h71.63a5,5,0,1,1,0,9.95ZM731,324.51a4,4,0,1,0,0,7.95h71.63a4,4,0,1,0,0-7.95Z"/><rect class="cls-3" x="726.48" y="338.34" width="80.58" height="8.95" rx="4.48"/><path class="cls-2" d="M802.59,347.79H731a5,5,0,1,1,0-10h71.63a5,5,0,1,1,0,10Zm-71.63-9a4,4,0,1,0,0,8h71.63a4,4,0,1,0,0-8Z"/><rect class="cls-3" x="726.48" y="352.66" width="80.58" height="8.95" rx="4.48"/><path class="cls-2" d="M802.59,362.12H731a5,5,0,0,1,0-10h71.63a5,5,0,1,1,0,10Zm-71.63-9a4,4,0,0,0,0,8h71.63a4,4,0,1,0,0-8Z"/><polygon class="cls-10" points="551.46 495.5 297.46 495.5 297.46 740.5 399.17 740.5 422.96 783.5 449.49 740.5 551.46 740.5 551.46 495.5"/><path class="cls-2" d="M422.93,784.49,398.88,741H297V495H552V741H449.77ZM298,740H399.47L423,782.51,449.21,740H551V496H298Z"/><circle class="cls-10" cx="405.99" cy="715.06" r="7.35"/><path class="cls-2" d="M406,722.9a7.85,7.85,0,1,1,7.84-7.84A7.85,7.85,0,0,1,406,722.9Zm0-14.69a6.85,6.85,0,1,0,6.84,6.85A6.85,6.85,0,0,0,406,708.21Z"/><circle class="cls-13" cx="426.91" cy="715.06" r="7.35"/><circle class="cls-10" cx="448.08" cy="715.06" r="7.35"/><path class="cls-2" d="M448.08,722.9a7.85,7.85,0,1,1,7.85-7.84A7.85,7.85,0,0,1,448.08,722.9Zm0-14.69a6.85,6.85,0,1,0,6.85,6.85A6.86,6.86,0,0,0,448.08,708.21Z"/><circle class="cls-10" cx="299.88" cy="496.38" r="34.5"/><path class="cls-2" d="M299.88,531.38a35,35,0,1,1,35-35A35,35,0,0,1,299.88,531.38Zm0-69a34,34,0,1,0,34,34A34,34,0,0,0,299.88,462.38Z"/><path class="cls-8" d="M309.77,479.12a10.34,10.34,0,0,0-9.89,7.34A10.35,10.35,0,1,0,281,494.62h0a10.5,10.5,0,0,0,1.38,1.87l17.05,23.13L317,496.87a10.33,10.33,0,0,0,1.74-2.25h0a10.35,10.35,0,0,0-9-15.5Z"/><path class="cls-8" d="M299.42,520.46,282,496.79a10.84,10.84,0,0,1,8-18.17,10.79,10.79,0,0,1,9.9,6.41,10.85,10.85,0,1,1,17.47,12.2ZM290,479.62a9.84,9.84,0,0,0-8.55,14.75,10.25,10.25,0,0,0,1.32,1.78l16.68,22.64,17.18-22.22a10.43,10.43,0,0,0,1.71-2.2,9.86,9.86,0,0,0-8.55-14.75,9.8,9.8,0,0,0-9.42,7l-.47,1.57-.48-1.57A9.8,9.8,0,0,0,290,479.62Z"/><g id="Underline"><rect class="cls-2" x="150.5" y="1065.5" width="1318.5" height="2"/></g></g><g id="_4" data-name="4"><path class="cls-14" d="M483,608.73h13.71a2.11,2.11,0,0,1,1.66.81l6.93,8.7a2.14,2.14,0,0,1-1.67,3.46H483Z"/><path class="cls-14" d="M503.65,621.86H482.86V608.57h13.86a2.29,2.29,0,0,1,1.8.87l6.92,8.7a2.29,2.29,0,0,1-1.79,3.72Zm-20.47-.32h20.47a2,2,0,0,0,1.77-1.12,1.92,1.92,0,0,0-.23-2.08l-6.92-8.7a2,2,0,0,0-1.55-.75H483.18Z"/><rect class="cls-13" x="343.53" y="551.85" width="11.12" height="4.23" rx="2.12"/><rect class="cls-13" x="361.04" y="556.46" width="8.49" height="12.05"/><path class="cls-8" d="M347.66,645.72V575.35a10.83,10.83,0,0,1,10.83-10.83h31.26a10.83,10.83,0,0,1,10.83,10.83v64.8a9.92,9.92,0,0,0,9.92,9.92h8.79a9.93,9.93,0,0,0,9.93-9.92V611.83s-.21-8.55-5.51-9.79h54.08s22.47,18.31,27.19,47.85v3.26H347.66Z"/><path class="cls-8" d="M505.14,653.31H347.5v-78a11,11,0,0,1,11-11h31.26a11,11,0,0,1,11,11v64.8a9.77,9.77,0,0,0,9.76,9.76h8.79a9.78,9.78,0,0,0,9.77-9.76V611.83c0-.08-.27-8.44-5.38-9.63l-1.35-.32h55.52l0,0a79.89,79.89,0,0,1,11.85,12.87c5.68,7.56,12.95,19.78,15.39,35.07ZM347.82,653h157v-3.1c-2.43-15.2-9.68-27.37-15.33-34.9a80.94,80.94,0,0,0-11.76-12.79h-53c4.43,1.95,4.67,9.29,4.68,9.62v28.33a10.1,10.1,0,0,1-10.09,10.08H410.5a10.09,10.09,0,0,1-10.08-10.08v-64.8a10.69,10.69,0,0,0-10.67-10.67H358.49a10.68,10.68,0,0,0-10.67,10.67Z"/><rect class="cls-13" x="365.16" y="564.52" width="3.83" height="70.73"/><rect class="cls-13" x="414.81" y="653.33" width="50.75" height="10.42"/><ellipse class="cls-13" cx="483.86" cy="658.04" rx="23.11" ry="26.28"/><ellipse class="cls-3" cx="487.76" cy="656.89" rx="15.04" ry="17.11"/><path class="cls-2" d="M487.76,674.15c-8.39,0-15.21-7.74-15.21-17.26s6.82-17.27,15.21-17.27,15.2,7.74,15.2,17.27S496.14,674.15,487.76,674.15Zm0-34.21c-8.21,0-14.89,7.6-14.89,16.95s6.68,16.94,14.89,16.94,14.88-7.6,14.88-16.94S496,639.94,487.76,639.94Z"/><path class="cls-13" d="M479.81,657c0,3.8,1.79,7.18,7.51,7.18,3.34,0,4.61-3.38,4.61-7.18s-1.27-6.89-4.61-6.89C481.6,650.07,479.81,653.15,479.81,657Z"/><ellipse class="cls-3" cx="487.68" cy="656.96" rx="6.06" ry="6.89"/><path class="cls-2" d="M487.68,664c-3.42,0-6.21-3.16-6.21-7s2.79-7.05,6.21-7.05,6.22,3.16,6.22,7.05S491.11,664,487.68,664Zm0-13.77c-3.25,0-5.89,3-5.89,6.73s2.64,6.73,5.89,6.73,5.9-3,5.9-6.73S490.93,650.23,487.68,650.23Z"/><ellipse class="cls-13" cx="353.66" cy="658.04" rx="23.11" ry="26.28"/><ellipse class="cls-3" cx="357.56" cy="656.89" rx="15.04" ry="17.11"/><path class="cls-2" d="M357.56,674.15c-8.38,0-15.2-7.74-15.2-17.26s6.82-17.27,15.2-17.27,15.2,7.74,15.2,17.27S365.94,674.15,357.56,674.15Zm0-34.21c-8.21,0-14.88,7.6-14.88,16.95s6.67,16.94,14.88,16.94,14.88-7.6,14.88-16.94S365.77,639.94,357.56,639.94Z"/><path class="cls-13" d="M349.62,657c0,3.8,1.78,6.88,7.5,6.88,3.35,0,4.61-3.08,4.61-6.88s-1.26-6.89-4.61-6.89C351.4,650.07,349.62,653.15,349.62,657Z"/><ellipse class="cls-3" cx="357.49" cy="656.96" rx="6.06" ry="6.89"/><path class="cls-2" d="M357.49,664c-3.43,0-6.22-3.16-6.22-7s2.79-7.05,6.22-7.05,6.21,3.16,6.21,7.05S360.91,664,357.49,664Zm0-13.77c-3.26,0-5.9,3-5.9,6.73s2.64,6.73,5.9,6.73,5.89-3,5.89-6.73S360.74,650.23,357.49,650.23Z"/><path class="cls-13" d="M526.34,650H523.4a6.16,6.16,0,0,0-6.1-5.36H452.05V657H517.3a6.17,6.17,0,0,0,6-4.91h3Z"/><path class="cls-8" d="M514.76,653.15s4.07-32.48-33.89-41.32c-13.68-3.19-45.13-5.26-38.07,41.32Z"/><path class="cls-8" d="M514.9,653.31H442.66l0-.13c-2.63-17.35-.17-29.65,7.31-36.56,9.14-8.45,23.32-6.73,31-5,8.68,2,15.87,5.46,21.37,10.22a36,36,0,0,1,9.92,13.85,38.84,38.84,0,0,1,2.72,17.43Zm-72-.32h71.68a38.77,38.77,0,0,0-2.72-17.14c-3.39-8.38-11.53-19.32-31.07-23.87-7.57-1.76-21.63-3.47-30.66,4.87C442.79,623.67,440.36,635.83,442.94,653Z"/><path class="cls-13" d="M427.31,603.94H474.9a9,9,0,0,0,9-9h0a9,9,0,0,0-9.67-8.93l-47.44,3.78a7.07,7.07,0,0,0-6.51,7h0A7.07,7.07,0,0,0,427.31,603.94Z"/><path class="cls-8" d="M378.54,649.55H324.17a34.72,34.72,0,0,1,6.3-15.28c11.8-15.8,36.34-13.63,45,4.06A31.94,31.94,0,0,1,378.54,649.55Z"/><path class="cls-8" d="M378.72,649.71H324l0-.18a35.21,35.21,0,0,1,6.33-15.35,26.73,26.73,0,0,1,45.31,4.08,32.12,32.12,0,0,1,3.05,11.27Zm-54.37-.32h54a31.75,31.75,0,0,0-3-11,26.41,26.41,0,0,0-44.76-4A35,35,0,0,0,324.35,649.39Z"/><path class="cls-13" d="M515.13,655.25H375.22V651H324.17v-3.83h51.14a3.75,3.75,0,0,1,3.74,3.74v.49H515.13Z"/><polygon class="cls-13" points="417 675.91 407.65 675.91 407.65 672.08 415.7 672.08 433.67 658.34 436 661.38 417 675.91"/><path class="cls-8" d="M369.81,560.47H358.17a8.74,8.74,0,0,1-2.06-.25,8.52,8.52,0,0,1,0-16.52,8.74,8.74,0,0,1,2.06-.25h1.68a16.83,16.83,0,0,1,14.44,7.92c.17.27.33.55.49.84A5.62,5.62,0,0,1,369.81,560.47Z"/><path class="cls-8" d="M369.81,560.63H358.17a8.67,8.67,0,0,1-6.13-14.8,8.76,8.76,0,0,1,4-2.29,9.34,9.34,0,0,1,2.1-.25h1.68a17.06,17.06,0,0,1,14.58,8q.26.4.48.84a5.78,5.78,0,0,1-5.1,8.5Zm-11.64-17a8.58,8.58,0,0,0-2,.24,8.35,8.35,0,0,0,0,16.21,8.1,8.1,0,0,0,2,.25h11.64a5.44,5.44,0,0,0,4.7-2.67,5.37,5.37,0,0,0,.12-5.36c-.15-.28-.31-.56-.47-.82a16.74,16.74,0,0,0-14.31-7.85Z"/><path class="cls-13" d="M362,552a11.43,11.43,0,0,1-3.79,8.51h0a8.51,8.51,0,0,1,0-17h0A11.43,11.43,0,0,1,362,552Z"/><path class="cls-3" d="M359.64,552a11.39,11.39,0,0,1-3.53,8.26,8.52,8.52,0,0,1,0-16.52A11.39,11.39,0,0,1,359.64,552Z"/><path class="cls-2" d="M356.16,560.39l-.08,0a8.67,8.67,0,0,1-4-14.54,8.76,8.76,0,0,1,4-2.29l.09,0,.06.06a11.59,11.59,0,0,1,0,16.75Zm-.1-16.52a8.36,8.36,0,0,0,0,16.17,11.28,11.28,0,0,0,0-16.17Z"/><rect class="cls-9" x="374.98" y="552.71" width="6.27" height="2.59"/><path class="cls-9" d="M381.41,555.46h-6.59v-2.91h6.59Zm-6.27-.32h5.95v-2.27h-5.95Z"/><path class="cls-13" d="M371.59,551.85h3.07a2.39,2.39,0,0,1,2.59,2.12h0a2.38,2.38,0,0,1-2.59,2.11h-3.07A2.39,2.39,0,0,1,369,554h0A2.4,2.4,0,0,1,371.59,551.85Z"/><rect class="cls-13" x="380.07" y="551.85" width="11.12" height="4.23" rx="2.12"/><rect class="cls-10" x="462.83" y="644.97" width="31.16" height="1.78"/><path d="M494.15,646.91H462.67v-2.1h31.48ZM463,646.59h30.84v-1.46H463Z"/><rect class="cls-10" x="462.83" y="640.26" width="31.16" height="1.78"/><path d="M494.15,642.2H462.67v-2.1h31.48ZM463,641.88h30.84v-1.46H463Z"/><rect class="cls-10" x="462.83" y="635.55" width="31.16" height="1.78"/><path d="M494.15,637.49H462.67v-2.1h31.48ZM463,637.17h30.84v-1.46H463Z"/><rect class="cls-2" x="381.12" y="675.87" width="65.43" height="0.64"/></g></svg>