<svg xmlns="http://www.w3.org/2000/svg" viewBox="0 0 1600 1200"><defs><style>.cls-1{fill:#f27b79;}.cls-2{fill:#261134;}.cls-3{fill:#fad338;}.cls-4{fill:#fefefe;}.cls-12,.cls-5{fill:#fff;}.cls-6{fill:#f6ebda;}.cls-11,.cls-16,.cls-7{fill:#2f3030;}.cls-10,.cls-12,.cls-7,.cls-9{stroke:#000;}.cls-10,.cls-12,.cls-16,.cls-7,.cls-9{stroke-miterlimit:10;}.cls-8{fill:#f27a79;}.cls-17,.cls-9{fill:#fbb755;}.cls-10,.cls-14{fill:#d1d5db;}.cls-13{fill:#cdcbcc;}.cls-15{fill:#21223e;}.cls-16{stroke:#2f3030;}</style></defs><g id="_4" data-name="4"><g id="Scooter"><path class="cls-1" d="M904.09,618.18h13.7a2.12,2.12,0,0,1,1.67.8l6.92,8.7a2.14,2.14,0,0,1-1.66,3.47H904.09Z"/><path class="cls-2" d="M924.72,631.3H903.93V618h13.86a2.28,2.28,0,0,1,1.8.86l6.92,8.7a2.29,2.29,0,0,1-1.79,3.72ZM904.25,631h20.47a2,2,0,0,0,1.54-3.21l-6.92-8.7a2,2,0,0,0-1.55-.74H904.25Z"/><rect class="cls-2" x="764.6" y="561.3" width="11.12" height="4.23" rx="2.12"/><rect class="cls-2" x="782.11" y="565.9" width="8.49" height="12.05"/><path class="cls-3" d="M768.73,655.17V584.8A10.83,10.83,0,0,1,779.56,574h31.26a10.83,10.83,0,0,1,10.83,10.83v64.79a9.93,9.93,0,0,0,9.92,9.93h8.79a9.93,9.93,0,0,0,9.92-9.93V621.27s-.21-8.54-5.5-9.78h54.08s22.47,18.3,27.18,47.85v3.26H768.73Z"/><path class="cls-2" d="M926.2,662.76H768.57v-78a11,11,0,0,1,11-11h31.26a11,11,0,0,1,11,11v64.79a9.78,9.78,0,0,0,9.76,9.77h8.79a9.78,9.78,0,0,0,9.77-9.77V621.27c0-.08-.27-8.43-5.39-9.63l-1.34-.31h55.51l.05,0a80.83,80.83,0,0,1,11.85,12.88c5.68,7.56,13,19.78,15.39,35.07Zm-157.32-.32h157v-3.1c-2.42-15.2-9.67-27.37-15.32-34.9a79.88,79.88,0,0,0-11.76-12.79h-53c4.44,2,4.68,9.29,4.68,9.62v28.32a10.1,10.1,0,0,1-10.08,10.09h-8.79a10.1,10.1,0,0,1-10.08-10.09V584.8a10.69,10.69,0,0,0-10.67-10.67H779.56a10.69,10.69,0,0,0-10.68,10.67Z"/><rect class="cls-2" x="786.23" y="573.97" width="3.83" height="70.73"/><rect class="cls-2" x="835.88" y="662.78" width="50.75" height="10.42"/><ellipse class="cls-2" cx="904.93" cy="667.49" rx="23.11" ry="26.28"/><ellipse class="cls-4" cx="908.83" cy="666.33" rx="15.04" ry="17.11"/><path class="cls-2" d="M908.83,683.6c-8.39,0-15.21-7.75-15.21-17.27s6.82-17.26,15.21-17.26,15.2,7.74,15.2,17.26S917.21,683.6,908.83,683.6Zm0-34.22c-8.21,0-14.89,7.61-14.89,17s6.68,16.95,14.89,16.95,14.88-7.6,14.88-16.95S917,649.38,908.83,649.38Z"/><path class="cls-2" d="M900.88,666.4c0,3.81,1.78,7.19,7.51,7.19,3.34,0,4.6-3.38,4.6-7.19s-1.26-6.88-4.6-6.88C902.66,659.52,900.88,662.6,900.88,666.4Z"/><ellipse class="cls-4" cx="908.75" cy="666.4" rx="6.06" ry="6.89"/><path class="cls-2" d="M908.75,673.45c-3.43,0-6.21-3.16-6.21-7.05s2.78-7,6.21-7,6.22,3.16,6.22,7S912.18,673.45,908.75,673.45Zm0-13.77c-3.25,0-5.9,3-5.9,6.72s2.65,6.73,5.9,6.73,5.9-3,5.9-6.73S912,659.68,908.75,659.68Z"/><ellipse class="cls-2" cx="774.73" cy="667.49" rx="23.11" ry="26.28"/><ellipse class="cls-4" cx="778.63" cy="666.33" rx="15.04" ry="17.11"/><path class="cls-2" d="M778.63,683.6c-8.38,0-15.2-7.75-15.2-17.27s6.82-17.26,15.2-17.26,15.2,7.74,15.2,17.26S787,683.6,778.63,683.6Zm0-34.22c-8.21,0-14.88,7.61-14.88,17s6.67,16.95,14.88,16.95,14.88-7.6,14.88-16.95S786.84,649.38,778.63,649.38Z"/><path class="cls-2" d="M770.69,666.4c0,3.81,1.78,6.89,7.5,6.89,3.35,0,4.61-3.08,4.61-6.89s-1.26-6.88-4.61-6.88C772.47,659.52,770.69,662.6,770.69,666.4Z"/><ellipse class="cls-4" cx="778.55" cy="666.4" rx="6.06" ry="6.89"/><path class="cls-2" d="M778.55,673.45c-3.42,0-6.21-3.16-6.21-7.05s2.79-7,6.21-7,6.22,3.16,6.22,7S782,673.45,778.55,673.45Zm0-13.77c-3.25,0-5.89,3-5.89,6.72s2.64,6.73,5.89,6.73,5.9-3,5.9-6.73S781.81,659.68,778.55,659.68Z"/><path class="cls-2" d="M947.41,659.44h-2.94a6.16,6.16,0,0,0-6.1-5.36H873.12V666.4h65.25a6.16,6.16,0,0,0,6-4.9h3Z"/><path class="cls-3" d="M935.83,662.6s4.06-32.49-33.89-41.33c-13.68-3.18-45.13-5.25-38.07,41.33Z"/><path class="cls-2" d="M936,662.76H863.73l0-.14c-2.63-17.34-.17-29.64,7.31-36.55,9.14-8.45,23.32-6.73,31-5,8.68,2,15.87,5.46,21.37,10.22a36,36,0,0,1,9.92,13.85A38.84,38.84,0,0,1,936,662.62Zm-72-.32h71.69A38.76,38.76,0,0,0,933,645.3c-3.39-8.38-11.53-19.32-31.07-23.87-7.57-1.76-21.63-3.48-30.66,4.87C863.86,633.12,861.43,645.28,864,662.44Z"/><path class="cls-2" d="M848.38,613.39H896a9,9,0,0,0,9-9h0a9,9,0,0,0-9.68-8.94l-47.43,3.79a7.06,7.06,0,0,0-6.51,7h0A7.07,7.07,0,0,0,848.38,613.39Z"/><path class="cls-3" d="M799.61,659H745.24a34.68,34.68,0,0,1,6.3-15.28c11.8-15.8,36.34-13.64,45,4.06A31.94,31.94,0,0,1,799.61,659Z"/><path class="cls-2" d="M799.78,659.16H745.06l0-.18a35.27,35.27,0,0,1,6.33-15.36,26.74,26.74,0,0,1,45.31,4.09,32.12,32.12,0,0,1,3,11.27Zm-54.36-.32h54a31.75,31.75,0,0,0-3-11,26.4,26.4,0,0,0-44.76-4A35.05,35.05,0,0,0,745.42,658.84Z"/><path class="cls-2" d="M936.19,664.69H796.29v-4.22h-51v-3.83h51.14a3.75,3.75,0,0,1,3.74,3.74v.48H936.19Z"/><polygon class="cls-2" points="838.07 685.36 828.72 685.36 828.72 681.53 836.77 681.53 854.74 667.78 857.07 670.83 838.07 685.36"/><path class="cls-3" d="M790.88,569.92H779.24a8.25,8.25,0,0,1-2.06-.26,8.51,8.51,0,0,1-4-14.27,8.7,8.7,0,0,1,4-2.25,9.29,9.29,0,0,1,2.06-.24h1.68a16.81,16.81,0,0,1,14.44,7.92c.17.27.33.55.48.83A5.62,5.62,0,0,1,790.88,569.92Z"/><path class="cls-2" d="M790.88,570.08H779.24a8.75,8.75,0,0,1-2.1-.26,8.68,8.68,0,0,1,0-16.83,8.8,8.8,0,0,1,2.1-.25h1.68a17,17,0,0,1,14.58,8q.24.4.48.84a5.69,5.69,0,0,1-.13,5.67A5.74,5.74,0,0,1,790.88,570.08Zm-11.64-17a8.58,8.58,0,0,0-2,.24,8.35,8.35,0,0,0,0,16.21,8.59,8.59,0,0,0,2,.25h11.64a5.44,5.44,0,0,0,4.7-2.67,5.37,5.37,0,0,0,.12-5.36c-.15-.29-.31-.56-.47-.83a16.73,16.73,0,0,0-14.31-7.84Z"/><path class="cls-2" d="M783.05,561.41a11.43,11.43,0,0,1-3.79,8.51h0a8.51,8.51,0,1,1,0-17h0A11.4,11.4,0,0,1,783.05,561.41Z"/><path class="cls-4" d="M780.7,561.41a11.4,11.4,0,0,1-3.52,8.25,8.51,8.51,0,0,1-4-14.27,8.7,8.7,0,0,1,4-2.25A11.44,11.44,0,0,1,780.7,561.41Z"/><path class="cls-2" d="M777.23,569.84l-.08,0a8.68,8.68,0,0,1,0-16.83l.08,0,.07.06a11.61,11.61,0,0,1,0,16.75Zm-.1-16.52a8.35,8.35,0,0,0-3.79,2.19,8.34,8.34,0,0,0,3.8,14,11.3,11.3,0,0,0,0-16.17Z"/><rect class="cls-3" x="796.05" y="562.16" width="6.27" height="2.59"/><path class="cls-2" d="M802.48,564.91h-6.59V562h6.59Zm-6.27-.32h5.95v-2.27h-5.95Z"/><rect class="cls-2" x="791.58" y="561.3" width="6.74" height="4.23" rx="2.12"/><rect class="cls-2" x="801.14" y="561.3" width="11.12" height="4.23" rx="2.12"/><rect class="cls-5" x="883.9" y="654.42" width="31.16" height="1.78"/><path d="M915.22,656.36H883.74v-2.1h31.48ZM884.06,656H914.9v-1.46H884.06Z"/><rect class="cls-5" x="883.9" y="649.71" width="31.16" height="1.78"/><path d="M915.22,651.65H883.74v-2.1h31.48Zm-31.16-.32H914.9v-1.46H884.06Z"/><rect class="cls-5" x="883.9" y="645" width="31.16" height="1.78"/><path d="M915.22,646.94H883.74v-2.1h31.48Zm-31.16-.32H914.9v-1.46H884.06Z"/><rect class="cls-2" x="802.19" y="685.31" width="65.43" height="0.64"/></g></g><g id="_1" data-name="1"><g id="Background"><rect class="cls-6" width="1600" height="1200"/></g><rect class="cls-4" x="328.39" y="244.08" width="990.44" height="660.68" rx="26.15"/><path d="M1292.68,905.25H354.55a26.68,26.68,0,0,1-26.66-26.65V270.23a26.69,26.69,0,0,1,26.66-26.65h938.13a26.69,26.69,0,0,1,26.66,26.65V878.6A26.68,26.68,0,0,1,1292.68,905.25ZM354.55,244.58a25.69,25.69,0,0,0-25.66,25.65V878.6a25.68,25.68,0,0,0,25.66,25.65h938.13a25.68,25.68,0,0,0,25.66-25.65V270.23a25.69,25.69,0,0,0-25.66-25.65Z"/><path class="cls-7" d="M1318.84,269.23v31.84H328.39V269.23a26.16,26.16,0,0,1,26.16-26.15h938.13A26.16,26.16,0,0,1,1318.84,269.23Z"/><rect class="cls-7" x="380.13" y="347.13" width="114.28" height="40.94"/><path class="cls-7" d="M494.91,388.56H379.63V346.63H494.91Zm-114.28-1H493.91V347.63H380.63Z"/><rect class="cls-4" x="525.68" y="347.13" width="512.28" height="40.94"/><path class="cls-2" d="M1038.46,388.56H525.18V346.63h513.28Zm-512.28-1h511.28V347.63H526.18Z"/><circle class="cls-8" cx="386.39" cy="271.51" r="12.51"/><circle class="cls-9" cx="426.19" cy="271.51" r="12.51"/><circle class="cls-10" cx="467.12" cy="271.51" r="12.51"/><rect class="cls-4" x="1071.51" y="347.13" width="82.44" height="40.94"/><path class="cls-2" d="M1154.45,388.56H1071V346.63h83.44Zm-82.44-1h81.44V347.63H1072Z"/><rect class="cls-7" x="1179.54" y="347.13" width="82.44" height="40.94"/><path class="cls-7" d="M1262.48,388.56H1179V346.63h83.44Zm-82.44-1h81.44V347.63H1180Z"/><path class="cls-4" d="M984,453V799.84c0,6.39-8.65,11.57-19.33,11.57H546.64c-10.67,0-19.33-5.18-19.33-11.57V453c0-6.39,8.66-11.57,19.33-11.57H964.69C975.37,441.45,984,446.63,984,453Z"/><path class="cls-2" d="M964.69,812H546.64c-11.19,0-20.31-5.45-20.31-12.16V453c0-6.7,9.12-12.15,20.31-12.15H964.69c11.2,0,20.31,5.45,20.31,12.15V799.84C985,806.55,975.89,812,964.69,812ZM546.64,442c-10.12,0-18.35,4.92-18.35,11V799.84c0,6.06,8.23,11,18.35,11H964.69c10.12,0,18.36-4.93,18.36-11V453c0-6.06-8.24-11-18.36-11Z"/><path class="cls-4" d="M984,454.63V696.34H527.31V454.63c0-7.24,8.66-13.1,19.33-13.1H964.69C975.37,441.53,984,447.39,984,454.63Z"/><path class="cls-2" d="M985,697H526.33V454.63c0-7.59,9.12-13.76,20.31-13.76H964.69c11.2,0,20.31,6.17,20.31,13.76Zm-456.71-1.32H983.05v-241c0-6.86-8.24-12.44-18.36-12.44H546.64c-10.12,0-18.35,5.58-18.35,12.44Z"/><rect class="cls-4" x="548.55" y="718.65" width="315.62" height="13.72"/><path class="cls-2" d="M865,733H547.72v-14.9H865Zm-315.62-1.17h314V719.23h-314Z"/><rect class="cls-11" x="548.35" y="748.29" width="129.01" height="13.72"/><path class="cls-11" d="M678,762.6H547.72V747.71H678Zm-129-1.17H676.73V748.88H549Z"/><polygon class="cls-9" points="558.74 775.27 561.48 781.76 567.6 782.8 563.17 787.85 564.22 794.98 558.74 791.61 553.27 794.98 554.31 787.85 549.88 782.8 556 781.76 558.74 775.27"/><path class="cls-9" d="M564.88,796.05l-6.14-3.78-6.14,3.78,1.18-8-5-5.66,6.86-1.17,3.07-7.27,3.07,7.27,6.87,1.17-5,5.66Zm-6.14-5.1,4.81,3-.92-6.27,3.9-4.43-5.38-.92-2.41-5.7-2.4,5.7-5.38.92,3.89,4.43-.92,6.27Z"/><polygon class="cls-9" points="587.1 775.27 589.83 781.76 595.95 782.8 591.52 787.85 592.57 794.98 587.1 791.61 581.62 794.98 582.67 787.85 578.24 782.8 584.36 781.76 587.1 775.27"/><path class="cls-9" d="M593.23,796.05l-6.13-3.78L581,796.05l1.17-8-5-5.66,6.87-1.17L587.1,774l3.07,7.27,6.86,1.17-5,5.66ZM587.1,791l4.81,3-.92-6.27,3.89-4.43-5.38-.92-2.4-5.7-2.41,5.7-5.38.92,3.89,4.43-.91,6.27Z"/><polygon class="cls-9" points="616.59 775.27 619.32 781.76 625.44 782.8 621.01 787.85 622.06 794.98 616.59 791.61 611.11 794.98 612.16 787.85 607.73 782.8 613.85 781.76 616.59 775.27"/><path class="cls-9" d="M622.72,796.05l-6.13-3.78-6.14,3.78,1.17-8-5-5.66,6.87-1.17,3.07-7.27,3.07,7.27,6.86,1.17-5,5.66Zm-6.13-5.1,4.81,3-.92-6.27,3.89-4.43-5.38-.92-2.4-5.7-2.41,5.7-5.38.92,3.89,4.43-.91,6.27Z"/><polygon class="cls-9" points="646.08 775.27 648.81 781.76 654.93 782.8 650.5 787.85 651.55 794.98 646.08 791.61 640.6 794.98 641.65 787.85 637.22 782.8 643.34 781.76 646.08 775.27"/><path class="cls-9" d="M652.21,796.05l-6.13-3.78-6.14,3.78,1.17-8-5-5.66,6.87-1.17,3.07-7.27,3.07,7.27,6.86,1.17-5,5.66Zm-13.92-12.84,3.89,4.43-.91,6.27,4.81-3,4.81,3-.92-6.27,3.89-4.43-5.38-.92-2.4-5.7-2.41,5.7Z"/><polygon class="cls-9" points="675.17 775.27 677.91 781.76 684.03 782.8 679.6 787.85 680.64 794.98 675.17 791.61 669.69 794.98 670.74 787.85 666.31 782.8 672.43 781.76 675.17 775.27"/><path class="cls-9" d="M681.31,796.05l-6.14-3.78L669,796.05l1.17-8-5-5.66,6.86-1.17,3.07-7.27,3.07,7.27,6.86,1.17-5,5.66Zm-6.14-5.1,4.81,3-.92-6.27,3.89-4.43-5.38-.92-2.4-5.7-2.41,5.7-5.38.92,3.9,4.43-.92,6.27Z"/><circle class="cls-4" cx="974.75" cy="442.25" r="24.25"/><path class="cls-2" d="M974.75,467a24.75,24.75,0,1,1,24.75-24.75A24.77,24.77,0,0,1,974.75,467Zm0-48.5a23.75,23.75,0,1,0,23.75,23.75A23.77,23.77,0,0,0,974.75,418.5Z"/><path class="cls-9" d="M981.71,430.13a7.28,7.28,0,0,0-7,5.15A7.27,7.27,0,1,0,961.48,441h0a7.48,7.48,0,0,0,1,1.32l12,16.26,12.36-16A7.35,7.35,0,0,0,988,441h0a7.27,7.27,0,0,0-6.31-10.88Z"/><path class="cls-9" d="M974.42,459.42l-12.37-16.79a7.92,7.92,0,0,1-1-1.37,7.7,7.7,0,0,1-1-3.86,7.77,7.77,0,0,1,14.73-3.47,7.77,7.77,0,1,1,12.39,9Zm-6.63-28.8a6.78,6.78,0,0,0-5.87,10.15,7,7,0,0,0,.9,1.22l11.62,15.77,12-15.47a7.24,7.24,0,0,0,1.18-1.52,6.77,6.77,0,1,0-12.35-5.35l-.48,1.57-.48-1.57A6.74,6.74,0,0,0,967.79,430.62Z"/><polygon class="cls-12" points="1053.55 757.39 1046.42 861.1 1117.64 861.1 1117.64 757.39 1053.55 757.39"/><path class="cls-12" d="M1118.14,861.6h-72.25l7.19-104.71h65.06Zm-71.18-1h70.18V757.89H1054Z"/><polygon class="cls-7" points="1114.84 757.35 1109.67 861.1 1138.05 861.1 1132.45 757.35 1114.84 757.35"/><path class="cls-7" d="M1138.57,861.6h-29.42l0-.52,5.2-104.23h18.56l0,.47Zm-28.37-1h27.32L1132,757.85h-16.66Z"/><path class="cls-2" d="M1074.83,787a10.71,10.71,0,0,1-7.19-2.51c-2.21-2-3.45-5.08-3.66-9.16-.25-4.83,1-18,5.47-20.46a4.13,4.13,0,0,1,3.65-.45,4.71,4.71,0,0,1,2.36,2.85l-1,.27a3.7,3.7,0,0,0-1.78-2.2,3.18,3.18,0,0,0-2.77.41c-3.61,2-5.26,13.77-5,19.52.2,3.81,1.32,6.66,3.33,8.47a10,10,0,0,0,7.18,2.24c13.48-.72,15.79-12.11,16.12-14.39.17-1.15.32-2.23.47-3.26,1.52-10.8,2.13-15.27,6.88-14.77a6.22,6.22,0,0,1,5,3.66l-.92.38a5.22,5.22,0,0,0-4.16-3.05c-3.63-.37-4.23,2.81-5.79,13.92-.15,1-.3,2.11-.47,3.27-.35,2.41-2.8,14.47-17,15.24Z"/><polygon class="cls-12" points="1039.5 800.3 1093.11 800.3 1089.05 861.1 1023.99 861.1 1039.5 800.3"/><path class="cls-12" d="M1089.52,861.6h-66.18l15.77-61.8h54.53Zm-64.89-1h64l4-59.8h-52.68Z"/><polygon class="cls-2" points="1098.91 800.15 1091.22 800.15 1076.19 861.1 1097.3 861.1 1098.91 800.15"/><path class="cls-2" d="M1097.79,861.6h-22.23l15.27-62h8.59Zm-21-1h20l1.59-60h-6.79Z"/><path class="cls-2" d="M1057.34,821.07c-9.41,0-9.69-7.38-9.83-11.35,0-.31,0-.6,0-.87-.51-9.3,2.52-11.08,3.84-11.41a4.45,4.45,0,0,1,5.44,2.84l-1,.32a3.43,3.43,0,0,0-4.25-2.19c-.84.21-3.56,1.58-3.08,10.38,0,.28,0,.58,0,.9.14,3.88.39,10.38,8.83,10.38h.1c2.78,0,6.83-.83,9.84-7.67l5.17-12.29c.08-.18,1.9-4,5.18-3.23a4.57,4.57,0,0,1,3.46,3.31l-1,.22a3.56,3.56,0,0,0-2.69-2.56c-2.49-.53-4,2.63-4.06,2.66l-5.16,12.28c-2.44,5.54-6,8.25-10.75,8.28Z"/><polygon class="cls-5" points="1137.99 861.82 1123.36 844.23 1123.36 757.39 1124.36 757.39 1124.36 843.87 1138.76 861.18 1137.99 861.82"/><rect class="cls-5" x="1105.99" y="851.88" width="21.94" height="1" transform="translate(-257.12 1145.71) rotate(-49.4)"/><polygon class="cls-5" points="1096.7 860.97 1088.67 848.13 1088.69 847.96 1094.25 800.1 1095.24 800.21 1089.71 847.9 1097.55 860.44 1096.7 860.97"/><rect class="cls-5" x="1073.87" y="853.86" width="17.95" height="1" transform="translate(-286.97 1015.92) rotate(-45)"/><rect class="cls-7" x="1031.82" y="861.58" width="144.41" height="112.42"/><rect class="cls-9" x="1007" y="861.58" width="132.04" height="112.42"/><path class="cls-9" d="M1139.54,974.5h-133V861.08h133Zm-132-1h131V862.08h-131Z"/><polygon class="cls-7" points="1052.21 861.58 1052.21 889.61 1060.44 885.04 1066.84 889.3 1074.45 885.04 1081.46 889.61 1081.46 861.58 1052.21 861.58"/><rect class="cls-2" x="1081.46" y="916.64" width="30.47" height="2"/><rect class="cls-2" x="1081.46" y="928.52" width="30.47" height="2"/><rect class="cls-2" x="1081.46" y="940.4" width="30.47" height="2"/><rect class="cls-4" x="1023.27" y="914.29" width="49.36" height="30.77"/><path class="cls-2" d="M1073.13,945.56h-50.36V913.79h50.36Zm-49.36-1h48.36V914.79h-48.36Z"/><path class="cls-2" d="M1234.82,788.1l-13,43-248.73,12,26.07,132.79h179.54V987h-152v3.19h151.72c25.27,8.13,22.33,32.4,21.24,38.19h-196v3.18h198.57l.3-1.2c.09-.33,7.5-31.45-20.64-42.33V974.53l55.29-183.24h52.13V788.1ZM989.13,908.22l28.47-.25,3.27,28.76H994.73Zm136.14,28.51H1093V907.29l33.82-.3ZM1130,907l32.3-.29-3,30.06h-30.89Zm-40.19.36v29.41h-32.17l-1.5-29.11ZM1056,904.44l-1.7-32.85,35.53-.32v32.87Zm37-.33V871.24l35.74-.32L1127,903.8Zm0-36.05V840.52l37.45-1.81-1.54,29Zm-3.18,0-35.7.32-1.34-26,37-1.78Zm-38.88.35-34.62.32-2.78-24.42,36.06-1.74Zm.16,3.18,1.7,32.85-32.39.29-3.73-32.82Zm-33.89,33.17-28.73.25-6.44-32.79,31.44-.29Zm3.56,3.15,32.19-.29,1.51,29.08h-30.43Zm33.86,32,1.7,32.79h-28.2l-3.73-32.79Zm3.19,0h32V972.7h-30.31Zm35.18,0h32.07l-1.74,32.79H1093Zm35.26,0H1159l-3.25,32.79h-29.24Zm34,0H1189l-9.89,32.79H1159Zm.31-3.18,3-30.09,33.6-.3L1190,936.73Zm37.56-33.58-34.26.31,3.27-32.91,40.93-.37Zm-37.46.34-32.44.29,1.75-32.89,34-.31Zm-30.52-35.79,1.55-29.14,35.58-1.71-3,30.54Zm-121.74-23.21,2.76,24.3-31.71.28-4.51-23Zm-15,95.42h25.88L1025,972.7h-23.16ZM1211,867l-41.59.38,3-30.67,48.39-2.33Z"/><path class="cls-2" d="M1033.1,1032a16.31,16.31,0,1,0,16.31,16.31A16.33,16.33,0,0,0,1033.1,1032Zm0,27a10.74,10.74,0,1,1,10.74-10.74A10.75,10.75,0,0,1,1033.1,1059Z"/><path class="cls-2" d="M1178.31,1032.38a16.31,16.31,0,1,0,16.32,16.31A16.33,16.33,0,0,0,1178.31,1032.38Zm0,27a10.74,10.74,0,1,1,10.75-10.74A10.75,10.75,0,0,1,1178.31,1059.43Z"/><rect class="cls-9" x="1347" y="328.48" width="196" height="135.94" rx="8.69"/><path class="cls-9" d="M1534.31,464.92H1355.69a9.2,9.2,0,0,1-9.19-9.19V337.18a9.21,9.21,0,0,1,9.19-9.2h178.62a9.21,9.21,0,0,1,9.19,9.2V455.73A9.2,9.2,0,0,1,1534.31,464.92ZM1355.69,329a8.21,8.21,0,0,0-8.19,8.2V455.73a8.21,8.21,0,0,0,8.19,8.19h178.62a8.21,8.21,0,0,0,8.19-8.19V337.18a8.21,8.21,0,0,0-8.19-8.2Z"/><rect class="cls-10" x="1347" y="351.93" width="196" height="22.92"/><path class="cls-10" d="M1543.5,375.35h-197V351.43h197Zm-196-1h195V352.43h-195Z"/><rect class="cls-7" x="1347" y="370.37" width="196" height="26.34"/><rect class="cls-4" x="1357.8" y="379.33" width="47.42" height="7.9" rx="3.95"/><path d="M1401.27,387.73h-39.52a4.45,4.45,0,0,1,0-8.9h39.52a4.45,4.45,0,1,1,0,8.9Zm-39.52-7.9a3.45,3.45,0,0,0,0,6.9h39.52a3.45,3.45,0,1,0,0-6.9Z"/><rect class="cls-4" x="1421.55" y="379.33" width="47.42" height="7.9" rx="3.95"/><path d="M1465,387.73h-39.51a4.45,4.45,0,1,1,0-8.9H1465a4.45,4.45,0,1,1,0,8.9Zm-39.51-7.9a3.45,3.45,0,1,0,0,6.9H1465a3.45,3.45,0,1,0,0-6.9Z"/><circle class="cls-4" cx="1489.26" cy="384.86" r="3.95"/><path d="M1489.26,389.31a4.45,4.45,0,1,1,4.45-4.45A4.45,4.45,0,0,1,1489.26,389.31Zm0-7.9a3.45,3.45,0,1,0,3.45,3.45A3.45,3.45,0,0,0,1489.26,381.41Z"/><circle class="cls-4" cx="1501.9" cy="384.86" r="3.95"/><path d="M1501.9,389.31a4.45,4.45,0,1,1,4.45-4.45A4.46,4.46,0,0,1,1501.9,389.31Zm0-7.9a3.45,3.45,0,1,0,3.45,3.45A3.46,3.46,0,0,0,1501.9,381.41Z"/><circle class="cls-4" cx="1514.55" cy="384.86" r="3.95"/><path d="M1514.55,389.31a4.45,4.45,0,1,1,4.45-4.45A4.45,4.45,0,0,1,1514.55,389.31Zm0-7.9a3.45,3.45,0,1,0,3.45,3.45A3.46,3.46,0,0,0,1514.55,381.41Z"/><circle class="cls-4" cx="1527.19" cy="384.86" r="3.95"/><path d="M1527.19,389.31a4.45,4.45,0,1,1,4.46-4.45A4.46,4.46,0,0,1,1527.19,389.31Zm0-7.9a3.45,3.45,0,1,0,3.46,3.45A3.46,3.46,0,0,0,1527.19,381.41Z"/><circle class="cls-12" cx="1484.52" cy="428.06" r="16.6"/><path class="cls-12" d="M1484.52,445.16a17.1,17.1,0,1,1,17.09-17.1A17.12,17.12,0,0,1,1484.52,445.16Zm0-33.19a16.1,16.1,0,1,0,16.09,16.09A16.11,16.11,0,0,0,1484.52,412Z"/><circle class="cls-13" cx="1503.48" cy="428.06" r="16.6"/><path class="cls-2" d="M1503.48,445.16a17.1,17.1,0,1,1,17.1-17.1A17.12,17.12,0,0,1,1503.48,445.16Zm0-33.19a16.1,16.1,0,1,0,16.1,16.09A16.11,16.11,0,0,0,1503.48,412Z"/><rect class="cls-4" x="1375.72" y="411.47" width="71.13" height="7.9" rx="3.95"/><path d="M1442.89,419.87h-63.22a4.45,4.45,0,1,1,0-8.9h63.22a4.45,4.45,0,0,1,0,8.9Zm-63.22-7.9a3.45,3.45,0,1,0,0,6.9h63.22a3.45,3.45,0,0,0,0-6.9Z"/><rect class="cls-4" x="1375.72" y="424.11" width="71.13" height="7.9" rx="3.95"/><path d="M1442.89,432.52h-63.22a4.46,4.46,0,1,1,0-8.91h63.22a4.46,4.46,0,0,1,0,8.91Zm-63.22-7.91a3.46,3.46,0,1,0,0,6.91h63.22a3.46,3.46,0,0,0,0-6.91Z"/><rect class="cls-4" x="1375.72" y="436.76" width="71.13" height="7.9" rx="3.95"/><path d="M1442.89,445.16h-63.22a4.45,4.45,0,1,1,0-8.9h63.22a4.45,4.45,0,0,1,0,8.9Zm-63.22-7.9a3.45,3.45,0,1,0,0,6.9h63.22a3.45,3.45,0,0,0,0-6.9Z"/><rect class="cls-4" x="77.77" y="429" width="227.23" height="90"/><path class="cls-2" d="M305.5,519.5H77.27v-91H305.5Zm-227.23-1H304.5v-89H78.27Z"/><circle class="cls-10" cx="108.51" cy="457.96" r="16.04"/><path class="cls-10" d="M108.51,474.5A16.54,16.54,0,1,1,125.05,458,16.55,16.55,0,0,1,108.51,474.5Zm0-32.08A15.54,15.54,0,1,0,124.05,458,15.55,15.55,0,0,0,108.51,442.42Z"/><polygon class="cls-9" points="145.05 449.38 147.83 455.02 154.06 455.92 149.55 460.31 150.62 466.51 145.05 463.59 139.48 466.51 140.54 460.31 136.04 455.92 142.27 455.02 145.05 449.38"/><path class="cls-9" d="M151.28,467.43l-6.23-3.28-6.23,3.28,1.19-6.94-5-4.91,7-1,3.12-6.31,3.12,6.31,7,1-5,4.91ZM145.05,463l4.9,2.58-.93-5.46,4-3.87-5.48-.79-2.45-5-2.45,5-5.48.79,4,3.87-.93,5.46Z"/><polygon class="cls-9" points="172.67 449.38 175.46 455.02 181.68 455.92 177.18 460.31 178.24 466.51 172.67 463.59 167.11 466.51 168.17 460.31 163.66 455.92 169.89 455.02 172.67 449.38"/><path class="cls-9" d="M178.91,467.43l-6.24-3.28-6.23,3.28,1.19-6.94-5-4.91,7-1,3.11-6.31,3.12,6.31,7,1-5,4.91ZM172.67,463l4.91,2.58-.94-5.46,4-3.87-5.49-.79-2.45-5-2.45,5-5.48.79,4,3.87-.94,5.46Z"/><polygon class="cls-9" points="200.3 449.38 203.08 455.02 209.31 455.92 204.8 460.31 205.87 466.51 200.3 463.59 194.73 466.51 195.79 460.31 191.29 455.92 197.51 455.02 200.3 449.38"/><path class="cls-9" d="M206.53,467.43l-6.23-3.28-6.23,3.28,1.19-6.94-5-4.91,7-1,3.12-6.31,3.11,6.31,7,1-5,4.91ZM200.3,463l4.9,2.58-.94-5.46,4-3.87-5.48-.79-2.45-5-2.45,5-5.49.79,4,3.87-.94,5.46Z"/><polygon class="cls-9" points="227.03 449.38 229.81 455.02 236.04 455.92 231.53 460.31 232.6 466.51 227.03 463.59 221.46 466.51 222.53 460.31 218.02 455.92 224.25 455.02 227.03 449.38"/><path class="cls-9" d="M233.26,467.43,227,464.15l-6.23,3.28,1.19-6.94-5-4.91,7-1,3.12-6.31,3.12,6.31,7,1-5,4.91ZM227,463l4.9,2.58-.93-5.46,4-3.87-5.48-.79-2.45-5-2.45,5-5.48.79,4,3.87-.93,5.46Z"/><polygon class="cls-9" points="253.76 449.38 256.55 455.02 262.77 455.92 258.27 460.31 259.33 466.51 253.76 463.59 248.19 466.51 249.26 460.31 244.75 455.92 250.98 455.02 253.76 449.38"/><path class="cls-9" d="M260,467.43l-6.23-3.28-6.23,3.28,1.19-6.94-5-4.91,7-1,3.11-6.31,3.12,6.31,7,1-5.05,4.91ZM253.76,463l4.91,2.58-.94-5.46,4-3.87-5.49-.79-2.45-5-2.45,5-5.48.79,4,3.87-.93,5.46Z"/><rect class="cls-7" x="92.03" y="500.29" width="197.82" height="7.13"/><path class="cls-7" d="M290.35,507.92H91.53v-8.13H290.35Zm-197.82-1H289.35v-6.13H92.53Z"/><rect class="cls-7" x="92.48" y="483.8" width="98.02" height="7.13"/><path class="cls-7" d="M191,491.43H92V483.3h99Zm-98-1h97V484.3H93Z"/><rect class="cls-7" x="128" y="856" width="124" height="209"/><rect class="cls-10" x="188.33" y="856.47" width="287.56" height="208.02"/><path class="cls-10" d="M476.39,1065H187.83V856H476.39Zm-287.56-1H475.39V857H188.83Z"/><polygon class="cls-14" points="279.5 1051.5 282.21 1064.49 239.52 1064.49 329.23 856.47 360.53 856.47 279.5 1051.5"/><polygon class="cls-12" points="607.22 926.52 616.74 1064.97 521.67 1064.97 521.67 926.52 607.22 926.52"/><path class="cls-12" d="M617.27,1065.47h-96.1V926h86.52l0,.47Zm-95.1-1h94L606.76,927H522.17Z"/><polygon class="cls-7" points="525.4 926.47 532.31 1064.97 494.43 1064.97 501.89 926.47 525.4 926.47"/><path class="cls-7" d="M532.83,1065.47H493.9L501.42,926h24.46l0,.48Zm-37.87-1h36.82L524.93,927H502.37Z"/><path class="cls-2" d="M578.82,965.86c-.35,0-.67,0-1,0-18.89-1-22.15-17-22.61-20.2-.22-1.54-.43-3-.62-4.36-2-14-2.72-19.28-7.91-18.73a7.11,7.11,0,0,0-5.69,4.17l-.93-.37a8.12,8.12,0,0,1,6.51-4.79c6.17-.65,7,5.27,9,19.58.19,1.37.4,2.82.62,4.35.44,3.06,3.56,18.38,21.67,19.35,2.23.12,6.47-.11,9.71-3,2.72-2.45,4.24-6.29,4.51-11.42.34-6.55-1.53-23.36-6.71-26.22a4.42,4.42,0,0,0-3.85-.56,5.23,5.23,0,0,0-2.48,3.06l-1-.27a6.1,6.1,0,0,1,3.05-3.71,5.32,5.32,0,0,1,4.72.61c5.82,3.2,7.55,20.94,7.22,27.14-.28,5.41-1.9,9.49-4.83,12.11A14.08,14.08,0,0,1,578.82,965.86Z"/><polygon class="cls-12" points="625.98 983.8 554.42 983.8 559.83 1064.97 646.69 1064.97 625.98 983.8"/><path class="cls-12" d="M647.33,1065.47h-88l-5.48-82.17h72.48l.1.38Zm-87-1H646L625.59,984.3H555Z"/><polygon class="cls-7" points="546.67 983.61 556.94 983.61 577 1064.97 548.82 1064.97 546.67 983.61"/><path class="cls-7" d="M577.63,1065.47h-29.3V1065l-2.16-81.87h11.17Zm-28.32-1h27.05l-19.81-80.36h-9.36Z"/><path class="cls-2" d="M602.17,1011.36H602c-6.33,0-11-3.61-14.19-10.93L580.92,984s-2.13-4.38-5.59-3.63a5,5,0,0,0-3.72,3.54l-1-.21a5.91,5.91,0,0,1,4.49-4.3c4.23-.92,6.61,4,6.71,4.19l6.92,16.44c4,9.21,9.52,10.31,13.28,10.33h.13c11.44,0,11.77-8.77,12-14,0-.42,0-.82.06-1.19.64-11.87-3.09-13.74-4.25-14a4.73,4.73,0,0,0-5.87,3l-.95-.32a5.78,5.78,0,0,1,7.06-3.68c1.73.43,5.67,2.77,5,15.05,0,.36,0,.76,0,1.18C614.93,1001.62,614.56,1011.36,602.17,1011.36Z"/><polygon class="cls-7" points="494.37 1065.82 493.6 1065.18 512.87 1042.02 512.87 926.52 513.87 926.52 513.87 1042.38 494.37 1065.82"/><rect class="cls-5" x="522.08" y="1038.68" width="1" height="29.29" transform="translate(-559.69 593.68) rotate(-40.6)"/><polygon class="cls-5" points="549.48 1064.71 548.63 1064.18 559.13 1047.38 551.74 983.67 552.73 983.55 560.16 1047.61 549.48 1064.71"/><rect class="cls-5" x="567.62" y="1043.99" width="1" height="23.96" transform="translate(-580.28 711.01) rotate(-45)"/><rect class="cls-7" x="642" y="928" width="175.98" height="137"/><rect class="cls-9" x="687.32" y="928" width="160.91" height="137"/><path class="cls-9" d="M848.73,1065.5H686.82v-138H848.73Zm-160.91-1H847.73v-136H687.82Z"/><polygon class="cls-7" points="793.13 928 793.13 962.16 783.11 956.59 775.31 961.79 766.03 956.59 757.49 962.16 757.49 928 793.13 928"/><rect class="cls-2" x="720.36" y="995.31" width="37.13" height="2"/><rect class="cls-2" x="720.36" y="1009.79" width="37.13" height="2"/><rect class="cls-2" x="720.36" y="1024.27" width="37.13" height="2"/><rect class="cls-4" x="768.26" y="992.23" width="60.15" height="37.5"/><path class="cls-2" d="M828.91,1030.23H767.76v-38.5h61.15Zm-60.15-1h59.15v-36.5H768.76Z"/><circle class="cls-2" cx="1450.31" cy="569.81" r="45.69"/><circle class="cls-9" cx="1443.69" cy="569.69" r="45.69"/><path class="cls-9" d="M1443.69,615.88a46.19,46.19,0,1,1,46.19-46.19A46.24,46.24,0,0,1,1443.69,615.88Zm0-91.38a45.19,45.19,0,1,0,45.19,45.19A45.24,45.24,0,0,0,1443.69,524.5Z"/><path class="cls-2" d="M1454.78,585.48q-3.22,3.06-9.35,3.72v6.07H1441v-6a30.66,30.66,0,0,1-7.59-1.46,16.61,16.61,0,0,1-5.7-3l2.44-5.48A17.86,17.86,0,0,0,1435,582a21.64,21.64,0,0,0,6,1.38V572.55a40.61,40.61,0,0,1-6.43-2,11.18,11.18,0,0,1-4.31-3.25,8.78,8.78,0,0,1-1.73-5.67,10,10,0,0,1,3.2-7.48q3.19-3.09,9.27-3.69v-6.13h4.45v6a25.5,25.5,0,0,1,5.94,1,19.68,19.68,0,0,1,5.07,2.28l-2.22,5.48a22.42,22.42,0,0,0-8.79-2.93v11a42.79,42.79,0,0,1,6.48,2,11.1,11.1,0,0,1,4.34,3.23A8.65,8.65,0,0,1,1458,578,9.87,9.87,0,0,1,1454.78,585.48Zm-17.87-21.34A12.21,12.21,0,0,0,1441,566v-9.65a7.5,7.5,0,0,0-4.12,1.74,4.26,4.26,0,0,0-1.36,3.2A3.44,3.44,0,0,0,1436.91,564.14Zm12.78,17.46a4,4,0,0,0,1.38-3.09,3.53,3.53,0,0,0-1.46-3,12.68,12.68,0,0,0-4.18-1.88v9.6A8,8,0,0,0,1449.69,581.6Z"/><circle class="cls-2" cx="426.67" cy="518.67" r="30.33"/><circle class="cls-9" cx="422.28" cy="518.59" r="30.33"/><path class="cls-9" d="M422.28,549.42a30.83,30.83,0,1,1,30.82-30.83A30.86,30.86,0,0,1,422.28,549.42Zm0-60.65a29.83,29.83,0,1,0,29.82,29.82A29.86,29.86,0,0,0,422.28,488.77Z"/><path class="cls-2" d="M429.64,529.07a10.35,10.35,0,0,1-6.21,2.47v4h-2.95v-4a20,20,0,0,1-5-1,11,11,0,0,1-3.78-2l1.62-3.64a12,12,0,0,0,3.24,1.82,14.46,14.46,0,0,0,4,.92v-7.2a27.12,27.12,0,0,1-4.27-1.35,7.37,7.37,0,0,1-2.86-2.16,5.78,5.78,0,0,1-1.15-3.76,6.67,6.67,0,0,1,2.12-5,10,10,0,0,1,6.16-2.45v-4.07h2.95v4a16.85,16.85,0,0,1,3.94.68,13.22,13.22,0,0,1,3.37,1.51l-1.48,3.64a14.84,14.84,0,0,0-5.83-1.94v7.27a27.81,27.81,0,0,1,4.3,1.33,7.36,7.36,0,0,1,2.88,2.14,5.73,5.73,0,0,1,1.17,3.76A6.54,6.54,0,0,1,429.64,529.07Zm-11.86-14.16a7.93,7.93,0,0,0,2.7,1.22v-6.41a5,5,0,0,0-2.74,1.16,2.81,2.81,0,0,0-.9,2.12A2.31,2.31,0,0,0,417.78,514.91Zm8.48,11.59a2.66,2.66,0,0,0,.92-2,2.33,2.33,0,0,0-1-2,8.16,8.16,0,0,0-2.77-1.25v6.38A5.47,5.47,0,0,0,426.26,526.5Z"/><path class="cls-4" d="M250.37,274H150.88a8.63,8.63,0,0,0-8.63,8.63v72.58a8.63,8.63,0,0,0,8.63,8.63h30.58L200.63,391l19.17-27.16h30.57a8.63,8.63,0,0,0,8.63-8.63V282.63A8.63,8.63,0,0,0,250.37,274Z"/><path class="cls-2" d="M200.63,391.87,181.2,364.34H150.88a9.14,9.14,0,0,1-9.13-9.13V282.63a9.15,9.15,0,0,1,9.13-9.13h99.49a9.15,9.15,0,0,1,9.13,9.13v72.58a9.14,9.14,0,0,1-9.13,9.13H220.06ZM150.88,274.5a8.14,8.14,0,0,0-8.13,8.13v72.58a8.14,8.14,0,0,0,8.13,8.13h30.84l18.91,26.79,18.91-26.79h30.83a8.14,8.14,0,0,0,8.13-8.13V282.63a8.14,8.14,0,0,0-8.13-8.13Z"/><path class="cls-9" d="M200.59,287v13.09l-16.36,24.57v19.71l4.1,3.22a12.36,12.36,0,0,0,7.65,2.65H223.5a6.24,6.24,0,0,0,5.65-3.5A6.65,6.65,0,0,0,229,341s7.55-.68,4.53-9.48c0,0,6.37-4.2.59-10.9,0,0,4.57-4.57,1.27-8.67a6.58,6.58,0,0,0-5.12-2.41H211.91S218,284.48,200.59,287Z"/><path class="cls-9" d="M223.5,350.73H196a13,13,0,0,1-8-2.75l-4.29-3.38V324.5l.09-.13,16.27-24.44V286.56l.43-.06c4.19-.61,7.42.3,9.62,2.71,5,5.5,3,17,2.39,19.84h17.76a7,7,0,0,1,5.5,2.6c3,3.72,0,7.8-1,9,1.75,2.15,2.49,4.28,2.21,6.35a7.71,7.71,0,0,1-2.87,4.73c.93,2.9.82,5.26-.32,7a6.57,6.57,0,0,1-4.1,2.67,6.94,6.94,0,0,1-.12,5.54A6.77,6.77,0,0,1,223.5,350.73Zm-38.77-6.61,3.91,3.07a11.91,11.91,0,0,0,7.34,2.54H223.5a5.77,5.77,0,0,0,5.2-3.22,6.2,6.2,0,0,0-.14-5.31l-.27-.63.69-.06a5.91,5.91,0,0,0,4-2.33c1-1.55,1-3.73.09-6.49l-.13-.36.32-.22a6.77,6.77,0,0,0,2.75-4.27c.25-1.87-.51-3.85-2.26-5.89l-.3-.35.32-.33c.18-.17,4.21-4.3,1.24-8a6,6,0,0,0-4.73-2.23h-19l.15-.61c0-.14,3.23-13.78-2-19.56-1.89-2.06-4.68-2.88-8.31-2.45v12.8l-.08.12L184.73,324.8Z"/><rect class="cls-7" x="164.65" y="316.56" width="22.48" height="33.63" rx="2.94"/><path class="cls-7" d="M184.19,350.69h-16.6a3.44,3.44,0,0,1-3.44-3.44V319.49a3.44,3.44,0,0,1,3.44-3.43h16.6a3.44,3.44,0,0,1,3.44,3.43v27.76A3.44,3.44,0,0,1,184.19,350.69Zm-16.6-33.63a2.43,2.43,0,0,0-2.44,2.43v27.76a2.44,2.44,0,0,0,2.44,2.44h16.6a2.44,2.44,0,0,0,2.44-2.44V319.49a2.43,2.43,0,0,0-2.44-2.43Z"/><path class="cls-2" d="M313,594s-2,15-7,18l-5-18Z"/><path class="cls-12" d="M319.89,1064.5h-44.3l-14.77-11.08,9.85-17.23,5.58-10,5.9-10.63,13.13-23.64,30.77,17.23-17.44,21.8-5.15,6.43-6.95,8.69C312.37,1049.62,319.89,1064.5,319.89,1064.5Z"/><path class="cls-12" d="M320.7,1065H275.42l-15.25-11.44,10.07-17.62,24.85-44.73L326.81,1009l-29.42,36.77c15.39,3.89,22.87,18.39,22.95,18.53Zm-44.94-1H319c-1.75-3-9.2-14.44-22.64-17.47l-.78-.18,29.67-37.08-29.82-16.7-24.36,43.86-9.64,16.85Z"/><path class="cls-12" d="M452.45,1064.38H394.61l-1.45-20.89-1.55-22.18h30.53l1.6,16.75.4,4.17S450,1057,452.45,1064.38Z"/><path class="cls-12" d="M453.14,1064.88h-59l-3.07-44.07h31.52l2,21.11c2.72,1.57,25.92,15.11,28.31,22.3Zm-58.06-1H451.7c-3.6-7.32-27.56-21.07-27.81-21.22l-.22-.12-2-20.73H392.15Z"/><polygon class="cls-2" points="423.74 1038.06 393.16 1043.49 391.61 1021.31 422.14 1021.31 423.74 1038.06"/><polygon class="cls-2" points="326.05 1009.12 308.61 1030.92 303.46 1037.35 276.25 1026.16 282.15 1015.53 295.28 991.89 326.05 1009.12"/><path class="cls-12" d="M282,640.55c-.44-.2-.88-.41-1.33-.64l-3,29.49-36.76-5.58,14.4-46.17c-1.9-2.77-6.17-6.74-4.73-13.24,0,0,1-5.95,6-5.95a6,6,0,0,1,3.43,1.35l4.55-16,42.08,9.45S311.39,653.7,282,640.55Z"/><path class="cls-12" d="M278.09,670l-37.85-5.74,14.5-46.49q-.41-.57-.9-1.2c-2.12-2.76-5-6.54-3.77-12.24,0,0,1.13-6.34,6.45-6.34a5.94,5.94,0,0,1,3.14,1l4.49-15.75,42.9,9.63,0,.37c.12,1.55,2.87,38.11-10.44,47.51-4,2.79-8.95,2.88-14.82.25h0l-.7-.32Zm-36.55-6.56,35.67,5.42,3.06-29.7.65.33c.44.23.87.44,1.31.63,5.53,2.48,10.18,2.43,13.83-.15,12.16-8.58,10.31-42.34,10.05-46.24l-41.26-9.27-4.62,16.21-.58-.43a5.43,5.43,0,0,0-3.13-1.25c-4.48,0-5.46,5.48-5.47,5.53-1.16,5.27,1.58,8.83,3.58,11.44.4.51.77,1,1.07,1.44l.14.2-.07.23Z"/><polygon class="cls-7" points="370.97 805.2 274.68 1020.5 320.65 1032.5 408.29 864.29 370.97 805.2"/><path class="cls-7" d="M320.91,1033.08,274,1020.83l.24-.53L370.9,804.14l38,60.12Zm-45.53-12.91,45,11.75,87.32-167.61-36.67-58.06Z"/><path class="cls-7" d="M427,1032.85H375.12l-18.66-180s-87,10.62-122.32-1.25c-15.87-5.33-19.6-21.54-18.78-38,1-21.06,9.45-42.6,9.45-42.6l79.82,8.29,44.26,3.25,58,4.26A12.07,12.07,0,0,1,418,798.37Z"/><path class="cls-7" d="M427.47,1033.35h-52.8l-.05-.45L356,853.44c-7.2.84-88.38,10-122-1.34-13.73-4.61-20.16-17.57-19.12-38.54s9.4-42.54,9.48-42.75l.14-.36,80.2,8.33,102.21,7.51a12.56,12.56,0,0,1,11.64,12.06Zm-51.9-1h50.86l-8.9-234a11.55,11.55,0,0,0-10.72-11.1l-102.22-7.51-79.45-8.25c-1.08,2.88-8.34,22.81-9.28,42.08-1,20.46,5.19,33.1,18.44,37.55,34.85,11.69,121.23,1.33,122.1,1.22l.5-.06.06.51Z"/><path class="cls-15" d="M348.89,782.53,215.36,813.59c1-21.06,9.45-42.6,9.45-42.6l79.82,8.29Z"/><path class="cls-3" d="M302.33,751.15l28.3-2.55a10.66,10.66,0,0,1,5.49.34l13,5a6.61,6.61,0,0,1,4.48,5.6l2.06,18.59a5.6,5.6,0,0,1-5.67,6.26h0a2.1,2.1,0,0,1-2.11,2.11H345a2.1,2.1,0,0,1-1.89-1.18l-.46-.93h-2.19a6.17,6.17,0,0,1-5.66-3.73l-3.62-7.78L306.47,774Z"/><path class="cls-2" d="M347.9,787H345a2.63,2.63,0,0,1-2.34-1.46l-.32-.65h-1.88a6.64,6.64,0,0,1-6.12-4l-3.47-7.46-24.8,1.15-4.32-23.85,28.85-2.6a11.15,11.15,0,0,1,5.69.36l13,5a7.09,7.09,0,0,1,4.8,6l2.05,18.59a6.08,6.08,0,0,1-5.71,6.8A2.6,2.6,0,0,1,347.9,787Zm-16.42-14.64,3.76,8.09a5.65,5.65,0,0,0,5.21,3.44H343l.59,1.21a1.62,1.62,0,0,0,1.44.9h2.91a1.61,1.61,0,0,0,1.61-1.61v-.5h.5a5.09,5.09,0,0,0,5.17-5.71l-2.06-18.58a6.11,6.11,0,0,0-4.13-5.18l-13.05-5a10.22,10.22,0,0,0-5.21-.31l-27.81,2.51,4,21.91Z"/><path class="cls-9" d="M213.52,728.49H174l15.31-46a28.37,28.37,0,0,1,17.43-17.75l36.67-13s27.07,22.72,36.32,0c.2-.49,15.39,5.53,26.28,9.64a17.84,17.84,0,0,1,11.32,13.91L334.5,784.5,214.44,805.2Z"/><path class="cls-9" d="M214,805.79,213,729h-39.7l15.54-46.61a28.64,28.64,0,0,1,17.73-18.07l36.95-13.1.21.19c.15.12,14.86,12.32,25.95,9.57,4.26-1.05,7.48-4.21,9.59-9.38.29-.73.33-.82,18.16,6l8.76,3.34a18.37,18.37,0,0,1,11.63,14.31l17.23,109.65ZM174.71,728H214l.93,76.62,119-20.52L316.85,675.41a17.35,17.35,0,0,0-11-13.52c-2.76-1-5.78-2.2-8.77-3.35-7.21-2.77-15.32-5.88-17-6.25-2.23,5.29-5.65,8.54-10.14,9.65-10.95,2.72-24.63-8-26.61-9.6l-36.4,12.91a27.64,27.64,0,0,0-17.12,17.44Z"/><path class="cls-12" d="M323.74,782.25a20,20,0,0,1-6.94,1.11c-1,0-4.58-2.87-5.27-5.41l-1.08-4a3.7,3.7,0,0,0-4.09-2.69L189,788a38.19,38.19,0,0,1-11.09.29c-13.1-1.67-16.28-9.33-16.77-15a20.12,20.12,0,0,1,1.1-8.32l9.15-28.24,1.57-4.85,1.08-3.32h39.5L212,733.22l-.39,1.21-5.32,16.72h67.38l27.91-8.38a11.93,11.93,0,0,1,6.41-.11l10.34,3a12.49,12.49,0,0,1,9,11l1.47,17.66C329.31,778.52,327.72,780.71,323.74,782.25Z"/><path class="cls-12" d="M182.32,789a36.69,36.69,0,0,1-4.49-.28c-13.27-1.7-16.68-9.35-17.21-15.48a20.49,20.49,0,0,1,1.13-8.52L173.66,728H214.2L207,750.65h66.63l27.84-8.36a12.32,12.32,0,0,1,6.68-.11l10.35,3a13.08,13.08,0,0,1,9.35,11.41l1.47,17.66c.52,4.33-1,6.8-5.38,8.48h0a20.45,20.45,0,0,1-7.14,1.14c-1.36,0-5-3.18-5.73-5.78l-1.08-4a3.21,3.21,0,0,0-3.54-2.33L189.05,788.45A41.14,41.14,0,0,1,182.32,789Zm-7.94-60L162.7,765.05a19.47,19.47,0,0,0-1.08,8.13c.49,5.76,3.73,13,16.33,14.56a37.88,37.88,0,0,0,11-.28L306.29,770.8a4.21,4.21,0,0,1,4.64,3.06l1.08,4c.66,2.41,4.09,5,4.79,5a19.63,19.63,0,0,0,6.76-1.08c3.88-1.5,5.21-3.58,4.74-7.44l-1.47-17.68a12.06,12.06,0,0,0-8.63-10.53l-10.34-3a11.4,11.4,0,0,0-6.13.11l-28.05,8.4H205.62L212.84,729Z"/><path class="cls-2" d="M319.21,575.21c-1.88-.37-6.7,0-9.6,2.4a6.89,6.89,0,0,0,.49-1c4.33-12.9-13.86-3.33-23.43-1.42-2,.38-6.35,1-6.35,1-28.76-6.55-25.88,22.82-25.88,22.82,7.56-1,9.8,9.16,9.8,9.16,7.74-3.66,10.13-8.88,10.36-11.14,7.5,3.39,26.63,9.88,42.44-1.59C327.83,587.66,324,576.17,319.21,575.21Z"/><rect class="cls-2" x="284.37" y="777.21" width="110.92" height="10.37"/><rect class="cls-2" x="318" y="767.24" width="1" height="15.52" transform="translate(-188.93 108.23) rotate(-14.93)"/><rect class="cls-2" x="324.5" y="764.36" width="1" height="16.28" transform="translate(-136.8 73.13) rotate(-10.62)"/><rect class="cls-2" x="340.5" y="771.33" width="1" height="13.34" transform="translate(-166.21 96.6) rotate(-12.99)"/><polygon class="cls-2" points="389.07 782.39 418.1 699.46 424.32 699.46 395.29 782.39 389.07 782.39"/><rect class="cls-2" x="348" y="768.44" width="1" height="16.12" transform="translate(-93.62 49.22) rotate(-7.13)"/><rect class="cls-2" x="205.93" y="717.5" width="22.14" height="1" transform="translate(-532.77 696.58) rotate(-71.55)"/><polygon class="cls-2" points="213.52 728.49 212.01 733.22 211.62 734.43 172.94 731.81 174.02 728.49 213.52 728.49"/><path class="cls-7" d="M1246.45,1021.31v43.07h-57.84c2.46-7.38,28.3-22.15,28.3-22.15v-20.92Z"/><path class="cls-7" d="M1247,1064.88h-59l.22-.65c2.39-7.17,25.44-20.65,28.28-22.29v-21.13H1247Zm-57.6-1H1246v-42.07h-28.54v20.71l-.25.15C1216.91,1042.81,1193,1056.56,1189.35,1063.88Z"/><path class="cls-1" d="M1415.05,1053.31l-14.77,11.07H1356s7.52-14.88,23.38-18.46l-12.1-15.12L1349.82,1009l30.77-17.23,13.13,23.64,11.48,20.66Z"/><path d="M1400.45,1064.88h-45.29l.37-.72c.07-.15,7.56-14.65,23-18.54l-29.42-36.76,31.72-17.77,24.86,44.75,10.06,17.6Zm-43.62-1h43.28l14.28-10.71-9.62-16.84-24.37-43.87-29.82,16.69,29.67,37.09-.78.17C1366,1049.44,1358.58,1060.88,1356.83,1063.88Z"/><polygon class="cls-2" points="1246.45 1021.31 1246.45 1036.95 1216.91 1041.17 1216.91 1021.31 1246.45 1021.31"/><polygon class="cls-2" points="1393.72 1015.42 1367.26 1030.8 1349.82 1009 1380.59 991.78 1393.72 1015.42"/><polygon class="cls-10" points="1391.66 1007.77 1344.9 1021.31 1273.52 877.33 1271.32 847.76 1263.92 748.2 1259.98 718.5 1326.44 718.5 1326.44 867.48 1391.66 1007.77"/><path class="cls-10" d="M1344.64,1021.91,1273,877.36l-9.6-129.12-4-30.24h67.53V867.37l65.42,140.72ZM1274,877.19l71.15,143.52,45.81-13.25-65-139.87V719h-65.38l3.86,29.14Z"/><path class="cls-12" d="M1252.6,580.74l1.23-25.85s-30.07,5.57-11.81-44.74a24.16,24.16,0,0,1,10.31-12.44l5.19-3.12,23.39,4.92,4.92,86.15Z"/><path class="cls-12" d="M1286.36,586.24l-34.28-5.07,1.22-25.7c-2.11.25-9,.58-13.62-4.82-6-7.07-5.36-20.76,1.87-40.67a24.7,24.7,0,0,1,10.52-12.7l5.36-3.22,24,5,0,.38Zm-33.24-5.93,32.17,4.76-4.86-85.15-22.82-4.8-5,3a23.7,23.7,0,0,0-10.09,12.18c-7,19.28-7.7,33-2,39.68,5,5.87,13.21,4.42,13.29,4.4l.62-.11Z"/><path class="cls-12" d="M1104.92,598l-7.38,29.53-15.37-7.31-33.86-16.07c-3.69,1.23-11.07-1.23-16-3.69-4.66-2.34-1.23-7.39-1.23-7.39-2.46-3.69,1.23-7.38,1.23-7.38a6.85,6.85,0,0,1,2.46-7.38l-15.24-7.63a4.12,4.12,0,0,1-2.26-4.54l0-.1a4.15,4.15,0,0,1,5.44-2.72l31.72,11.29,16,11.08,21.51,7.68Z"/><path class="cls-12" d="M1097.87,628.22l-49.6-23.57c-4.28,1.26-12.15-1.76-16.18-3.78a4.53,4.53,0,0,1-2.58-2.94,7,7,0,0,1,1-4.89c-2-3.36.53-6.67,1.28-7.52a7.38,7.38,0,0,1,2.1-7.14l-14.56-7.28a4.62,4.62,0,0,1-2.52-5.1l0-.11a4.35,4.35,0,0,1,2.23-2.79,4.81,4.81,0,0,1,3.86-.28l31.85,11.35,15.94,11,34.83,12.44Zm-49.53-24.64,48.86,23.21,7.13-28.51-34.15-12.21-16-11-31.66-11.27a3.87,3.87,0,0,0-3.07.22,3.41,3.41,0,0,0-1.72,2.15,3.67,3.67,0,0,0,2,4.08l16,8-.71.48a6.3,6.3,0,0,0-2.25,6.85l.07.27-.2.2c-.14.14-3.37,3.45-1.17,6.76l.18.28-.18.27s-1.56,2.33-1,4.36a3.61,3.61,0,0,0,2.06,2.3c5.12,2.56,12.2,4.8,15.61,3.67Z"/><polygon class="cls-7" points="1104.92 597.97 1097.54 627.5 1082.17 620.19 1091.97 593.34 1104.92 597.97"/><polygon class="cls-10" points="1297.5 718.5 1293.51 746.45 1271.32 847.76 1268.6 868.71 1253.22 1031.77 1211.37 1031.77 1209.37 869.53 1220.59 751.91 1223.52 721.24 1297.5 718.5"/><path class="cls-10" d="M1253.67,1032.27h-42.79v-.49l-2-162.24,14.19-148.78,75-2.78L1294,746.52l-22.2,101.35-2.72,20.9Zm-41.8-1h40.89l15.34-162.61,2.72-21L1293,746.34l3.9-27.32-72.94,2.7-14.12,147.86Z"/><path class="cls-12" d="M1405.92,796.82c-.53,4.44-4,2.69-4,2.69l.95,7.52c-1.47,5.63-5.1,2.82-5.1,2.82-1.47,5.64-6.31,1.89-6.31,1.89-2.67,4.7-6.71-1.34-6.71-1.34l-5.93-12.34-4.31-16.9c.94,7.51-4.28,9.26-4.28,9.26l-3.92-13.69,7-14-1.07-8.46-1.78-14.09,23.76-1.91c.75,2.23,2.27,7.51,3.79,12.86,2,7.21,4,14.51,4,14.51l-.25,15.31Z"/><path class="cls-12" d="M1389,814c-2.41,0-4.58-3.21-4.67-3.35l-6-12.4-3.42-13.38a7.71,7.71,0,0,1-4.56,6l-.5.16-4.11-14.38,7-14-2.89-22.93,24.67-2,.12.38c.63,1.88,1.88,6.1,3.8,12.87,2,7.22,4,14.52,4,14.52l0,.07-.25,15.31,4.2,15.85v.1a3.81,3.81,0,0,1-1.71,3.15,3.09,3.09,0,0,1-2.22.21l.87,6.82,0,.09c-.54,2.07-1.44,3.33-2.67,3.75a3.4,3.4,0,0,1-2.62-.29,3.92,3.92,0,0,1-2.33,2.68,5.18,5.18,0,0,1-4.12-.84,3.15,3.15,0,0,1-2.5,1.58Zm-14-33,4.3,16.9,5.9,12.25c.52.76,2.26,2.9,3.88,2.84q1.1,0,2-1.53l.28-.5.46.35s2,1.55,3.64,1c.87-.29,1.5-1.17,1.88-2.62l.19-.72.6.45a2.78,2.78,0,0,0,2.28.51c.87-.3,1.56-1.33,2-3l-1.06-8.33.84.41a2.66,2.66,0,0,0,2.12.08,2.85,2.85,0,0,0,1.17-2.3l-4.18-15.8.25-15.3c-.21-.76-2.1-7.65-4-14.44-1.79-6.35-3-10.44-3.65-12.47L1371,740.68l2.8,22.18-7,13.92,3.71,13c1.21-.63,4.18-2.78,3.47-8.51Z"/><path class="cls-7" d="M1398,751.17l-25.77,3.14-1.78-14.09,23.76-1.91C1394.92,740.54,1396.44,745.82,1398,751.17Z"/><polygon class="cls-7" points="1326.44 715 1326.44 742.86 1284.51 746.45 1263.92 748.2 1220.59 751.91 1223.52 721.24 1326.44 715"/><path class="cls-9" d="M1098.77,593l-8.62,43.08,72.14,25.09a36.24,36.24,0,0,0,25.34-.58L1224.3,646l-7.39,86.15h115.68l-11.07-93.53,16,29.53,25.33,79.25h35.69L1376.43,651l-35.91-55.87A38.59,38.59,0,0,0,1317,578.46l-21.37-5.11h-41.58a46.6,46.6,0,0,0-23.43,6.32l-56.82,33.06Z"/><path class="cls-9" d="M1399.17,747.86h-36.68l-.11-.35L1337,668.27l-14.72-27.16,10.84,91.5H1216.37l0-.55,7.32-85.33-35.91,14.36a36.74,36.74,0,0,1-25.7.59l-72.54-25.23,8.8-44,75.39,19.77,56.64-33a47.12,47.12,0,0,1,23.68-6.39l41.7,0,21.37,5.1a38.93,38.93,0,0,1,23.78,16.87l36,55.94Zm-36-1h34.69L1376,651.18l-35.87-55.8a37.9,37.9,0,0,0-23.17-16.44l-21.32-5.09h-41.52a46.06,46.06,0,0,0-23.18,6.26l-57,33.16-74.76-19.61-8.42,42.13,71.72,24.94a35.69,35.69,0,0,0,25-.57l37.41-15-7.4,86.41H1332L1320.71,636,1338,667.88Z"/><path class="cls-7" d="M1249,497.44s-3,8.56,4.92,26.51c0,0,16.73-5.38,8.37,14.34,0,0,5.71,16,21.71,19.68,0,0,13.54-6.15,18.46-24.61.71-2.67,1.65-9.41,1.65-9.41s14.81,17.5,35.78,7.5c4.27-2,8.66-8.65,9.74-16.23,1.6-11.18-3.24-29.22-23.81-29.22-8.65,0-20.56,6.49-25,21.81C1300.75,507.81,1282.21,480.21,1249,497.44Z"/><polygon points="1390.98 811.93 1384.65 796.37 1381.85 783 1382.83 782.79 1385.6 796.08 1391.9 811.55 1390.98 811.93"/><polygon points="1397.28 810.04 1390.95 794.48 1388.23 781.65 1389.21 781.44 1391.91 794.19 1398.21 809.67 1397.28 810.04"/><line class="cls-4" x1="1381.34" y1="783.56" x2="1398.25" y2="779.25"/><rect x="1381.07" y="780.91" width="17.45" height="1" transform="translate(-150 367.7) rotate(-14.31)"/><polygon points="1401.66 801.6 1398.19 791.35 1395.96 779.8 1396.95 779.61 1399.15 791.1 1402.61 801.27 1401.66 801.6"/><g id="Underline"><rect class="cls-2" x="71" y="1064.5" width="1460" height="2"/></g><path class="cls-12" d="M834.14,550.5h18.23a2.84,2.84,0,0,1,2.22,1.08l9.2,11.56a2.84,2.84,0,0,1-2.22,4.6H834.14Z"/><path class="cls-12" d="M861.57,568H833.93V550.29h18.44a3,3,0,0,1,2.38,1.15L864,563a3.05,3.05,0,0,1-2.38,5Zm-27.21-.43h27.21a2.62,2.62,0,0,0,2-4.26l-9.2-11.56a2.61,2.61,0,0,0-2-1h-18Z"/><rect class="cls-11" x="648.71" y="474.89" width="14.78" height="5.63" rx="2.81"/><rect class="cls-11" x="671.98" y="481.01" width="11.28" height="16.01"/><path class="cls-9" d="M654.19,599.68V506.13a14.4,14.4,0,0,1,14.4-14.39h41.56a14.4,14.4,0,0,1,14.4,14.39v86.14a13.19,13.19,0,0,0,13.19,13.19h11.69a13.19,13.19,0,0,0,13.19-13.19V554.62s-.28-11.36-7.32-13h71.89s29.88,24.34,36.14,63.61v4.34H654.19Z"/><path class="cls-9" d="M863.55,609.77H654V506.13a14.63,14.63,0,0,1,14.61-14.61h41.56a14.63,14.63,0,0,1,14.61,14.61v86.14a13,13,0,0,0,13,13h11.69a13,13,0,0,0,13-13V554.62c0-.1-.36-11.21-7.16-12.8l-1.79-.42h73.81l.06.05a106.78,106.78,0,0,1,15.75,17.11c7.55,10.05,17.22,26.3,20.46,46.63Zm-209.14-.42H863.12v-4.13c-3.22-20.21-12.86-36.39-20.37-46.39a107.85,107.85,0,0,0-15.63-17H756.61c5.9,2.6,6.21,12.36,6.22,12.8v37.65a13.41,13.41,0,0,1-13.4,13.4H737.74a13.41,13.41,0,0,1-13.4-13.4V506.13A14.2,14.2,0,0,0,710.15,492H668.59a14.19,14.19,0,0,0-14.18,14.18Z"/><rect class="cls-11" x="677.46" y="492" width="5.09" height="93.77"/><rect class="cls-11" x="743.46" y="609.8" width="67.46" height="13.85"/><ellipse class="cls-11" cx="835.26" cy="616.06" rx="30.72" ry="34.94"/><ellipse class="cls-4" cx="840.44" cy="614.52" rx="20" ry="22.74"/><path class="cls-2" d="M840.44,637.48c-11.14,0-20.21-10.3-20.21-23s9.07-22.95,20.21-22.95,20.21,10.3,20.21,22.95S851.59,637.48,840.44,637.48Zm0-45.49c-10.91,0-19.78,10.11-19.78,22.53s8.87,22.53,19.78,22.53,19.79-10.1,19.79-22.53S851.35,592,840.44,592Z"/><path class="cls-11" d="M829.88,614.62c0,5,2.37,9.55,10,9.55,4.45,0,6.13-4.5,6.13-9.55s-1.68-9.16-6.13-9.16C832.25,605.46,829.88,609.56,829.88,614.62Z"/><ellipse class="cls-4" cx="840.34" cy="614.62" rx="8.05" ry="9.16"/><path class="cls-2" d="M840.34,624c-4.55,0-8.26-4.21-8.26-9.37s3.71-9.37,8.26-9.37,8.27,4.2,8.27,9.37S844.9,624,840.34,624Zm0-18.32c-4.32,0-7.83,4-7.83,9s3.51,8.94,7.83,8.94,7.84-4,7.84-8.94S844.67,605.67,840.34,605.67Z"/><ellipse class="cls-11" cx="662.18" cy="616.06" rx="30.72" ry="34.94"/><ellipse class="cls-4" cx="667.36" cy="614.52" rx="20" ry="22.74"/><path class="cls-2" d="M667.36,637.48c-11.14,0-20.21-10.3-20.21-23s9.07-22.95,20.21-22.95,20.21,10.3,20.21,22.95S678.5,637.48,667.36,637.48Zm0-45.49c-10.91,0-19.79,10.11-19.79,22.53s8.88,22.53,19.79,22.53,19.79-10.1,19.79-22.53S678.27,592,667.36,592Z"/><path class="cls-11" d="M656.8,614.62c0,5,2.37,9.15,10,9.15,4.44,0,6.12-4.1,6.12-9.15s-1.68-9.16-6.12-9.16C659.17,605.46,656.8,609.56,656.8,614.62Z"/><ellipse class="cls-4" cx="667.26" cy="614.62" rx="8.05" ry="9.16"/><path class="cls-2" d="M667.26,624c-4.56,0-8.26-4.21-8.26-9.37s3.7-9.37,8.26-9.37,8.26,4.2,8.26,9.37S671.82,624,667.26,624Zm0-18.32c-4.32,0-7.84,4-7.84,9s3.52,8.94,7.84,8.94,7.84-4,7.84-8.94S671.58,605.67,667.26,605.67Z"/><path class="cls-11" d="M891.74,605.36h-3.91a8.18,8.18,0,0,0-8.11-7.13H793v16.39h86.74a8.2,8.2,0,0,0,8-6.52h4Z"/><path class="cls-9" d="M876.34,609.56s5.41-43.19-45.05-54.94c-18.19-4.23-60-7-50.62,54.94Z"/><path class="cls-9" d="M876.53,609.77h-96l0-.18c-3.5-23.06-.23-39.41,9.71-48.6,12.15-11.23,31-8.94,41.16-6.57,11.54,2.68,21.1,7.26,28.41,13.58a47.9,47.9,0,0,1,13.19,18.42,51.66,51.66,0,0,1,3.62,23.16Zm-95.67-.42h95.29a51.4,51.4,0,0,0-3.62-22.79c-4.5-11.14-15.32-25.68-41.29-31.73-10.07-2.35-28.76-4.62-40.77,6.47C780.66,570.37,777.43,586.53,780.86,609.35Z"/><path class="cls-11" d="M756.09,544h63.26a11.91,11.91,0,0,0,11.91-11.91h0a11.91,11.91,0,0,0-12.86-11.88l-63.06,5a9.4,9.4,0,0,0-8.65,9.36h0A9.4,9.4,0,0,0,756.09,544Z"/><path class="cls-9" d="M695.25,604.77H623a46.23,46.23,0,0,1,8.38-20.31c15.68-21,48.31-18.13,59.87,5.4A42.36,42.36,0,0,1,695.25,604.77Z"/><path class="cls-9" d="M695.48,605H622.73l0-.23a46.73,46.73,0,0,1,8.42-20.42,35.53,35.53,0,0,1,60.23,5.44,42.7,42.7,0,0,1,4.05,15Zm-72.27-.42H695A42.15,42.15,0,0,0,691,590a35.1,35.1,0,0,0-59.51-5.36A46.63,46.63,0,0,0,623.21,604.56Z"/><path class="cls-16" d="M876.83,612.34h-186v-5.61H623v-5.1h68a5,5,0,0,1,5,5v.64h180.9Z"/><polygon class="cls-11" points="746.37 639.81 733.95 639.81 733.95 634.72 744.65 634.72 768.54 616.45 771.63 620.5 746.37 639.81"/><path class="cls-9" d="M683.65,486.35H668.17a11.1,11.1,0,0,1-2.73-.34,11.32,11.32,0,0,1,0-22,11.68,11.68,0,0,1,2.74-.33h2.23a22.39,22.39,0,0,1,19.21,10.53l.64,1.11A7.48,7.48,0,0,1,683.65,486.35Z"/><path class="cls-9" d="M683.65,486.56H668.17a11.75,11.75,0,0,1-2.78-.34,11.54,11.54,0,0,1,0-22.38,12,12,0,0,1,2.79-.33h2.23a22.69,22.69,0,0,1,19.39,10.63c.22.37.43.73.64,1.12a7.68,7.68,0,0,1-6.78,11.3Zm-15.48-22.63a11.06,11.06,0,0,0-7.85,3.26,11.1,11.1,0,0,0,7.85,18.94h15.48a7.26,7.26,0,0,0,6.41-10.67c-.21-.38-.42-.74-.64-1.1a22.22,22.22,0,0,0-19-10.43Z"/><path class="cls-11" d="M673.24,475a15.18,15.18,0,0,1-5,11.32h0a11.32,11.32,0,0,1,0-22.63h0A15.18,15.18,0,0,1,673.24,475Z"/><path class="cls-4" d="M670.12,475a15.19,15.19,0,0,1-4.68,11,11.32,11.32,0,0,1,0-22A15.17,15.17,0,0,1,670.12,475Z"/><path class="cls-2" d="M665.5,486.24l-.11,0a11.54,11.54,0,0,1,0-22.38l.11,0,.09.08a15.43,15.43,0,0,1,0,22.26Zm-.13-21.95a11.08,11.08,0,0,0-5,2.9,11.1,11.1,0,0,0,5.06,18.59,15,15,0,0,0,0-21.49Z"/><rect class="cls-17" x="690.52" y="476.04" width="8.34" height="3.44"/><path class="cls-17" d="M699.07,479.69H690.3v-3.87h8.77Zm-8.34-.43h7.91v-3h-7.91Z"/><rect class="cls-11" x="684.57" y="474.89" width="8.96" height="5.63" rx="2.81"/><rect class="cls-11" x="697.29" y="474.89" width="14.78" height="5.63" rx="2.81"/><rect class="cls-5" x="807.31" y="598.68" width="41.42" height="2.37"/><path d="M848.94,601.26H807.09v-2.79h41.85Zm-41.42-.43h41v-1.94h-41Z"/><rect class="cls-5" x="807.31" y="592.42" width="41.42" height="2.37"/><path d="M848.94,595H807.09v-2.79h41.85Zm-41.42-.43h41v-1.94h-41Z"/><rect class="cls-5" x="807.31" y="586.16" width="41.42" height="2.37"/><path d="M848.94,588.74H807.09V586h41.85Zm-41.42-.43h41v-1.94h-41Z"/><rect class="cls-2" x="698.68" y="639.76" width="86.98" height="0.85"/><circle class="cls-16" cx="752.68" cy="676.64" r="7.65"/><path class="cls-16" d="M752.68,684.52a7.89,7.89,0,1,1,7.89-7.88A7.89,7.89,0,0,1,752.68,684.52Zm0-15.3a7.42,7.42,0,0,0,0,14.83c4.09,0,6.42-3.32,6.42-7.41S756.77,669.22,752.68,669.22Z"/><circle class="cls-12" cx="775.5" cy="676.5" r="8"/><circle class="cls-12" cx="730.5" cy="675.5" r="8"/></g></svg>