<svg xmlns="http://www.w3.org/2000/svg" xmlns:xlink="http://www.w3.org/1999/xlink" width="512" zoomAndPan="magnify" viewBox="0 0 384 383.999986" height="512" preserveAspectRatio="xMidYMid meet" version="1.0"><defs><clipPath id="6b7ea38582"><path d="M 89.664062 38.398438 L 294.414062 38.398438 L 294.414062 345.898438 L 89.664062 345.898438 Z M 89.664062 38.398438 " clip-rule="nonzero"/></clipPath></defs><g clip-path="url(#6b7ea38582)"><path fill="#303030" d="M 273.863281 273.863281 L 284.097656 273.863281 L 284.097656 304.566406 L 273.863281 304.566406 Z M 253.398438 273.863281 L 263.632812 273.863281 L 263.632812 304.566406 L 253.398438 304.566406 Z M 232.929688 273.863281 L 243.164062 273.863281 L 243.164062 304.566406 L 232.929688 304.566406 Z M 212.464844 273.863281 L 222.699219 273.863281 L 222.699219 304.566406 L 212.464844 304.566406 Z M 197.113281 304.566406 C 194.296875 304.566406 191.996094 302.265625 191.996094 299.449219 L 191.996094 278.980469 C 191.996094 276.164062 194.296875 273.863281 197.113281 273.863281 L 202.230469 273.863281 L 202.230469 304.566406 Z M 268.75 335.265625 L 115.246094 335.265625 C 106.773438 335.265625 99.898438 328.390625 99.898438 319.914062 L 99.898438 64.082031 C 99.898438 55.605469 106.773438 48.730469 115.246094 48.730469 L 268.75 48.730469 C 277.222656 48.730469 284.097656 55.605469 284.097656 64.082031 L 284.097656 263.632812 L 197.113281 263.632812 C 188.640625 263.632812 181.765625 270.507812 181.765625 278.980469 L 181.765625 299.449219 C 181.765625 307.921875 188.640625 314.796875 197.113281 314.796875 L 284.097656 314.796875 L 284.097656 319.914062 C 284.097656 328.390625 277.222656 335.265625 268.75 335.265625 Z M 268.75 38.496094 L 115.246094 38.496094 C 101.136719 38.496094 89.664062 49.96875 89.664062 64.082031 L 89.664062 319.914062 C 89.664062 334.027344 101.136719 345.5 115.246094 345.5 L 268.75 345.5 C 282.859375 345.5 294.332031 334.027344 294.332031 319.914062 L 294.332031 64.082031 C 294.332031 49.96875 282.859375 38.496094 268.75 38.496094 " fill-opacity="1" fill-rule="nonzero"/></g><path fill="#303030" d="M 120.363281 69.195312 L 263.632812 69.195312 L 263.632812 151.0625 L 120.363281 151.0625 Z M 120.363281 161.296875 L 263.632812 161.296875 C 269.269531 161.296875 273.863281 156.699219 273.863281 151.0625 L 273.863281 69.195312 C 273.863281 63.558594 269.269531 58.964844 263.632812 58.964844 L 120.363281 58.964844 C 114.726562 58.964844 110.128906 63.558594 110.128906 69.195312 L 110.128906 151.0625 C 110.128906 156.699219 114.726562 161.296875 120.363281 161.296875 " fill-opacity="1" fill-rule="nonzero"/><path fill="#303030" d="M 258.515625 217.582031 C 255.695312 217.582031 253.398438 215.28125 253.398438 212.464844 C 253.398438 209.644531 255.695312 207.347656 258.515625 207.347656 C 261.332031 207.347656 263.632812 209.644531 263.632812 212.464844 C 263.632812 215.28125 261.332031 217.582031 258.515625 217.582031 Z M 258.515625 197.113281 C 250.039062 197.113281 243.164062 203.988281 243.164062 212.464844 C 243.164062 220.9375 250.039062 227.816406 258.515625 227.816406 C 266.988281 227.816406 273.863281 220.9375 273.863281 212.464844 C 273.863281 203.988281 266.988281 197.113281 258.515625 197.113281 " fill-opacity="1" fill-rule="nonzero"/><path fill="#303030" d="M 227.816406 243.164062 C 224.996094 243.164062 222.699219 240.867188 222.699219 238.046875 C 222.699219 235.230469 224.996094 232.929688 227.816406 232.929688 C 230.632812 232.929688 232.929688 235.230469 232.929688 238.046875 C 232.929688 240.867188 230.632812 243.164062 227.816406 243.164062 Z M 227.816406 222.699219 C 219.339844 222.699219 212.464844 229.574219 212.464844 238.046875 C 212.464844 246.523438 219.339844 253.398438 227.816406 253.398438 C 236.289062 253.398438 243.164062 246.523438 243.164062 238.046875 C 243.164062 229.574219 236.289062 222.699219 227.816406 222.699219 " fill-opacity="1" fill-rule="nonzero"/><path fill="#303030" d="M 171.53125 232.929688 L 156.179688 232.929688 C 153.363281 232.929688 151.0625 235.230469 151.0625 238.046875 L 151.0625 253.398438 L 140.832031 253.398438 L 140.832031 238.046875 C 140.832031 235.230469 138.53125 232.929688 135.714844 232.929688 L 120.363281 232.929688 L 120.363281 222.699219 L 135.714844 222.699219 C 138.53125 222.699219 140.832031 220.398438 140.832031 217.582031 L 140.832031 202.230469 L 151.0625 202.230469 L 151.0625 217.582031 C 151.0625 220.398438 153.363281 222.699219 156.179688 222.699219 L 171.53125 222.699219 Z M 181.765625 217.582031 C 181.765625 214.761719 179.464844 212.464844 176.648438 212.464844 L 161.296875 212.464844 L 161.296875 197.113281 C 161.296875 194.296875 159 191.996094 156.179688 191.996094 L 135.714844 191.996094 C 132.894531 191.996094 130.597656 194.296875 130.597656 197.113281 L 130.597656 212.464844 L 115.246094 212.464844 C 112.429688 212.464844 110.128906 214.761719 110.128906 217.582031 L 110.128906 238.046875 C 110.128906 240.867188 112.429688 243.164062 115.246094 243.164062 L 130.597656 243.164062 L 130.597656 258.515625 C 130.597656 261.332031 132.894531 263.632812 135.714844 263.632812 L 156.179688 263.632812 C 159 263.632812 161.296875 261.332031 161.296875 258.515625 L 161.296875 243.164062 L 176.648438 243.164062 C 179.464844 243.164062 181.765625 240.867188 181.765625 238.046875 L 181.765625 217.582031 " fill-opacity="1" fill-rule="nonzero"/><path fill="#303030" d="M 186.882812 191.996094 L 197.113281 191.996094 L 197.113281 181.765625 L 186.882812 181.765625 L 186.882812 191.996094 " fill-opacity="1" fill-rule="nonzero"/><path fill="#303030" d="M 217.582031 181.765625 L 207.347656 181.765625 L 207.347656 191.996094 L 217.582031 191.996094 L 217.582031 181.765625 " fill-opacity="1" fill-rule="nonzero"/><path fill="#303030" d="M 227.816406 181.765625 L 227.816406 191.996094 L 238.046875 191.996094 L 238.046875 181.765625 L 227.816406 181.765625 " fill-opacity="1" fill-rule="nonzero"/></svg>