<svg xmlns="http://www.w3.org/2000/svg" xmlns:xlink="http://www.w3.org/1999/xlink" width="512" zoomAndPan="magnify" viewBox="0 0 384 383.999986" height="512" preserveAspectRatio="xMidYMid meet" version="1.0"><defs><clipPath id="b7a80e7917"><path d="M 38.398438 76.269531 L 346.648438 76.269531 L 346.648438 308 L 38.398438 308 Z M 38.398438 76.269531 " clip-rule="nonzero"/></clipPath></defs><g clip-path="url(#b7a80e7917)"><path fill="#303030" d="M 327.050781 110.617188 L 156.21875 110.617188 L 156.21875 82.355469 C 156.21875 81.96875 156.179688 81.585938 156.105469 81.207031 C 156.027344 80.828125 155.917969 80.457031 155.769531 80.101562 C 155.621094 79.742188 155.4375 79.402344 155.222656 79.082031 C 155.007812 78.761719 154.765625 78.464844 154.492188 78.191406 C 154.21875 77.917969 153.921875 77.671875 153.597656 77.457031 C 153.277344 77.242188 152.9375 77.0625 152.582031 76.914062 C 152.222656 76.765625 151.855469 76.652344 151.476562 76.578125 C 151.097656 76.503906 150.710938 76.464844 150.324219 76.464844 L 44.289062 76.464844 C 43.902344 76.464844 43.519531 76.503906 43.140625 76.578125 C 42.761719 76.652344 42.394531 76.765625 42.035156 76.914062 C 41.679688 77.0625 41.339844 77.242188 41.019531 77.457031 C 40.695312 77.671875 40.398438 77.917969 40.125 78.191406 C 39.851562 78.464844 39.609375 78.761719 39.394531 79.082031 C 39.179688 79.402344 38.996094 79.742188 38.847656 80.101562 C 38.699219 80.457031 38.589844 80.828125 38.511719 81.207031 C 38.4375 81.585938 38.398438 81.96875 38.398438 82.355469 L 38.398438 301.582031 C 38.398438 301.96875 38.4375 302.351562 38.511719 302.730469 C 38.589844 303.113281 38.699219 303.480469 38.847656 303.835938 C 38.996094 304.195312 39.179688 304.535156 39.394531 304.855469 C 39.609375 305.175781 39.851562 305.476562 40.125 305.75 C 40.398438 306.023438 40.695312 306.265625 41.019531 306.480469 C 41.339844 306.695312 41.679688 306.878906 42.035156 307.023438 C 42.394531 307.171875 42.761719 307.285156 43.140625 307.359375 C 43.519531 307.4375 43.902344 307.472656 44.289062 307.472656 L 150.324219 307.472656 C 150.710938 307.472656 151.097656 307.4375 151.476562 307.359375 C 151.855469 307.285156 152.222656 307.171875 152.582031 307.023438 C 152.9375 306.878906 153.277344 306.695312 153.597656 306.480469 C 153.921875 306.265625 154.21875 306.023438 154.492188 305.75 C 154.765625 305.476562 155.007812 305.175781 155.222656 304.855469 C 155.4375 304.535156 155.621094 304.195312 155.769531 303.835938 C 155.917969 303.480469 156.027344 303.113281 156.105469 302.730469 C 156.179688 302.351562 156.21875 301.96875 156.21875 301.582031 L 156.21875 260.097656 L 216.15625 260.097656 C 215.28125 266.546875 213.464844 272.722656 210.707031 278.625 C 209.847656 278.859375 209.011719 279.164062 208.199219 279.535156 C 207.386719 279.910156 206.613281 280.34375 205.871094 280.84375 C 205.132812 281.339844 204.433594 281.894531 203.785156 282.507812 C 203.136719 283.117188 202.539062 283.777344 201.996094 284.488281 C 201.453125 285.195312 200.972656 285.945312 200.550781 286.730469 C 200.128906 287.519531 199.773438 288.332031 199.484375 289.179688 C 199.195312 290.023438 198.976562 290.886719 198.828125 291.765625 C 198.683594 292.644531 198.605469 293.53125 198.601562 294.425781 L 198.601562 301.539062 C 198.601562 301.925781 198.640625 302.308594 198.714844 302.6875 C 198.789062 303.066406 198.902344 303.433594 199.050781 303.792969 C 199.199219 304.148438 199.378906 304.488281 199.59375 304.8125 C 199.808594 305.132812 200.054688 305.429688 200.328125 305.703125 C 200.601562 305.976562 200.898438 306.222656 201.21875 306.4375 C 201.542969 306.652344 201.878906 306.832031 202.238281 306.980469 C 202.59375 307.128906 202.964844 307.242188 203.34375 307.316406 C 203.722656 307.390625 204.105469 307.429688 204.492188 307.429688 L 260.457031 307.429688 C 260.84375 307.429688 261.226562 307.390625 261.605469 307.316406 C 261.984375 307.242188 262.351562 307.128906 262.710938 306.980469 C 263.066406 306.832031 263.40625 306.652344 263.726562 306.4375 C 264.050781 306.222656 264.347656 305.976562 264.621094 305.703125 C 264.894531 305.429688 265.136719 305.132812 265.351562 304.8125 C 265.566406 304.488281 265.75 304.148438 265.898438 303.792969 C 266.046875 303.433594 266.15625 303.066406 266.234375 302.6875 C 266.308594 302.308594 266.347656 301.925781 266.347656 301.539062 L 266.347656 294.425781 C 266.34375 293.53125 266.269531 292.644531 266.125 291.761719 C 265.980469 290.878906 265.761719 290.015625 265.476562 289.167969 C 265.1875 288.320312 264.835938 287.503906 264.414062 286.714844 C 263.996094 285.925781 263.511719 285.175781 262.972656 284.464844 C 262.429688 283.753906 261.832031 283.09375 261.183594 282.476562 C 260.53125 281.863281 259.835938 281.308594 259.09375 280.808594 C 258.355469 280.308594 257.578125 279.871094 256.765625 279.496094 C 255.953125 279.121094 255.117188 278.816406 254.253906 278.578125 C 251.496094 272.679688 249.679688 266.503906 248.804688 260.050781 L 327.050781 260.050781 C 327.691406 260.050781 328.328125 260.019531 328.964844 259.957031 C 329.597656 259.894531 330.230469 259.800781 330.855469 259.675781 C 331.484375 259.550781 332.101562 259.394531 332.714844 259.207031 C 333.324219 259.023438 333.925781 258.808594 334.515625 258.5625 C 335.105469 258.316406 335.683594 258.046875 336.246094 257.742188 C 336.808594 257.441406 337.359375 257.113281 337.890625 256.757812 C 338.421875 256.402344 338.933594 256.023438 339.425781 255.617188 C 339.921875 255.214844 340.394531 254.785156 340.84375 254.332031 C 341.296875 253.882812 341.726562 253.40625 342.128906 252.914062 C 342.535156 252.421875 342.917969 251.90625 343.269531 251.375 C 343.625 250.84375 343.953125 250.296875 344.257812 249.734375 C 344.558594 249.171875 344.832031 248.59375 345.074219 248.003906 C 345.320312 247.414062 345.535156 246.8125 345.722656 246.203125 C 345.90625 245.589844 346.0625 244.972656 346.1875 244.34375 C 346.3125 243.71875 346.40625 243.085938 346.46875 242.449219 C 346.53125 241.816406 346.5625 241.179688 346.566406 240.539062 L 346.566406 130.085938 C 346.5625 129.449219 346.53125 128.8125 346.464844 128.175781 C 346.402344 127.542969 346.304688 126.910156 346.179688 126.285156 C 346.054688 125.660156 345.898438 125.042969 345.710938 124.433594 C 345.523438 123.824219 345.308594 123.222656 345.0625 122.632812 C 344.816406 122.046875 344.542969 121.46875 344.242188 120.90625 C 343.941406 120.34375 343.613281 119.800781 343.257812 119.269531 C 342.902344 118.738281 342.519531 118.226562 342.113281 117.734375 C 341.710938 117.242188 341.28125 116.769531 340.828125 116.320312 C 340.378906 115.871094 339.90625 115.441406 339.410156 115.039062 C 338.917969 114.632812 338.40625 114.253906 337.875 113.898438 C 337.34375 113.546875 336.796875 113.21875 336.234375 112.917969 C 335.671875 112.617188 335.097656 112.34375 334.507812 112.101562 C 333.917969 111.859375 333.316406 111.644531 332.707031 111.457031 C 332.09375 111.273438 331.476562 111.117188 330.851562 110.992188 C 330.226562 110.867188 329.59375 110.773438 328.960938 110.710938 C 328.324219 110.648438 327.6875 110.617188 327.050781 110.617188 Z M 327.050781 122.398438 C 327.558594 122.398438 328.0625 122.449219 328.558594 122.550781 C 329.054688 122.648438 329.539062 122.796875 330.007812 122.992188 C 330.476562 123.183594 330.921875 123.421875 331.34375 123.707031 C 331.765625 123.988281 332.15625 124.308594 332.515625 124.667969 C 332.871094 125.027344 333.191406 125.417969 333.476562 125.835938 C 333.757812 126.257812 333.996094 126.703125 334.191406 127.171875 C 334.386719 127.640625 334.53125 128.125 334.632812 128.621094 C 334.730469 129.121094 334.78125 129.621094 334.78125 130.128906 L 334.78125 219.597656 L 156.21875 219.597656 L 156.21875 122.398438 Z M 144.433594 295.691406 L 50.183594 295.691406 L 50.183594 88.246094 L 144.433594 88.246094 Z M 254.5625 295.691406 L 210.382812 295.691406 L 210.382812 294.425781 C 210.382812 294.121094 210.414062 293.816406 210.472656 293.515625 C 210.53125 293.214844 210.621094 292.925781 210.738281 292.640625 C 210.855469 292.359375 210.996094 292.089844 211.167969 291.835938 C 211.335938 291.582031 211.527344 291.347656 211.746094 291.128906 C 211.960938 290.914062 212.195312 290.71875 212.449219 290.546875 C 212.703125 290.378906 212.972656 290.234375 213.253906 290.117188 C 213.539062 290 213.828125 289.910156 214.128906 289.847656 C 214.429688 289.789062 214.730469 289.757812 215.035156 289.757812 L 249.910156 289.757812 C 250.214844 289.757812 250.519531 289.789062 250.820312 289.847656 C 251.121094 289.910156 251.410156 290 251.691406 290.117188 C 251.976562 290.234375 252.242188 290.378906 252.496094 290.546875 C 252.75 290.71875 252.984375 290.914062 253.203125 291.128906 C 253.417969 291.347656 253.609375 291.582031 253.78125 291.835938 C 253.949219 292.089844 254.09375 292.359375 254.210938 292.640625 C 254.328125 292.925781 254.414062 293.214844 254.476562 293.515625 C 254.535156 293.816406 254.5625 294.121094 254.5625 294.425781 Z M 241.308594 278.019531 L 223.683594 278.019531 C 225.949219 272.246094 227.375 266.269531 227.96875 260.097656 L 236.980469 260.097656 C 237.578125 266.269531 239.007812 272.242188 241.265625 278.019531 Z M 327.050781 248.316406 L 156.21875 248.316406 L 156.21875 231.378906 L 334.828125 231.378906 L 334.828125 240.582031 C 334.824219 241.09375 334.777344 241.597656 334.675781 242.097656 C 334.574219 242.59375 334.425781 243.078125 334.230469 243.550781 C 334.035156 244.019531 333.792969 244.464844 333.511719 244.890625 C 333.226562 245.3125 332.902344 245.703125 332.542969 246.0625 C 332.179688 246.421875 331.789062 246.742188 331.363281 247.023438 C 330.941406 247.304688 330.492188 247.542969 330.019531 247.734375 C 329.550781 247.929688 329.066406 248.074219 328.566406 248.171875 C 328.066406 248.269531 327.558594 248.316406 327.050781 248.316406 Z M 327.050781 248.316406 " fill-opacity="1" fill-rule="nonzero"/></g><path fill="#303030" d="M 237.007812 233.351562 L 227.9375 233.351562 C 227.550781 233.351562 227.167969 233.390625 226.789062 233.464844 C 226.410156 233.539062 226.039062 233.652344 225.683594 233.800781 C 225.324219 233.949219 224.988281 234.128906 224.664062 234.34375 C 224.34375 234.558594 224.046875 234.804688 223.773438 235.078125 C 223.5 235.351562 223.253906 235.648438 223.039062 235.96875 C 222.824219 236.292969 222.644531 236.632812 222.496094 236.988281 C 222.347656 237.347656 222.234375 237.714844 222.160156 238.09375 C 222.085938 238.472656 222.046875 238.855469 222.046875 239.242188 C 222.046875 239.628906 222.085938 240.011719 222.160156 240.390625 C 222.234375 240.773438 222.347656 241.140625 222.496094 241.496094 C 222.644531 241.855469 222.824219 242.195312 223.039062 242.515625 C 223.253906 242.835938 223.5 243.136719 223.773438 243.410156 C 224.046875 243.683594 224.34375 243.925781 224.664062 244.140625 C 224.988281 244.355469 225.324219 244.539062 225.683594 244.683594 C 226.039062 244.832031 226.410156 244.945312 226.789062 245.019531 C 227.167969 245.097656 227.550781 245.132812 227.9375 245.132812 L 237.007812 245.132812 C 237.394531 245.132812 237.78125 245.097656 238.160156 245.019531 C 238.539062 244.945312 238.90625 244.832031 239.265625 244.683594 C 239.621094 244.539062 239.960938 244.355469 240.28125 244.140625 C 240.605469 243.925781 240.902344 243.683594 241.175781 243.410156 C 241.449219 243.136719 241.691406 242.835938 241.90625 242.515625 C 242.121094 242.195312 242.304688 241.855469 242.453125 241.496094 C 242.601562 241.140625 242.710938 240.773438 242.789062 240.390625 C 242.863281 240.011719 242.902344 239.628906 242.902344 239.242188 C 242.902344 238.855469 242.863281 238.472656 242.789062 238.09375 C 242.710938 237.714844 242.601562 237.347656 242.453125 236.988281 C 242.304688 236.632812 242.121094 236.292969 241.90625 235.96875 C 241.691406 235.648438 241.449219 235.351562 241.175781 235.078125 C 240.902344 234.804688 240.605469 234.558594 240.28125 234.34375 C 239.960938 234.128906 239.621094 233.949219 239.265625 233.800781 C 238.90625 233.652344 238.539062 233.539062 238.160156 233.464844 C 237.78125 233.390625 237.394531 233.351562 237.007812 233.351562 Z M 237.007812 233.351562 " fill-opacity="1" fill-rule="nonzero"/><path fill="#303030" d="M 97.308594 237.609375 C 96.695312 237.609375 96.085938 237.636719 95.476562 237.699219 C 94.871094 237.757812 94.265625 237.847656 93.664062 237.96875 C 93.066406 238.085938 92.472656 238.234375 91.886719 238.414062 C 91.300781 238.589844 90.726562 238.796875 90.164062 239.03125 C 89.597656 239.265625 89.046875 239.523438 88.503906 239.8125 C 87.964844 240.101562 87.441406 240.414062 86.933594 240.753906 C 86.425781 241.09375 85.933594 241.460938 85.460938 241.847656 C 84.988281 242.234375 84.535156 242.644531 84.105469 243.078125 C 83.671875 243.511719 83.261719 243.960938 82.875 244.4375 C 82.484375 244.910156 82.121094 245.398438 81.78125 245.90625 C 81.441406 246.417969 81.128906 246.941406 80.839844 247.480469 C 80.550781 248.019531 80.289062 248.570312 80.054688 249.136719 C 79.820312 249.699219 79.617188 250.277344 79.4375 250.863281 C 79.261719 251.445312 79.113281 252.039062 78.992188 252.640625 C 78.875 253.238281 78.785156 253.84375 78.722656 254.453125 C 78.664062 255.058594 78.632812 255.671875 78.632812 256.28125 C 78.632812 256.894531 78.664062 257.503906 78.722656 258.113281 C 78.785156 258.722656 78.875 259.324219 78.992188 259.925781 C 79.113281 260.523438 79.261719 261.117188 79.4375 261.703125 C 79.617188 262.289062 79.820312 262.863281 80.054688 263.429688 C 80.289062 263.992188 80.550781 264.546875 80.839844 265.085938 C 81.128906 265.625 81.441406 266.148438 81.78125 266.65625 C 82.121094 267.164062 82.484375 267.65625 82.875 268.128906 C 83.261719 268.601562 83.671875 269.054688 84.105469 269.488281 C 84.535156 269.917969 84.988281 270.328125 85.460938 270.71875 C 85.933594 271.105469 86.425781 271.46875 86.933594 271.808594 C 87.441406 272.148438 87.964844 272.460938 88.503906 272.75 C 89.046875 273.039062 89.597656 273.300781 90.164062 273.535156 C 90.726562 273.769531 91.300781 273.972656 91.886719 274.152344 C 92.472656 274.328125 93.066406 274.476562 93.664062 274.597656 C 94.265625 274.714844 94.871094 274.804688 95.476562 274.867188 C 96.085938 274.925781 96.695312 274.957031 97.308594 274.957031 C 97.921875 274.957031 98.53125 274.925781 99.140625 274.867188 C 99.746094 274.804688 100.351562 274.714844 100.953125 274.597656 C 101.550781 274.476562 102.144531 274.328125 102.730469 274.152344 C 103.3125 273.972656 103.890625 273.769531 104.453125 273.535156 C 105.019531 273.300781 105.570312 273.039062 106.109375 272.75 C 106.652344 272.460938 107.175781 272.148438 107.683594 271.808594 C 108.191406 271.46875 108.683594 271.105469 109.15625 270.71875 C 109.628906 270.328125 110.082031 269.917969 110.511719 269.488281 C 110.945312 269.054688 111.355469 268.601562 111.742188 268.128906 C 112.132812 267.65625 112.496094 267.164062 112.835938 266.65625 C 113.175781 266.148438 113.488281 265.625 113.777344 265.085938 C 114.066406 264.546875 114.328125 263.992188 114.5625 263.429688 C 114.796875 262.863281 115 262.289062 115.179688 261.703125 C 115.355469 261.117188 115.503906 260.523438 115.625 259.925781 C 115.742188 259.324219 115.832031 258.722656 115.890625 258.113281 C 115.953125 257.503906 115.980469 256.894531 115.980469 256.28125 C 115.980469 255.671875 115.949219 255.0625 115.890625 254.453125 C 115.828125 253.84375 115.738281 253.242188 115.617188 252.640625 C 115.5 252.042969 115.351562 251.449219 115.171875 250.863281 C 114.992188 250.28125 114.789062 249.707031 114.554688 249.140625 C 114.320312 248.574219 114.058594 248.023438 113.769531 247.484375 C 113.480469 246.945312 113.167969 246.421875 112.828125 245.914062 C 112.488281 245.40625 112.121094 244.914062 111.734375 244.445312 C 111.347656 243.972656 110.9375 243.519531 110.503906 243.085938 C 110.070312 242.652344 109.621094 242.242188 109.148438 241.855469 C 108.675781 241.46875 108.183594 241.105469 107.675781 240.765625 C 107.167969 240.425781 106.644531 240.109375 106.105469 239.820312 C 105.566406 239.535156 105.015625 239.273438 104.449219 239.039062 C 103.886719 238.804688 103.3125 238.597656 102.726562 238.417969 C 102.140625 238.242188 101.550781 238.09375 100.949219 237.972656 C 100.351562 237.851562 99.746094 237.761719 99.136719 237.699219 C 98.53125 237.640625 97.917969 237.609375 97.308594 237.609375 Z M 97.308594 263.175781 C 96.855469 263.175781 96.40625 263.128906 95.964844 263.042969 C 95.519531 262.953125 95.089844 262.824219 94.671875 262.648438 C 94.253906 262.476562 93.855469 262.265625 93.480469 262.011719 C 93.101562 261.761719 92.753906 261.476562 92.433594 261.15625 C 92.113281 260.835938 91.828125 260.488281 91.578125 260.109375 C 91.328125 259.734375 91.113281 259.335938 90.941406 258.917969 C 90.769531 258.5 90.636719 258.070312 90.546875 257.625 C 90.460938 257.183594 90.417969 256.734375 90.417969 256.28125 C 90.417969 255.828125 90.460938 255.382812 90.546875 254.9375 C 90.636719 254.492188 90.769531 254.0625 90.941406 253.644531 C 91.113281 253.226562 91.328125 252.828125 91.578125 252.453125 C 91.828125 252.078125 92.113281 251.730469 92.433594 251.410156 C 92.753906 251.089844 93.101562 250.804688 93.480469 250.550781 C 93.855469 250.300781 94.253906 250.085938 94.671875 249.914062 C 95.089844 249.742188 95.519531 249.609375 95.964844 249.523438 C 96.40625 249.433594 96.855469 249.390625 97.308594 249.390625 C 97.761719 249.390625 98.210938 249.433594 98.652344 249.523438 C 99.097656 249.609375 99.527344 249.742188 99.945312 249.914062 C 100.363281 250.085938 100.761719 250.300781 101.136719 250.550781 C 101.515625 250.804688 101.863281 251.089844 102.183594 251.410156 C 102.503906 251.730469 102.789062 252.078125 103.039062 252.453125 C 103.289062 252.828125 103.503906 253.226562 103.675781 253.644531 C 103.847656 254.0625 103.980469 254.492188 104.066406 254.9375 C 104.15625 255.382812 104.199219 255.828125 104.199219 256.28125 C 104.199219 256.734375 104.15625 257.183594 104.066406 257.625 C 103.976562 258.070312 103.84375 258.5 103.671875 258.917969 C 103.5 259.335938 103.285156 259.730469 103.035156 260.109375 C 102.78125 260.484375 102.496094 260.832031 102.175781 261.152344 C 101.859375 261.472656 101.511719 261.757812 101.132812 262.007812 C 100.757812 262.261719 100.363281 262.472656 99.945312 262.644531 C 99.527344 262.820312 99.09375 262.949219 98.652344 263.039062 C 98.207031 263.128906 97.761719 263.171875 97.308594 263.175781 Z M 97.308594 263.175781 " fill-opacity="1" fill-rule="nonzero"/><path fill="#303030" d="M 132.652344 98.214844 L 61.964844 98.214844 C 61.578125 98.214844 61.195312 98.253906 60.8125 98.328125 C 60.433594 98.40625 60.066406 98.515625 59.710938 98.664062 C 59.351562 98.8125 59.011719 98.992188 58.691406 99.210938 C 58.367188 99.425781 58.070312 99.667969 57.796875 99.941406 C 57.523438 100.214844 57.28125 100.511719 57.066406 100.835938 C 56.851562 101.15625 56.667969 101.496094 56.519531 101.851562 C 56.371094 102.210938 56.261719 102.578125 56.1875 102.957031 C 56.109375 103.335938 56.074219 103.71875 56.074219 104.105469 L 56.074219 129.480469 C 56.074219 129.867188 56.109375 130.25 56.1875 130.632812 C 56.261719 131.011719 56.371094 131.378906 56.519531 131.734375 C 56.667969 132.09375 56.851562 132.433594 57.066406 132.753906 C 57.28125 133.078125 57.523438 133.375 57.796875 133.648438 C 58.070312 133.921875 58.367188 134.164062 58.691406 134.378906 C 59.011719 134.59375 59.351562 134.777344 59.710938 134.925781 C 60.066406 135.074219 60.433594 135.183594 60.8125 135.257812 C 61.195312 135.335938 61.578125 135.371094 61.964844 135.371094 L 132.652344 135.371094 C 133.039062 135.371094 133.421875 135.335938 133.800781 135.257812 C 134.183594 135.183594 134.550781 135.074219 134.90625 134.925781 C 135.265625 134.777344 135.605469 134.59375 135.925781 134.378906 C 136.246094 134.164062 136.546875 133.921875 136.820312 133.648438 C 137.09375 133.375 137.335938 133.078125 137.550781 132.753906 C 137.765625 132.433594 137.949219 132.09375 138.097656 131.734375 C 138.242188 131.378906 138.355469 131.011719 138.429688 130.632812 C 138.507812 130.25 138.542969 129.867188 138.542969 129.480469 L 138.542969 104.105469 C 138.542969 103.71875 138.507812 103.335938 138.429688 102.957031 C 138.355469 102.578125 138.242188 102.210938 138.097656 101.851562 C 137.949219 101.496094 137.765625 101.15625 137.550781 100.835938 C 137.335938 100.511719 137.09375 100.214844 136.820312 99.941406 C 136.546875 99.667969 136.246094 99.425781 135.925781 99.210938 C 135.605469 98.992188 135.265625 98.8125 134.90625 98.664062 C 134.550781 98.515625 134.183594 98.40625 133.800781 98.328125 C 133.421875 98.253906 133.039062 98.214844 132.652344 98.214844 Z M 126.761719 123.589844 L 67.855469 123.589844 L 67.855469 109.996094 L 126.761719 109.996094 Z M 126.761719 123.589844 " fill-opacity="1" fill-rule="nonzero"/><path fill="#303030" d="M 132.652344 161.175781 L 61.964844 161.175781 C 61.578125 161.175781 61.195312 161.210938 60.8125 161.289062 C 60.433594 161.363281 60.066406 161.476562 59.710938 161.621094 C 59.351562 161.769531 59.011719 161.953125 58.691406 162.167969 C 58.367188 162.382812 58.070312 162.625 57.796875 162.898438 C 57.523438 163.171875 57.28125 163.472656 57.066406 163.792969 C 56.851562 164.113281 56.667969 164.453125 56.519531 164.8125 C 56.371094 165.167969 56.261719 165.535156 56.1875 165.917969 C 56.109375 166.296875 56.074219 166.679688 56.074219 167.066406 C 56.074219 167.453125 56.109375 167.835938 56.1875 168.214844 C 56.261719 168.59375 56.371094 168.960938 56.519531 169.320312 C 56.667969 169.675781 56.851562 170.015625 57.066406 170.339844 C 57.28125 170.660156 57.523438 170.957031 57.796875 171.230469 C 58.070312 171.503906 58.367188 171.75 58.691406 171.964844 C 59.011719 172.179688 59.351562 172.359375 59.710938 172.507812 C 60.066406 172.65625 60.433594 172.769531 60.8125 172.84375 C 61.195312 172.917969 61.578125 172.957031 61.964844 172.957031 L 132.652344 172.957031 C 133.039062 172.957031 133.421875 172.917969 133.800781 172.84375 C 134.183594 172.769531 134.550781 172.65625 134.90625 172.507812 C 135.265625 172.359375 135.605469 172.179688 135.925781 171.964844 C 136.246094 171.75 136.546875 171.503906 136.820312 171.230469 C 137.09375 170.957031 137.335938 170.660156 137.550781 170.339844 C 137.765625 170.015625 137.949219 169.675781 138.097656 169.320312 C 138.242188 168.960938 138.355469 168.59375 138.429688 168.214844 C 138.507812 167.835938 138.542969 167.453125 138.542969 167.066406 C 138.542969 166.679688 138.507812 166.296875 138.429688 165.917969 C 138.355469 165.535156 138.242188 165.167969 138.097656 164.8125 C 137.949219 164.453125 137.765625 164.113281 137.550781 163.792969 C 137.335938 163.472656 137.09375 163.171875 136.820312 162.898438 C 136.546875 162.625 136.246094 162.382812 135.925781 162.167969 C 135.605469 161.953125 135.265625 161.769531 134.90625 161.621094 C 134.550781 161.476562 134.183594 161.363281 133.800781 161.289062 C 133.421875 161.210938 133.039062 161.175781 132.652344 161.175781 Z M 132.652344 161.175781 " fill-opacity="1" fill-rule="nonzero"/></svg>