<svg xmlns="http://www.w3.org/2000/svg" xmlns:xlink="http://www.w3.org/1999/xlink" width="512" zoomAndPan="magnify" viewBox="0 0 384 383.999986" height="512" preserveAspectRatio="xMidYMid meet" version="1.0"><defs><clipPath id="f96b83c3d6"><path d="M 38.398438 39 L 345.898438 39 L 345.898438 345.898438 L 38.398438 345.898438 Z M 38.398438 39 " clip-rule="nonzero"/></clipPath></defs><g clip-path="url(#f96b83c3d6)"><path fill="#303030" d="M 345.101562 246.820312 C 345.097656 245.101562 345.027344 243.386719 344.886719 241.675781 C 344.746094 239.964844 344.539062 238.261719 344.261719 236.566406 C 343.988281 234.871094 343.644531 233.191406 343.230469 231.523438 C 342.820312 229.855469 342.34375 228.207031 341.800781 226.578125 C 341.257812 224.949219 340.648438 223.347656 339.976562 221.765625 C 339.308594 220.1875 338.574219 218.636719 337.777344 217.113281 C 336.980469 215.59375 336.125 214.105469 335.210938 212.652344 C 334.296875 211.199219 333.324219 209.785156 332.296875 208.410156 C 331.265625 207.035156 330.183594 205.703125 329.050781 204.414062 C 327.914062 203.125 326.730469 201.886719 325.496094 200.691406 C 324.261719 199.5 322.980469 198.355469 321.65625 197.265625 C 320.328125 196.175781 318.960938 195.136719 317.550781 194.15625 C 316.144531 193.175781 314.695312 192.253906 313.214844 191.386719 C 311.730469 190.519531 310.214844 189.714844 308.667969 188.972656 C 307.121094 188.226562 305.546875 187.546875 303.945312 186.929688 C 302.34375 186.3125 300.71875 185.757812 299.070312 185.269531 L 271.28125 81.554688 L 286.328125 72.511719 C 287.757812 71.648438 289.050781 70.617188 290.214844 69.421875 C 291.378906 68.226562 292.371094 66.902344 293.191406 65.449219 C 294.015625 63.996094 294.636719 62.464844 295.066406 60.851562 C 295.492188 59.238281 295.707031 57.597656 295.714844 55.929688 C 295.714844 54.464844 295.523438 53.027344 295.140625 51.613281 C 294.757812 50.199219 294.199219 48.859375 293.460938 47.597656 C 292.722656 46.332031 291.835938 45.1875 290.792969 44.15625 C 289.75 43.128906 288.59375 42.253906 287.320312 41.535156 C 286.046875 40.8125 284.699219 40.269531 283.28125 39.90625 C 281.863281 39.542969 280.421875 39.371094 278.960938 39.390625 C 277.496094 39.410156 276.0625 39.617188 274.652344 40.019531 C 273.246094 40.417969 271.914062 40.996094 270.660156 41.75 L 206.320312 80.34375 C 204.890625 81.207031 203.597656 82.238281 202.433594 83.4375 C 201.273438 84.632812 200.277344 85.957031 199.457031 87.410156 C 198.636719 88.863281 198.011719 90.394531 197.585938 92.007812 C 197.15625 93.621094 196.941406 95.261719 196.9375 96.929688 C 196.9375 98.394531 197.128906 99.832031 197.507812 101.246094 C 197.890625 102.65625 198.449219 103.996094 199.1875 105.261719 C 199.925781 106.527344 200.816406 107.671875 201.855469 108.699219 C 202.898438 109.726562 204.054688 110.601562 205.328125 111.324219 C 206.605469 112.046875 207.949219 112.585938 209.367188 112.949219 C 210.785156 113.3125 212.226562 113.488281 213.691406 113.46875 C 215.152344 113.449219 216.589844 113.238281 217.996094 112.839844 C 219.40625 112.441406 220.734375 111.863281 221.992188 111.109375 L 241.199219 99.585938 L 247.382812 122.6875 L 160.769531 203.886719 L 104.011719 138.164062 L 122.855469 138.164062 C 123.828125 138.164062 124.789062 138.070312 125.746094 137.878906 C 126.699219 137.691406 127.625 137.410156 128.523438 137.035156 C 129.421875 136.664062 130.277344 136.207031 131.085938 135.667969 C 131.894531 135.125 132.644531 134.511719 133.332031 133.824219 C 134.019531 133.136719 134.632812 132.386719 135.171875 131.578125 C 135.714844 130.769531 136.171875 129.917969 136.542969 129.019531 C 136.914062 128.117188 137.195312 127.191406 137.386719 126.238281 C 137.574219 125.285156 137.671875 124.320312 137.671875 123.347656 C 137.671875 122.375 137.574219 121.410156 137.386719 120.457031 C 137.195312 119.503906 136.914062 118.578125 136.542969 117.679688 C 136.171875 116.777344 135.714844 115.925781 135.171875 115.117188 C 134.632812 114.308594 134.019531 113.558594 133.332031 112.871094 C 132.644531 112.183594 131.894531 111.570312 131.085938 111.027344 C 130.277344 110.488281 129.421875 110.03125 128.523438 109.660156 C 127.625 109.285156 126.699219 109.007812 125.746094 108.816406 C 124.789062 108.625 123.828125 108.53125 122.855469 108.53125 C 118.511719 108.53125 114.257812 107.902344 110.101562 106.640625 C 105.945312 105.378906 102.0625 103.539062 98.453125 101.125 L 87.828125 94.0625 C 86.648438 93.273438 85.421875 92.570312 84.144531 91.949219 C 82.871094 91.328125 81.5625 90.796875 80.214844 90.355469 C 78.867188 89.910156 77.496094 89.558594 76.101562 89.300781 C 74.710938 89.042969 73.304688 88.878906 71.886719 88.8125 C 70.472656 88.742188 69.058594 88.769531 67.644531 88.894531 C 66.234375 89.015625 64.835938 89.234375 63.453125 89.542969 C 62.070312 89.855469 60.714844 90.257812 59.382812 90.753906 C 58.054688 91.25 56.765625 91.832031 55.515625 92.5 C 54.265625 93.167969 53.066406 93.917969 51.917969 94.75 C 50.769531 95.582031 49.683594 96.484375 48.65625 97.464844 C 47.628906 98.441406 46.671875 99.484375 45.789062 100.589844 C 44.902344 101.699219 44.09375 102.859375 43.367188 104.078125 C 42.636719 105.292969 41.996094 106.550781 41.4375 107.855469 C 40.878906 109.160156 40.410156 110.492188 40.03125 111.859375 C 39.65625 113.226562 39.371094 114.613281 39.179688 116.015625 C 38.988281 117.421875 38.894531 118.832031 38.894531 120.25 L 38.894531 133.226562 C 38.894531 133.550781 38.925781 133.871094 38.988281 134.1875 C 39.050781 134.507812 39.144531 134.816406 39.269531 135.117188 C 39.394531 135.414062 39.546875 135.699219 39.726562 135.96875 C 39.90625 136.238281 40.109375 136.488281 40.339844 136.71875 C 40.570312 136.945312 40.820312 137.152344 41.089844 137.332031 C 41.359375 137.511719 41.644531 137.664062 41.941406 137.789062 C 42.242188 137.914062 42.550781 138.007812 42.871094 138.070312 C 43.1875 138.132812 43.507812 138.164062 43.832031 138.164062 L 61.324219 138.164062 L 117.792969 203.542969 C 116.933594 203.738281 116.085938 203.960938 115.242188 204.207031 C 114.398438 204.453125 113.5625 204.726562 112.734375 205.019531 C 111.90625 205.316406 111.085938 205.636719 110.277344 205.980469 C 109.46875 206.328125 108.671875 206.695312 107.886719 207.085938 C 107.097656 207.480469 106.324219 207.894531 105.5625 208.332031 C 104.800781 208.769531 104.054688 209.230469 103.320312 209.714844 C 102.582031 210.195312 101.863281 210.699219 101.160156 211.226562 C 100.457031 211.75 99.765625 212.296875 99.09375 212.863281 C 98.421875 213.429688 97.769531 214.015625 97.132812 214.621094 C 96.492188 215.226562 95.875 215.851562 95.273438 216.492188 C 94.675781 217.136719 94.09375 217.796875 93.535156 218.472656 C 92.972656 219.148438 92.433594 219.84375 91.914062 220.550781 C 91.394531 221.261719 90.894531 221.984375 90.417969 222.722656 C 89.941406 223.460938 89.488281 224.214844 89.058594 224.980469 C 88.625 225.746094 88.214844 226.523438 87.832031 227.3125 C 87.445312 228.101562 87.082031 228.902344 86.746094 229.714844 C 86.410156 230.527344 86.09375 231.347656 85.804688 232.175781 C 85.515625 233.007812 85.253906 233.84375 85.015625 234.691406 C 84.773438 235.535156 84.5625 236.390625 84.371094 237.246094 C 84.183594 238.105469 84.023438 238.96875 83.882812 239.835938 C 83.746094 240.707031 83.636719 241.578125 83.550781 242.453125 C 83.464844 243.328125 83.40625 244.203125 83.375 245.082031 C 83.339844 245.960938 83.335938 246.839844 83.355469 247.71875 C 83.371094 248.597656 83.417969 249.472656 83.488281 250.351562 C 83.5625 251.226562 83.660156 252.097656 83.78125 252.96875 C 83.90625 253.839844 84.054688 254.707031 84.230469 255.566406 C 84.40625 256.429688 84.605469 257.285156 84.832031 258.132812 C 85.058594 258.984375 85.308594 259.824219 85.585938 260.660156 C 85.859375 261.492188 86.160156 262.320312 86.484375 263.136719 C 86.8125 263.953125 87.160156 264.757812 87.535156 265.554688 C 87.90625 266.351562 88.304688 267.132812 88.722656 267.90625 C 89.144531 268.679688 89.585938 269.4375 90.050781 270.183594 L 51.734375 306.085938 L 43.832031 306.085938 C 43.507812 306.085938 43.1875 306.117188 42.871094 306.179688 C 42.550781 306.242188 42.242188 306.335938 41.941406 306.460938 C 41.644531 306.585938 41.359375 306.738281 41.089844 306.917969 C 40.820312 307.097656 40.570312 307.300781 40.339844 307.53125 C 40.109375 307.761719 39.90625 308.011719 39.726562 308.28125 C 39.546875 308.550781 39.394531 308.832031 39.269531 309.132812 C 39.144531 309.433594 39.050781 309.742188 38.988281 310.058594 C 38.925781 310.378906 38.894531 310.699219 38.894531 311.023438 L 38.894531 340.65625 C 38.894531 340.980469 38.925781 341.300781 38.988281 341.621094 C 39.050781 341.9375 39.144531 342.246094 39.269531 342.546875 C 39.394531 342.847656 39.546875 343.128906 39.726562 343.398438 C 39.90625 343.667969 40.109375 343.917969 40.339844 344.148438 C 40.570312 344.378906 40.820312 344.582031 41.089844 344.761719 C 41.359375 344.941406 41.644531 345.09375 41.941406 345.21875 C 42.242188 345.34375 42.550781 345.4375 42.871094 345.5 C 43.1875 345.5625 43.507812 345.59375 43.832031 345.59375 L 103.097656 345.59375 C 103.421875 345.59375 103.746094 345.5625 104.0625 345.5 C 104.378906 345.4375 104.6875 345.34375 104.988281 345.21875 C 105.289062 345.09375 105.574219 344.941406 105.84375 344.761719 C 106.113281 344.582031 106.363281 344.378906 106.589844 344.148438 C 106.820312 343.917969 107.023438 343.667969 107.207031 343.398438 C 107.386719 343.128906 107.539062 342.847656 107.660156 342.546875 C 107.785156 342.246094 107.878906 341.9375 107.941406 341.621094 C 108.007812 341.300781 108.039062 340.980469 108.039062 340.65625 L 108.039062 311.023438 C 108.039062 310.699219 108.007812 310.378906 107.941406 310.058594 C 107.878906 309.742188 107.785156 309.433594 107.660156 309.132812 C 107.539062 308.832031 107.386719 308.550781 107.207031 308.28125 C 107.023438 308.011719 106.820312 307.761719 106.589844 307.53125 C 106.363281 307.300781 106.113281 307.097656 105.84375 306.917969 C 105.574219 306.738281 105.289062 306.585938 104.988281 306.460938 C 104.6875 306.335938 104.378906 306.242188 104.0625 306.179688 C 103.746094 306.117188 103.421875 306.085938 103.097656 306.085938 L 100.773438 306.085938 L 117.820312 290.097656 C 121.101562 290.867188 124.425781 291.257812 127.792969 291.269531 C 131.28125 291.269531 134.757812 291.0625 138.222656 290.644531 L 226.074219 280.097656 C 226.957031 281.570312 227.898438 283.003906 228.898438 284.402344 C 229.898438 285.796875 230.949219 287.152344 232.058594 288.464844 C 233.167969 289.773438 234.328125 291.039062 235.539062 292.257812 C 236.75 293.472656 238.007812 294.640625 239.3125 295.757812 C 240.617188 296.871094 241.964844 297.933594 243.359375 298.941406 C 244.75 299.949219 246.179688 300.894531 247.644531 301.789062 C 249.113281 302.679688 250.617188 303.507812 252.152344 304.277344 C 253.6875 305.046875 255.25 305.753906 256.84375 306.398438 C 258.433594 307.039062 260.050781 307.617188 261.6875 308.128906 C 263.328125 308.640625 264.984375 309.085938 266.660156 309.464844 C 268.335938 309.84375 270.023438 310.152344 271.722656 310.394531 C 273.421875 310.636719 275.128906 310.808594 276.84375 310.914062 C 278.558594 311.015625 280.273438 311.050781 281.992188 311.015625 C 283.707031 310.980469 285.417969 310.875 287.128906 310.699219 C 288.835938 310.527344 290.535156 310.285156 292.222656 309.972656 C 293.914062 309.660156 295.585938 309.28125 297.242188 308.835938 L 299.171875 315.960938 L 295.714844 315.960938 C 295.390625 315.960938 295.066406 315.992188 294.75 316.058594 C 294.429688 316.121094 294.121094 316.214844 293.824219 316.339844 C 293.523438 316.460938 293.238281 316.613281 292.96875 316.792969 C 292.699219 316.976562 292.449219 317.179688 292.222656 317.410156 C 291.992188 317.636719 291.785156 317.886719 291.605469 318.15625 C 291.425781 318.425781 291.273438 318.710938 291.148438 319.011719 C 291.027344 319.3125 290.933594 319.621094 290.871094 319.9375 C 290.804688 320.253906 290.773438 320.578125 290.773438 320.902344 L 290.773438 340.65625 C 290.773438 340.980469 290.804688 341.300781 290.867188 341.621094 C 290.933594 341.9375 291.027344 342.246094 291.148438 342.546875 C 291.273438 342.847656 291.425781 343.128906 291.605469 343.398438 C 291.785156 343.667969 291.992188 343.917969 292.222656 344.148438 C 292.449219 344.378906 292.699219 344.582031 292.96875 344.761719 C 293.238281 344.941406 293.523438 345.09375 293.824219 345.21875 C 294.121094 345.34375 294.429688 345.4375 294.75 345.5 C 295.066406 345.5625 295.390625 345.59375 295.714844 345.59375 L 340.164062 345.59375 C 340.488281 345.59375 340.808594 345.5625 341.125 345.5 C 341.445312 345.4375 341.753906 345.34375 342.050781 345.21875 C 342.351562 345.09375 342.636719 344.941406 342.90625 344.761719 C 343.175781 344.582031 343.425781 344.378906 343.65625 344.148438 C 343.882812 343.917969 344.089844 343.667969 344.269531 343.398438 C 344.449219 343.128906 344.601562 342.847656 344.726562 342.546875 C 344.847656 342.246094 344.941406 341.9375 345.007812 341.621094 C 345.070312 341.300781 345.101562 340.980469 345.101562 340.65625 L 345.101562 320.902344 C 345.101562 320.578125 345.070312 320.253906 345.007812 319.9375 C 344.941406 319.621094 344.847656 319.3125 344.726562 319.011719 C 344.601562 318.710938 344.449219 318.425781 344.269531 318.15625 C 344.089844 317.886719 343.882812 317.636719 343.65625 317.410156 C 343.425781 317.179688 343.175781 316.976562 342.90625 316.792969 C 342.636719 316.613281 342.351562 316.460938 342.050781 316.339844 C 341.753906 316.214844 341.445312 316.121094 341.125 316.058594 C 340.808594 315.992188 340.488281 315.960938 340.164062 315.960938 L 334.074219 315.960938 L 327.382812 290.980469 C 330.199219 288.035156 332.710938 284.851562 334.917969 281.421875 C 337.125 277.996094 338.984375 274.394531 340.503906 270.609375 C 342.019531 266.828125 343.167969 262.9375 343.941406 258.933594 C 344.714844 254.933594 345.101562 250.894531 345.101562 246.820312 Z M 216.902344 102.644531 C 216.398438 102.949219 215.863281 103.179688 215.296875 103.339844 C 214.726562 103.5 214.148438 103.585938 213.558594 103.59375 C 212.96875 103.601562 212.390625 103.53125 211.820312 103.382812 C 211.25 103.238281 210.707031 103.019531 210.195312 102.726562 C 209.679688 102.4375 209.214844 102.085938 208.792969 101.671875 C 208.375 101.257812 208.015625 100.796875 207.71875 100.285156 C 207.421875 99.777344 207.199219 99.238281 207.042969 98.667969 C 206.890625 98.097656 206.8125 97.519531 206.8125 96.929688 C 206.816406 96.113281 206.921875 95.3125 207.132812 94.519531 C 207.339844 93.730469 207.644531 92.980469 208.046875 92.269531 C 208.449219 91.5625 208.9375 90.914062 209.503906 90.328125 C 210.074219 89.742188 210.707031 89.238281 211.40625 88.816406 L 275.746094 50.214844 C 276.25 49.910156 276.789062 49.679688 277.355469 49.515625 C 277.921875 49.355469 278.5 49.273438 279.089844 49.265625 C 279.679688 49.257812 280.257812 49.328125 280.832031 49.472656 C 281.402344 49.621094 281.941406 49.839844 282.457031 50.128906 C 282.96875 50.421875 283.433594 50.773438 283.855469 51.1875 C 284.273438 51.601562 284.632812 52.0625 284.929688 52.570312 C 285.226562 53.082031 285.453125 53.621094 285.605469 54.191406 C 285.757812 54.757812 285.835938 55.339844 285.835938 55.929688 C 285.832031 56.746094 285.726562 57.546875 285.519531 58.335938 C 285.308594 59.125 285.003906 59.875 284.601562 60.585938 C 284.199219 61.296875 283.714844 61.945312 283.144531 62.53125 C 282.574219 63.117188 281.941406 63.621094 281.242188 64.042969 Z M 262.46875 86.839844 L 288.253906 183.066406 C 285.8125 182.777344 283.359375 182.625 280.898438 182.613281 C 278.515625 182.621094 276.140625 182.761719 273.773438 183.035156 L 250.003906 94.300781 Z M 226.074219 213.535156 L 202.488281 210.707031 L 257.21875 159.402344 L 264.058594 184.921875 C 260.132812 185.996094 256.34375 187.429688 252.6875 189.222656 C 249.03125 191.019531 245.578125 193.140625 242.328125 195.589844 C 239.074219 198.039062 236.082031 200.773438 233.351562 203.792969 C 230.617188 206.808594 228.191406 210.058594 226.074219 213.535156 Z M 254.300781 148.589844 L 189.699219 209.171875 L 171.855469 207.03125 L 250.277344 133.507812 Z M 48.773438 120.25 C 48.773438 119.277344 48.835938 118.308594 48.96875 117.34375 C 49.097656 116.382812 49.292969 115.429688 49.554688 114.492188 C 49.8125 113.554688 50.132812 112.640625 50.519531 111.746094 C 50.902344 110.851562 51.34375 109.984375 51.84375 109.152344 C 52.34375 108.316406 52.898438 107.519531 53.503906 106.761719 C 54.113281 106 54.769531 105.285156 55.472656 104.613281 C 56.175781 103.941406 56.921875 103.320312 57.710938 102.75 C 58.5 102.179688 59.324219 101.667969 60.179688 101.207031 C 61.039062 100.75 61.925781 100.347656 62.835938 100.007812 C 63.746094 99.671875 64.679688 99.394531 65.628906 99.179688 C 66.578125 98.964844 67.535156 98.816406 68.503906 98.734375 C 69.472656 98.648438 70.445312 98.628906 71.417969 98.675781 C 72.386719 98.722656 73.351562 98.835938 74.308594 99.011719 C 75.265625 99.191406 76.207031 99.429688 77.128906 99.734375 C 78.054688 100.039062 78.953125 100.40625 79.828125 100.832031 C 80.703125 101.257812 81.546875 101.738281 82.355469 102.277344 L 92.972656 109.359375 C 97.394531 112.316406 102.152344 114.5625 107.242188 116.105469 C 112.332031 117.644531 117.535156 118.414062 122.855469 118.410156 C 123.179688 118.410156 123.5 118.441406 123.816406 118.503906 C 124.136719 118.566406 124.445312 118.660156 124.742188 118.785156 C 125.042969 118.910156 125.328125 119.0625 125.597656 119.242188 C 125.867188 119.421875 126.117188 119.625 126.347656 119.855469 C 126.574219 120.085938 126.78125 120.335938 126.960938 120.605469 C 127.140625 120.875 127.292969 121.160156 127.417969 121.457031 C 127.539062 121.757812 127.632812 122.066406 127.699219 122.382812 C 127.761719 122.703125 127.792969 123.023438 127.792969 123.347656 C 127.792969 123.671875 127.761719 123.992188 127.699219 124.3125 C 127.632812 124.628906 127.539062 124.9375 127.417969 125.238281 C 127.292969 125.539062 127.140625 125.820312 126.960938 126.089844 C 126.78125 126.363281 126.574219 126.609375 126.347656 126.839844 C 126.117188 127.070312 125.867188 127.273438 125.597656 127.453125 C 125.328125 127.632812 125.042969 127.785156 124.742188 127.910156 C 124.445312 128.035156 124.136719 128.128906 123.816406 128.191406 C 123.5 128.253906 123.179688 128.285156 122.855469 128.285156 L 48.773438 128.285156 Z M 90.960938 138.164062 L 147.957031 204.160156 L 138.222656 202.992188 C 135.472656 202.660156 132.675781 202.496094 129.882812 202.433594 L 74.378906 138.164062 Z M 98.160156 335.71875 L 48.773438 335.71875 L 48.773438 315.960938 L 98.160156 315.960938 Z M 86.308594 306.085938 L 66.199219 306.085938 L 96.183594 277.996094 C 99.507812 281.359375 103.269531 284.121094 107.46875 286.289062 Z M 137.023438 280.835938 C 133.957031 281.203125 130.878906 281.390625 127.792969 281.390625 C 126.660156 281.390625 125.53125 281.335938 124.402344 281.222656 C 123.277344 281.113281 122.160156 280.945312 121.046875 280.726562 C 119.9375 280.503906 118.839844 280.230469 117.757812 279.902344 C 116.671875 279.574219 115.609375 279.191406 114.5625 278.757812 C 113.515625 278.324219 112.496094 277.84375 111.496094 277.308594 C 110.496094 276.773438 109.527344 276.191406 108.585938 275.5625 C 107.644531 274.933594 106.734375 274.261719 105.859375 273.542969 C 104.984375 272.824219 104.148438 272.066406 103.347656 271.265625 C 102.546875 270.464844 101.785156 269.625 101.070312 268.75 C 100.351562 267.875 99.675781 266.96875 99.046875 266.027344 C 98.417969 265.085938 97.835938 264.113281 97.304688 263.117188 C 96.769531 262.117188 96.285156 261.09375 95.851562 260.046875 C 95.417969 259.003906 95.039062 257.9375 94.710938 256.855469 C 94.382812 255.769531 94.105469 254.671875 93.886719 253.5625 C 93.664062 252.453125 93.5 251.335938 93.386719 250.207031 C 93.277344 249.082031 93.222656 247.949219 93.222656 246.820312 C 93.222656 245.6875 93.277344 244.558594 93.386719 243.429688 C 93.5 242.304688 93.664062 241.183594 93.886719 240.074219 C 94.105469 238.964844 94.382812 237.867188 94.710938 236.78125 C 95.039062 235.699219 95.417969 234.632812 95.851562 233.589844 C 96.285156 232.542969 96.769531 231.519531 97.304688 230.523438 C 97.835938 229.523438 98.417969 228.554688 99.046875 227.613281 C 99.675781 226.671875 100.351562 225.761719 101.070312 224.886719 C 101.785156 224.011719 102.546875 223.171875 103.347656 222.371094 C 104.148438 221.570312 104.984375 220.8125 105.859375 220.09375 C 106.734375 219.375 107.644531 218.703125 108.585938 218.074219 C 109.527344 217.445312 110.496094 216.863281 111.496094 216.328125 C 112.496094 215.796875 113.515625 215.3125 114.5625 214.878906 C 115.609375 214.445312 116.671875 214.0625 117.757812 213.734375 C 118.839844 213.40625 119.9375 213.132812 121.046875 212.910156 C 122.160156 212.691406 123.277344 212.523438 124.402344 212.414062 C 125.53125 212.300781 126.660156 212.246094 127.792969 212.246094 C 130.890625 212.246094 133.972656 212.433594 137.046875 212.800781 L 221.355469 222.914062 C 219.816406 226.710938 218.652344 230.621094 217.867188 234.640625 C 217.085938 238.664062 216.691406 242.722656 216.691406 246.820312 C 216.691406 250.914062 217.085938 254.976562 217.867188 258.996094 C 218.652344 263.015625 219.816406 266.925781 221.355469 270.722656 Z M 226.570312 246.820312 C 226.570312 245.039062 226.65625 243.265625 226.832031 241.492188 C 227.003906 239.722656 227.265625 237.964844 227.613281 236.21875 C 227.960938 234.476562 228.390625 232.75 228.910156 231.046875 C 229.425781 229.34375 230.023438 227.671875 230.703125 226.027344 C 231.386719 224.382812 232.144531 222.777344 232.984375 221.210938 C 233.824219 219.640625 234.738281 218.117188 235.726562 216.636719 C 236.714844 215.15625 237.773438 213.730469 238.902344 212.355469 C 240.03125 210.976562 241.222656 209.660156 242.480469 208.402344 C 243.738281 207.144531 245.054688 205.953125 246.433594 204.824219 C 247.808594 203.695312 249.234375 202.636719 250.714844 201.648438 C 252.195312 200.660156 253.71875 199.746094 255.285156 198.90625 C 256.855469 198.066406 258.460938 197.308594 260.105469 196.625 C 261.75 195.945312 263.421875 195.347656 265.125 194.832031 C 266.828125 194.3125 268.554688 193.882812 270.296875 193.535156 C 272.042969 193.1875 273.800781 192.925781 275.570312 192.753906 C 277.34375 192.578125 279.117188 192.492188 280.898438 192.492188 C 282.675781 192.492188 284.449219 192.578125 286.222656 192.753906 C 287.992188 192.925781 289.75 193.1875 291.496094 193.535156 C 293.242188 193.882812 294.964844 194.3125 296.667969 194.832031 C 298.371094 195.347656 300.042969 195.945312 301.6875 196.625 C 303.332031 197.308594 304.9375 198.066406 306.507812 198.90625 C 308.074219 199.746094 309.601562 200.660156 311.078125 201.648438 C 312.558594 202.636719 313.984375 203.695312 315.363281 204.824219 C 316.738281 205.953125 318.054688 207.144531 319.3125 208.402344 C 320.570312 209.660156 321.761719 210.976562 322.890625 212.355469 C 324.019531 213.730469 325.078125 215.15625 326.066406 216.636719 C 327.054688 218.117188 327.96875 219.640625 328.808594 221.210938 C 329.648438 222.777344 330.40625 224.382812 331.089844 226.027344 C 331.769531 227.671875 332.367188 229.34375 332.882812 231.046875 C 333.402344 232.75 333.832031 234.476562 334.179688 236.21875 C 334.527344 237.964844 334.789062 239.722656 334.960938 241.492188 C 335.136719 243.265625 335.222656 245.039062 335.222656 246.820312 C 335.222656 248.597656 335.136719 250.371094 334.960938 252.144531 C 334.789062 253.914062 334.527344 255.671875 334.179688 257.417969 C 333.832031 259.164062 333.402344 260.886719 332.882812 262.589844 C 332.367188 264.292969 331.769531 265.964844 331.089844 267.609375 C 330.40625 269.253906 329.648438 270.859375 328.808594 272.429688 C 327.96875 273.996094 327.054688 275.523438 326.066406 277 C 325.078125 278.480469 324.019531 279.90625 322.890625 281.285156 C 321.761719 282.660156 320.570312 283.976562 319.3125 285.234375 C 318.054688 286.492188 316.738281 287.683594 315.363281 288.8125 C 313.984375 289.941406 312.558594 291 311.078125 291.988281 C 309.601562 292.976562 308.074219 293.890625 306.507812 294.730469 C 304.9375 295.570312 303.332031 296.328125 301.6875 297.011719 C 300.042969 297.691406 298.371094 298.289062 296.667969 298.804688 C 294.964844 299.324219 293.242188 299.753906 291.496094 300.101562 C 289.75 300.449219 287.992188 300.710938 286.222656 300.882812 C 284.449219 301.058594 282.675781 301.144531 280.898438 301.144531 C 279.117188 301.144531 277.34375 301.054688 275.574219 300.878906 C 273.804688 300.703125 272.046875 300.441406 270.300781 300.089844 C 268.558594 299.742188 266.835938 299.308594 265.132812 298.792969 C 263.433594 298.273438 261.757812 297.675781 260.117188 296.992188 C 258.472656 296.3125 256.867188 295.550781 255.300781 294.710938 C 253.730469 293.871094 252.207031 292.957031 250.730469 291.96875 C 249.25 290.980469 247.824219 289.921875 246.449219 288.792969 C 245.074219 287.664062 243.757812 286.472656 242.5 285.214844 C 241.242188 283.957031 240.050781 282.640625 238.921875 281.265625 C 237.792969 279.890625 236.734375 278.464844 235.746094 276.984375 C 234.757812 275.507812 233.84375 273.984375 233.003906 272.414062 C 232.164062 270.847656 231.402344 269.242188 230.722656 267.597656 C 230.039062 265.957031 229.441406 264.285156 228.921875 262.582031 C 228.40625 260.878906 227.972656 259.15625 227.625 257.414062 C 227.273438 255.667969 227.011719 253.910156 226.835938 252.140625 C 226.660156 250.371094 226.570312 248.597656 226.570312 246.820312 Z M 335.222656 335.71875 L 300.652344 335.71875 L 300.652344 325.839844 L 335.222656 325.839844 Z M 309.378906 315.960938 L 306.609375 305.589844 C 311.054688 303.625 315.222656 301.183594 319.113281 298.269531 L 323.863281 315.960938 Z M 309.378906 315.960938 " fill-opacity="1" fill-rule="nonzero"/></g><path fill="#303030" d="M 280.898438 207.308594 C 279.601562 207.308594 278.3125 207.371094 277.023438 207.5 C 275.734375 207.625 274.457031 207.816406 273.1875 208.066406 C 271.917969 208.320312 270.664062 208.632812 269.425781 209.007812 C 268.1875 209.386719 266.972656 209.820312 265.777344 210.316406 C 264.582031 210.8125 263.414062 211.363281 262.269531 211.972656 C 261.128906 212.582031 260.023438 213.246094 258.945312 213.964844 C 257.871094 214.6875 256.832031 215.457031 255.832031 216.277344 C 254.832031 217.097656 253.875 217.964844 252.957031 218.878906 C 252.042969 219.796875 251.175781 220.753906 250.355469 221.753906 C 249.535156 222.753906 248.761719 223.792969 248.042969 224.867188 C 247.324219 225.945312 246.660156 227.050781 246.050781 228.195312 C 245.441406 229.335938 244.890625 230.503906 244.394531 231.699219 C 243.898438 232.894531 243.460938 234.109375 243.085938 235.347656 C 242.710938 236.585938 242.398438 237.839844 242.144531 239.109375 C 241.894531 240.378906 241.703125 241.65625 241.578125 242.945312 C 241.449219 244.234375 241.386719 245.523438 241.386719 246.820312 C 241.386719 248.113281 241.449219 249.402344 241.578125 250.691406 C 241.703125 251.980469 241.894531 253.257812 242.144531 254.527344 C 242.398438 255.796875 242.710938 257.050781 243.085938 258.289062 C 243.460938 259.527344 243.898438 260.742188 244.394531 261.9375 C 244.890625 263.132812 245.441406 264.300781 246.050781 265.445312 C 246.660156 266.585938 247.324219 267.695312 248.042969 268.769531 C 248.761719 269.84375 249.535156 270.882812 250.355469 271.882812 C 251.175781 272.882812 252.042969 273.84375 252.957031 274.757812 C 253.875 275.671875 254.832031 276.539062 255.832031 277.359375 C 256.832031 278.183594 257.871094 278.953125 258.945312 279.671875 C 260.023438 280.390625 261.128906 281.054688 262.269531 281.664062 C 263.414062 282.273438 264.582031 282.828125 265.777344 283.320312 C 266.972656 283.816406 268.1875 284.253906 269.425781 284.628906 C 270.664062 285.003906 271.917969 285.316406 273.1875 285.570312 C 274.457031 285.824219 275.734375 286.011719 277.023438 286.140625 C 278.3125 286.265625 279.601562 286.328125 280.898438 286.328125 C 282.191406 286.328125 283.480469 286.265625 284.769531 286.140625 C 286.058594 286.011719 287.335938 285.824219 288.605469 285.570312 C 289.875 285.316406 291.128906 285.003906 292.367188 284.628906 C 293.605469 284.253906 294.820312 283.816406 296.015625 283.320312 C 297.210938 282.828125 298.378906 282.273438 299.523438 281.664062 C 300.664062 281.054688 301.773438 280.390625 302.847656 279.671875 C 303.921875 278.953125 304.960938 278.183594 305.960938 277.359375 C 306.960938 276.539062 307.917969 275.671875 308.835938 274.757812 C 309.75 273.84375 310.617188 272.882812 311.4375 271.882812 C 312.257812 270.882812 313.03125 269.84375 313.75 268.769531 C 314.46875 267.695312 315.132812 266.585938 315.742188 265.445312 C 316.351562 264.300781 316.90625 263.132812 317.398438 261.9375 C 317.894531 260.742188 318.332031 259.527344 318.707031 258.289062 C 319.082031 257.050781 319.394531 255.796875 319.648438 254.527344 C 319.902344 253.257812 320.089844 251.980469 320.21875 250.691406 C 320.34375 249.402344 320.40625 248.113281 320.40625 246.820312 C 320.40625 245.523438 320.339844 244.234375 320.214844 242.949219 C 320.085938 241.660156 319.894531 240.382812 319.640625 239.113281 C 319.386719 237.84375 319.074219 236.59375 318.695312 235.355469 C 318.320312 234.117188 317.882812 232.898438 317.386719 231.707031 C 316.890625 230.511719 316.339844 229.34375 315.730469 228.203125 C 315.117188 227.0625 314.453125 225.953125 313.734375 224.878906 C 313.015625 223.804688 312.246094 222.765625 311.425781 221.765625 C 310.605469 220.765625 309.738281 219.808594 308.820312 218.894531 C 307.90625 217.980469 306.949219 217.109375 305.949219 216.289062 C 304.949219 215.46875 303.914062 214.699219 302.835938 213.980469 C 301.761719 213.261719 300.652344 212.597656 299.511719 211.988281 C 298.371094 211.375 297.203125 210.824219 296.007812 210.328125 C 294.816406 209.832031 293.597656 209.394531 292.359375 209.019531 C 291.125 208.644531 289.871094 208.328125 288.601562 208.074219 C 287.332031 207.820312 286.054688 207.628906 284.769531 207.503906 C 283.480469 207.375 282.191406 207.308594 280.898438 207.308594 Z M 280.898438 276.453125 C 279.925781 276.453125 278.957031 276.402344 277.992188 276.308594 C 277.027344 276.214844 276.066406 276.070312 275.117188 275.882812 C 274.164062 275.691406 273.222656 275.457031 272.292969 275.175781 C 271.367188 274.894531 270.453125 274.566406 269.554688 274.195312 C 268.660156 273.824219 267.785156 273.410156 266.925781 272.953125 C 266.070312 272.496094 265.242188 271.996094 264.433594 271.457031 C 263.625 270.917969 262.847656 270.339844 262.097656 269.726562 C 261.347656 269.109375 260.628906 268.457031 259.941406 267.773438 C 259.257812 267.085938 258.605469 266.367188 257.988281 265.617188 C 257.375 264.867188 256.796875 264.089844 256.257812 263.28125 C 255.71875 262.476562 255.21875 261.644531 254.761719 260.789062 C 254.304688 259.929688 253.890625 259.054688 253.519531 258.160156 C 253.148438 257.261719 252.820312 256.347656 252.539062 255.421875 C 252.257812 254.492188 252.023438 253.550781 251.832031 252.601562 C 251.644531 251.648438 251.5 250.6875 251.40625 249.722656 C 251.3125 248.757812 251.261719 247.789062 251.261719 246.820312 C 251.261719 245.847656 251.3125 244.878906 251.40625 243.914062 C 251.5 242.949219 251.644531 241.988281 251.832031 241.039062 C 252.023438 240.085938 252.257812 239.144531 252.539062 238.214844 C 252.820312 237.289062 253.148438 236.375 253.519531 235.480469 C 253.890625 234.582031 254.304688 233.707031 254.761719 232.851562 C 255.21875 231.992188 255.71875 231.164062 256.257812 230.355469 C 256.796875 229.546875 257.375 228.769531 257.988281 228.019531 C 258.605469 227.269531 259.257812 226.550781 259.941406 225.863281 C 260.628906 225.179688 261.347656 224.527344 262.097656 223.910156 C 262.847656 223.296875 263.625 222.71875 264.433594 222.179688 C 265.242188 221.640625 266.070312 221.140625 266.925781 220.683594 C 267.785156 220.226562 268.660156 219.8125 269.554688 219.441406 C 270.453125 219.070312 271.367188 218.742188 272.292969 218.460938 C 273.222656 218.179688 274.164062 217.945312 275.117188 217.753906 C 276.066406 217.566406 277.027344 217.421875 277.992188 217.328125 C 278.957031 217.234375 279.925781 217.1875 280.898438 217.1875 C 281.867188 217.1875 282.835938 217.234375 283.800781 217.328125 C 284.765625 217.421875 285.726562 217.566406 286.675781 217.753906 C 287.628906 217.945312 288.570312 218.179688 289.5 218.460938 C 290.425781 218.742188 291.339844 219.070312 292.238281 219.441406 C 293.132812 219.8125 294.007812 220.226562 294.867188 220.683594 C 295.722656 221.140625 296.554688 221.640625 297.359375 222.179688 C 298.167969 222.71875 298.945312 223.296875 299.695312 223.910156 C 300.445312 224.527344 301.164062 225.179688 301.851562 225.863281 C 302.535156 226.550781 303.1875 227.269531 303.804688 228.019531 C 304.417969 228.769531 304.996094 229.546875 305.535156 230.355469 C 306.074219 231.164062 306.574219 231.992188 307.03125 232.851562 C 307.488281 233.707031 307.902344 234.582031 308.273438 235.480469 C 308.644531 236.375 308.972656 237.289062 309.253906 238.214844 C 309.535156 239.144531 309.769531 240.085938 309.960938 241.039062 C 310.148438 241.988281 310.292969 242.949219 310.386719 243.914062 C 310.480469 244.878906 310.53125 245.847656 310.53125 246.820312 C 310.527344 247.789062 310.480469 248.757812 310.382812 249.722656 C 310.289062 250.6875 310.144531 251.644531 309.957031 252.597656 C 309.765625 253.550781 309.527344 254.488281 309.246094 255.417969 C 308.964844 256.34375 308.636719 257.257812 308.265625 258.152344 C 307.894531 259.050781 307.480469 259.925781 307.023438 260.78125 C 306.5625 261.636719 306.066406 262.46875 305.527344 263.273438 C 304.988281 264.082031 304.410156 264.859375 303.792969 265.609375 C 303.179688 266.359375 302.527344 267.078125 301.839844 267.765625 C 301.15625 268.449219 300.4375 269.101562 299.6875 269.714844 C 298.9375 270.332031 298.160156 270.910156 297.351562 271.449219 C 296.546875 271.988281 295.714844 272.484375 294.859375 272.945312 C 294.003906 273.402344 293.128906 273.816406 292.230469 274.1875 C 291.335938 274.558594 290.421875 274.886719 289.496094 275.167969 C 288.566406 275.453125 287.628906 275.6875 286.675781 275.878906 C 285.722656 276.066406 284.765625 276.210938 283.800781 276.304688 C 282.835938 276.402344 281.867188 276.449219 280.898438 276.453125 Z M 280.898438 276.453125 " fill-opacity="1" fill-rule="nonzero"/><path fill="#303030" d="M 167.304688 241.878906 L 151.992188 241.878906 C 151.890625 241.386719 151.777344 240.894531 151.644531 240.40625 C 151.515625 239.921875 151.367188 239.4375 151.207031 238.960938 C 151.046875 238.480469 150.871094 238.007812 150.683594 237.542969 C 150.492188 237.074219 150.289062 236.613281 150.074219 236.15625 C 149.855469 235.703125 149.625 235.253906 149.378906 234.816406 C 149.132812 234.375 148.875 233.941406 148.601562 233.515625 C 148.332031 233.089844 148.046875 232.675781 147.75 232.265625 C 147.453125 231.859375 147.144531 231.460938 146.820312 231.074219 C 146.5 230.683594 146.167969 230.304688 145.820312 229.9375 C 145.476562 229.570312 145.121094 229.214844 144.753906 228.867188 C 144.386719 228.519531 144.011719 228.183594 143.625 227.863281 C 143.238281 227.539062 142.839844 227.226562 142.433594 226.929688 C 142.027344 226.628906 141.613281 226.34375 141.1875 226.070312 C 140.765625 225.796875 140.332031 225.535156 139.894531 225.289062 C 139.453125 225.042969 139.007812 224.808594 138.550781 224.589844 C 138.097656 224.371094 137.636719 224.164062 137.171875 223.972656 C 136.703125 223.78125 136.234375 223.605469 135.753906 223.441406 C 135.277344 223.277344 134.796875 223.132812 134.308594 223 C 133.824219 222.867188 133.332031 222.746094 132.839844 222.644531 C 132.34375 222.542969 131.847656 222.453125 131.351562 222.382812 C 130.851562 222.308594 130.351562 222.25 129.847656 222.210938 C 129.34375 222.167969 128.839844 222.140625 128.335938 222.128906 C 127.832031 222.121094 127.328125 222.125 126.824219 222.144531 C 126.320312 222.164062 125.816406 222.199219 125.316406 222.25 C 124.8125 222.300781 124.3125 222.367188 123.816406 222.449219 C 123.320312 222.527344 122.824219 222.625 122.332031 222.738281 C 121.839844 222.847656 121.351562 222.976562 120.867188 223.117188 C 120.382812 223.257812 119.90625 223.414062 119.429688 223.585938 C 118.957031 223.757812 118.488281 223.941406 118.023438 224.140625 C 117.558594 224.339844 117.105469 224.554688 116.652344 224.78125 C 116.203125 225.007812 115.761719 225.25 115.324219 225.503906 C 114.890625 225.761719 114.464844 226.027344 114.042969 226.308594 C 113.625 226.589844 113.214844 226.882812 112.816406 227.191406 C 112.414062 227.496094 112.023438 227.8125 111.640625 228.144531 C 111.257812 228.472656 110.886719 228.816406 110.527344 229.167969 C 110.167969 229.519531 109.816406 229.882812 109.480469 230.257812 C 109.140625 230.632812 108.816406 231.015625 108.5 231.410156 C 108.1875 231.804688 107.882812 232.207031 107.59375 232.621094 C 107.304688 233.035156 107.027344 233.453125 106.761719 233.882812 C 106.496094 234.3125 106.246094 234.75 106.011719 235.195312 C 105.773438 235.640625 105.550781 236.09375 105.339844 236.550781 C 105.128906 237.011719 104.933594 237.476562 104.753906 237.945312 C 104.570312 238.417969 104.40625 238.890625 104.253906 239.375 C 104.101562 239.855469 103.964844 240.339844 103.839844 240.828125 C 103.71875 241.316406 103.613281 241.808594 103.519531 242.304688 C 103.425781 242.800781 103.351562 243.300781 103.289062 243.800781 C 103.226562 244.300781 103.179688 244.804688 103.148438 245.308594 C 103.121094 245.808594 103.105469 246.3125 103.105469 246.820312 C 103.105469 247.324219 103.121094 247.828125 103.148438 248.332031 C 103.179688 248.832031 103.226562 249.335938 103.289062 249.835938 C 103.351562 250.335938 103.425781 250.835938 103.519531 251.332031 C 103.613281 251.828125 103.71875 252.320312 103.839844 252.808594 C 103.964844 253.296875 104.101562 253.785156 104.253906 254.265625 C 104.40625 254.746094 104.570312 255.222656 104.753906 255.691406 C 104.933594 256.164062 105.128906 256.625 105.339844 257.085938 C 105.550781 257.542969 105.773438 257.996094 106.011719 258.441406 C 106.246094 258.886719 106.5 259.324219 106.761719 259.753906 C 107.027344 260.183594 107.304688 260.605469 107.59375 261.015625 C 107.882812 261.429688 108.1875 261.832031 108.5 262.226562 C 108.816406 262.621094 109.140625 263.003906 109.480469 263.378906 C 109.816406 263.753906 110.167969 264.117188 110.527344 264.46875 C 110.886719 264.824219 111.257812 265.164062 111.640625 265.492188 C 112.023438 265.824219 112.414062 266.140625 112.816406 266.449219 C 113.214844 266.753906 113.625 267.046875 114.042969 267.328125 C 114.464844 267.609375 114.890625 267.875 115.324219 268.132812 C 115.761719 268.386719 116.203125 268.628906 116.652344 268.855469 C 117.105469 269.082031 117.558594 269.296875 118.023438 269.496094 C 118.488281 269.695312 118.957031 269.882812 119.429688 270.050781 C 119.90625 270.222656 120.382812 270.378906 120.867188 270.519531 C 121.351562 270.660156 121.839844 270.789062 122.332031 270.898438 C 122.824219 271.011719 123.320312 271.109375 123.816406 271.191406 C 124.3125 271.269531 124.8125 271.335938 125.316406 271.386719 C 125.816406 271.4375 126.320312 271.472656 126.824219 271.492188 C 127.328125 271.511719 127.832031 271.519531 128.335938 271.507812 C 128.839844 271.496094 129.34375 271.46875 129.847656 271.425781 C 130.351562 271.386719 130.851562 271.328125 131.351562 271.257812 C 131.847656 271.183594 132.34375 271.097656 132.839844 270.992188 C 133.332031 270.890625 133.824219 270.773438 134.308594 270.640625 C 134.796875 270.503906 135.277344 270.359375 135.753906 270.195312 C 136.234375 270.03125 136.707031 269.855469 137.171875 269.664062 C 137.636719 269.472656 138.097656 269.265625 138.550781 269.046875 C 139.007812 268.828125 139.453125 268.59375 139.894531 268.347656 C 140.332031 268.101562 140.765625 267.839844 141.1875 267.566406 C 141.613281 267.292969 142.027344 267.007812 142.433594 266.707031 C 142.839844 266.410156 143.238281 266.097656 143.625 265.773438 C 144.011719 265.453125 144.386719 265.117188 144.753906 264.769531 C 145.121094 264.425781 145.476562 264.066406 145.820312 263.699219 C 146.167969 263.332031 146.5 262.953125 146.820312 262.5625 C 147.144531 262.175781 147.453125 261.777344 147.75 261.371094 C 148.046875 260.960938 148.332031 260.546875 148.601562 260.121094 C 148.875 259.695312 149.132812 259.261719 149.378906 258.824219 C 149.625 258.382812 149.855469 257.933594 150.074219 257.480469 C 150.289062 257.023438 150.492188 256.5625 150.683594 256.09375 C 150.871094 255.628906 151.046875 255.15625 151.207031 254.675781 C 151.367188 254.199219 151.515625 253.714844 151.644531 253.230469 C 151.777344 252.742188 151.890625 252.25 151.992188 251.757812 L 167.304688 251.757812 L 167.304688 261.636719 L 177.179688 261.636719 L 177.179688 232.003906 L 167.304688 232.003906 Z M 127.792969 261.636719 C 126.890625 261.640625 125.992188 261.5625 125.105469 261.402344 C 124.214844 261.242188 123.347656 261 122.503906 260.683594 C 121.660156 260.363281 120.851562 259.972656 120.078125 259.503906 C 119.304688 259.039062 118.578125 258.503906 117.902344 257.90625 C 117.226562 257.308594 116.609375 256.652344 116.054688 255.941406 C 115.5 255.226562 115.011719 254.472656 114.59375 253.671875 C 114.175781 252.871094 113.835938 252.039062 113.570312 251.175781 C 113.304688 250.3125 113.121094 249.429688 113.015625 248.535156 C 112.910156 247.636719 112.886719 246.738281 112.949219 245.835938 C 113.007812 244.9375 113.148438 244.046875 113.371094 243.171875 C 113.59375 242.296875 113.894531 241.449219 114.269531 240.628906 C 114.648438 239.808594 115.097656 239.027344 115.617188 238.289062 C 116.136719 237.550781 116.71875 236.867188 117.363281 236.234375 C 118.007812 235.601562 118.707031 235.035156 119.457031 234.527344 C 120.203125 234.023438 120.992188 233.59375 121.820312 233.230469 C 122.648438 232.871094 123.503906 232.589844 124.382812 232.386719 C 125.261719 232.179688 126.152344 232.058594 127.054688 232.019531 C 127.957031 231.976562 128.855469 232.015625 129.75 232.140625 C 130.648438 232.265625 131.523438 232.46875 132.378906 232.75 C 133.238281 233.035156 134.0625 233.394531 134.855469 233.828125 C 135.644531 234.261719 136.390625 234.761719 137.09375 235.335938 C 137.792969 235.90625 138.433594 236.535156 139.019531 237.222656 C 139.605469 237.910156 140.121094 238.644531 140.574219 239.429688 C 141.023438 240.210938 141.398438 241.027344 141.699219 241.878906 L 127.792969 241.878906 L 127.792969 251.757812 L 141.699219 251.757812 C 141.449219 252.472656 141.140625 253.164062 140.78125 253.832031 C 140.421875 254.5 140.015625 255.140625 139.558594 255.746094 C 139.101562 256.351562 138.601562 256.917969 138.054688 257.445312 C 137.511719 257.976562 136.929688 258.460938 136.3125 258.898438 C 135.691406 259.339844 135.042969 259.726562 134.363281 260.066406 C 133.6875 260.40625 132.984375 260.691406 132.261719 260.925781 C 131.539062 261.15625 130.804688 261.332031 130.054688 261.453125 C 129.304688 261.570312 128.550781 261.632812 127.792969 261.636719 Z M 127.792969 261.636719 " fill-opacity="1" fill-rule="nonzero"/></svg>