<svg xmlns="http://www.w3.org/2000/svg" viewBox="0 0 1600 1200"><defs><style>.cls-1{fill:#f6ebda;}.cls-10,.cls-2{fill:#2f3030;}.cls-11,.cls-3{fill:#fbb755;}.cls-10,.cls-11,.cls-12,.cls-13,.cls-14,.cls-3{stroke:#000;stroke-miterlimit:10;}.cls-4{fill:#261134;}.cls-5{fill:#fefefe;}.cls-13,.cls-6{fill:#f2f2f2;}.cls-12,.cls-7{fill:#fff;}.cls-8{fill:#1ba096;}.cls-9{fill:#cdcbcc;}.cls-11{stroke-width:0.5px;}.cls-14{fill:#d1d5db;}</style></defs><g id="_5" data-name="5"><g id="Background"><rect class="cls-1" y="3" width="1600" height="1195"/></g></g><g id="_4" data-name="4"><rect class="cls-2" x="1184.86" y="681.7" width="160.74" height="125.13"/><rect class="cls-3" x="1226.25" y="681.7" width="146.97" height="125.13"/><path class="cls-3" d="M1373.73,807.33h-148V681.2h148Zm-147-1h146V682.2h-146Z"/><polygon class="cls-2" points="1322.9 681.7 1322.9 712.9 1313.74 707.81 1306.62 712.56 1298.14 707.81 1290.35 712.9 1290.35 681.7 1322.9 681.7"/><rect class="cls-4" x="1256.43" y="743.1" width="33.91" height="2"/><rect class="cls-4" x="1256.43" y="756.32" width="33.91" height="2"/><rect class="cls-4" x="1256.43" y="769.55" width="33.91" height="2"/><rect class="cls-5" x="1300.18" y="740.37" width="54.94" height="34.25"/><path class="cls-4" d="M1355.62,775.12h-55.94V739.87h55.94Zm-54.94-1h53.94V740.87h-53.94Z"/><path class="cls-6" d="M1189.26,829.66h43a6.66,6.66,0,0,1,5.23,2.52l21.68,27.26a6.68,6.68,0,0,1-5.23,10.84h-64.63Z"/><path class="cls-4" d="M1253.89,870.78h-65.13V829.16h43.45a7.12,7.12,0,0,1,5.62,2.71l21.69,27.26a7.19,7.19,0,0,1-5.63,11.65Zm-64.13-1h64.13a6.18,6.18,0,0,0,4.84-10l-21.68-27.26a6.17,6.17,0,0,0-4.84-2.33h-42.45Z"/><rect class="cls-2" x="752.23" y="651.44" width="34.84" height="13.26" rx="6.63"/><rect class="cls-2" x="807.09" y="665.87" width="26.59" height="37.74"/><path class="cls-3" d="M765.16,945.55V725.08a33.93,33.93,0,0,1,33.93-33.93H897A33.93,33.93,0,0,1,931,725.08v203a31.09,31.09,0,0,0,31.1,31.1H989.6a31.09,31.09,0,0,0,31.09-31.1V839.36s-.65-26.79-17.24-30.67h169.43s70.41,57.36,85.18,149.92v10.22H765.16Z"/><path class="cls-4" d="M1258.56,969.33H764.66V725.08a34.47,34.47,0,0,1,34.43-34.43H897a34.46,34.46,0,0,1,34.43,34.43v203a30.64,30.64,0,0,0,30.6,30.6H989.6a30.63,30.63,0,0,0,30.59-30.6V839.36c0-.25-.84-26.43-16.85-30.18l-4.22-1h173.94l.14.12c.17.14,17.87,14.67,37.13,40.33,17.78,23.68,40.58,62,48.22,109.89Zm-492.9-1h491.9v-9.72c-7.6-47.62-30.31-85.76-48-109.34-18.3-24.39-35.17-38.68-36.85-40.08H1006.53c13.9,6.11,14.64,29.12,14.66,30.16v88.73a31.63,31.63,0,0,1-31.59,31.6H962.07a31.64,31.64,0,0,1-31.6-31.6v-203A33.47,33.47,0,0,0,897,691.65H799.09a33.47,33.47,0,0,0-33.43,33.43Z"/><rect class="cls-2" x="820" y="690" width="12" height="222.76"/><rect class="cls-2" x="1162.94" y="803.3" width="228.75" height="11.36"/><rect class="cls-2" x="975.55" y="969.4" width="159" height="32.65"/><ellipse class="cls-2" cx="1191.9" cy="984.16" rx="72.4" ry="82.34"/><ellipse class="cls-5" cx="1204.11" cy="980.53" rx="47.13" ry="53.6"/><path class="cls-4" d="M1204.11,1034.63c-26.26,0-47.63-24.27-47.63-54.1s21.37-54.1,47.63-54.1,47.63,24.27,47.63,54.1S1230.38,1034.63,1204.11,1034.63Zm0-107.2c-25.71,0-46.63,23.82-46.63,53.1s20.92,53.1,46.63,53.1,46.63-23.82,46.63-53.1S1229.82,927.43,1204.11,927.43Z"/><path class="cls-2" d="M1179.22,980.75c0,11.92,5.58,22.51,23.52,22.51,10.48,0,14.43-10.59,14.43-22.51s-4-21.57-14.43-21.57C1184.8,959.18,1179.22,968.84,1179.22,980.75Z"/><ellipse class="cls-5" cx="1203.88" cy="980.75" rx="18.97" ry="21.58"/><path class="cls-4" d="M1203.88,1002.83c-10.74,0-19.48-9.9-19.48-22.08s8.74-22.07,19.48-22.07,19.47,9.9,19.47,22.07S1214.62,1002.83,1203.88,1002.83Zm0-43.15c-10.19,0-18.48,9.45-18.48,21.07s8.29,21.08,18.48,21.08,18.47-9.45,18.47-21.08S1214.06,959.68,1203.88,959.68Z"/><ellipse class="cls-2" cx="783.98" cy="984.16" rx="72.4" ry="82.34"/><ellipse class="cls-5" cx="796.19" cy="980.53" rx="47.13" ry="53.6"/><path class="cls-4" d="M796.19,1034.63c-26.27,0-47.63-24.27-47.63-54.1s21.36-54.1,47.63-54.1,47.63,24.27,47.63,54.1S822.45,1034.63,796.19,1034.63Zm0-107.2c-25.71,0-46.63,23.82-46.63,53.1s20.92,53.1,46.63,53.1,46.63-23.82,46.63-53.1S821.9,927.43,796.19,927.43Z"/><path class="cls-2" d="M771.3,980.75c0,11.92,5.58,21.58,23.52,21.58,10.48,0,14.43-9.66,14.43-21.58s-4-21.57-14.43-21.57C776.88,959.18,771.3,968.84,771.3,980.75Z"/><ellipse class="cls-5" cx="795.95" cy="980.75" rx="18.97" ry="21.58"/><path class="cls-4" d="M796,1002.83c-10.74,0-19.48-9.9-19.48-22.08s8.74-22.07,19.48-22.07,19.47,9.9,19.47,22.07S806.69,1002.83,796,1002.83Zm0-43.15c-10.19,0-18.48,9.45-18.48,21.07s8.29,21.08,18.48,21.08,18.47-9.45,18.47-21.08S806.14,959.68,796,959.68Z"/><path class="cls-2" d="M1325,958.93h-9.2a19.3,19.3,0,0,0-19.13-16.79H1092.24v38.61h204.43a19.31,19.31,0,0,0,18.9-15.36H1325Z"/><path class="cls-3" d="M1288.72,968.83s12.73-101.78-106.19-129.47c-42.86-10-141.39-16.47-119.28,129.47Z"/><path class="cls-4" d="M1289.16,969.33H1062.82l-.07-.43c-8.23-54.34-.52-92.87,22.91-114.53,28.63-26.47,73-21.07,97-15.5,27.2,6.34,49.73,17.11,67,32a112.81,112.81,0,0,1,31.07,43.4c11.59,28.7,8.56,54.35,8.53,54.6Zm-225.48-1h224.59a121.52,121.52,0,0,0-8.53-53.71c-10.62-26.24-36.12-60.52-97.32-74.77-23.74-5.53-67.79-10.9-96.08,15.25C1063.22,876.47,1055.6,914.56,1063.68,968.33Z"/><path class="cls-2" d="M1014.73,814.66h149.09a28.08,28.08,0,0,0,28.08-28.08h0a28.07,28.07,0,0,0-30.31-28L1013,770.44a22.14,22.14,0,0,0-20.38,22.07h0A22.15,22.15,0,0,0,1014.73,814.66Z"/><path class="cls-3" d="M861.92,957.54H691.57a108.88,108.88,0,0,1,19.74-47.86c37-49.51,113.86-42.72,141.11,12.72A99.77,99.77,0,0,1,861.92,957.54Z"/><path class="cls-4" d="M862.47,958H691l.06-.55c0-.26,3-25.54,19.84-48.11a83.75,83.75,0,0,1,142,12.8,100.78,100.78,0,0,1,9.55,35.32Zm-170.33-1H861.37a99.22,99.22,0,0,0-9.4-34.42A82.74,82.74,0,0,0,711.71,910C696.4,930.49,692.67,953.23,692.14,957Z"/><path class="cls-2" d="M1289.86,975.4H851.51V962.16H691.57v-12H851.79a11.72,11.72,0,0,1,11.72,11.72v1.52h426.35Z"/><polygon class="cls-2" points="982.41 1040.13 953.12 1040.13 953.12 1028.13 978.35 1028.13 1034.65 985.07 1041.94 994.61 982.41 1040.13"/><path class="cls-3" d="M834.57,678.45H798.1a26.24,26.24,0,0,1-6.44-.8,26.68,26.68,0,0,1,0-51.75,27.4,27.4,0,0,1,6.46-.77h5.25c18.35,0,35.76,9.14,45.27,24.82.51.84,1,1.71,1.51,2.61A17.62,17.62,0,0,1,834.57,678.45Z"/><path class="cls-4" d="M834.57,679H798.1a27.19,27.19,0,0,1-27.16-27.16,26.87,26.87,0,0,1,8-19.2,27.19,27.19,0,0,1,12.62-7.17,27.73,27.73,0,0,1,6.58-.79h5.25c18.82,0,36.33,9.6,45.7,25.06.51.85,1,1.72,1.51,2.63a18.1,18.1,0,0,1-16,26.63ZM798.1,625.63a26.75,26.75,0,0,0-6.34.76,26.32,26.32,0,0,0-12.16,6.91,26.15,26.15,0,0,0,12.18,43.87,26.36,26.36,0,0,0,6.32.78h36.47a17.11,17.11,0,0,0,15.12-25.15c-.49-.89-1-1.75-1.5-2.59-9.19-15.16-26.37-24.58-44.84-24.58Z"/><path class="cls-2" d="M810.05,651.79a35.77,35.77,0,0,1-11.88,26.66h-.07a26.66,26.66,0,0,1,0-53.32h.07A35.76,35.76,0,0,1,810.05,651.79Z"/><path class="cls-5" d="M802.69,651.79a35.72,35.72,0,0,1-11,25.86,26.68,26.68,0,0,1,0-51.75A35.73,35.73,0,0,1,802.69,651.79Z"/><path class="cls-4" d="M791.81,678.21l-.27-.07a27.18,27.18,0,0,1,0-52.72l.27-.07.2.19A36.36,36.36,0,0,1,792,678Zm-.31-51.76a26.32,26.32,0,0,0-11.9,6.85,26.15,26.15,0,0,0,11.91,43.8,35.35,35.35,0,0,0,0-50.65Z"/><rect class="cls-3" x="850.76" y="654.15" width="19.65" height="8.11"/><path class="cls-4" d="M870.91,662.75H850.26v-9.1h20.65Zm-19.65-1h18.65v-7.1H851.26Z"/><rect class="cls-2" x="836.76" y="651.44" width="21.12" height="13.26" rx="6.63"/><rect class="cls-2" x="866.73" y="651.44" width="34.84" height="13.26" rx="6.63"/><rect class="cls-7" x="1126.01" y="943.19" width="97.62" height="5.58"/><path d="M1224.13,949.27h-98.62v-6.58h98.62Zm-97.62-1h96.62v-4.58h-96.62Z"/><rect class="cls-7" x="1126.01" y="928.44" width="97.62" height="5.58"/><path d="M1224.13,934.51h-98.62v-6.57h98.62Zm-97.62-1h96.62v-4.57h-96.62Z"/><rect class="cls-7" x="1126.01" y="913.68" width="97.62" height="5.58"/><path d="M1224.13,919.76h-98.62v-6.58h98.62Zm-97.62-1h96.62v-4.58h-96.62Z"/><rect class="cls-2" x="870" y="1040" width="205" height="2"/><g id="Checklist_Icon" data-name="Checklist Icon"><circle class="cls-5" cx="430.48" cy="286.63" r="55.63"/><path class="cls-4" d="M430.48,342.77a56.14,56.14,0,1,1,56.14-56.14A56.2,56.2,0,0,1,430.48,342.77Zm0-111.27a55.14,55.14,0,1,0,55.14,55.13A55.19,55.19,0,0,0,430.48,231.5Z"/><path class="cls-8" d="M420.91,313.61l-27.7-26.83a4.91,4.91,0,0,1-.11-6.95h0a4.93,4.93,0,0,1,7-.11l20.87,20.22,40-38.5a4.92,4.92,0,0,1,6.95.13h0a4.92,4.92,0,0,1-.13,7Z"/><path class="cls-4" d="M420.91,314.31l-28-27.17a5.42,5.42,0,1,1,7.54-7.78l20.52,19.88,39.63-38.16a5.42,5.42,0,0,1,7.66.15,5.43,5.43,0,0,1-.14,7.66Zm-24.27-35.48a4.42,4.42,0,0,0-3.08,7.59l27.35,26.5,46.47-44.75a4.41,4.41,0,0,0,.12-6.25,4.43,4.43,0,0,0-6.25-.12l-40.32,38.83-21.22-20.55A4.4,4.4,0,0,0,396.64,278.83Z"/></g><rect class="cls-9" x="943.64" y="142.93" width="296.8" height="361.04"/><path class="cls-4" d="M1241,504.47H943.14v-362H1241Zm-296.81-1H1240v-360H944.14Z"/><path class="cls-7" d="M1181.75,294.66V175.05h58.7v-6.64h-58.7V142.93h-6.64v25.48H1100.9V142.93h-6.64v32.12h80.85V288H1100.9V230.17L1015,142.93h-9.32l83.94,85.28H1034.8l-83.52-85.28h-7.64v1.7l81.86,83.58H943.64v6.65H1032l.78.79v158.8a35.5,35.5,0,0,0-32.23,29.78H943.64v6.65h56.52a35.46,35.46,0,0,0,32.08,34.17V504h6.65V465.05A35.46,35.46,0,0,0,1071,430.88h27.35L1169.1,504h9.26l-3.5-3.61,65.59-65.58v-9.39l-70.22,70.2-27.6-28.5,53.52-54.79V352.25h44.3V345.6H1100.9V294.66ZM1035.56,458.57a28.8,28.8,0,1,1,28.8-28.8A28.82,28.82,0,0,1,1035.56,458.57Zm58.7-34.34h-23.69a35.51,35.51,0,0,0-31.13-29.68V234.86h54.82Zm95.24-72v57.34L1138,462.32,1100.9,424V352.25Z"/><circle class="cls-10" cx="1165.69" cy="333.98" r="32.12"/><path class="cls-11" d="M1202.73,259.12a35.41,35.41,0,1,0-68,13.76h0a34.77,34.77,0,0,0,1.87,3.77l30.42,61.2,30.77-60.61a35,35,0,0,0,2.21-4.36h0A35.22,35.22,0,0,0,1202.73,259.12Zm-35.06,15a14.1,14.1,0,1,1,14.09-14.1A14.1,14.1,0,0,1,1167.67,274.08Z"/><path class="cls-11" d="M1167,339l-30.87-62.09a36.17,36.17,0,0,1-1.88-3.8,35.92,35.92,0,1,1,64,4.43Zm.34-114.75a35,35,0,0,0-34.91,34.91,34.59,34.59,0,0,0,2.74,13.56,32.86,32.86,0,0,0,1.84,3.72l30,60.34L1197.3,277a34.47,34.47,0,0,0,4.93-17.89A35,35,0,0,0,1167.32,224.21Zm.35,50.37a14.6,14.6,0,1,1,14.59-14.6A14.62,14.62,0,0,1,1167.67,274.58Zm0-28.19A13.6,13.6,0,1,0,1181.26,260,13.61,13.61,0,0,0,1167.67,246.39Z"/><path class="cls-2" d="M514.15,1066.73H441.21s4.61-15.7,36.93-28.62l-.05-3.57-.29-19.5h34.51l.61,17.22Z"/><path class="cls-2" d="M514.67,1067.23H440.54l.19-.64c.19-.65,5-16,36.91-28.82l-.35-23.23h35.5Zm-72.74-1h71.7l-1.8-50.69H478.31l.34,22.91-.32.12C450.27,1049.79,443.22,1063.17,441.93,1066.23Z"/><path class="cls-2" d="M609.11,1066.73H536.17s4.61-15.7,36.93-28.62l-.32-2.38L570,1015H604.5l1.61,18Z"/><path class="cls-2" d="M609.66,1067.23H535.5l.19-.64c.19-.65,5-16,36.86-28.8l-3.13-23.25H605Zm-72.77-1h71.67L604,1015.54H570.56l3.09,22.89-.36.14C545.23,1049.79,538.18,1063.17,536.89,1066.23Z"/><path class="cls-2" d="M178.51,1066.73H105.57l4.67-36.5,1.94-15.19h34.51l-4.14,18.7-1,8.37C175.5,1052.5,178.51,1066.73,178.51,1066.73Z"/><path class="cls-2" d="M179.13,1067.23H105l6.74-52.69h35.57L143,1033.85l-.92,7.9c33.44,10.35,36.75,24.29,36.88,24.88Zm-73-1h71.68c-1.06-2.8-7.17-14.69-36.39-23.64l-.39-.12,1-8.79,4-18.14H112.62Z"/><path class="cls-2" d="M262.51,1066.73H189.57l1.81-35.89.8-15.8h34.51l-.93,19.24-.18,6.83C257.9,1054,262.51,1066.73,262.51,1066.73Z"/><path class="cls-2" d="M263.22,1067.23H189l2.66-52.69h35.51l-1,19.76-.17,6.48c31.87,12.81,36.7,25.25,36.89,25.78Zm-73.12-1h71.61c-1.49-2.77-8.85-13.67-36.32-24.66l-.32-.13.19-7.17.91-18.73H192.66Z"/><path class="cls-12" d="M456.79,350.28l50.74-11.4L513,358.14a7.12,7.12,0,0,1,4.13-1.64c6,0,7.18,7.18,7.18,7.18,1.74,7.84-3.41,12.63-5.69,16L536,435.32l-43.12,6.73-3.67-35.56C452.06,425.29,456.79,350.28,456.79,350.28Z"/><path class="cls-12" d="M492.43,442.63l-3.65-35.37c-7.33,3.54-13.58,3.67-18.59.37-16.63-11-14-55.49-13.9-57.38l0-.38,51.57-11.59,5.43,19.05a7,7,0,0,1,3.84-1.33c6.33,0,7.66,7.52,7.67,7.6,1.51,6.79-2,11.33-4.51,14.64-.41.53-.79,1-1.12,1.49l17.46,56Zm-2.8-36.91,3.69,35.76,42-6.57-17.26-55.34.13-.2c.37-.54.82-1.12,1.29-1.74,2.43-3.16,5.74-7.48,4.33-13.84-.05-.3-1.21-6.79-6.69-6.79a6.56,6.56,0,0,0-3.83,1.54l-.58.43-5.57-19.5-49.9,11.21c-.23,4.4-1.89,46,13.48,56.11,4.83,3.19,11,2.93,18.23-.74Z"/><path class="cls-2" d="M441.55,328.48c2.27-.46,8.08,0,11.58,2.89a6.94,6.94,0,0,1-.59-1.19c-5.22-15.55,16.71-4,28.25-1.7,2.4.46,7.66,1.22,7.66,1.22,34.68-7.89,31.21,27.52,31.21,27.52-9.12-1.27-11.82,11-11.82,11-9.33-4.42-12.22-10.71-12.49-13.44-9.05,4.09-32.11,11.92-51.18-1.92C431.16,343.48,435.78,329.63,441.55,328.48Z"/><path class="cls-10" d="M240.22,476.78s-14.08-26.29-15.32-39.35l5.95-28.82s.74-27.58-35.58-20.91c0,0,.2-13-8.44-16.07,0,0,4.23,7.31,2.67,14.53,0,0-7-16.05-20.17-7.56,0,0-10.23,5.63-7.49,15.82,0,0-.18,11.58,15.75,11.84,0,0-.23,14.48-35.31,34.21,0,0-29.2,14-26.78,44.48s29.63,49.73,29.63,49.73l100,.13Z"/><path class="cls-12" d="M184.68,488,189,437.72s-7.51-4.37-5.63-13c0,0,1.85-6.92,8.71-1.6l.19-12.16s24.19,9.07,38.3-4.61c0,0,10.24,47.59-11.28,47.46l4.58,40Z"/><path class="cls-12" d="M224.39,494.41l-40.25-5.94L188.43,438c-1.37-.92-7.32-5.45-5.6-13.4,0-.14.82-3,3.24-3.79,1.56-.53,3.41-.08,5.48,1.33l.19-11.91.66.25c.24.09,24,8.8,37.77-4.5l.65-.62.19.88c.28,1.31,6.81,32.28-2.56,43.82a11.12,11.12,0,0,1-8.65,4.23Zm-39.17-6.8,38,5.62-4.57-40h.57a10.18,10.18,0,0,0,8.42-3.87c8.22-10.12,3.54-36.93,2.54-42.11-12.92,11.64-33.54,5.63-37.5,4.33l-.19,12.47-.79-.62c-2.12-1.63-3.91-2.22-5.33-1.74-1.92.64-2.59,3.05-2.6,3.08-1.76,8.16,5.11,12.3,5.4,12.47l.27.16,0,.31Z"/><polygon class="cls-13" points="512.92 1032.26 478.09 1034.54 477.8 1015.04 512.31 1015.04 512.92 1032.26"/><polygon class="cls-13" points="606.11 1033.04 572.78 1035.73 569.99 1015.04 604.5 1015.04 606.11 1033.04"/><polygon class="cls-10" points="556.38 612.63 555 620.2 546.46 667.15 524.52 787.71 523.19 827.48 516.54 1026.9 458.3 1026.9 451.84 788.92 461.05 656.21 464.08 612.63 556.38 612.63"/><path class="cls-10" d="M517,1027.4H457.81v-.49l-6.46-238,12.27-176.8H557L525,787.8Zm-58.23-1h57.27l8-238.71,31.76-174.56H464.55L452.34,789Z"/><polygon class="cls-13" points="146.69 1015.04 142.55 1033.74 110.24 1030.23 112.18 1015.04 146.69 1015.04"/><polygon class="cls-13" points="226.69 1015.04 225.76 1034.28 191.38 1030.84 192.18 1015.04 226.69 1015.04"/><polygon class="cls-10" points="615.57 1027.87 556.78 1027.87 523.19 827.48 515.67 782.6 502.89 666.79 497.75 620.2 593.31 620.2 592.9 657.01 591.54 778.41 615.57 1027.87"/><path class="cls-10" d="M616.12,1028.37H556.36l-.07-.42L515.18,782.68l-18-163h96.63L592,778.42Zm-58.92-1H615L591,778.46,592.8,620.7H498.31l17.86,161.85Z"/><polygon class="cls-14" points="254.51 758.42 239.06 1026.9 185.89 1026.9 187.73 856.74 188.78 759.62 181.12 669.62 178.06 633.72 222.69 632.95 247.88 632.52 250 672.84 254.51 758.42"/><path class="cls-14" d="M239.53,1027.4H185.38v-.51l2.89-267.28L177.52,633.23,248.35,632,255,758.42v0Zm-53.13-1h52.19l15.42-268L247.41,633l-68.81,1.18,10.68,125.37Z"/><path d="M593.31,620.2,592.9,657a217.68,217.68,0,0,1-46.44,10.14,193.33,193.33,0,0,1-43.57-.36,165.16,165.16,0,0,1-41.84-10.58l3-43.58h92.3L555,620.2Z"/><polygon class="cls-14" points="223.26 628.8 222.69 632.95 216.96 674.54 201.91 783.91 187.73 856.74 154.91 1025.32 106.18 1026.29 128.58 778.61 134.83 649.23 135.93 626.4 223.26 628.8"/><path class="cls-14" d="M105.63,1026.8l.05-.55,22.4-247.69,7.37-152.67,88.38,2.43L202.41,784l-47.09,241.83Zm30.78-399.89-7.33,151.72-22.35,247.15,47.77-1,46.92-241,21.27-154.53Z"/><path class="cls-3" d="M243.67,484,282.5,534.5l54.21,10.64v39l-63.55-6a25,25,0,0,1-12.12-4.5l-25.43-18Z"/><path class="cls-3" d="M337.21,584.72l-64.1-6.09A25.63,25.63,0,0,1,260.75,574l-25.67-18.19,8.23-73.12,39.47,51.32,54.43,10.68ZM236.14,555.37l25.19,17.85a24.55,24.55,0,0,0,11.88,4.41l63,6V545.55l-54-10.6-.12-.15L244,485.3Z"/><path class="cls-11" d="M490.43,429.41s7.54,17.69,41.25-17.22l57.79,21.26A26.59,26.59,0,0,1,605,453.36l9.11,51.42-31.56,0,14.6,137.45s-42.6,11.31-75.16,12c-53.83,1.2-65.75-8.42-65.75-8.42L458.6,597l.44-111c-.6-15.84,6-27.74,15.36-40.54Z"/><path class="cls-11" d="M512.82,654.83c-45.68,0-56.48-8.27-56.94-8.64l-.2-.16,2.42-49.1.44-111c-.59-15.52,5.75-27.55,15.45-40.84l16.61-16.55.29.67a7.63,7.63,0,0,0,5.69,4c5.46,1,15.94-1.91,34.74-21.38l.23-.23.3.11L589.64,433a27,27,0,0,1,15.8,20.3l9.21,52-31.59,0,14.58,137.32-.41.11c-.43.11-43,11.34-75.28,12.05Q517.17,654.82,512.82,654.83Zm-56.11-9.28c1.77,1.17,15.89,9.28,65.21,8.17,30.44-.67,70.15-10.75,74.64-11.91L582,504.24l31.51,0-9-50.83a26.07,26.07,0,0,0-15.19-19.55l-57.46-21.13c-19,19.6-29.75,22.48-35.44,21.43a8.83,8.83,0,0,1-6.06-4l-15.56,15.51c-9.8,13.44-15.79,24.87-15.21,40.17l-.44,111Z"/><rect class="cls-2" x="296.41" y="481.04" width="159.54" height="124.2"/><rect class="cls-5" x="337.49" y="481.04" width="145.88" height="124.2"/><path class="cls-4" d="M483.88,605.74H337V480.54H483.88Zm-145.89-1H482.88V481.54H338Z"/><polygon class="cls-2" points="433.42 481.04 433.42 512.01 424.33 506.96 417.27 511.67 408.85 506.96 401.11 512.01 401.11 481.04 433.42 481.04"/><rect class="cls-4" x="367.45" y="541.98" width="33.66" height="2"/><rect class="cls-4" x="367.45" y="555.1" width="33.66" height="2"/><rect class="cls-4" x="367.45" y="568.23" width="33.66" height="2"/><rect class="cls-5" x="410.87" y="539.27" width="54.53" height="34"/><path class="cls-4" d="M465.9,573.77H410.37v-35H465.9Zm-54.53-1H464.9v-33H411.37Z"/><path d="M250,672.84a193.09,193.09,0,0,1-33,1.7,173.7,173.7,0,0,1-35.84-4.92,144.48,144.48,0,0,1-46.29-20.39l1.1-22.83,87.33,2.4-.57,4.15,25.19-.43Z"/><path class="cls-12" d="M337.18,609.29A13,13,0,0,1,329,615l-7.95,1.75a72.52,72.52,0,0,1-15.54,1.69H298.6a11.78,11.78,0,0,1-5.74-1.49l-7.36-4.08-7.78-.94-29-3.53V586.1l24.39,3.81,11.3,1.77,24.53-6.83s4.32,8.92-9.06,13.38l13,6.41h21.8A3,3,0,0,1,337.18,609.29Z"/><path class="cls-12" d="M305.52,618.94H298.6a12.36,12.36,0,0,1-6-1.55l-7.28-4-37.14-4.51V585.52l36.16,5.65,24.83-6.91.18.37a8.86,8.86,0,0,1,0,6.88c-1.22,2.89-4,5.17-8.27,6.8L313,604.14h21.68a3.52,3.52,0,0,1,3,5.42,13.35,13.35,0,0,1-3.64,3.81,13.53,13.53,0,0,1-4.84,2.12l-7.95,1.75A73,73,0,0,1,305.52,618.94ZM249.2,608l36.46,4.43,7.44,4.12a11.28,11.28,0,0,0,5.5,1.43h6.92A71.64,71.64,0,0,0,321,616.26l7.95-1.75a12.24,12.24,0,0,0,4.48-2,12.49,12.49,0,0,0,3.38-3.53h0a2.52,2.52,0,0,0-2.13-3.88H312.71l-14.16-7,1.15-.38c4.62-1.54,7.58-3.77,8.79-6.62a8,8,0,0,0,.13-5.69l-24.2,6.74-35.22-5.51Z"/><rect class="cls-2" x="336.33" y="404" width="98.88" height="77.57"/><rect class="cls-3" x="361.8" y="404.59" width="90.42" height="76.98"/><path class="cls-3" d="M452.71,482.07H361.3v-78h91.41Zm-90.41-1h89.41v-76H362.3Z"/><polygon class="cls-2" points="421.25 404.59 421.25 423.79 415.62 420.66 411.24 423.58 406.02 420.66 401.23 423.79 401.23 404.59 421.25 404.59"/><rect class="cls-4" x="380.37" y="441.98" width="20.86" height="2"/><rect class="cls-4" x="380.37" y="450.12" width="20.86" height="2"/><rect class="cls-4" x="380.37" y="458.25" width="20.86" height="2"/><rect class="cls-5" x="407.28" y="440.68" width="33.8" height="21.07"/><path class="cls-4" d="M441.57,462.25H406.78V440.18h34.79Zm-33.79-1h32.79V441.18H407.78Z"/><polygon class="cls-4" points="277.72 611.93 248.7 608.4 248.7 586.1 273.09 589.91 277.72 611.93"/><path class="cls-3" d="M268.93,587.69l-18.27-3.48-3-89.75a20.15,20.15,0,0,0-7.21-14.79l-18.65-15.61s-3.61,22.88-38.53,0l-32.3,11.6a28.68,28.68,0,0,0-18.23,20.41l-20.44,99.14a15.15,15.15,0,0,0,14.34,18.2l9.74.33-4.71,31.6s33.29,14.25,67.5,16.41c39.35,2.5,52.31-6.88,51.75-8.17l-2-33.62,20,.8Z"/><path class="cls-3" d="M212,662.68c-3.93,0-8.2-.13-12.85-.43-33.9-2.15-67.32-16.31-67.65-16.46l-.36-.15.06-.38,4.62-31-9.17-.31a15.65,15.65,0,0,1-14.81-18.81L132.22,496a29.09,29.09,0,0,1,18.55-20.78l32.54-11.68.21.13c13.51,8.86,24.23,12,31,9,5.71-2.52,6.74-8.57,6.75-8.63l.14-.87,19.33,16.18a20.65,20.65,0,0,1,7.39,15.15l3,89.35,18.28,3.49v34l-20-.8,2,33a1,1,0,0,1-.23.85C249.77,656.32,239.27,662.68,212,662.68ZM132.2,645c3.67,1.53,35.12,14.22,67,16.23,37.68,2.39,50.62-6.16,51.23-7.57v-.07l-2-34.17,20.07.8V588.1l-18.25-3.47-3.05-90.16a19.68,19.68,0,0,0-7-14.42l-18-15.08a13,13,0,0,1-7.14,8.55c-7.16,3.17-17.85.18-31.76-8.9l-32.07,11.51a28.12,28.12,0,0,0-17.92,20.05l-20.43,99.13a14.65,14.65,0,0,0,13.87,17.6l10.29.35Z"/><rect class="cls-4" x="192.53" y="560.21" width="1" height="113.56" transform="translate(-434.01 774.34) rotate(-86.71)"/><polygon class="cls-4" points="251.02 584.75 164.65 566.87 172.53 523.94 173.51 524.12 165.81 566.09 251.23 583.77 251.02 584.75"/><path class="cls-12" d="M618.72,568a21.64,21.64,0,0,1-15.13,22.5l-102.2,31.84-9.74,3.39A25.58,25.58,0,0,1,480,626.91l-19.63-2.44a16.73,16.73,0,0,1-3.63-.88l-22.93-8.41a14.78,14.78,0,0,1-7.19-5.66l-.34-.51a2.74,2.74,0,0,1,2.29-4.25h36.75c-10.71-6.82-9.9-12.82-9.9-12.82L478,595l16.55,2,77.91-38-9-44.93-1.84-9.13h51.77l.45,5.31Z"/><path class="cls-12" d="M483.2,627.61a26.64,26.64,0,0,1-3.22-.2L460.35,625a17.63,17.63,0,0,1-3.74-.91l-22.93-8.41a15.16,15.16,0,0,1-7.43-5.85l-.34-.51a3.24,3.24,0,0,1,2.7-5H463.7c-9.4-6.53-8.77-12.14-8.74-12.39l.07-.49,23.06,3.14,16.39,1.94,77.43-37.75L561,504.43h52.84l5.38,63.48a22,22,0,0,1-15.48,23l-102.2,31.84-9.73,3.38A26,26,0,0,1,483.2,627.61Zm-54.59-22.35a2.24,2.24,0,0,0-1.87,3.47l.34.51a14.19,14.19,0,0,0,6.94,5.47L457,623.12a15.74,15.74,0,0,0,3.52.85l19.63,2.44a25.17,25.17,0,0,0,11.39-1.2l9.74-3.39L603.44,590a21,21,0,0,0,14.78-22l-5.3-62.56h-50.7l10.83,53.84-.35.17-78,38-16.7-2-22-3c.11,1.55,1.17,6.42,9.67,11.83l1.45.92Z"/><rect class="cls-4" x="558.75" y="483.21" width="1" height="23.74" transform="translate(-100.11 144.2) rotate(-13.5)"/><polygon class="cls-2" points="613.83 510.24 563.45 514.06 561.61 504.93 613.38 504.93 613.83 510.24"/><rect class="cls-4" x="146" y="1066" width="1277" height="2"/></g></svg>