<svg id="_8" data-name="8" xmlns="http://www.w3.org/2000/svg" xmlns:xlink="http://www.w3.org/1999/xlink" viewBox="0 0 863.85 1195"><defs><style>.cls-1{fill:none;}.cls-2{clip-path:url(#clip-path);}.cls-3{fill:#f6ebda;}.cls-4{fill:#f0f1f6;}.cls-5{fill:#261134;}.cls-12,.cls-6{fill:#2f3030;}.cls-14,.cls-16,.cls-6,.cls-9{stroke:#000;stroke-miterlimit:10;}.cls-7{fill:#e9eaee;}.cls-8{fill:#d8dae6;}.cls-10,.cls-9{fill:#fff;}.cls-11,.cls-14,.cls-16{fill:#fbb755;}.cls-13{fill:#f27b79;}.cls-14{stroke-width:0.5px;}.cls-15{fill:#cdcbcc;}</style><clipPath id="clip-path"><rect class="cls-1" x="-0.07" width="871" height="1200"/></clipPath></defs><g class="cls-2"><g id="Background"><rect class="cls-3" x="-1.07" y="2" width="871" height="1200"/></g><g id="Window"><path class="cls-4" d="M780.14,89.62c-76.85,0-139.37,62.53-139.37,139.38V510.29H919.52V229C919.52,152.15,857,89.62,780.14,89.62ZM901.27,229v1.15h-112V108.21A121.29,121.29,0,0,1,901.27,229Zm-112,19.4h112V359.25h-112ZM771,359.25H659V248.4H771Zm0-251V230.15H659V229A121.29,121.29,0,0,1,771,108.21ZM659,377.5H771V492H659ZM789.27,492V377.5h112V492Z"/><path class="cls-5" d="M920,510.79H640.27V229c0-77.13,62.75-139.88,139.87-139.88S920,151.87,920,229Zm-278.75-1H919V229c0-76.58-62.3-138.88-138.88-138.88S641.27,152.42,641.27,229Zm260.5-17.25h-113V377h113Zm-112-1h111V378h-111Zm-18.25,1h-113V377h113Zm-112-1h111V378h-111ZM901.77,359.75h-113V247.9h113Zm-112-1h111V248.9h-111Zm-18.25,1h-113V247.9h113Zm-112-1h111V248.9h-111Zm242.26-128.1h-113v-123l.53,0A121.78,121.78,0,0,1,901.77,229Zm-112-1h111V229c0-62.59-48.71-115.31-111-120.25Zm-18.25,1h-113V229A121.8,121.8,0,0,1,771,107.71l.54,0Zm-112-1h111V108.75c-62.29,4.94-111,57.66-111,120.25Z"/></g><polygon class="cls-6" points="161.71 938.07 168.03 1066.26 196.02 1066.26 202.34 938.07 161.71 938.07"/><path class="cls-4" d="M1079.43,751.66H1038.7l5.36-98a79.1,79.1,0,0,0-79-83.42H508.81v.45H223a79.1,79.1,0,0,0-79,83.42l5.37,98H108.65a21,21,0,0,0-20.83,23.22l17,156.27a31.54,31.54,0,0,0,31.35,28.13H679.28v-.45h372.65a31.54,31.54,0,0,0,31.35-28.13l17-156.28A21,21,0,0,0,1079.43,751.66Z"/><path class="cls-5" d="M679.78,960.24H136.15a32,32,0,0,1-31.84-28.57l-17-156.28a21.45,21.45,0,0,1,21.33-23.77h40.21l-5.34-97.5a79.6,79.6,0,0,1,79.48-84H508.31v-.45H965.08a79.6,79.6,0,0,1,79.48,83.95l-5.33,97.49h40.2a21.46,21.46,0,0,1,21.33,23.78l-17,156.27a32,32,0,0,1-31.85,28.58H679.78ZM108.65,752.62a20.45,20.45,0,0,0-20.34,22.66l17,156.28a31,31,0,0,0,30.85,27.68H678.78v-.45h373.15a31,31,0,0,0,30.85-27.68l17-156.28a20.46,20.46,0,0,0-20.34-22.67h-41.26l0-.52,5.36-98a78.59,78.59,0,0,0-78.48-82.9H509.31v.45H223a78.61,78.61,0,0,0-78.48,82.9l5.39,98.55Z"/><path class="cls-7" d="M178.87,838.31,167.13,688s-25.28-93.88,259.08-63.19,580.44,201.31,580.44,201.31L992.21,865Z"/><path class="cls-8" d="M178,826.14h828.69l-2.57,44.69a35.89,35.89,0,0,1-35.84,33.84H216.37a35.9,35.9,0,0,1-35.84-33.84Z"/><polygon class="cls-9" points="745.48 591.42 753.6 709.44 672.56 709.44 672.56 591.42 745.48 591.42"/><path class="cls-9" d="M754.13,709.94H672.06v-119H746l0,.47Zm-81.07-1h80l-8-117h-72Z"/><polygon class="cls-6" points="675.74 591.38 681.63 709.44 649.34 709.44 655.7 591.38 675.74 591.38"/><path class="cls-6" d="M682.15,709.94H648.81l6.42-119.06h21l0,.48Zm-32.28-1H681.1l-5.83-117.06H656.18Z"/><path class="cls-5" d="M721.27,625l-.81,0c-16.16-.88-19-14.56-19.34-17.29-.19-1.31-.37-2.55-.53-3.72-1.79-12.69-2.47-16.33-6.66-15.9a6.08,6.08,0,0,0-4.79,3.51l-.93-.37a7,7,0,0,1,5.61-4.13c5.32-.55,6,4.51,7.76,16.75.16,1.17.34,2.41.53,3.72.37,2.59,3,15.6,18.4,16.43a11.46,11.46,0,0,0,8.22-2.57c2.31-2.07,3.59-5.33,3.82-9.68.29-5.57-1.29-19.86-5.68-22.28a3.65,3.65,0,0,0-3.22-.47,4.25,4.25,0,0,0-2.06,2.55l-1-.27a5.29,5.29,0,0,1,2.64-3.21,4.64,4.64,0,0,1,4.09.52c5,2.75,6.48,17.91,6.2,23.21-.24,4.63-1.64,8.12-4.15,10.38A12.13,12.13,0,0,1,721.27,625Z"/><polygon class="cls-9" points="761.47 640.25 700.47 640.25 705.09 709.44 779.12 709.44 761.47 640.25"/><path class="cls-9" d="M779.77,709.94H704.62l-4.68-70.19h61.92Zm-74.22-1h72.93l-17.4-68.19H701Z"/><polygon class="cls-6" points="693.87 640.09 702.62 640.09 719.72 709.44 695.7 709.44 693.87 640.09"/><path class="cls-6" d="M720.36,709.94H695.22l-1.86-70.35H703Zm-24.17-1h22.89l-16.85-68.35h-7.84Z"/><path class="cls-5" d="M741.17,663.81h-.12c-5.43,0-9.41-3.09-12.17-9.36l-5.89-14s-1.77-3.67-4.68-3a4.09,4.09,0,0,0-3.11,3l-1-.22a5.14,5.14,0,0,1,3.88-3.72c3.66-.8,5.72,3.44,5.81,3.62l5.89,14c3.44,7.81,8.07,8.74,11.26,8.76h.11c9.68,0,10-7.43,10.12-11.87,0-.37,0-.71.05-1,.54-10.06-2.59-11.65-3.57-11.89a3.94,3.94,0,0,0-4.91,2.54l-1-.32a5,5,0,0,1,6.11-3.19c1.49.38,4.89,2.38,4.31,12.91,0,.31,0,.65,0,1C752.12,655.47,751.81,663.81,741.17,663.81Z"/><polygon class="cls-10" points="649.35 710.21 648.58 709.57 664.98 689.85 664.98 591.42 665.98 591.42 665.98 690.21 649.35 710.21"/><rect class="cls-10" x="672.84" y="687.02" width="1" height="24.97" transform="translate(-293.13 606.58) rotate(-40.6)"/><polygon class="cls-10" points="696.33 709.25 695.48 708.72 704.41 694.42 698.12 640.14 699.11 640.03 705.45 694.66 696.33 709.25"/><rect class="cls-10" x="711.65" y="691.55" width="1" height="20.43" transform="translate(-287.64 709.11) rotate(-45)"/><rect class="cls-6" x="587.13" y="709.06" width="195.29" height="152.03"/><rect class="cls-11" x="637.42" y="709.06" width="178.57" height="152.03"/><path class="cls-11" d="M816.49,861.59H636.92v-153H816.49Zm-178.57-1H815.49v-151H637.92Z"/><polygon class="cls-6" points="754.84 709.06 754.84 746.97 743.72 740.79 735.07 746.55 724.77 740.79 715.29 746.97 715.29 709.06 754.84 709.06"/><rect class="cls-5" x="674.09" y="783.87" width="41.2" height="2"/><rect class="cls-5" x="674.09" y="799.94" width="41.2" height="2"/><rect class="cls-5" x="674.09" y="816.01" width="41.2" height="2"/><rect class="cls-4" x="727.24" y="780.34" width="66.74" height="41.61"/><path class="cls-5" d="M794.48,822.45H726.74V779.84h67.74Zm-66.74-1h65.74V780.84H727.74Z"/><rect class="cls-5" x="532.97" y="860.59" width="332.2" height="1"/><path class="cls-10" d="M513,442.23H418.58a8.19,8.19,0,0,0-8.19,8.19V519.3a8.19,8.19,0,0,0,8.19,8.19h29l18.19,25.77L484,527.49h29a8.18,8.18,0,0,0,8.18-8.19V450.42A8.19,8.19,0,0,0,513,442.23Z"/><path class="cls-5" d="M465.79,554.13,447.34,528H418.58a8.7,8.7,0,0,1-8.69-8.69V450.42a8.7,8.7,0,0,1,8.69-8.69H513a8.69,8.69,0,0,1,8.68,8.69V519.3A8.69,8.69,0,0,1,513,528H484.24Zm-47.21-111.4a7.7,7.7,0,0,0-7.69,7.69V519.3a7.7,7.7,0,0,0,7.69,7.69h29.27l17.94,25.41L483.72,527H513a7.7,7.7,0,0,0,7.68-7.69V450.42a7.7,7.7,0,0,0-7.68-7.69Z"/><path class="cls-12" d="M492,474l-49-5.27-2-9.15-10.21-3.35a1.6,1.6,0,0,0-2,1h0a1.6,1.6,0,0,0,1,2l8.48,2.78,9.34,42.22h37.09a1.61,1.61,0,1,0,0-3.21H450.16l-1.5-6.76h39.57Z"/><path class="cls-12" d="M484.67,504.77H447.18l-9.37-42.34-8.2-2.69a2.09,2.09,0,0,1-1.34-2.65,2,2,0,0,1,1-1.22,2.06,2.06,0,0,1,1.61-.12l10.48,3.43,2,9.08,49.16,5.29-3.92,21.24H449.28l1.28,5.77h34.11a2.11,2.11,0,1,1,0,4.21Zm-36.69-1h36.69a1.11,1.11,0,1,0,0-2.21H449.75L448,493.79h39.79l3.57-19.36-48.8-5.25-2-9.22-9.94-3.26a1.1,1.1,0,0,0-1.39.7,1.1,1.1,0,0,0,.7,1.39l8.75,2.87Z"/><circle class="cls-12" cx="454.21" cy="513.18" r="4.81"/><path class="cls-12" d="M454.21,518.49a5.31,5.31,0,1,1,5.31-5.31A5.32,5.32,0,0,1,454.21,518.49Zm0-9.62a4.31,4.31,0,1,0,4.31,4.31A4.32,4.32,0,0,0,454.21,508.87Z"/><circle class="cls-12" cx="479.15" cy="513.18" r="4.81"/><path class="cls-12" d="M479.15,518.49a5.31,5.31,0,1,1,5.31-5.31A5.32,5.32,0,0,1,479.15,518.49Zm0-9.62a4.31,4.31,0,1,0,4.31,4.31A4.31,4.31,0,0,0,479.15,508.87Z"/><path class="cls-13" d="M447.06,1065.06H370.5L334,1043.45l11.84-37.12,13.09-41,51.54,18.29-17.55,38-2.4,5.2S427.11,1041.79,447.06,1065.06Z"/><path class="cls-5" d="M448.15,1065.56H370.36l-.12-.06-36.83-21.82,25.21-79,.49.17,52.05,18.48-20,43.24c4.4,1.88,37.68,16.53,56.24,38.18Zm-77.51-1H446c-19.8-22.44-55.26-37.13-55.62-37.27l-.48-.2,19.94-43.2L359.26,966l-24.65,77.27Z"/><path class="cls-6" d="M324.74,541s-17.51-34.59-18.74-51.6l8.59-37.28s1.78-35.82-45.63-28.23c0,0,.66-16.94-10.49-21.14,0,0,5.28,9.63,3,19,0,0-8.61-21.07-26-10.43,0,0-13.47,7-10.21,20.33,0,0-.58,15.06,20.11,15.86,0,0-.72,18.82-46.9,43.41,0,0-38.37,17.36-36.13,57s37,65.5,37,65.5l129.91,3.15Z"/><path class="cls-9" d="M252.22,554l7-65.27s-9.63-5.91-6.93-17.1c0,0,2.6-8.94,11.37-1.82l.61-15.8s31.16,12.51,49.91-4.85c0,0,11.9,62.15-16.07,61.35l4.76,52.16Z"/><path class="cls-9" d="M303.48,563.24l-51.81-8.86,7.07-65.44c-1.57-1.09-9.38-7.13-6.89-17.47.05-.18,1.13-3.76,4.22-4.72,2.07-.65,4.48,0,7.18,2l.6-15.54.66.26c.3.13,31.08,12.19,49.38-4.75l.66-.61.17.89c.33,1.71,7.88,42.08-4.6,56.75A14.36,14.36,0,0,1,298.71,511Zm-50.71-9.69,49.6,8.48L297.61,510l.57,0a13.54,13.54,0,0,0,11.18-4.84c11.18-13.14,5.59-49,4.54-55-17.3,15.13-44.53,6.24-49.11,4.59l-.62,16.11-.78-.64c-2.74-2.22-5.1-3-7-2.45-2.59.81-3.54,4-3.55,4-2.58,10.69,6.62,16.48,6.71,16.54l.27.16Z"/><path class="cls-14" d="M301.3,523.31s-15.6,18.24-48-1.3L215,538.12A35.75,35.75,0,0,0,194,563.46l-26.21,120.4A20.46,20.46,0,0,0,187,708.67l26.09,1-.94,32.5L372.86,712.5,358.13,566.59a36.26,36.26,0,0,0-21-27.28Z"/><path class="cls-14" d="M211.63,742.73l.94-32.62L187,709.17a21,21,0,0,1-19.72-25.42l26.21-120.39a36.29,36.29,0,0,1,21.37-25.7l38.54-16.21.21.13c31.59,19.08,47.17,1.58,47.33,1.41l.24-.29,36.17,16.16a36.68,36.68,0,0,1,21.3,27.65l14.78,146.4ZM253.3,522.57l-38.08,16a35.29,35.29,0,0,0-20.77,25L168.23,684A20,20,0,0,0,187,708.17l26.59,1-.93,32.37L372.32,712.1,357.64,566.64a35.69,35.69,0,0,0-20.72-26.87l-35.5-15.86C299.23,526.14,283.28,540.56,253.3,522.57Z"/><path class="cls-10" d="M305.24,680.8l24.38-1.8,7.39-2.61a22.42,22.42,0,0,1,15.79.32l32.79,13.12,9.93,12.64-92.2,0Z"/><path class="cls-5" d="M396.55,703l-93.78,0,2-22.6.43,0,24.3-1.8,7.33-2.58a22.89,22.89,0,0,1,16.14.33l32.92,13.17Zm-92.68-1,90.62,0-9.21-11.73-32.67-13.06a21.9,21.9,0,0,0-15.44-.32l-7.52,2.64-23.95,1.77Z"/><polygon class="cls-6" points="410.48 983.61 392.93 1021.63 345.85 1006.34 358.94 965.32 410.48 983.61"/><path class="cls-6" d="M513.26,606.78H381.4a7,7,0,0,0-6.9,5.63L354,712.4H500.23l19.93-97.16A7,7,0,0,0,513.26,606.78Z"/><path class="cls-13" d="M625,1023.77,524.7,1061.25l-16-44.58-12.05-33.61,49.39-18.46,12.66,36.58,2.49,7.19S599.18,1009.53,625,1023.77Z"/><path class="cls-5" d="M524.4,1061.9,496,982.77,546.37,964l15.21,43.93c3.88.16,39.34,2,63.64,15.45l.95.52Zm-27.08-78.54L525,1060.61l98.78-36.92c-25.38-13.53-62.2-14.8-62.58-14.81l-.34,0-2.6-7.51-12.5-36.1Z"/><polygon class="cls-6" points="558.73 1001.18 508.73 1016.67 496.68 983.07 546.07 964.61 558.73 1001.18"/><polygon class="cls-6" points="444.95 713.4 301.57 713.4 301.57 702.11 445.1 702.11 444.95 713.4"/><path class="cls-15" d="M375.5,815.29c3.07-22,36.22-58.86,75.55-33.54,16.93,10.9,13.11,50.7,3.06,88.76L411.87,1016l-66.06-12.44S369.34,859.54,375.5,815.29Z"/><path class="cls-5" d="M412.23,1016.54l-67-12.62.08-.48C345.55,1002,368.91,859,375,815.22l.49.07-.49-.07c1.75-12.57,13.14-30.3,30.81-38.41,10.25-4.7,26.46-7.73,45.5,4.52,20.72,13.34,9.19,66.9,3.27,89.31Zm-65.85-13.42,65.14,12.27,42.11-145c5.86-22.19,17.32-75.22-2.85-88.21-18.66-12-34.52-9-44.54-4.45-16.72,7.67-28.51,25.16-30.24,37.64C370.08,857.83,347.89,993.9,346.38,1003.12Z"/><path class="cls-15" d="M567.93,983.21,499.33,1013l-83.5-207.17-26.18,9s-5.34,1.87-14.13,4.63c-35.87,11.23-129.31,37.19-152.87,10.72-29.73-33.38-9.48-103.36-9.48-103.36l264.94-23.92C512,781.91,567.93,983.21,567.93,983.21Z"/><path class="cls-5" d="M499.06,1013.66l-.2-.47L415.54,806.46l-25.73,8.87c-.05,0-5.44,1.9-14.14,4.62-26,8.14-76.45,22.27-113.59,22.27-17.62,0-32.23-3.18-39.81-11.69-29.56-33.2-9.79-103.13-9.58-103.83l.09-.33.34,0,265.31-24,.14.33c33.48,78.12,89.28,278.34,89.84,280.36l.12.42-.4.17ZM416.11,805.2l.18.44,83.31,206.7,67.73-29.42C564.45,972.58,510.52,780,477.8,703.45L213.56,727.31c-1.44,5.23-18.71,70.93,9.46,102.56,23.16,26,114.26,1.06,152.35-10.87,8.68-2.72,14.06-4.6,14.11-4.62Z"/><path class="cls-10" d="M518.67,606.78H386.82a7,7,0,0,0-6.9,5.63l-20.51,100H505.65l19.93-97.16A7.05,7.05,0,0,0,518.67,606.78Z"/><path class="cls-5" d="M506.05,712.9H358.79l20.64-100.59a7.57,7.57,0,0,1,7.39-6H518.67a7.56,7.56,0,0,1,7.4,9.06Zm-146-1H505.24l19.85-96.76a6.55,6.55,0,0,0-6.42-7.86H386.82a6.57,6.57,0,0,0-6.41,5.23Z"/><polygon class="cls-5" points="303.47 713.36 211.34 710.19 211.38 709.19 302.54 712.33 304.71 679.43 225.17 668.58 237.06 624.7 238.02 624.97 226.44 667.75 305.77 678.56 303.47 713.36"/><rect class="cls-5" x="187.44" y="841.89" width="166.55" height="1"/><path class="cls-6" d="M461,659.36c0,5.36-5.34,9.71-10.7,9.71s-8.71-4.35-8.71-9.71a9.71,9.71,0,0,1,19.41,0Z"/><g id="Underline"><rect class="cls-5" x="4.95" y="1065.06" width="1250" height="2"/></g><rect class="cls-15" x="-1.32" y="3.05" width="296.8" height="361.04"/><path class="cls-5" d="M296,364.58H-1.82V2.55H296Zm-296.81-1H295V3.55H-.82Z"/><path class="cls-10" d="M236.79,154.77V35.16h58.7V28.52h-58.7V3.05h-6.65V28.52h-74.2V3.05H149.3V35.16h80.84v113h-74.2V90.28L70.07,3.05H60.74l83.95,85.27H89.84L6.32,3.05H-1.32V4.74L80.53,88.32H-1.32V95H87.05l.78.79V254.57a35.5,35.5,0,0,0-32.24,29.78H-1.32V291H55.2a35.46,35.46,0,0,0,32.08,34.17v38.92h6.64V325.16A35.47,35.47,0,0,0,126,291h27.35l70.78,73.09h9.26l-3.5-3.61,65.59-65.58V285.5l-70.22,70.2-27.6-28.49,53.52-54.8V212.36h44.3v-6.64H155.94V154.77ZM90.6,318.68a28.8,28.8,0,1,1,28.8-28.8A28.82,28.82,0,0,1,90.6,318.68Zm58.7-34.33H125.61a35.5,35.5,0,0,0-31.13-29.68V95H149.3Zm95.24-72v57.35l-51.49,52.72-37.11-38.32V212.36Z"/><circle class="cls-6" cx="220.73" cy="194.09" r="32.12"/><path class="cls-16" d="M257.77,119.24a35.41,35.41,0,1,0-68,13.75h0a34.84,34.84,0,0,0,1.88,3.77L222,198l30.77-60.61A35.64,35.64,0,0,0,255,133h0A35.21,35.21,0,0,0,257.77,119.24Zm-35.06,15a14.1,14.1,0,1,1,14.09-14.1A14.1,14.1,0,0,1,222.71,134.19Z"/><path class="cls-16" d="M222,199.08,191.15,137a35.19,35.19,0,0,1-1.89-3.79,35.91,35.91,0,1,1,66.2,0,36.81,36.81,0,0,1-2.24,4.43Zm.35-114.75A34.84,34.84,0,0,0,192,136.51l30,60.34,30.32-59.73a34.47,34.47,0,0,0,4.93-17.88A35,35,0,0,0,222.36,84.33Zm.35,50.36A14.6,14.6,0,1,1,237.3,120.1,14.62,14.62,0,0,1,222.71,134.69Zm0-28.19a13.6,13.6,0,1,0,13.59,13.6A13.61,13.61,0,0,0,222.71,106.5Z"/></g></svg>