<svg xmlns="http://www.w3.org/2000/svg" viewBox="0 0 863.85 1195"><defs><style>.cls-1{fill:#f6ebda;}.cls-2{fill:#fefefe;}.cls-3{fill:#261134;}.cls-4{fill:#1ba096;}.cls-5{fill:#fbb755;stroke-width:0.5px;}.cls-10,.cls-5,.cls-8,.cls-9{stroke:#000;stroke-miterlimit:10;}.cls-6{fill:#606060;}.cls-7,.cls-9{fill:#fff;}.cls-8{fill:#2f3030;}.cls-10,.cls-11{fill:#cdcbcc;}</style></defs><g id="_5" data-name="5"><g id="Background"><rect class="cls-1" x="0.25" y="3" width="869" height="1202"/></g></g><g id="_4" data-name="4"><circle class="cls-2" cx="490.9" cy="286.17" r="55.63"/><path class="cls-3" d="M490.9,342.3A56.13,56.13,0,1,1,547,286.17,56.19,56.19,0,0,1,490.9,342.3Zm0-111.26A55.13,55.13,0,1,0,546,286.17,55.19,55.19,0,0,0,490.9,231Z"/><path class="cls-4" d="M481.33,313.15l-27.69-26.83a4.93,4.93,0,0,1-.11-7h0a4.91,4.91,0,0,1,7-.11l20.87,20.22,40-38.49a4.9,4.9,0,0,1,6.95.13h0a4.9,4.9,0,0,1-.13,6.95Z"/><path class="cls-3" d="M481.33,313.84l-28-27.16a5.42,5.42,0,0,1,7.54-7.79l20.52,19.89L521,260.62a5.42,5.42,0,1,1,7.52,7.8Zm-24.27-35.47A4.42,4.42,0,0,0,454,286l27.35,26.49,46.48-44.75a4.41,4.41,0,0,0,.11-6.24,4.4,4.4,0,0,0-6.24-.12l-40.33,38.83-21.22-20.56A4.38,4.38,0,0,0,457.06,278.37Z"/><path class="cls-5" d="M574.57,1066.27H501.63s4.61-15.7,36.93-28.62l0-3.57-.29-19.5h34.51l.61,17.22Z"/><path class="cls-6" d="M575.09,1066.77H501l.19-.64c.19-.65,5-16,36.91-28.82l-.35-23.23h35.51Zm-72.73-1h71.69l-1.8-50.69H538.73l.34,22.9-.32.13C510.69,1049.33,503.64,1062.71,502.36,1065.77Z"/><path class="cls-5" d="M669.53,1066.27H596.59s4.61-15.7,36.93-28.62l-.32-2.38-2.79-20.69h34.51l1.61,18Z"/><path class="cls-3" d="M670.08,1066.77H595.92l.19-.64c.19-.65,5-16,36.86-28.8l-3.13-23.25h35.54Zm-72.76-1H669l-4.51-50.69H631l3.09,22.89-.36.14C605.65,1049.33,598.6,1062.71,597.32,1065.77Z"/><path class="cls-5" d="M238.93,1066.27H166l4.67-36.5,1.94-15.19h34.51l-4.14,18.7-1,8.37C235.92,1052,238.93,1066.27,238.93,1066.27Z"/><path class="cls-3" d="M239.55,1066.77H165.42l6.74-52.69h35.57l-4.27,19.3-.91,7.91c33.43,10.35,36.75,24.28,36.87,24.87Zm-73-1h71.69c-1.07-2.8-7.18-14.7-36.39-23.65l-.4-.12,1-8.78,4-18.14H173Z"/><path class="cls-5" d="M322.93,1066.27H250l1.81-35.89.8-15.8h34.51l-.93,19.24-.18,6.83C318.32,1053.57,322.93,1066.27,322.93,1066.27Z"/><path class="cls-3" d="M323.65,1066.77H249.47l2.66-52.69h35.51l-1,19.76-.17,6.47c31.87,12.81,36.7,25.26,36.89,25.79Zm-73.13-1h71.62c-1.5-2.77-8.85-13.68-36.32-24.66l-.33-.13.19-7.18.91-18.72H253.08Z"/><path class="cls-7" d="M517.21,349.81,568,338.41l5.49,19.26a7.2,7.2,0,0,1,4.13-1.63c6,0,7.18,7.18,7.18,7.18,1.74,7.83-3.4,12.62-5.69,16l17.36,55.66-43.12,6.74L549.63,406C512.48,424.83,517.21,349.81,517.21,349.81Z"/><path class="cls-3" d="M552.86,442.16,549.2,406.8c-7.32,3.54-13.58,3.66-18.58.36-16.64-11-14-55.49-13.91-57.38l0-.37,51.56-11.59,5.43,19a7,7,0,0,1,3.84-1.32c6.34,0,7.66,7.52,7.68,7.6,1.5,6.78-2,11.32-4.52,14.63-.41.53-.79,1-1.12,1.5l17.46,56Zm-2.81-36.9L553.74,441l42-6.56L578.51,379.1l.14-.2c.37-.54.81-1.11,1.28-1.73,2.43-3.16,5.75-7.48,4.33-13.84,0-.3-1.2-6.79-6.69-6.79a6.61,6.61,0,0,0-3.83,1.54l-.58.43L567.6,339l-49.91,11.22c-.22,4.4-1.89,46,13.48,56.11,4.83,3.18,11,2.93,18.23-.75Z"/><path class="cls-3" d="M502,328c2.28-.45,8.08,0,11.58,2.9a8.78,8.78,0,0,1-.59-1.19c-5.22-15.56,16.71-4,28.26-1.71,2.4.46,7.65,1.23,7.65,1.23,34.69-7.9,31.21,27.51,31.21,27.51-9.12-1.26-11.82,11.06-11.82,11.06-9.33-4.42-12.22-10.72-12.49-13.44-9,4.09-32.11,11.91-51.18-1.92C491.58,343,496.2,329.17,502,328Z"/><path class="cls-8" d="M300.64,476.32S286.57,450,285.32,437l5.95-28.81s.74-27.58-35.58-20.91c0,0,.2-13-8.44-16.07,0,0,4.23,7.31,2.67,14.53,0,0-7-16.05-20.16-7.56,0,0-10.23,5.63-7.5,15.81,0,0-.18,11.59,15.75,11.84,0,0-.23,14.49-35.31,34.21,0,0-29.2,14-26.78,44.49s29.63,49.72,29.63,49.72l100,.14Z"/><path class="cls-9" d="M245.1,487.58l4.27-50.32s-7.5-4.38-5.63-13c0,0,1.85-6.93,8.71-1.6l.2-12.16s24.18,9.07,38.29-4.61c0,0,10.25,47.58-11.28,47.46l4.58,40Z"/><path class="cls-9" d="M284.81,493.94,244.56,488l4.29-50.49c-1.37-.92-7.32-5.44-5.6-13.39,0-.14.82-3,3.24-3.79,1.57-.53,3.41-.08,5.48,1.32l.19-11.9.66.25c.24.09,24.05,8.8,37.78-4.5l.64-.63.19.88c.29,1.32,6.82,32.28-2.56,43.83a11.15,11.15,0,0,1-8.65,4.23Zm-39.17-6.79,38,5.61-4.57-39.94h.57a10.21,10.21,0,0,0,8.42-3.87c8.22-10.12,3.54-36.93,2.54-42.11-12.92,11.63-33.54,5.63-37.49,4.32l-.2,12.47-.79-.61c-2.11-1.64-3.91-2.23-5.33-1.75-1.91.65-2.59,3.06-2.6,3.09-1.76,8.16,5.11,12.29,5.4,12.47l.28.15,0,.32Z"/><polygon class="cls-8" points="573.34 1031.8 538.51 1034.08 538.22 1014.58 572.73 1014.58 573.34 1031.8"/><polygon class="cls-8" points="666.53 1032.58 633.2 1035.27 630.41 1014.58 664.92 1014.58 666.53 1032.58"/><polygon class="cls-8" points="616.8 612.17 615.42 619.74 606.88 666.69 584.94 787.25 583.61 827.02 576.96 1026.44 518.72 1026.44 512.26 788.46 521.47 655.75 524.5 612.17 616.8 612.17"/><path class="cls-3" d="M577.45,1026.94H518.24l0-.49-6.46-238L524,611.67H617.4l-32,175.67Zm-58.24-1h57.27l8-238.71L616.2,612.67H525L512.76,788.49Z"/><polygon class="cls-8" points="207.11 1014.58 202.97 1033.28 170.66 1029.77 172.6 1014.58 207.11 1014.58"/><polygon class="cls-8" points="287.11 1014.58 286.18 1033.82 251.8 1030.38 252.6 1014.58 287.11 1014.58"/><polygon class="cls-8" points="675.99 1027.41 617.2 1027.41 583.61 827.02 576.09 782.14 563.31 666.33 558.17 619.74 653.73 619.74 653.32 656.55 651.96 777.95 675.99 1027.41"/><path class="cls-3" d="M676.54,1027.91H616.78l-.07-.42L575.6,782.22l-18-163h96.63L652.46,778Zm-58.91-1h57.81L651.46,778l1.77-157.75h-94.5l17.86,161.84Z"/><polygon class="cls-10" points="313.93 754.96 298.48 1023.44 245.31 1023.44 247.15 853.28 248.2 756.16 240.54 666.16 237.48 630.26 282.11 629.49 307.3 629.06 309.42 669.38 313.93 754.96"/><path class="cls-8" d="M653.73,619.74l-.41,36.81a217.68,217.68,0,0,1-46.44,10.14,193.33,193.33,0,0,1-43.57-.36,165.16,165.16,0,0,1-41.84-10.58l3-43.58h92.3l-1.38,7.57Z"/><polygon class="cls-11" points="283.68 628.34 283.11 632.49 277.38 674.08 262.33 783.45 248.15 856.28 215.33 1024.86 166.6 1025.83 189 778.15 195.25 648.77 196.35 625.94 283.68 628.34"/><path class="cls-3" d="M166.05,1026.34l0-.56L188.5,778.1l7.38-152.68,88.37,2.43L262.83,783.52l-47.08,241.83Zm30.78-399.89L189.5,778.17l-22.35,247.15,47.77-1,46.92-241,21.27-154.53Z"/><path class="cls-5" d="M304.09,483.55,342.92,534l54.21,10.64v39l-63.55-6a25.19,25.19,0,0,1-12.12-4.5l-25.43-18Z"/><path class="cls-3" d="M397.63,584.25l-64.1-6.08a25.55,25.55,0,0,1-12.35-4.59l-25.68-18.2,8.23-73.11,39.47,51.31,54.43,10.69ZM296.56,554.91l25.19,17.85a24.55,24.55,0,0,0,11.88,4.41l63,6V545.09l-54-10.6-.11-.15-38.08-49.5Z"/><path class="cls-5" d="M550.85,428.94s7.54,17.7,41.25-17.21L649.89,433a26.63,26.63,0,0,1,15.48,19.92l9.11,51.42-31.55-.05,14.59,137.45s-42.6,11.32-75.16,12c-53.83,1.19-65.74-8.43-65.74-8.43l2.4-48.84.44-111c-.6-15.85,6-27.74,15.36-40.55Z"/><path class="cls-3" d="M573.24,654.36c-45.68,0-56.48-8.26-56.94-8.64l-.2-.16,2.43-49.1.43-111c-.59-15.52,5.75-27.55,15.45-40.84L551,428.07l.29.68a7.63,7.63,0,0,0,5.7,4c5.45,1,15.93-1.91,34.73-21.38l.23-.23.3.11,57.8,21.25a27,27,0,0,1,15.79,20.3l9.21,52-31.59-.05L658.06,642.1l-.41.11c-.43.11-43,11.33-75.28,12Q577.58,654.37,573.24,654.36Zm-56.11-9.28c1.78,1.18,15.9,9.28,65.22,8.18,30.43-.68,70.15-10.75,74.63-11.91L642.37,503.77l31.51.05-9-50.84a26.05,26.05,0,0,0-15.19-19.54l-57.46-21.13c-19,19.6-29.75,22.48-35.43,21.43a8.87,8.87,0,0,1-6.07-4l-15.56,15.51c-9.8,13.43-15.79,24.87-15.21,40.17l-.44,111Z"/><rect class="cls-8" x="356.83" y="480.58" width="159.54" height="124.2"/><rect class="cls-2" x="397.92" y="480.58" width="145.88" height="124.2"/><path class="cls-3" d="M544.3,605.28H397.42V480.08H544.3Zm-145.88-1H543.3V481.08H398.42Z"/><polygon class="cls-3" points="493.85 480.58 493.85 511.55 484.76 506.5 477.69 511.21 469.27 506.5 461.53 511.55 461.53 480.58 493.85 480.58"/><rect class="cls-3" x="427.87" y="541.51" width="33.66" height="2"/><rect class="cls-3" x="427.87" y="554.64" width="33.66" height="2"/><rect class="cls-3" x="427.87" y="567.77" width="33.66" height="2"/><rect class="cls-2" x="471.29" y="538.81" width="54.53" height="34"/><path class="cls-3" d="M526.32,573.31H470.79v-35h55.53Zm-54.53-1h53.53v-33H471.79Z"/><path class="cls-8" d="M310.42,672.38a193.09,193.09,0,0,1-33,1.7,173.7,173.7,0,0,1-35.84-4.92,144.48,144.48,0,0,1-46.29-20.39l1.1-22.83,87.33,2.4-.57,4.15,25.19-.43Z"/><path class="cls-9" d="M397.6,608.83a13,13,0,0,1-8.17,5.71l-7.95,1.75A72.52,72.52,0,0,1,365.94,618H359a11.78,11.78,0,0,1-5.74-1.49l-7.36-4.08-7.78-.94-29-3.53v-22.3l24.39,3.81,11.3,1.77,24.53-6.83s4.32,8.92-9.06,13.38l13,6.41h21.8A3,3,0,0,1,397.6,608.83Z"/><rect class="cls-8" x="396.75" y="404.13" width="98.88" height="76.98"/><rect class="cls-5" x="422.22" y="404.13" width="90.42" height="76.98"/><path class="cls-5" d="M513.14,481.61H421.72v-78h91.42Zm-90.42-1h89.42v-76H422.72Z"/><polygon class="cls-3" points="481.68 404.13 481.68 423.32 476.04 420.19 471.66 423.11 466.45 420.19 461.65 423.32 461.65 404.13 481.68 404.13"/><rect class="cls-3" x="440.79" y="441.52" width="20.86" height="2"/><rect class="cls-3" x="440.79" y="449.65" width="20.86" height="2"/><rect class="cls-3" x="440.79" y="457.79" width="20.86" height="2"/><rect class="cls-2" x="467.7" y="440.22" width="33.8" height="21.07"/><path class="cls-3" d="M502,461.79H467.2V439.72H502Zm-33.79-1H501V440.72H468.2Z"/><polygon class="cls-8" points="338.14 611.47 309.12 607.94 309.12 585.64 333.51 589.45 338.14 611.47"/><path class="cls-5" d="M329.35,587.23l-18.27-3.48-3-89.76a20.17,20.17,0,0,0-7.22-14.78L282.19,463.6s-3.61,22.87-38.53,0l-32.3,11.59a28.68,28.68,0,0,0-18.23,20.41L172.7,594.74A15.16,15.16,0,0,0,187,613l9.73.32-4.7,31.6s33.28,14.25,67.49,16.42c39.35,2.49,52.32-6.88,51.76-8.17l-2-33.63,20,.8Z"/><path class="cls-3" d="M272.37,662.21c-3.93,0-8.2-.13-12.84-.42-33.91-2.15-67.33-16.32-67.66-16.46l-.36-.15.06-.38,4.62-31-9.17-.3a15.65,15.65,0,0,1-14.81-18.81l20.43-99.14a29.12,29.12,0,0,1,18.56-20.78L243.73,463l.21.14c13.51,8.85,24.24,12,31,9,5.7-2.53,6.74-8.57,6.75-8.63l.14-.87,19.32,16.17a20.72,20.72,0,0,1,7.4,15.16l3,89.35,18.28,3.48v34l-20-.8,2,33a1,1,0,0,1-.22.84C310.19,655.86,299.7,662.21,272.37,662.21Zm-79.75-17.65c3.68,1.53,35.12,14.21,67,16.23,37.68,2.39,50.62-6.16,51.23-7.57v-.07l-2-34.18,20.06.8V587.64l-18.25-3.48-3-90.15a19.67,19.67,0,0,0-7-14.42l-18-15.08a13,13,0,0,1-7.14,8.54c-7.16,3.18-17.84.18-31.76-8.9l-32.07,11.51a28.12,28.12,0,0,0-17.91,20.06l-20.43,99.12a14.66,14.66,0,0,0,13.86,17.61l10.3.34Z"/><rect class="cls-3" x="252.95" y="559.75" width="1" height="113.56" transform="translate(-376.59 834.23) rotate(-86.71)"/><polygon class="cls-3" points="311.45 584.28 225.07 566.4 232.95 523.48 233.94 523.66 226.23 565.62 311.65 583.3 311.45 584.28"/><path class="cls-7" d="M679.14,567.49A21.64,21.64,0,0,1,664,590l-102.2,31.84-9.74,3.39a25.58,25.58,0,0,1-11.61,1.23L520.83,624a16.73,16.73,0,0,1-3.63-.88l-22.93-8.41a14.78,14.78,0,0,1-7.19-5.66l-.33-.51A2.74,2.74,0,0,1,489,604.3h36.75c-10.71-6.82-9.9-12.82-9.9-12.82l22.56,3.08,16.55,2,77.91-38-9-44.93L622,504.47H673.8l.45,5.31Z"/><path class="cls-3" d="M543.62,627.14a24.86,24.86,0,0,1-3.22-.2l-19.63-2.44a17.61,17.61,0,0,1-3.74-.9l-22.93-8.41a15.18,15.18,0,0,1-7.43-5.86l-.34-.51a3.23,3.23,0,0,1,2.7-5h35.1c-9.41-6.53-8.78-12.14-8.74-12.39l.06-.5,23.06,3.15,16.4,1.93,77.43-37.74L621.42,504h52.84l5.38,63.48a22,22,0,0,1-15.48,23L562,622.3l-9.72,3.39A26.31,26.31,0,0,1,543.62,627.14ZM489,604.8a2.24,2.24,0,0,0-1.87,3.47l.34.51a14.19,14.19,0,0,0,6.94,5.47l22.93,8.41a16.4,16.4,0,0,0,3.53.85L540.52,626a25.17,25.17,0,0,0,11.39-1.21l9.74-3.39,102.21-31.84a21,21,0,0,0,14.79-22L673.34,505h-50.7l10.83,53.84-.35.17-78,38-16.7-2-22-3c.11,1.54,1.18,6.42,9.67,11.82l1.45.93Z"/><rect class="cls-3" x="619.17" y="482.75" width="1" height="23.74" transform="translate(-98.33 158.29) rotate(-13.5)"/><polygon class="cls-3" points="674.25 509.78 623.87 513.6 622.03 504.47 673.8 504.47 674.25 509.78"/><g id="Underline"><rect class="cls-3" x="-0.75" y="1066.4" width="870" height="1.14"/></g></g></svg>