<svg xmlns="http://www.w3.org/2000/svg" viewBox="0 0 1600 1200"><defs><style>.cls-1,.cls-13{fill:none;}.cls-1,.cls-11,.cls-3,.cls-6{stroke:#2f3030;}.cls-1,.cls-11,.cls-13,.cls-2,.cls-3,.cls-6,.cls-7,.cls-8{stroke-miterlimit:10;}.cls-2,.cls-4{fill:#2f3030;}.cls-12,.cls-2,.cls-7{stroke:#000;}.cls-3{fill:#d1d5db;}.cls-11,.cls-12,.cls-5,.cls-8,.cls-9{fill:#fff;}.cls-13,.cls-8,.cls-9{stroke:#fbb755;stroke-width:10px;}.cls-12,.cls-9{stroke-linecap:round;stroke-linejoin:round;}.cls-10{fill:#fbb755;}</style></defs><g id="_4" data-name="4"><path class="cls-1" d="M652.9,656.89l6.75-1.56a1.15,1.15,0,0,0,.84-.71l.54-1.49a1.18,1.18,0,0,1,1.31-.73l17,2.47a1.06,1.06,0,0,1,.65,1.85A40.62,40.62,0,0,1,666.67,665c-3.25,1.12-8.06,3.24-10.37,4.28a1.21,1.21,0,0,1-1.68-.73L652,658.19A1.09,1.09,0,0,1,652.9,656.89Z"/><path class="cls-2" d="M145.47,876.77c2.46-5.61,4.9-11.23,7.4-16.82,13.89-31.16,27-62.7,44.47-92.12a352,352,0,0,1,20.47-30.93c11-14.72,27-23,42.73-31.41,19.54-10.43,40.59-17.12,61.5-24.12,21.55-7.21,21.33-7.41,28.94-28.8,15-42.1,35.35-81.44,62.43-117.06,11.36-15,24.44-28.39,40.63-38.38,7.94-4.89,16.36-8.43,25.76-9.25a21.36,21.36,0,0,0,2.62-.65c-9.8-4.9-11.26-13.43-11.67-22.51-.2-4.33-.53-8.66-.83-13.46l17,3.08c3.47.63,6.51.27,8.89-2.87,5.83-7.71,3.16-14.72-6.49-15.65-6.25-.6-12.61-.11-18.81-.11-1.68-8.35,5.83-20.19,14.07-22.9,13.5-4.43,26.8,3.62,29,17.62,4.76,30.13,9.45,60.27,14.26,90.39,1.43,8.92,3.57,17.75,4.65,26.71.67,5.63,0,11.43-.15,17.15-.11,3.7-2.24,7.54,1.57,10.84.73.62.19,2.89,0,4.36-.65,4.79-1.47,9.55-2.12,14.34-1.18,8.59.48,16.56,5.77,23.54,3.11,4.1,11.48,8.17,13.9,11.12-6.07-2.81-18.7-6.53-26.33-10.06l-.74,1.48c9.71,6.2,18.42,14.08,30.37,16.44,22.67,4.48,45.29,9.19,68,13.73,8.87,1.78,17.8,3.26,26.66,5.1a4.37,4.37,0,0,1,2.57,2.82c1.11,4.21,1.87,8.52,2.87,13.34-2.18.41-4.62,1-7.09,1.3-35.23,4.46-70.48,8.75-106.09,7.67-13.32-.4-26.94-1-38.41-8.64-7.19-4.78-13.15-11.4-19.62-17.25a30.73,30.73,0,0,1-2.73-3.25c-7.5,9.2-14.46,18.31-22.05,26.85-4.79,5.38-6.2,10.8-5.55,18,1.83,20.45-4.5,38.06-20.32,51.88-1.48,1.3-2.13,4.21-2.18,6.4-.38,18.72,0,37.48-.94,56.17-.8,16-3,31.86-4.72,47.77-.27,2.54-.31,4.33,2.81,5,17,3.65,29.6,13.94,39.85,27.36,13.1,17.16,25.87,34.58,38.93,51.77,2.35,3.1,2.3,5.44-.14,8.39-5.81,7-6,7.19-13.56,2.4-24-15.2-48.1-30.16-71.77-45.79a192.12,192.12,0,0,1-26.88-21.44,82.06,82.06,0,0,1-16.21-21c-10.67-20.66-20.5-41.76-30.08-63-5-11-8.77-22.5-12.88-33.85-.92-2.54-2-3.18-4.59-2.7q-31.19,5.75-62.42,11.25c-3.39.6-6.89.54-11.2.85-.63,1.88-1.48,4.89-2.61,7.78-7.46,19.17-19.28,35.53-33.13,50.45a316.18,316.18,0,0,1-56.92,48.22,9.83,9.83,0,0,1-1.09.62c-6.2-2.9-4.76-2.17-10.76-5.17Z"/><path class="cls-2" d="M995.5,792.88c-5-2-12-11-12-11l14.86-19.2c13.75-18,26.94-36.4,41.07-54.07,8.69-10.88,18.6-20.8,28.18-31,6-6.31,12.08-12.48,18.51-18.28,17.43-15.75,38.45-19.69,61.14-18.26,25.34,1.58,49.8,7.56,74.17,14.11.86.24,1.73.44,3.33.84a27.75,27.75,0,0,0-.66-5c-3.27-9.88-6.75-19.7-9.94-29.61-.88-2.72-2.25-3.18-4.93-3.2-33.22-.18-66.43-.55-99.64-.83-2.59,0-4.36-.7-4.69-3.64a13.52,13.52,0,0,0-1.31-3.36c-2.19-5.32-1.9-6,3.49-7.51,8.88-2.44,17.78-4.79,26.66-7.22a5.07,5.07,0,0,0,3.06-2.11l-38.67-5.54,0-.48c1.46,0,2.92.06,4.38,0s3.26.17,4.41-.53,1.7-3.94,1.61-5.16c-.22-3.08,0-2,0-7.34,21.71-4.42,44.34-9,67-13.67,6.06-1.24,12.09-2.65,18.16-3.89,2.74-.55,3.43-1.87,3.24-4.75-1.46-22.6,2.58-43.87,15.54-63,1.82-2.69,2.89-5.94,4-9s.14-4.7-3.53-4.74a100.35,100.35,0,0,1-13.07-1.12c-6.29-.87-10.57-4.23-11.87-10.72-1-4.83-1.84-9.68-2.81-14.8,5.81,0,11.49-.06,17.17,0,6.11.08,10.55-3.33,10.79-8.45a9.81,9.81,0,0,0-10.08-10c-4.49,0-9,1-13.46,1.58-2,.25-4.09.46-6.06.67-2.1-9.45,1.6-18.2,9.41-23,9.42-5.76,16.77-5.56,24.57,1a26,26,0,0,1,5.68,6.39c14.42,24,34.55,42.13,58,56.84,19.66,12.32,35.24,28.44,44.89,49.7,5.55,12.22,5.92,25.53,6.21,38.67.67,31-.94,61.89-3.78,92.75-1,11.12-1.12,22.33-1.34,33.5-.34,17-3.35,33.35-12.2,48.17-3,5.06-3.18,10.31-3,16.08.49,16.59.86,33.23,0,49.8-.89,17.77-3.23,35.46-4.9,53.19-.68,7.13-.64,7.11,6.18,8.84,12.64,3.21,23,10.41,30.94,20.29,14.69,18.21,28.64,37,42.88,55.58,2,2.6,1.45,1.77,3.39,4.41l2.58,3.41L1383.6,961c-2.1-1.85-3.76-4.31-6.08-5.79-23.53-15-47.31-29.63-70.7-44.86-14.56-9.49-28.83-19.76-39.44-33.68-6.41-8.42-11.51-18.1-15.84-27.81-13-29.22-25.75-58.58-37.78-88.22-4-9.79-9.63-15.7-19.46-20-24.31-10.63-48-22.72-71.92-34.22-1.32-.64-2.64-1.26-4-1.88-13.13,24.68-34.22,40.73-56.33,55.69-17.61,11.92-36.95,20.43-56.63,28.26Zm197.79-331.83c1.34-1.87,2.51-2.89,2.72-4.08.1-.52-1.74-1.4-2.7-2.11-.69.93-1.77,1.8-2,2.82C1191.23,458.43,1192.28,459.39,1193.29,461.05Z"/><path class="cls-3" d="M136,992.13c-1.47.43-2.94,1.22-4.42,1.23-5.4.06-10.83,0-16.2-.33-1.34-.08-2.51-1.24-3.76-1.9,1.31-.55,2.59-1.53,3.93-1.56,4.94-.11,9.92,0,14.85.25,1.89.11,3.67,1,5.5,1.47Z"/><path class="cls-3" d="M963.49,986.66c2.49.47,5.45.87,8.3,1.69a3.39,3.39,0,0,1,1.93,2.59c-.05.8-1.39,2-2.33,2.19a29.6,29.6,0,0,1-6.65.57,54.82,54.82,0,0,1-8.5-.64c-1.24-.22-2.32-1.36-3.47-2.08.87-1.1,1.55-2.82,2.65-3.16C957.81,987.08,960.42,987.05,963.49,986.66Z"/><path class="cls-4" d="M1196.92,438.65c-2,1.16-3.09,2.31-4.17,2.28-.77,0-1.51-1.61-2.26-2.5,1.1-.78,2.11-1.84,3.34-2.21C1194.36,436.07,1195.32,437.35,1196.92,438.65Z"/><path class="cls-4" d="M474.37,441.76l6.22.45.7,1.08L477,445.5Z"/><path class="cls-5" d="M1192.6,461.05c-.65-1.66-1.33-2.62-1.24-3.37a9.2,9.2,0,0,1,1.25-2.82c.61.71,1.79,1.59,1.73,2.11C1194.2,458.16,1193.46,459.18,1192.6,461.05Z"/><path d="M440.5,560.88s17,62,33,81,2.41,9.68,2.41,9.68L464.5,662.88S416.5,650.88,440.5,560.88Z"/><path d="M331.5,762.88s50-4,86-10c0,0-8,28-33,34-5.55,1.33-21.11,1.86-32.12,1.19-11.38-.69-13.43-4.6-15.86-11.3Z"/><path class="cls-6" d="M527.61,574.63s-4.11,15.25-12.11,25.25,3.93,20.42,3.93,20.42l98.07,18.58,4-17S530.72,575.39,527.61,574.63Z"/><path class="cls-7" d="M134.5,891.88l-15,18s0,14,15,5l16-16-3-5S138.5,904.88,134.5,891.88Z"/><path d="M1206.55,748l17.36,38.81a91.9,91.9,0,0,0,39.09-.39c10.45-2.43,20.85-4.85,29.5-13.5,8.33-8.33,17-31,17-31h0S1281.61,766,1206.55,748Z"/><path d="M1213.5,618.88s15,0,40-9,39-57,39-57,1,48-4,53-6.61,31.89-67,38Z"/><polygon points="1107 589.38 1108.61 574.54 1195 557.38 1205 578.88 1138.58 593.6 1107 589.38"/><path d="M976.9,789.38s-5.29,3.88,9.17,10.31a1.53,1.53,0,0,1,.39,2.57l-15,12.89a1.48,1.48,0,0,1-.43.27c-1.95.78-15.15,5.67-14.12-6.56a1.55,1.55,0,0,1,.48-1Z"/><ellipse class="cls-3" cx="467.5" cy="983.38" rx="200" ry="7.5"/><line class="cls-8" x1="560.26" y1="345.66" x2="1104" y2="435.38"/><line class="cls-9" x1="1041" y1="361.38" x2="1071" y2="400.38"/><line class="cls-9" x1="1078" y1="366.38" x2="1035" y2="397.38"/><path class="cls-10" d="M707.42,564.34q-5.92-.95-8.76-4.79t-1.84-10.08l2.48-15.69-48.79-7.73q-6.13-1-9.37-4.16t-2.35-8.82a17.73,17.73,0,0,1,2.8-6.77,64.83,64.83,0,0,1,7.62-9.1L716,425.94a22.13,22.13,0,0,1,7.15-5.46,13.83,13.83,0,0,1,8-1,12.16,12.16,0,0,1,8,4.46Q742,427.6,741,434.23l-13,82.24,9.68,1.54q5.73.9,8.16,4.07t1.61,8.4c-.55,3.48-1.93,6-4.12,7.49s-5.21,1.95-9,1.35l-9.68-1.53-2.48,15.68q-1,6.24-4.87,9T707.42,564.34Zm-4.74-51.87,9.93-62.74,5.73.91L660.7,512.83l1.09-6.84Zm98.51,67.13q-15-2.39-25.09-10.36a43.61,43.61,0,0,1-14.37-20.52q-4.29-12.54-1.81-28.22a61.67,61.67,0,0,1,6.82-20.66,46.08,46.08,0,0,1,12.52-14.51,43.67,43.67,0,0,1,17.23-7.78,56.79,56.79,0,0,1,20.91-.3q15,2.38,25.08,10.37A43.77,43.77,0,0,1,856.87,508q4.3,12.44,1.82,28.12a62.41,62.41,0,0,1-6.83,20.76,45.9,45.9,0,0,1-12.54,14.61,43.53,43.53,0,0,1-17.23,7.78A56.53,56.53,0,0,1,801.19,579.6Zm3-19.1a23.2,23.2,0,0,0,13.41-1.59,23.76,23.76,0,0,0,10.3-9.4q4.19-6.64,5.88-17.31,2.55-16.08-2.91-25.09t-16.52-10.75a23.65,23.65,0,0,0-13.4,1.48,23.1,23.1,0,0,0-10.28,9.3q-4.2,6.64-5.88,17.31-2.52,15.88,2.91,25.09T804.21,560.5Zm135.51,40.63q-5.93-.95-8.76-4.79t-1.84-10.08l2.48-15.69-48.79-7.72c-4.08-.65-7.21-2-9.36-4.17s-3-5.07-2.35-8.82a17.92,17.92,0,0,1,2.79-6.77,64.83,64.83,0,0,1,7.62-9.1l66.77-71.25a21.89,21.89,0,0,1,7.14-5.47,13.83,13.83,0,0,1,8.05-1,12.13,12.13,0,0,1,8,4.46c1.91,2.44,2.52,5.86,1.82,10.29l-13,82.23,9.68,1.54q5.73.9,8.16,4.07c1.63,2.11,2.16,4.91,1.61,8.4s-1.93,6-4.12,7.49-5.21,2-9,1.35l-9.68-1.53-2.49,15.68q-1,6.24-4.87,9T939.72,601.13ZM935,549.26l9.93-62.73,5.73.9L893,549.62l1.09-6.84Z"/><ellipse class="cls-3" cx="1223.5" cy="985.38" rx="200" ry="7.5"/><path d="M1386.82,964.86s9-7,9-14c0,0,7,5,7,11s-7,19-7,19-14,3-17,2-2.29-7.28,4.36-7.14Z"/><path class="cls-5" d="M639.33,639.44l-.17,0-21-3.51c-.46-.27-.33-1.65.32-3.34l3-10,3,3.4a1.76,1.76,0,0,0,.53.4l11.69,5.7a.71.71,0,0,1,.31.31l3,6.08a.67.67,0,0,1,0,.66A.69.69,0,0,1,639.33,639.44Z"/><path class="cls-4" d="M622.06,622.1h0m-.37,1.46,2.4,2.73a2.32,2.32,0,0,0,.68.52l11.69,5.7a.15.15,0,0,1,.08.08l3,6.08a.17.17,0,0,1,0,.18.18.18,0,0,1-.15.09h-.05l-.08,0-20.79-3.47a5.53,5.53,0,0,1,.52-2.7l0-.07,2.73-9.11m-.45-1.91c-.12,0-.16.22-.24.73l-3,10c-.21.54-1.29,3.46,0,4l21,3.52a1.55,1.55,0,0,0,.29,0,1.19,1.19,0,0,0,1.06-1.71l-2.95-6.08a1.15,1.15,0,0,0-.55-.54l-11.68-5.7a1.29,1.29,0,0,1-.37-.28l-3-3.4c-.32-.37-.5-.58-.6-.58Z"/><path class="cls-11" d="M1107.29,574.1l-9-5.78a2.83,2.83,0,0,0-1.51-.44h-5.62a2.57,2.57,0,0,0-2.61,2.1l-2.52,17.9a2.52,2.52,0,0,0,2.87,2.7l16.33-1.5a2.52,2.52,0,0,0,2.36-2.22l.82-10.61A2.35,2.35,0,0,0,1107.29,574.1Z"/><path class="cls-11" d="M1102.83,605.29l4.46,10.87a1.1,1.1,0,0,1-1.13,1.52c-2.69-.29-7.5-.8-8.72-.8s-11.8,5-16.1,7.1a1.1,1.1,0,0,1-1.57-1.14l2.23-16.9a1.1,1.1,0,0,1,1.18-1,57,57,0,0,0,12.15-.1c4.12-.65,6-.45,6.78-.24A1.09,1.09,0,0,1,1102.83,605.29Z"/><path class="cls-10" d="M622.8,608.77a3.07,3.07,0,0,1-2.11-1.15,3.24,3.24,0,0,1-.41-2.44l4.38-27.61a3.23,3.23,0,0,1,1.14-2.2,3,3,0,0,1,2.31-.44,3,3,0,0,1,2.11,1.14,3.22,3.22,0,0,1,.4,2.45l-.61,3.85-.3-1.57a7.3,7.3,0,0,1,3.63-3.57,9.2,9.2,0,0,1,5.51-.7,10,10,0,0,1,5.21,2.39,10.3,10.3,0,0,1,3,4.91,15.8,15.8,0,0,1,.25,6.89,16.18,16.18,0,0,1-2.37,6.49,10.29,10.29,0,0,1-4.33,3.79,9.84,9.84,0,0,1-5.72.67,9.23,9.23,0,0,1-5-2.33,7.43,7.43,0,0,1-2.38-4.41l.58.1-1.76,11.11a2.83,2.83,0,0,1-3.55,2.63Zm11.11-12.06a5.55,5.55,0,0,0,5.82-2.7,11.28,11.28,0,0,0,1.45-4.25c.41-2.64.18-4.69-.72-6.17a5.5,5.5,0,0,0-4.05-2.64,5.79,5.79,0,0,0-3.3.37,5.69,5.69,0,0,0-2.52,2.28,11.11,11.11,0,0,0-1.44,4.25c-.42,2.6-.18,4.66.71,6.16A5.46,5.46,0,0,0,633.91,596.71Zm24.19,8.64a10.37,10.37,0,0,1-4.42-1.74,8.09,8.09,0,0,1-2.72-3.24,7,7,0,0,1-.52-4.08,6.26,6.26,0,0,1,2-4,8.1,8.1,0,0,1,4.77-1.55,38.52,38.52,0,0,1,8.3.61l2.43.38-.56,3.56L665,594.9a30.61,30.61,0,0,0-4.85-.46,4.83,4.83,0,0,0-2.71.61,2.68,2.68,0,0,0-1.07,1.88,3.51,3.51,0,0,0,.7,2.84A4.42,4.42,0,0,0,660,601.3a5.34,5.34,0,0,0,3-.32,5.67,5.67,0,0,0,2.3-1.78,6.46,6.46,0,0,0,1.21-3l.9-5.68a4,4,0,0,0-3.93-5.38,15.21,15.21,0,0,0-3.08-.14,16.23,16.23,0,0,0-3.61.65,2.34,2.34,0,0,1-1.66,0,1.91,1.91,0,0,1-1-1,2.55,2.55,0,0,1-.17-1.42,3.08,3.08,0,0,1,.62-1.4,2.39,2.39,0,0,1,1.48-.85,21.33,21.33,0,0,1,4.5-.65,19.91,19.91,0,0,1,3.82.2,13.35,13.35,0,0,1,5.58,2,7.21,7.21,0,0,1,2.85,3.81,12.6,12.6,0,0,1,.22,5.83l-1.87,11.86a3.51,3.51,0,0,1-1.1,2.23,2.69,2.69,0,0,1-2.22.48,2.75,2.75,0,0,1-2-1.15,3.35,3.35,0,0,1-.38-2.46l.38-2.37.38.06a7.05,7.05,0,0,1-1.8,2.78,6.87,6.87,0,0,1-2.81,1.55A8.4,8.4,0,0,1,658.1,605.35ZM686.49,619a26,26,0,0,1-5-1.29,16.87,16.87,0,0,1-4.19-2.24,2.57,2.57,0,0,1-1-1.38,2.36,2.36,0,0,1,0-1.44,2.5,2.5,0,0,1,.78-1.16,2.2,2.2,0,0,1,1.26-.56,1.82,1.82,0,0,1,1.37.42,14.82,14.82,0,0,0,3.83,2.05,22.12,22.12,0,0,0,3.22.84,6.76,6.76,0,0,0,5.13-.84,6.46,6.46,0,0,0,2.38-4.51l.71-4.44.43.07a7.09,7.09,0,0,1-3.67,3.54,9.4,9.4,0,0,1-5.45.68,10.22,10.22,0,0,1-5.34-2.39,10.09,10.09,0,0,1-3-4.8,14.54,14.54,0,0,1-.31-6.53,15.55,15.55,0,0,1,1.53-4.8,11.48,11.48,0,0,1,2.74-3.44,9.59,9.59,0,0,1,3.73-1.91,10.79,10.79,0,0,1,4.48-.18,9.39,9.39,0,0,1,5,2.34,7,7,0,0,1,2.31,4.44l-.68,1.16.56-3.51a3.16,3.16,0,0,1,1.16-2.19,3.07,3.07,0,0,1,2.34-.44,3,3,0,0,1,2.1,1.14,3.22,3.22,0,0,1,.41,2.45l-3,19q-.93,5.88-4.46,8.36T686.49,619Zm2.17-14.69a5.87,5.87,0,0,0,3.39-.37,6,6,0,0,0,2.52-2.21,9.6,9.6,0,0,0,1.37-3.81,8.17,8.17,0,0,0-.8-5.62A5.59,5.59,0,0,0,691,589.6a5.89,5.89,0,0,0-3.4.37,6,6,0,0,0-2.5,2.18,9.3,9.3,0,0,0-1.37,3.79,8.24,8.24,0,0,0,.79,5.64A5.57,5.57,0,0,0,688.66,604.26Zm29.17,10.54a14.93,14.93,0,0,1-6.7-2.62,11,11,0,0,1-3.8-5.06,15.05,15.05,0,0,1,2-13.24,11.55,11.55,0,0,1,4.92-3.76,12.77,12.77,0,0,1,10.8.93,9.72,9.72,0,0,1,3.06,3,11.06,11.06,0,0,1,1.58,4.18,16.42,16.42,0,0,1,0,5.18,1.64,1.64,0,0,1-.83,1.26,2.75,2.75,0,0,1-1.79.2l-15.58-2.47.57-3.56L725.69,601l-.89.62a9.67,9.67,0,0,0-.06-3.9,5.16,5.16,0,0,0-1.52-2.65,5.54,5.54,0,0,0-3-1.3,5.83,5.83,0,0,0-6.23,2.78,10.68,10.68,0,0,0-1.42,4.06l0,.34q-.65,4.05.91,6.35a7.23,7.23,0,0,0,5.19,2.87,14.58,14.58,0,0,0,2.89.13,10.46,10.46,0,0,0,3.16-.64,3.1,3.1,0,0,1,1.87-.24,1.92,1.92,0,0,1,1.15.77,2.16,2.16,0,0,1,.37,1.3,2.52,2.52,0,0,1-.5,1.41,3.21,3.21,0,0,1-1.44,1.09,12.69,12.69,0,0,1-4.16,1A17.75,17.75,0,0,1,717.83,614.8Zm30.77,4.78a3,3,0,0,1-2.1-1.17,3.28,3.28,0,0,1-.4-2.47l2.95-18.67a3.15,3.15,0,0,1,1.15-2.19,2.92,2.92,0,0,1,2.3-.45,3,3,0,0,1,2.06,1.14,3.19,3.19,0,0,1,.41,2.44l-.53,3.36-.34-1.32a8.18,8.18,0,0,1,3.95-3.45,9.87,9.87,0,0,1,5.34-.55,9.31,9.31,0,0,1,4.53,1.84,6.77,6.77,0,0,1,2.25,3.72,14.76,14.76,0,0,1,0,5.7l-1.89,12a3.35,3.35,0,0,1-1.15,2.22,3,3,0,0,1-2.36.46,3,3,0,0,1-2.13-1.17,3.24,3.24,0,0,1-.43-2.47l1.85-11.66a6.61,6.61,0,0,0-.4-4.26,4,4,0,0,0-3-1.79,5.53,5.53,0,0,0-4.51,1,6.45,6.45,0,0,0-2.3,4.27l-1.71,10.81Q751.67,620.07,748.6,619.58Zm36.18,5.83a13,13,0,0,1-6.16-2.55,10.62,10.62,0,0,1-3.53-5,14.27,14.27,0,0,1-.44-6.93,14.91,14.91,0,0,1,1.67-5.07,11.21,11.21,0,0,1,3.08-3.56,10.74,10.74,0,0,1,4.23-1.92,14,14,0,0,1,5.13-.07,13,13,0,0,1,6.16,2.55,10.82,10.82,0,0,1,3.54,5,14.18,14.18,0,0,1,.44,6.91,15.23,15.23,0,0,1-1.67,5.1,11.32,11.32,0,0,1-3.08,3.58,10.7,10.7,0,0,1-4.24,1.92A14,14,0,0,1,784.78,625.41Zm.74-4.69a5.7,5.7,0,0,0,3.3-.39,5.86,5.86,0,0,0,2.53-2.31,11.46,11.46,0,0,0,1.44-4.25q.63-4-.71-6.16A5.52,5.52,0,0,0,788,605a5.83,5.83,0,0,0-3.29.37,5.66,5.66,0,0,0-2.53,2.28,11.28,11.28,0,0,0-1.44,4.25c-.41,2.61-.18,4.66.71,6.17A5.48,5.48,0,0,0,785.52,620.72Zm27,9.08a11.49,11.49,0,0,1-5.09-1.92,7,7,0,0,1-2.63-3.68,12.11,12.11,0,0,1-.19-5.37l1.67-10.52-2.53-.4a2.46,2.46,0,0,1-1.69-.9,2.26,2.26,0,0,1-.36-1.8,2.29,2.29,0,0,1,.9-1.63,2.56,2.56,0,0,1,1.89-.31l2.52.4.71-4.49a3.23,3.23,0,0,1,1.17-2.2,3.14,3.14,0,0,1,2.38-.43,3,3,0,0,1,2.11,1.14,3.26,3.26,0,0,1,.41,2.45l-.71,4.49,5.14.82a2.54,2.54,0,0,1,1.7.87,2.28,2.28,0,0,1,.36,1.83,2.35,2.35,0,0,1-.9,1.61,2.54,2.54,0,0,1-1.9.33l-5.14-.82-1.61,10.18a5.34,5.34,0,0,0,.46,3.71,4.17,4.17,0,0,0,3.11,1.71,5.91,5.91,0,0,0,1.48.08,9,9,0,0,1,1.14,0,1.17,1.17,0,0,1,.92.53,2.66,2.66,0,0,1,.11,1.76,4.61,4.61,0,0,1-.59,1.71,1.89,1.89,0,0,1-1.31.88,14.53,14.53,0,0,1-1.71.11A11,11,0,0,1,812.53,629.8Zm25.58,4a3.07,3.07,0,0,1-2.12-1.18,3.23,3.23,0,0,1-.43-2.47l2.65-16.74L836,613a2.48,2.48,0,0,1-1.7-.9,2.32,2.32,0,0,1-.36-1.8,2.29,2.29,0,0,1,.9-1.63,2.58,2.58,0,0,1,1.89-.31l4,.63-2,1.36.26-1.68q.81-5.08,3.73-7.23a11.57,11.57,0,0,1,7.76-1.84l1.67.11a2.24,2.24,0,0,1,1.5.57,2,2,0,0,1,.6,1.21,2.79,2.79,0,0,1-.16,1.37,2.69,2.69,0,0,1-.8,1.11,1.71,1.71,0,0,1-1.28.38l-.69-.06a6.33,6.33,0,0,0-4.25.8,5.11,5.11,0,0,0-1.86,3.55l-.28,1.83-.66-.92,4.9.78a2.57,2.57,0,0,1,1.71.88,2.32,2.32,0,0,1,.35,1.83,2.28,2.28,0,0,1-.9,1.6,2.42,2.42,0,0,1-1.89.33l-4.13-.65-2.65,16.74C841.29,633.18,840.12,634.07,838.11,633.76Zm23.18,3.77a13,13,0,0,1-6.16-2.55,10.67,10.67,0,0,1-3.53-5,14.27,14.27,0,0,1-.44-6.93,14.91,14.91,0,0,1,1.67-5.07,11.35,11.35,0,0,1,3.08-3.57,10.72,10.72,0,0,1,4.23-1.91,14,14,0,0,1,5.13-.07,13.06,13.06,0,0,1,6.16,2.54,10.8,10.8,0,0,1,3.54,5,14.15,14.15,0,0,1,.44,6.9,15.22,15.22,0,0,1-1.67,5.11,11.43,11.43,0,0,1-3.08,3.58,10.69,10.69,0,0,1-4.24,1.91A13.94,13.94,0,0,1,861.29,637.53Zm.74-4.69a5.79,5.79,0,0,0,3.3-.39,5.86,5.86,0,0,0,2.53-2.31,11.46,11.46,0,0,0,1.44-4.25c.42-2.64.18-4.69-.71-6.17a5.54,5.54,0,0,0-4.06-2.64,5.74,5.74,0,0,0-3.29.37,5.66,5.66,0,0,0-2.53,2.28,11.46,11.46,0,0,0-1.44,4.25c-.41,2.6-.17,4.66.71,6.16A5.46,5.46,0,0,0,862,632.84Zm25,8.76a9.82,9.82,0,0,1-4.72-1.89,6.83,6.83,0,0,1-2.36-3.79,14.24,14.24,0,0,1-.07-5.68l1.89-12a3.22,3.22,0,0,1,1.15-2.22,3,3,0,0,1,2.35-.41,2.78,2.78,0,0,1,2.57,3.59l-1.91,12a6,6,0,0,0,.42,4,4,4,0,0,0,3,1.75,5.2,5.2,0,0,0,4.25-1.07,6.57,6.57,0,0,0,2.27-4.27l1.72-10.87a3.22,3.22,0,0,1,1.15-2.22,3,3,0,0,1,2.35-.41,2.78,2.78,0,0,1,2.56,3.59l-2.95,18.67c-.34,2.11-1.49,3-3.46,2.69A2.9,2.9,0,0,1,895.2,642a3.33,3.33,0,0,1-.4-2.47l.59-3.75.45,1.59a8.68,8.68,0,0,1-3.73,3.61A8.42,8.42,0,0,1,887,641.6Zm22.53,3.47a3,3,0,0,1-2.1-1.17,3.33,3.33,0,0,1-.41-2.47l3-18.67a3.23,3.23,0,0,1,1.14-2.2,3.46,3.46,0,0,1,4.37.7,3.23,3.23,0,0,1,.41,2.44l-.53,3.36-.34-1.32a8.14,8.14,0,0,1,4-3.45,9.87,9.87,0,0,1,5.34-.55,9.25,9.25,0,0,1,4.53,1.83,6.81,6.81,0,0,1,2.25,3.73,14.76,14.76,0,0,1,0,5.7l-1.9,12a3.31,3.31,0,0,1-1.14,2.22,3,3,0,0,1-2.36.46,3,3,0,0,1-2.13-1.17,3.24,3.24,0,0,1-.43-2.47L925,632.33a6.61,6.61,0,0,0-.4-4.26,4,4,0,0,0-3-1.8,5.62,5.62,0,0,0-4.52,1,6.5,6.5,0,0,0-2.29,4.27l-1.71,10.82C912.75,644.5,911.57,645.39,909.53,645.07ZM944,650.63a9.94,9.94,0,0,1-5.22-2.4,10.35,10.35,0,0,1-3-5,16.21,16.21,0,0,1-.25-6.9,16,16,0,0,1,2.37-6.48,10.3,10.3,0,0,1,4.35-3.74,9.9,9.9,0,0,1,5.7-.67,9.14,9.14,0,0,1,4.93,2.3,7.34,7.34,0,0,1,2.37,4.38l-.53-.09,2-12.84a3.23,3.23,0,0,1,1.14-2.2,3,3,0,0,1,2.36-.43,3.1,3.1,0,0,1,2.13,1.14,3.13,3.13,0,0,1,.43,2.45l-4.64,29.34a3.31,3.31,0,0,1-1.15,2.22,3,3,0,0,1-2.36.46,2.94,2.94,0,0,1-2.1-1.17,3.32,3.32,0,0,1-.41-2.47l.61-3.85.3,1.57a7.33,7.33,0,0,1-3.61,3.63A9.16,9.16,0,0,1,944,650.63Zm2.44-4.42a5.79,5.79,0,0,0,3.3-.39,5.86,5.86,0,0,0,2.53-2.31,11.46,11.46,0,0,0,1.44-4.25c.42-2.64.18-4.69-.72-6.17a5.5,5.5,0,0,0-4-2.64,5.74,5.74,0,0,0-3.29.37,5.66,5.66,0,0,0-2.53,2.28,11.11,11.11,0,0,0-1.44,4.25c-.41,2.6-.18,4.66.71,6.16A5.46,5.46,0,0,0,946.45,646.21Z"/><line class="cls-12" x1="470.54" y1="435.71" x2="469.92" y2="451.26"/><line class="cls-2" x1="1183.53" y1="432.67" x2="1185.17" y2="448.85"/><path class="cls-13" d="M1027.34,707.64,548.89,628.9a35.28,35.28,0,0,1-29.21-40.21l46.65-293.76a34.82,34.82,0,0,1,40.18-28.8L1085,344.87a35.28,35.28,0,0,1,29.21,40.21l-46.66,293.76A34.81,34.81,0,0,1,1027.34,707.64Z"/><line class="cls-7" x1="1383.5" y1="960.88" x2="1387.5" y2="965.88"/><line class="cls-7" x1="1393.08" y1="948.29" x2="1396.5" y2="951.88"/><line class="cls-2" x1="983.5" y1="781.88" x2="973.5" y2="793.88"/><line class="cls-2" x1="995.5" y1="792.88" x2="986.5" y2="800.88"/><line class="cls-6" x1="134.5" y1="891.88" x2="145.47" y2="876.77"/><line class="cls-6" x1="147.5" y1="893.88" x2="163.26" y2="885.05"/><line class="cls-7" x1="504.5" y1="966.88" x2="499.91" y2="957.21"/><line class="cls-7" x1="513.5" y1="952.88" x2="508.77" y2="946.32"/><path class="cls-7" d="M504.5,966.88s9-7,9-14c0,0,7,5,7,11s-7,19-7,19-14,3-17,2-2.3-7.27,4.35-7.14Z"/></g></svg>