<svg xmlns="http://www.w3.org/2000/svg" viewBox="0 0 1600 1200"><defs><style>.cls-1{fill:#f27b79;}.cls-2{fill:#261134;}.cls-3{fill:#fad338;}.cls-4{fill:#fefefe;}.cls-12,.cls-5{fill:#fff;}.cls-6{fill:#f6ebda;}.cls-11,.cls-15,.cls-7{fill:#2f3030;}.cls-10,.cls-12,.cls-7,.cls-9{stroke:#000;}.cls-10,.cls-12,.cls-15,.cls-7,.cls-9{stroke-miterlimit:10;}.cls-8{fill:#f27a79;}.cls-16,.cls-9{fill:#fbb755;}.cls-10,.cls-13{fill:#d1d5db;}.cls-14{fill:#21223e;}.cls-15{stroke:#2f3030;}</style></defs><g id="_5" data-name="5"><g id="Scooter"><path class="cls-1" d="M901.09,618.18h13.7a2.12,2.12,0,0,1,1.67.8l6.92,8.7a2.14,2.14,0,0,1-1.66,3.47H901.09Z"/><path class="cls-2" d="M921.72,631.3H900.93V618h13.86a2.28,2.28,0,0,1,1.8.86l6.92,8.7a2.29,2.29,0,0,1-1.79,3.72ZM901.25,631h20.47a2,2,0,0,0,1.54-3.21l-6.92-8.7a2,2,0,0,0-1.55-.74H901.25Z"/><rect class="cls-2" x="761.6" y="561.3" width="11.12" height="4.23" rx="2.12"/><rect class="cls-2" x="779.11" y="565.9" width="8.49" height="12.05"/><path class="cls-3" d="M765.73,655.17V584.8A10.83,10.83,0,0,1,776.56,574h31.26a10.83,10.83,0,0,1,10.83,10.83v64.79a9.93,9.93,0,0,0,9.92,9.93h8.79a9.93,9.93,0,0,0,9.92-9.93V621.27s-.21-8.54-5.5-9.78h54.08s22.47,18.3,27.18,47.85v3.26H765.73Z"/><path class="cls-2" d="M923.2,662.76H765.57v-78a11,11,0,0,1,11-11h31.26a11,11,0,0,1,11,11v64.79a9.78,9.78,0,0,0,9.76,9.77h8.79a9.78,9.78,0,0,0,9.77-9.77V621.27c0-.08-.27-8.43-5.39-9.63l-1.34-.31h55.51l.05,0a80.83,80.83,0,0,1,11.85,12.88c5.68,7.56,13,19.78,15.39,35.07Zm-157.32-.32h157v-3.1c-2.42-15.2-9.67-27.37-15.32-34.9a79.88,79.88,0,0,0-11.76-12.79h-53c4.44,2,4.68,9.29,4.68,9.62v28.32a10.1,10.1,0,0,1-10.08,10.09h-8.79a10.1,10.1,0,0,1-10.08-10.09V584.8a10.69,10.69,0,0,0-10.67-10.67H776.56a10.69,10.69,0,0,0-10.68,10.67Z"/><rect class="cls-2" x="783.23" y="573.97" width="3.83" height="70.73"/><rect class="cls-2" x="832.88" y="662.78" width="50.75" height="10.42"/><ellipse class="cls-2" cx="901.93" cy="667.49" rx="23.11" ry="26.28"/><ellipse class="cls-4" cx="905.83" cy="666.33" rx="15.04" ry="17.11"/><path class="cls-2" d="M905.83,683.6c-8.39,0-15.21-7.75-15.21-17.27s6.82-17.26,15.21-17.26,15.2,7.74,15.2,17.26S914.21,683.6,905.83,683.6Zm0-34.22c-8.21,0-14.89,7.61-14.89,17s6.68,16.95,14.89,16.95,14.88-7.6,14.88-16.95S914,649.38,905.83,649.38Z"/><path class="cls-2" d="M897.88,666.4c0,3.81,1.78,7.19,7.51,7.19,3.34,0,4.6-3.38,4.6-7.19s-1.26-6.88-4.6-6.88C899.66,659.52,897.88,662.6,897.88,666.4Z"/><ellipse class="cls-4" cx="905.75" cy="666.4" rx="6.06" ry="6.89"/><path class="cls-2" d="M905.75,673.45c-3.43,0-6.21-3.16-6.21-7.05s2.78-7,6.21-7,6.22,3.16,6.22,7S909.18,673.45,905.75,673.45Zm0-13.77c-3.25,0-5.9,3-5.9,6.72s2.65,6.73,5.9,6.73,5.9-3,5.9-6.73S909,659.68,905.75,659.68Z"/><ellipse class="cls-2" cx="771.73" cy="667.49" rx="23.11" ry="26.28"/><ellipse class="cls-4" cx="775.63" cy="666.33" rx="15.04" ry="17.11"/><path class="cls-2" d="M775.63,683.6c-8.38,0-15.2-7.75-15.2-17.27s6.82-17.26,15.2-17.26,15.2,7.74,15.2,17.26S784,683.6,775.63,683.6Zm0-34.22c-8.21,0-14.88,7.61-14.88,17s6.67,16.95,14.88,16.95,14.88-7.6,14.88-16.95S783.84,649.38,775.63,649.38Z"/><path class="cls-2" d="M767.69,666.4c0,3.81,1.78,6.89,7.5,6.89,3.35,0,4.61-3.08,4.61-6.89s-1.26-6.88-4.61-6.88C769.47,659.52,767.69,662.6,767.69,666.4Z"/><ellipse class="cls-4" cx="775.55" cy="666.4" rx="6.06" ry="6.89"/><path class="cls-2" d="M775.55,673.45c-3.42,0-6.21-3.16-6.21-7.05s2.79-7,6.21-7,6.22,3.16,6.22,7S779,673.45,775.55,673.45Zm0-13.77c-3.25,0-5.89,3-5.89,6.72s2.64,6.73,5.89,6.73,5.9-3,5.9-6.73S778.81,659.68,775.55,659.68Z"/><path class="cls-2" d="M944.41,659.44h-2.94a6.16,6.16,0,0,0-6.1-5.36H870.12V666.4h65.25a6.16,6.16,0,0,0,6-4.9h3Z"/><path class="cls-3" d="M932.83,662.6s4.06-32.49-33.89-41.33c-13.68-3.18-45.13-5.25-38.07,41.33Z"/><path class="cls-2" d="M933,662.76H860.73l0-.14c-2.63-17.34-.17-29.64,7.31-36.55,9.14-8.45,23.32-6.73,31-5,8.68,2,15.87,5.46,21.37,10.22a36,36,0,0,1,9.92,13.85A38.84,38.84,0,0,1,933,662.62Zm-72-.32h71.69A38.76,38.76,0,0,0,930,645.3c-3.39-8.38-11.53-19.32-31.07-23.87-7.57-1.76-21.63-3.48-30.66,4.87C860.86,633.12,858.43,645.28,861,662.44Z"/><path class="cls-2" d="M845.38,613.39H893a9,9,0,0,0,9-9h0a9,9,0,0,0-9.68-8.94l-47.43,3.79a7.06,7.06,0,0,0-6.51,7h0A7.07,7.07,0,0,0,845.38,613.39Z"/><path class="cls-3" d="M796.61,659H742.24a34.68,34.68,0,0,1,6.3-15.28c11.8-15.8,36.34-13.64,45,4.06A31.94,31.94,0,0,1,796.61,659Z"/><path class="cls-2" d="M796.78,659.16H742.06l0-.18a35.27,35.27,0,0,1,6.33-15.36,26.74,26.74,0,0,1,45.31,4.09,32.12,32.12,0,0,1,3,11.27Zm-54.36-.32h54a31.75,31.75,0,0,0-3-11,26.4,26.4,0,0,0-44.76-4A35.05,35.05,0,0,0,742.42,658.84Z"/><path class="cls-2" d="M933.19,664.69H793.29v-4.22h-51v-3.83h51.14a3.75,3.75,0,0,1,3.74,3.74v.48H933.19Z"/><polygon class="cls-2" points="835.07 685.36 825.72 685.36 825.72 681.53 833.77 681.53 851.74 667.78 854.07 670.83 835.07 685.36"/><path class="cls-3" d="M787.88,569.92H776.24a8.25,8.25,0,0,1-2.06-.26,8.51,8.51,0,0,1-4-14.27,8.7,8.7,0,0,1,4-2.25,9.29,9.29,0,0,1,2.06-.24h1.68a16.81,16.81,0,0,1,14.44,7.92c.17.27.33.55.48.83A5.62,5.62,0,0,1,787.88,569.92Z"/><path class="cls-2" d="M787.88,570.08H776.24a8.75,8.75,0,0,1-2.1-.26,8.68,8.68,0,0,1,0-16.83,8.8,8.8,0,0,1,2.1-.25h1.68a17,17,0,0,1,14.58,8q.24.4.48.84a5.69,5.69,0,0,1-.13,5.67A5.74,5.74,0,0,1,787.88,570.08Zm-11.64-17a8.58,8.58,0,0,0-2,.24,8.35,8.35,0,0,0,0,16.21,8.59,8.59,0,0,0,2,.25h11.64a5.44,5.44,0,0,0,4.7-2.67,5.37,5.37,0,0,0,.12-5.36c-.15-.29-.31-.56-.47-.83a16.73,16.73,0,0,0-14.31-7.84Z"/><path class="cls-2" d="M780.05,561.41a11.43,11.43,0,0,1-3.79,8.51h0a8.51,8.51,0,1,1,0-17h0A11.4,11.4,0,0,1,780.05,561.41Z"/><path class="cls-4" d="M777.7,561.41a11.4,11.4,0,0,1-3.52,8.25,8.51,8.51,0,0,1-4-14.27,8.7,8.7,0,0,1,4-2.25A11.44,11.44,0,0,1,777.7,561.41Z"/><path class="cls-2" d="M774.23,569.84l-.08,0a8.68,8.68,0,0,1,0-16.83l.08,0,.07.06a11.61,11.61,0,0,1,0,16.75Zm-.1-16.52a8.35,8.35,0,0,0-3.79,2.19,8.34,8.34,0,0,0,3.8,14,11.3,11.3,0,0,0,0-16.17Z"/><rect class="cls-3" x="793.05" y="562.16" width="6.27" height="2.59"/><path class="cls-2" d="M799.48,564.91h-6.59V562h6.59Zm-6.27-.32h5.95v-2.27h-5.95Z"/><rect class="cls-2" x="788.58" y="561.3" width="6.74" height="4.23" rx="2.12"/><rect class="cls-2" x="798.14" y="561.3" width="11.12" height="4.23" rx="2.12"/><rect class="cls-5" x="880.9" y="654.42" width="31.16" height="1.78"/><path d="M912.22,656.36H880.74v-2.1h31.48ZM881.06,656H911.9v-1.46H881.06Z"/><rect class="cls-5" x="880.9" y="649.71" width="31.16" height="1.78"/><path d="M912.22,651.65H880.74v-2.1h31.48Zm-31.16-.32H911.9v-1.46H881.06Z"/><rect class="cls-5" x="880.9" y="645" width="31.16" height="1.78"/><path d="M912.22,646.94H880.74v-2.1h31.48Zm-31.16-.32H911.9v-1.46H881.06Z"/><rect class="cls-2" x="799.19" y="685.31" width="65.43" height="0.64"/></g><g id="Background"><rect class="cls-6" x="1" y="-2" width="1600" height="1206"/></g><path class="cls-4" d="M1296.5,270.23V878.6a26.05,26.05,0,0,1-26,26.15H339.45A26.05,26.05,0,0,1,313.5,878.6V270.23a26.05,26.05,0,0,1,25.95-26.15h931.1A26.05,26.05,0,0,1,1296.5,270.23Z"/><path d="M1270.55,905.25H339.45A26.58,26.58,0,0,1,313,878.6V270.23a26.59,26.59,0,0,1,26.45-26.65h931.1A26.59,26.59,0,0,1,1297,270.23V878.6A26.58,26.58,0,0,1,1270.55,905.25ZM339.45,244.58A25.59,25.59,0,0,0,314,270.23V878.6a25.58,25.58,0,0,0,25.46,25.65h931.1A25.58,25.58,0,0,0,1296,878.6V270.23a25.59,25.59,0,0,0-25.46-25.65Z"/><path class="cls-7" d="M1297,269.23v31.84H313V269.23a26.07,26.07,0,0,1,26-26.15h932A26.07,26.07,0,0,1,1297,269.23Z"/><rect class="cls-7" x="377.13" y="347.13" width="114.28" height="40.94"/><path class="cls-7" d="M491.91,388.56H376.63V346.63H491.91Zm-114.28-1H490.91V347.63H377.63Z"/><rect class="cls-4" x="522.68" y="347.13" width="512.28" height="40.94"/><path class="cls-2" d="M1035.46,388.56H522.18V346.63h513.28Zm-512.28-1h511.28V347.63H523.18Z"/><circle class="cls-8" cx="383.39" cy="271.51" r="12.51"/><circle class="cls-9" cx="423.19" cy="271.51" r="12.51"/><circle class="cls-10" cx="464.12" cy="271.51" r="12.51"/><rect class="cls-4" x="1068.46" y="347.13" width="74.09" height="40.94"/><path class="cls-2" d="M1143,388.56h-75V346.63h75Zm-74.09-1h73.19V347.63h-73.19Z"/><rect class="cls-7" x="1162.54" y="347.13" width="82.44" height="40.94"/><path class="cls-7" d="M1245.48,388.56H1162V346.63h83.44Zm-82.44-1h81.44V347.63H1163Z"/><path class="cls-4" d="M981,453V799.84c0,6.39-8.65,11.57-19.33,11.57H543.64c-10.67,0-19.33-5.18-19.33-11.57V453c0-6.39,8.66-11.57,19.33-11.57H961.69C972.37,441.45,981,446.63,981,453Z"/><path class="cls-2" d="M961.69,812H543.64c-11.19,0-20.31-5.45-20.31-12.16V453c0-6.7,9.12-12.15,20.31-12.15H961.69c11.2,0,20.31,5.45,20.31,12.15V799.84C982,806.55,972.89,812,961.69,812ZM543.64,442c-10.12,0-18.35,4.92-18.35,11V799.84c0,6.06,8.23,11,18.35,11H961.69c10.12,0,18.36-4.93,18.36-11V453c0-6.06-8.24-11-18.36-11Z"/><path class="cls-4" d="M981,454.63V696.34H524.31V454.63c0-7.24,8.66-13.1,19.33-13.1H961.69C972.37,441.53,981,447.39,981,454.63Z"/><path class="cls-2" d="M982,697H523.33V454.63c0-7.59,9.12-13.76,20.31-13.76H961.69c11.2,0,20.31,6.17,20.31,13.76Zm-456.71-1.32H980.05v-241c0-6.86-8.24-12.44-18.36-12.44H543.64c-10.12,0-18.35,5.58-18.35,12.44Z"/><rect class="cls-4" x="545.55" y="718.65" width="315.62" height="13.72"/><path class="cls-2" d="M862,733H544.72v-14.9H862Zm-315.62-1.17h314V719.23h-314Z"/><rect class="cls-11" x="545.35" y="748.29" width="129.01" height="13.72"/><path class="cls-11" d="M675,762.6H544.72V747.71H675Zm-129-1.17H673.73V748.88H546Z"/><polygon class="cls-9" points="555.74 775.27 558.48 781.76 564.6 782.8 560.17 787.85 561.22 794.98 555.74 791.61 550.27 794.98 551.31 787.85 546.88 782.8 553 781.76 555.74 775.27"/><path class="cls-9" d="M561.88,796.05l-6.14-3.78-6.14,3.78,1.18-8-5-5.66,6.86-1.17,3.07-7.27,3.07,7.27,6.87,1.17-5,5.66Zm-6.14-5.1,4.81,3-.92-6.27,3.9-4.43-5.38-.92-2.41-5.7-2.4,5.7-5.38.92,3.89,4.43-.92,6.27Z"/><polygon class="cls-9" points="584.1 775.27 586.83 781.76 592.95 782.8 588.52 787.85 589.57 794.98 584.1 791.61 578.62 794.98 579.67 787.85 575.24 782.8 581.36 781.76 584.1 775.27"/><path class="cls-9" d="M590.23,796.05l-6.13-3.78L578,796.05l1.17-8-5-5.66,6.87-1.17L584.1,774l3.07,7.27,6.86,1.17-5,5.66ZM584.1,791l4.81,3-.92-6.27,3.89-4.43-5.38-.92-2.4-5.7-2.41,5.7-5.38.92,3.89,4.43-.91,6.27Z"/><polygon class="cls-9" points="613.59 775.27 616.32 781.76 622.44 782.8 618.01 787.85 619.06 794.98 613.59 791.61 608.11 794.98 609.16 787.85 604.73 782.8 610.85 781.76 613.59 775.27"/><path class="cls-9" d="M619.72,796.05l-6.13-3.78-6.14,3.78,1.17-8-5-5.66,6.87-1.17,3.07-7.27,3.07,7.27,6.86,1.17-5,5.66Zm-6.13-5.1,4.81,3-.92-6.27,3.89-4.43-5.38-.92-2.4-5.7-2.41,5.7-5.38.92,3.89,4.43-.91,6.27Z"/><polygon class="cls-9" points="643.08 775.27 645.81 781.76 651.93 782.8 647.5 787.85 648.55 794.98 643.08 791.61 637.6 794.98 638.65 787.85 634.22 782.8 640.34 781.76 643.08 775.27"/><path class="cls-9" d="M649.21,796.05l-6.13-3.78-6.14,3.78,1.17-8-5-5.66,6.87-1.17,3.07-7.27,3.07,7.27,6.86,1.17-5,5.66Zm-13.92-12.84,3.89,4.43-.91,6.27,4.81-3,4.81,3-.92-6.27,3.89-4.43-5.38-.92-2.4-5.7-2.41,5.7Z"/><polygon class="cls-9" points="672.17 775.27 674.91 781.76 681.03 782.8 676.6 787.85 677.64 794.98 672.17 791.61 666.69 794.98 667.74 787.85 663.31 782.8 669.43 781.76 672.17 775.27"/><path class="cls-9" d="M678.31,796.05l-6.14-3.78L666,796.05l1.17-8-5-5.66,6.86-1.17,3.07-7.27,3.07,7.27,6.86,1.17-5,5.66Zm-6.14-5.1,4.81,3-.92-6.27,3.89-4.43-5.38-.92-2.4-5.7-2.41,5.7-5.38.92,3.9,4.43-.92,6.27Z"/><circle class="cls-4" cx="971.75" cy="442.25" r="24.25"/><path class="cls-2" d="M971.75,467a24.75,24.75,0,1,1,24.75-24.75A24.77,24.77,0,0,1,971.75,467Zm0-48.5a23.75,23.75,0,1,0,23.75,23.75A23.77,23.77,0,0,0,971.75,418.5Z"/><path class="cls-9" d="M978.71,430.13a7.28,7.28,0,0,0-7,5.15A7.27,7.27,0,1,0,958.48,441h0a7.48,7.48,0,0,0,1,1.32l12,16.26,12.36-16A7.35,7.35,0,0,0,985,441h0a7.27,7.27,0,0,0-6.31-10.88Z"/><path class="cls-9" d="M971.42,459.42l-12.37-16.79a7.92,7.92,0,0,1-1-1.37,7.7,7.7,0,0,1-1-3.86,7.77,7.77,0,0,1,14.73-3.47,7.77,7.77,0,1,1,12.39,9Zm-6.63-28.8a6.78,6.78,0,0,0-5.87,10.15,7,7,0,0,0,.9,1.22l11.62,15.77,12-15.47a7.24,7.24,0,0,0,1.18-1.52,6.77,6.77,0,1,0-12.35-5.35l-.48,1.57-.48-1.57A6.74,6.74,0,0,0,964.79,430.62Z"/><rect class="cls-5" x="519.08" y="1038.68" width="1" height="29.29" transform="translate(-560.41 591.73) rotate(-40.6)"/><rect class="cls-5" x="564.62" y="1043.99" width="1" height="23.96" transform="translate(-581.16 708.89) rotate(-45)"/><circle class="cls-2" cx="1323.96" cy="534.64" r="45.69"/><circle class="cls-9" cx="1317.33" cy="534.52" r="45.69"/><path class="cls-9" d="M1317.33,580.7a46.19,46.19,0,1,1,46.19-46.18A46.24,46.24,0,0,1,1317.33,580.7Zm0-91.37a45.19,45.19,0,1,0,45.19,45.19A45.24,45.24,0,0,0,1317.33,489.33Z"/><path class="cls-2" d="M1328.43,550.31q-3.23,3.06-9.36,3.72v6.07h-4.45v-6a30.66,30.66,0,0,1-7.59-1.46,16.65,16.65,0,0,1-5.69-3l2.44-5.48a17.91,17.91,0,0,0,4.88,2.74,21.64,21.64,0,0,0,6,1.38V537.38a40.45,40.45,0,0,1-6.42-2,11,11,0,0,1-4.31-3.25,8.73,8.73,0,0,1-1.74-5.67,10.06,10.06,0,0,1,3.2-7.49q3.2-3.09,9.27-3.68v-6.13h4.45v6a25.32,25.32,0,0,1,5.94,1,19.53,19.53,0,0,1,5.07,2.28l-2.22,5.47a22.57,22.57,0,0,0-8.79-2.92v11a42.08,42.08,0,0,1,6.48,2,11.11,11.11,0,0,1,4.34,3.22,8.62,8.62,0,0,1,1.76,5.67A9.89,9.89,0,0,1,1328.43,550.31ZM1310.56,529a12.15,12.15,0,0,0,4.06,1.84v-9.65a7.6,7.6,0,0,0-4.12,1.73,4.28,4.28,0,0,0-1.35,3.2A3.45,3.45,0,0,0,1310.56,529Zm12.77,17.46a4,4,0,0,0,1.38-3.09,3.53,3.53,0,0,0-1.46-3,12.48,12.48,0,0,0-4.18-1.88v9.6A8.09,8.09,0,0,0,1323.33,546.43Z"/><circle class="cls-2" cx="423.67" cy="518.67" r="30.33"/><circle class="cls-9" cx="419.28" cy="518.59" r="30.33"/><path class="cls-9" d="M419.28,549.42a30.83,30.83,0,1,1,30.82-30.83A30.86,30.86,0,0,1,419.28,549.42Zm0-60.65a29.83,29.83,0,1,0,29.82,29.82A29.86,29.86,0,0,0,419.28,488.77Z"/><path class="cls-2" d="M426.64,529.07a10.35,10.35,0,0,1-6.21,2.47v4h-2.95v-4a20,20,0,0,1-5-1,11,11,0,0,1-3.78-2l1.62-3.64a12,12,0,0,0,3.24,1.82,14.46,14.46,0,0,0,4,.92v-7.2a27.12,27.12,0,0,1-4.27-1.35,7.37,7.37,0,0,1-2.86-2.16,5.78,5.78,0,0,1-1.15-3.76,6.67,6.67,0,0,1,2.12-5,10,10,0,0,1,6.16-2.45v-4.07h2.95v4a16.85,16.85,0,0,1,3.94.68,13.22,13.22,0,0,1,3.37,1.51l-1.48,3.64a14.84,14.84,0,0,0-5.83-1.94v7.27a27.81,27.81,0,0,1,4.3,1.33,7.36,7.36,0,0,1,2.88,2.14,5.73,5.73,0,0,1,1.17,3.76A6.54,6.54,0,0,1,426.64,529.07Zm-11.86-14.16a7.93,7.93,0,0,0,2.7,1.22v-6.41a5,5,0,0,0-2.74,1.16,2.81,2.81,0,0,0-.9,2.12A2.31,2.31,0,0,0,414.78,514.91Zm8.48,11.59a2.66,2.66,0,0,0,.92-2,2.33,2.33,0,0,0-1-2,8.16,8.16,0,0,0-2.77-1.25v6.38A5.47,5.47,0,0,0,423.26,526.5Z"/><rect class="cls-10" x="181" y="856" width="124" height="209"/><rect class="cls-12" x="281.1" y="816.7" width="208.02" height="287.56" transform="translate(-576.02 1343.96) rotate(-89.9)"/><path class="cls-12" d="M529.21,1065.23l-288.56-.48.36-209,288.56.48Zm-287.55-1.48,286.55.48.36-207L242,856.73Z"/><polygon class="cls-13" points="332.5 1051.5 335.21 1064.49 292.52 1064.49 382.23 856.47 413.53 856.47 332.5 1051.5"/><path class="cls-2" d="M366,594s-2,15-7,18l-5-18Z"/><path class="cls-9" d="M372.89,1064.5h-44.3l-14.77-11.08,9.85-17.23,5.58-10,5.9-10.63,13.13-23.64,30.77,17.23-17.44,21.8-5.15,6.43-6.95,8.69C365.37,1049.62,372.89,1064.5,372.89,1064.5Z"/><path class="cls-9" d="M373.7,1065H328.42l-15.25-11.44,10.07-17.62,24.85-44.73L379.81,1009l-29.42,36.77c15.39,3.89,22.87,18.39,22.95,18.53Zm-44.94-1H372c-1.75-3-9.2-14.44-22.64-17.47l-.78-.18,29.67-37.08-29.82-16.7-24.36,43.86-9.64,16.85Z"/><path class="cls-9" d="M505.45,1064.38H447.61l-1.45-20.89-1.55-22.18h30.53l1.6,16.75.4,4.17S503,1057,505.45,1064.38Z"/><path class="cls-9" d="M506.14,1064.88h-59l-3.07-44.07h31.52l2,21.11c2.72,1.57,25.92,15.11,28.31,22.3Zm-58.06-1H504.7c-3.6-7.32-27.56-21.07-27.81-21.22l-.22-.12-2-20.73H445.15Z"/><polygon class="cls-2" points="476.74 1038.06 446.16 1043.49 444.61 1021.31 475.14 1021.31 476.74 1038.06"/><polygon class="cls-2" points="379.05 1009.12 361.61 1030.92 356.46 1037.35 329.25 1026.16 335.15 1015.53 348.28 991.89 379.05 1009.12"/><path class="cls-12" d="M335,640.55c-.44-.2-.88-.41-1.33-.64l-3,29.49-36.76-5.58,14.4-46.17c-1.9-2.77-6.17-6.74-4.73-13.24,0,0,1-5.95,6-5.95a6,6,0,0,1,3.43,1.35l4.55-16,42.08,9.45S364.39,653.7,335,640.55Z"/><path class="cls-12" d="M331.09,670l-37.85-5.74,14.5-46.49q-.4-.57-.9-1.2c-2.12-2.76-5-6.54-3.77-12.24,0,0,1.13-6.34,6.45-6.34a5.94,5.94,0,0,1,3.14,1l4.49-15.75,42.9,9.63,0,.37c.12,1.55,2.87,38.11-10.44,47.51-4,2.79-8.95,2.88-14.82.25h0l-.7-.32Zm-36.55-6.56,35.67,5.42,3.06-29.7.65.33c.44.23.87.44,1.31.63,5.53,2.48,10.18,2.43,13.83-.15,12.16-8.58,10.31-42.34,10.05-46.24l-41.26-9.27-4.62,16.21-.58-.43a5.43,5.43,0,0,0-3.13-1.25c-4.48,0-5.46,5.48-5.47,5.53-1.16,5.27,1.58,8.83,3.58,11.44.4.51.77,1,1.07,1.44l.14.2-.07.23Z"/><polygon class="cls-7" points="423.97 805.2 327.68 1020.5 373.65 1032.5 461.29 864.29 423.97 805.2"/><path class="cls-7" d="M373.91,1033.08,327,1020.83l.24-.53L423.9,804.14l38,60.12Zm-45.53-12.91,45,11.75,87.32-167.61-36.67-58.06Z"/><path class="cls-7" d="M480,1032.85H428.12l-18.66-180s-87,10.62-122.32-1.25c-15.87-5.33-19.6-21.54-18.78-38,1-21.06,9.45-42.6,9.45-42.6l79.82,8.29,44.26,3.25,58,4.26A12.07,12.07,0,0,1,471,798.37Z"/><path class="cls-7" d="M480.47,1033.35h-52.8l-.05-.45L409,853.44c-7.2.84-88.38,10-122-1.34-13.73-4.61-20.16-17.57-19.12-38.54s9.4-42.54,9.48-42.75l.14-.36,80.2,8.33,102.21,7.51a12.56,12.56,0,0,1,11.64,12.06Zm-51.9-1h50.86l-8.9-234a11.55,11.55,0,0,0-10.72-11.1l-102.22-7.51-79.45-8.25c-1.08,2.88-8.34,22.81-9.28,42.08-1,20.46,5.19,33.1,18.44,37.55,34.85,11.69,121.23,1.33,122.1,1.22l.5-.06.06.51Z"/><path class="cls-14" d="M401.89,782.53,268.36,813.59c1-21.06,9.45-42.6,9.45-42.6l79.82,8.29Z"/><path class="cls-12" d="M355.33,751.15l28.3-2.55a10.66,10.66,0,0,1,5.49.34l13,5a6.61,6.61,0,0,1,4.48,5.6l2.06,18.59a5.6,5.6,0,0,1-5.67,6.26h0a2.1,2.1,0,0,1-2.11,2.11H398a2.1,2.1,0,0,1-1.89-1.18l-.46-.93h-2.19a6.17,6.17,0,0,1-5.66-3.73l-3.62-7.78L359.47,774Z"/><path class="cls-12" d="M400.9,787H398a2.63,2.63,0,0,1-2.34-1.46l-.32-.65h-1.88a6.64,6.64,0,0,1-6.12-4l-3.47-7.46-24.8,1.15-4.32-23.85,28.85-2.6a11.15,11.15,0,0,1,5.69.36l13,5a7.09,7.09,0,0,1,4.8,6l2.05,18.59a6.08,6.08,0,0,1-5.71,6.8A2.6,2.6,0,0,1,400.9,787Zm-16.42-14.64,3.76,8.09a5.65,5.65,0,0,0,5.21,3.44H396l.59,1.21a1.62,1.62,0,0,0,1.44.9h2.91a1.61,1.61,0,0,0,1.61-1.61v-.5h.5a5.09,5.09,0,0,0,5.17-5.71l-2.06-18.58a6.11,6.11,0,0,0-4.13-5.18l-13.05-5a10.22,10.22,0,0,0-5.21-.31l-27.81,2.51,4,21.91Z"/><path class="cls-9" d="M266.52,728.49H227l15.31-46a28.37,28.37,0,0,1,17.43-17.75l36.67-13s27.07,22.72,36.32,0c.2-.49,15.39,5.53,26.28,9.64a17.84,17.84,0,0,1,11.32,13.91L387.5,784.5,267.44,805.2Z"/><path class="cls-9" d="M267,805.79,266,729h-39.7l15.54-46.61a28.64,28.64,0,0,1,17.73-18.07l37-13.1.21.19c.15.12,14.86,12.32,25.95,9.57,4.26-1.05,7.48-4.21,9.59-9.38.29-.73.33-.82,18.16,6l8.76,3.34a18.37,18.37,0,0,1,11.63,14.31l17.23,109.65ZM227.71,728H267l.93,76.62,119-20.52L369.85,675.41a17.35,17.35,0,0,0-11-13.52c-2.76-1-5.78-2.2-8.77-3.35-7.21-2.77-15.32-5.88-17-6.25-2.23,5.29-5.65,8.54-10.14,9.65-10.95,2.72-24.63-8-26.61-9.6l-36.4,12.91a27.64,27.64,0,0,0-17.12,17.44Z"/><path class="cls-12" d="M376.74,782.25a20,20,0,0,1-6.94,1.11c-1,0-4.58-2.87-5.27-5.41l-1.08-4a3.7,3.7,0,0,0-4.09-2.69L242,788a38.19,38.19,0,0,1-11.09.29c-13.1-1.67-16.28-9.33-16.77-15a20.12,20.12,0,0,1,1.1-8.32l9.15-28.24,1.57-4.85,1.08-3.32h39.5L265,733.22l-.39,1.21-5.32,16.72h67.38l27.91-8.38a11.93,11.93,0,0,1,6.41-.11l10.34,3a12.49,12.49,0,0,1,9,11l1.47,17.66C382.31,778.52,380.72,780.71,376.74,782.25Z"/><path class="cls-12" d="M235.32,789a36.69,36.69,0,0,1-4.49-.28c-13.27-1.7-16.68-9.35-17.21-15.48a20.49,20.49,0,0,1,1.13-8.52L226.66,728H267.2L260,750.65h66.63l27.84-8.36a12.32,12.32,0,0,1,6.68-.11l10.35,3a13.08,13.08,0,0,1,9.35,11.41l1.47,17.66c.52,4.33-1,6.8-5.38,8.48h0a20.45,20.45,0,0,1-7.14,1.14c-1.36,0-5-3.18-5.73-5.78l-1.08-4a3.21,3.21,0,0,0-3.54-2.33L242.05,788.45A41.14,41.14,0,0,1,235.32,789Zm-7.94-60L215.7,765.05a19.47,19.47,0,0,0-1.08,8.13c.49,5.76,3.73,13,16.33,14.56a37.88,37.88,0,0,0,11-.28L359.29,770.8a4.21,4.21,0,0,1,4.64,3.06l1.08,4c.66,2.41,4.09,5,4.79,5a19.63,19.63,0,0,0,6.76-1.08c3.88-1.5,5.21-3.58,4.74-7.44l-1.47-17.68a12.06,12.06,0,0,0-8.63-10.53l-10.34-3a11.4,11.4,0,0,0-6.13.11l-28.05,8.4H258.62L265.84,729Z"/><path class="cls-2" d="M372.21,575.21c-1.88-.37-6.7,0-9.6,2.4a6.89,6.89,0,0,0,.49-1c4.33-12.9-13.86-3.33-23.43-1.42-2,.38-6.35,1-6.35,1-28.76-6.55-25.88,22.82-25.88,22.82,7.56-1,9.8,9.16,9.8,9.16,7.74-3.66,10.13-8.88,10.36-11.14,7.5,3.39,26.63,9.88,42.44-1.59C380.83,587.66,377,576.17,372.21,575.21Z"/><rect class="cls-2" x="337.37" y="777.21" width="110.92" height="10.37"/><rect class="cls-2" x="371" y="767.24" width="1" height="15.52" transform="translate(-187.14 121.89) rotate(-14.93)"/><rect class="cls-2" x="377.5" y="764.36" width="1" height="16.28" transform="translate(-135.89 82.89) rotate(-10.62)"/><rect class="cls-2" x="393.5" y="771.33" width="1" height="13.34" transform="translate(-164.85 108.52) rotate(-12.99)"/><polygon class="cls-2" points="442.07 782.39 471.1 699.46 477.32 699.46 448.29 782.39 442.07 782.39"/><rect class="cls-2" x="401" y="768.44" width="1" height="16.12" transform="translate(-93.21 55.8) rotate(-7.13)"/><rect class="cls-2" x="258.93" y="717.5" width="22.14" height="1" transform="translate(-496.55 746.86) rotate(-71.55)"/><polygon class="cls-2" points="266.52 728.49 265.01 733.22 264.62 734.43 225.94 731.81 227.02 728.49 266.52 728.49"/><path class="cls-7" d="M1164.45,1022.31v43.07h-57.84c2.46-7.38,28.3-22.15,28.3-22.15v-20.92Z"/><path class="cls-7" d="M1165,1065.88h-59l.22-.65c2.39-7.17,25.44-20.65,28.28-22.29v-21.13H1165Zm-57.6-1H1164v-42.07h-28.54v20.71l-.25.15C1134.91,1043.81,1111,1057.56,1107.35,1064.88Z"/><path class="cls-7" d="M1333.05,1054.31l-14.77,11.07H1274s7.52-14.88,23.38-18.46l-12.1-15.12L1267.82,1010l30.77-17.23,13.13,23.64,11.48,20.66Z"/><path class="cls-7" d="M1318.45,1065.88h-45.29l.37-.72c.07-.15,7.56-14.65,23-18.54l-29.42-36.76,31.72-17.77,24.86,44.75,10.06,17.6Zm-43.62-1h43.28l14.28-10.71-9.62-16.84-24.37-43.87-29.82,16.69,29.67,37.09-.78.17C1284,1050.44,1276.58,1061.88,1274.83,1064.88Z"/><polygon class="cls-2" points="1164.45 1022.31 1164.45 1037.95 1134.91 1042.17 1134.91 1022.31 1164.45 1022.31"/><polygon class="cls-2" points="1311.72 1016.42 1285.26 1031.8 1267.82 1010 1298.59 992.78 1311.72 1016.42"/><polygon class="cls-10" points="1309.66 1008.77 1262.9 1022.31 1191.52 878.33 1189.32 848.76 1181.92 749.2 1177.98 719.5 1244.44 719.5 1244.44 868.48 1309.66 1008.77"/><path class="cls-10" d="M1262.64,1022.91,1191,878.36l-9.6-129.12-4-30.24h67.53V868.37l65.42,140.72ZM1192,878.19l71.15,143.52,45.81-13.25-65-139.87V720h-65.38l3.86,29.14Z"/><path class="cls-12" d="M1170.6,581.74l1.23-25.85s-30.07,5.57-11.81-44.74a24.16,24.16,0,0,1,10.31-12.44l5.19-3.12,23.39,4.92,4.92,86.15Z"/><path class="cls-12" d="M1204.36,587.24l-34.28-5.07,1.22-25.7c-2.11.25-9,.58-13.62-4.82-6-7.07-5.36-20.76,1.87-40.67a24.7,24.7,0,0,1,10.52-12.7l5.36-3.22,24,5,0,.38Zm-33.24-5.93,32.17,4.76-4.86-85.15-22.82-4.8-5,3a23.7,23.7,0,0,0-10.09,12.18c-7,19.28-7.7,33-2,39.68,5,5.87,13.21,4.42,13.29,4.4l.62-.11Z"/><path class="cls-12" d="M1022.92,599l-7.38,29.53-15.37-7.31-33.86-16.07c-3.69,1.23-11.07-1.23-16-3.69-4.66-2.34-1.23-7.39-1.23-7.39-2.46-3.69,1.23-7.38,1.23-7.38a6.85,6.85,0,0,1,2.46-7.38l-15.24-7.63a4.12,4.12,0,0,1-2.26-4.54l0-.1a4.15,4.15,0,0,1,5.44-2.72l31.72,11.29,16,11.08,21.51,7.68Z"/><path class="cls-12" d="M1015.87,629.22l-49.6-23.57c-4.28,1.26-12.15-1.76-16.18-3.78a4.53,4.53,0,0,1-2.58-2.94,7,7,0,0,1,1-4.89c-2-3.36.53-6.67,1.28-7.52a7.38,7.38,0,0,1,2.1-7.14l-14.56-7.28a4.62,4.62,0,0,1-2.52-5.1l0-.11A4.35,4.35,0,0,1,937,564.1a4.81,4.81,0,0,1,3.86-.28l31.85,11.35,15.94,11,34.83,12.44Zm-49.53-24.64,48.86,23.21,7.13-28.51-34.15-12.21-15.95-11-31.66-11.27a3.87,3.87,0,0,0-3.07.22,3.41,3.41,0,0,0-1.72,2.15,3.67,3.67,0,0,0,2,4.08l16,8-.71.48a6.3,6.3,0,0,0-2.25,6.85l.07.27-.2.2c-.14.14-3.37,3.45-1.17,6.76l.18.28-.18.27s-1.56,2.33-1,4.36a3.61,3.61,0,0,0,2.06,2.3c5.12,2.56,12.2,4.8,15.61,3.67Z"/><polygon class="cls-7" points="1022.92 598.97 1015.54 628.5 1000.17 621.19 1009.98 594.34 1022.92 598.97"/><polygon class="cls-10" points="1215.5 719.5 1211.51 747.45 1189.32 848.76 1186.6 869.71 1171.22 1032.77 1129.37 1032.77 1127.37 870.53 1138.59 752.91 1141.52 722.24 1215.5 719.5"/><path class="cls-10" d="M1171.67,1033.27h-42.79v-.49l-2-162.24,14.19-148.78,75-2.78L1212,747.52l-22.2,101.35-2.72,20.9Zm-41.8-1h40.89l15.34-162.61,2.72-21L1211,747.34l3.9-27.32-72.94,2.7-14.12,147.86Z"/><path class="cls-12" d="M1323.92,797.82c-.53,4.44-4,2.69-4,2.69l.95,7.52c-1.47,5.63-5.1,2.82-5.1,2.82-1.47,5.64-6.31,1.89-6.31,1.89-2.67,4.7-6.71-1.34-6.71-1.34l-5.93-12.34-4.31-16.9c.94,7.51-4.28,9.26-4.28,9.26l-3.92-13.69,7-14-1.07-8.46-1.78-14.09,23.76-1.91c.75,2.23,2.27,7.51,3.79,12.86,2,7.21,4,14.51,4,14.51l-.25,15.31Z"/><path class="cls-12" d="M1307,815c-2.41,0-4.58-3.21-4.67-3.35l-6-12.4-3.42-13.38a7.71,7.71,0,0,1-4.56,6l-.5.16-4.11-14.38,7-14-2.89-22.93,24.67-2,.12.38c.63,1.88,1.88,6.1,3.8,12.87,2,7.22,4,14.52,4,14.52l0,.07-.25,15.31,4.2,15.85v.1a3.81,3.81,0,0,1-1.71,3.15,3.09,3.09,0,0,1-2.22.21l.87,6.82,0,.09c-.54,2.07-1.44,3.33-2.67,3.75a3.4,3.4,0,0,1-2.62-.29,3.92,3.92,0,0,1-2.33,2.68,5.18,5.18,0,0,1-4.12-.84,3.15,3.15,0,0,1-2.5,1.58Zm-14-33,4.3,16.9,5.9,12.25c.52.76,2.26,2.9,3.88,2.84q1.1,0,2-1.53l.28-.5.46.35s2,1.55,3.64,1c.87-.29,1.5-1.17,1.88-2.62l.19-.72.6.45a2.78,2.78,0,0,0,2.28.51c.87-.3,1.56-1.33,2-3l-1.06-8.33.84.41a2.66,2.66,0,0,0,2.12.08,2.85,2.85,0,0,0,1.17-2.3l-4.18-15.8.25-15.3c-.21-.76-2.1-7.65-4-14.44-1.79-6.35-3-10.44-3.65-12.47L1289,741.68l2.8,22.18-7,13.92,3.71,13c1.21-.63,4.18-2.78,3.47-8.51Z"/><path class="cls-7" d="M1316,752.17l-25.77,3.14-1.78-14.09,23.76-1.91C1312.92,741.54,1314.44,746.82,1316,752.17Z"/><polygon class="cls-7" points="1244.44 716 1244.44 743.86 1202.51 747.45 1181.92 749.2 1138.59 752.91 1141.52 722.24 1244.44 716"/><path class="cls-9" d="M1016.77,594l-8.62,43.08,72.14,25.09a36.24,36.24,0,0,0,25.34-.58L1142.3,647l-7.39,86.15h115.68l-11.07-93.53,16,29.53,25.33,79.25h35.69L1294.43,652l-35.91-55.87A38.59,38.59,0,0,0,1235,579.46l-21.37-5.11h-41.58a46.6,46.6,0,0,0-23.43,6.32l-56.82,33.06Z"/><path class="cls-9" d="M1317.17,748.86h-36.68l-.11-.35L1255,669.27l-14.72-27.16,10.84,91.5H1134.37l0-.55,7.32-85.33-35.91,14.36a36.74,36.74,0,0,1-25.7.59l-72.54-25.23,8.8-44,75.39,19.77,56.64-33a47.12,47.12,0,0,1,23.68-6.39l41.7,0,21.37,5.1a38.93,38.93,0,0,1,23.78,16.87l36,55.94Zm-36-1h34.69L1294,652.18l-35.87-55.8a37.9,37.9,0,0,0-23.17-16.44l-21.32-5.09h-41.52a46.06,46.06,0,0,0-23.18,6.26l-57,33.16-74.76-19.61-8.42,42.13,71.72,24.94a35.69,35.69,0,0,0,25-.57l37.41-15-7.4,86.41H1250L1238.71,637,1256,668.88Z"/><path class="cls-7" d="M1167,498.44s-3,8.56,4.92,26.51c0,0,16.73-5.38,8.37,14.34,0,0,5.71,16,21.71,19.68,0,0,13.54-6.15,18.46-24.61.71-2.67,1.65-9.41,1.65-9.41s14.81,17.5,35.78,7.5c4.27-2,8.66-8.65,9.74-16.23,1.6-11.18-3.24-29.22-23.81-29.22-8.65,0-20.56,6.49-25,21.81C1218.75,508.81,1200.21,481.21,1167,498.44Z"/><polygon points="1308.98 812.93 1302.65 797.37 1299.85 784 1300.83 783.79 1303.6 797.08 1309.9 812.55 1308.98 812.93"/><polygon points="1315.28 811.04 1308.95 795.48 1306.23 782.65 1307.21 782.44 1309.91 795.19 1316.21 810.67 1315.28 811.04"/><line class="cls-4" x1="1299.34" y1="784.56" x2="1316.25" y2="780.25"/><rect x="1299.07" y="781.91" width="17.45" height="1" transform="translate(-152.79 347.46) rotate(-14.31)"/><polygon points="1319.66 802.6 1316.19 792.35 1313.96 780.8 1314.95 780.61 1317.15 792.1 1320.61 802.27 1319.66 802.6"/><g id="Underline"><rect class="cls-2" x="68" y="1064.5" width="1460" height="2"/></g><path class="cls-12" d="M831.14,550.5h18.23a2.84,2.84,0,0,1,2.22,1.08l9.2,11.56a2.84,2.84,0,0,1-2.22,4.6H831.14Z"/><path class="cls-12" d="M858.57,568H830.93V550.29h18.44a3,3,0,0,1,2.38,1.15L861,563a3.05,3.05,0,0,1-2.38,5Zm-27.21-.43h27.21a2.62,2.62,0,0,0,2-4.26l-9.2-11.56a2.61,2.61,0,0,0-2-1h-18Z"/><rect class="cls-11" x="645.71" y="474.89" width="14.78" height="5.63" rx="2.81"/><rect class="cls-11" x="668.98" y="481.01" width="11.28" height="16.01"/><path class="cls-9" d="M651.19,599.68V506.13a14.4,14.4,0,0,1,14.4-14.39h41.56a14.4,14.4,0,0,1,14.4,14.39v86.14a13.19,13.19,0,0,0,13.19,13.19h11.69a13.19,13.19,0,0,0,13.19-13.19V554.62s-.28-11.36-7.32-13h71.89s29.88,24.34,36.14,63.61v4.34H651.19Z"/><path class="cls-9" d="M860.55,609.77H651V506.13a14.63,14.63,0,0,1,14.61-14.61h41.56a14.63,14.63,0,0,1,14.61,14.61v86.14a13,13,0,0,0,13,13h11.69a13,13,0,0,0,13-13V554.62c0-.1-.36-11.21-7.16-12.8l-1.79-.42h73.81l.06.05a106.78,106.78,0,0,1,15.75,17.11c7.55,10.05,17.22,26.3,20.46,46.63Zm-209.14-.42H860.12v-4.13c-3.22-20.21-12.86-36.39-20.37-46.39a107.85,107.85,0,0,0-15.63-17H753.61c5.9,2.6,6.21,12.36,6.22,12.8v37.65a13.41,13.41,0,0,1-13.4,13.4H734.74a13.41,13.41,0,0,1-13.4-13.4V506.13A14.2,14.2,0,0,0,707.15,492H665.59a14.19,14.19,0,0,0-14.18,14.18Z"/><rect class="cls-11" x="674.46" y="492" width="5.09" height="93.77"/><rect class="cls-11" x="740.46" y="609.8" width="67.46" height="13.85"/><ellipse class="cls-11" cx="832.26" cy="616.06" rx="30.72" ry="34.94"/><ellipse class="cls-4" cx="837.44" cy="614.52" rx="20" ry="22.74"/><path class="cls-2" d="M837.44,637.48c-11.14,0-20.21-10.3-20.21-23s9.07-22.95,20.21-22.95,20.21,10.3,20.21,22.95S848.59,637.48,837.44,637.48Zm0-45.49c-10.91,0-19.78,10.11-19.78,22.53s8.87,22.53,19.78,22.53,19.79-10.1,19.79-22.53S848.35,592,837.44,592Z"/><path class="cls-11" d="M826.88,614.62c0,5,2.37,9.55,10,9.55,4.45,0,6.13-4.5,6.13-9.55s-1.68-9.16-6.13-9.16C829.25,605.46,826.88,609.56,826.88,614.62Z"/><ellipse class="cls-4" cx="837.34" cy="614.62" rx="8.05" ry="9.16"/><path class="cls-2" d="M837.34,624c-4.55,0-8.26-4.21-8.26-9.37s3.71-9.37,8.26-9.37,8.27,4.2,8.27,9.37S841.9,624,837.34,624Zm0-18.32c-4.32,0-7.83,4-7.83,9s3.51,8.94,7.83,8.94,7.84-4,7.84-8.94S841.67,605.67,837.34,605.67Z"/><ellipse class="cls-11" cx="659.18" cy="616.06" rx="30.72" ry="34.94"/><ellipse class="cls-4" cx="664.36" cy="614.52" rx="20" ry="22.74"/><path class="cls-2" d="M664.36,637.48c-11.14,0-20.21-10.3-20.21-23s9.07-22.95,20.21-22.95,20.21,10.3,20.21,22.95S675.5,637.48,664.36,637.48Zm0-45.49c-10.91,0-19.79,10.11-19.79,22.53s8.88,22.53,19.79,22.53,19.79-10.1,19.79-22.53S675.27,592,664.36,592Z"/><path class="cls-11" d="M653.8,614.62c0,5,2.37,9.15,10,9.15,4.44,0,6.12-4.1,6.12-9.15s-1.68-9.16-6.12-9.16C656.17,605.46,653.8,609.56,653.8,614.62Z"/><ellipse class="cls-4" cx="664.26" cy="614.62" rx="8.05" ry="9.16"/><path class="cls-2" d="M664.26,624c-4.56,0-8.26-4.21-8.26-9.37s3.7-9.37,8.26-9.37,8.26,4.2,8.26,9.37S668.82,624,664.26,624Zm0-18.32c-4.32,0-7.84,4-7.84,9s3.52,8.94,7.84,8.94,7.84-4,7.84-8.94S668.58,605.67,664.26,605.67Z"/><path class="cls-11" d="M888.74,605.36h-3.91a8.18,8.18,0,0,0-8.11-7.13H790v16.39h86.74a8.2,8.2,0,0,0,8-6.52h4Z"/><path class="cls-9" d="M873.34,609.56s5.41-43.19-45.05-54.94c-18.19-4.23-60-7-50.62,54.94Z"/><path class="cls-9" d="M873.53,609.77h-96l0-.18c-3.5-23.06-.23-39.41,9.71-48.6,12.15-11.23,31-8.94,41.16-6.57,11.54,2.68,21.1,7.26,28.41,13.58a47.9,47.9,0,0,1,13.19,18.42,51.66,51.66,0,0,1,3.62,23.16Zm-95.67-.42h95.29a51.4,51.4,0,0,0-3.62-22.79c-4.5-11.14-15.32-25.68-41.29-31.73-10.07-2.35-28.76-4.62-40.77,6.47C777.66,570.37,774.43,586.53,777.86,609.35Z"/><path class="cls-11" d="M753.09,544h63.26a11.91,11.91,0,0,0,11.91-11.91h0a11.91,11.91,0,0,0-12.86-11.88l-63.06,5a9.4,9.4,0,0,0-8.65,9.36h0A9.4,9.4,0,0,0,753.09,544Z"/><path class="cls-9" d="M692.25,604.77H620a46.23,46.23,0,0,1,8.38-20.31c15.68-21,48.31-18.13,59.87,5.4A42.36,42.36,0,0,1,692.25,604.77Z"/><path class="cls-9" d="M692.48,605H619.73l0-.23a46.73,46.73,0,0,1,8.42-20.42,35.53,35.53,0,0,1,60.23,5.44,42.7,42.7,0,0,1,4.05,15Zm-72.27-.42H692A42.15,42.15,0,0,0,688,590a35.1,35.1,0,0,0-59.51-5.36A46.63,46.63,0,0,0,620.21,604.56Z"/><path class="cls-15" d="M873.83,612.34h-186v-5.61H620v-5.1h68a5,5,0,0,1,5,5v.64h180.9Z"/><polygon class="cls-11" points="743.37 639.81 730.95 639.81 730.95 634.72 741.65 634.72 765.54 616.45 768.63 620.5 743.37 639.81"/><path class="cls-9" d="M680.65,486.35H665.17a11.1,11.1,0,0,1-2.73-.34,11.32,11.32,0,0,1,0-22,11.68,11.68,0,0,1,2.74-.33h2.23a22.39,22.39,0,0,1,19.21,10.53l.64,1.11A7.48,7.48,0,0,1,680.65,486.35Z"/><path class="cls-9" d="M680.65,486.56H665.17a11.75,11.75,0,0,1-2.78-.34,11.54,11.54,0,0,1,0-22.38,12,12,0,0,1,2.79-.33h2.23a22.69,22.69,0,0,1,19.39,10.63c.22.37.43.73.64,1.12a7.68,7.68,0,0,1-6.78,11.3Zm-15.48-22.63a11.06,11.06,0,0,0-7.85,3.26,11.1,11.1,0,0,0,7.85,18.94h15.48a7.26,7.26,0,0,0,6.41-10.67c-.21-.38-.42-.74-.64-1.1a22.22,22.22,0,0,0-19-10.43Z"/><path class="cls-11" d="M670.24,475a15.18,15.18,0,0,1-5,11.32h0a11.32,11.32,0,0,1,0-22.63h0A15.18,15.18,0,0,1,670.24,475Z"/><path class="cls-4" d="M667.12,475a15.19,15.19,0,0,1-4.68,11,11.32,11.32,0,0,1,0-22A15.17,15.17,0,0,1,667.12,475Z"/><path class="cls-2" d="M662.5,486.24l-.11,0a11.54,11.54,0,0,1,0-22.38l.11,0,.09.08a15.43,15.43,0,0,1,0,22.26Zm-.13-21.95a11.08,11.08,0,0,0-5,2.9,11.1,11.1,0,0,0,5.06,18.59,15,15,0,0,0,0-21.49Z"/><rect class="cls-16" x="687.52" y="476.04" width="8.34" height="3.44"/><path class="cls-16" d="M696.07,479.69H687.3v-3.87h8.77Zm-8.34-.43h7.91v-3h-7.91Z"/><rect class="cls-11" x="681.57" y="474.89" width="8.96" height="5.63" rx="2.81"/><rect class="cls-11" x="694.29" y="474.89" width="14.78" height="5.63" rx="2.81"/><rect class="cls-5" x="804.31" y="598.68" width="41.42" height="2.37"/><path d="M845.94,601.26H804.09v-2.79h41.85Zm-41.42-.43h41v-1.94h-41Z"/><rect class="cls-5" x="804.31" y="592.42" width="41.42" height="2.37"/><path d="M845.94,595H804.09v-2.79h41.85Zm-41.42-.43h41v-1.94h-41Z"/><rect class="cls-5" x="804.31" y="586.16" width="41.42" height="2.37"/><path d="M845.94,588.74H804.09V586h41.85Zm-41.42-.43h41v-1.94h-41Z"/><rect class="cls-2" x="695.68" y="639.76" width="86.98" height="0.85"/><circle class="cls-15" cx="749.68" cy="676.64" r="7.65"/><path class="cls-15" d="M749.68,684.52a7.89,7.89,0,1,1,7.89-7.88A7.89,7.89,0,0,1,749.68,684.52Zm0-15.3a7.42,7.42,0,0,0,0,14.83c4.09,0,6.42-3.32,6.42-7.41S753.77,669.22,749.68,669.22Z"/><circle class="cls-12" cx="772.5" cy="676.5" r="8"/><circle class="cls-12" cx="727.5" cy="675.5" r="8"/></g></svg>