<svg id="_8" data-name="8" xmlns="http://www.w3.org/2000/svg" viewBox="0 0 863.85 1195"><defs><style>.cls-1{fill:#f6ebda;}.cls-2{fill:#f0f1f6;}.cls-3{fill:#261134;}.cls-4{fill:#2f3030;}.cls-10,.cls-4,.cls-8,.cls-9{stroke:#000;stroke-miterlimit:10;}.cls-5{fill:#e9eaee;}.cls-6{fill:#d8dae6;}.cls-7,.cls-9{fill:#fff;}.cls-10,.cls-8{fill:#fbb755;}.cls-10{stroke-width:0.5px;}.cls-11{fill:#cdcbcc;}</style></defs><g id="Background"><rect class="cls-1" x="0.93" y="-3" width="863" height="1199"/></g><g id="Window"><path class="cls-2" d="M114.34,363V644.29H393.09V363c0-76.85-62.53-139.38-139.38-139.38S114.34,286.15,114.34,363ZM244.59,242.21V364.15h-112V363A121.29,121.29,0,0,1,244.59,242.21Zm0,251h-112V382.4h112ZM262.83,382.4h112V493.25h-112Zm112-19.4v1.15h-112V242.21A121.29,121.29,0,0,1,374.84,363Zm0,263h-112V511.5h112Zm-242.26,0V511.5h112V626Z"/><path class="cls-3" d="M113.83,363c0-77.13,62.75-139.88,139.88-139.88S393.59,285.87,393.59,363V644.79H113.83Zm278.76,0c0-76.58-62.3-138.88-138.88-138.88S114.83,286.42,114.83,363V643.79H392.59ZM132.08,511h113V626.54h-113Zm112,1h-111V625.54h111Zm18.24-1h113V626.54h-113Zm112,1h-111V625.54h111ZM132.08,381.9h113V493.75h-113Zm112,1h-111V492.75h111Zm18.24-1h113V493.75h-113Zm112,1h-111V492.75h111ZM132.08,363A121.78,121.78,0,0,1,244.55,241.71l.54,0v123h-113Zm112-120.25c-62.29,4.94-111,57.66-111,120.25v.65h111Zm18.24-1.08.54,0A121.78,121.78,0,0,1,375.34,363v1.65h-113ZM374.34,363c0-62.59-48.72-115.31-111-120.25v120.9h111Z"/></g><polygon class="cls-4" points="693.14 929.07 686.82 1057.26 658.84 1057.26 652.52 929.07 693.14 929.07"/><polygon class="cls-4" points="353.87 927.07 347.55 1055.26 319.57 1055.26 313.25 927.07 353.87 927.07"/><path class="cls-2" d="M269.33,738.66H289.1l-2.61-98c-1.2-45.31,16.3-83.42,38.32-83.42H546.14v.45H684.78c22,0,39.52,38.11,38.31,83.42l-2.6,98h19.76c6,0,10.76,10.82,10.11,23.22l-8.24,156.27c-.85,16-7.4,28.13-15.21,28.13H463.45v-.45H282.68c-7.81,0-14.37-12.13-15.21-28.13l-8.24-156.28C258.58,749.49,263.29,738.66,269.33,738.66Z"/><path class="cls-3" d="M463.2,946.79H282.68c-7.95,0-14.59-12.29-15.45-28.58L259,761.94a38.28,38.28,0,0,1,2.6-16.65c2-4.53,4.79-7.13,7.74-7.13h19.51l-2.59-97.49c-.58-22.06,3.15-43,10.52-59.08s17.32-24.87,28-24.87H546.38v.45h138.4c10.72,0,20.67,8.83,28,24.87s11.1,37,10.52,59.08l-2.59,97.5h19.5c3,0,5.78,2.59,7.75,7.12a38.28,38.28,0,0,1,2.6,16.65l-8.24,156.28c-.86,16.29-7.5,28.57-15.45,28.57H463.2Zm257-207.17,2.61-98.55c.58-21.78-3.11-42.5-10.38-58.34s-17.11-24.56-27.69-24.56H545.9v-.45H324.81c-10.58,0-20.42,8.72-27.69,24.56s-11,36.56-10.38,58.34l2.6,98v.52h-20c-2.81,0-5.5,2.48-7.38,6.8a36.52,36.52,0,0,0-2.48,15.87l8.24,156.28c.83,15.78,7.27,27.68,15,27.68h181v.45H726.91c7.7,0,14.14-11.9,15-27.68l8.24-156.28a36.52,36.52,0,0,0-2.48-15.87c-1.88-4.32-4.57-6.79-7.39-6.79Z"/><path class="cls-5" d="M706.19,825.31,711.88,675s12.27-93.88-125.67-63.19S304.64,813.14,304.64,813.14l7,38.81Z"/><path class="cls-6" d="M706.63,813.14h-402l1.25,44.69c.53,19,8.15,33.84,17.38,33.84H688c9.23,0,16.85-14.84,17.38-33.84Z"/><rect class="cls-7" x="169.03" y="690.01" width="24.97" height="1" transform="translate(-460.89 378.97) rotate(-49.4)"/><polygon class="cls-7" points="158.53 700.25 159.38 699.72 150.44 685.42 156.74 631.14 155.75 631.03 149.41 685.66 158.53 700.25"/><rect class="cls-7" x="132.49" y="692.26" width="20.43" height="1" transform="translate(-448.06 303.81) rotate(-45)"/><rect class="cls-3" x="314.93" y="826.59" width="63.96" height="1"/><path class="cls-8" d="M407.8,1056.06h76.56l36.49-21.61L509,997.33l-13.09-41L444.38,974.6l17.55,38,2.4,5.2S427.75,1032.79,407.8,1056.06Z"/><path class="cls-8" d="M407.42,1055.74c18.56-21.65,51.84-36.3,56.24-38.18l-20-43.24,52.06-18.48.49-.17,25.2,79-36.83,21.82-.12.06H406.71Zm112.83-21.51L495.6,957l-50.54,17.93,19.94,43.2-.48.2c-.36.14-35.83,14.83-55.63,37.27h75.33Z"/><path class="cls-4" d="M530.12,532s17.5-34.59,18.73-51.6l-8.59-37.28s-1.77-35.82,45.63-28.23c0,0-.65-16.94,10.49-21.14,0,0-5.28,9.63-3,19,0,0,8.61-21.07,26-10.43,0,0,13.46,7,10.21,20.33,0,0,.58,15.06-20.12,15.86,0,0,.73,18.82,46.91,43.41,0,0,38.36,17.36,36.13,57s-37,65.5-37,65.5L525.5,607.55Z"/><path class="cls-9" d="M602.63,545l-7-65.27s9.62-5.91,6.93-17.1c0,0-2.61-8.94-11.37-1.82l-.61-15.8s-31.16,12.51-49.92-4.85c0,0-11.9,62.15,16.07,61.35l-4.76,52.16Z"/><path class="cls-9" d="M556.15,502a14.38,14.38,0,0,1-11.42-5.19c-12.48-14.67-4.92-55-4.6-56.75l.17-.89.66.61c18.3,16.94,49.08,4.88,49.39,4.75l.66-.26.6,15.54c2.7-2,5.11-2.68,7.17-2,3.1,1,4.17,4.54,4.22,4.72,2.49,10.34-5.32,16.38-6.88,17.47l7.06,65.44-51.81,8.86Zm38.91-22.54.27-.16c.09-.06,9.28-5.85,6.71-16.54,0,0-1-3.22-3.56-4-1.92-.6-4.28.23-7,2.45l-.77.64-.63-16.11c-4.57,1.65-31.81,10.54-49.1-4.59-1.05,6.08-6.65,41.9,4.54,55A13.53,13.53,0,0,0,556.68,501l.56,0L552.49,553l49.59-8.48Z"/><path class="cls-10" d="M553.56,514.31s15.6,18.24,48-1.3l38.31,16.11a35.72,35.72,0,0,1,21.06,25.34l26.22,120.4a20.47,20.47,0,0,1-19.25,24.81l-26.09,1,.93,32.5L482,703.5l14.73-145.91a36.28,36.28,0,0,1,21-27.28Z"/><path class="cls-10" d="M481.45,703.91l14.78-146.4a36.66,36.66,0,0,1,21.3-27.65L553.7,513.7l.24.29c.15.17,15.73,17.67,47.32-1.41l.22-.13L640,528.66a36.28,36.28,0,0,1,21.36,25.7L687.6,674.75a21,21,0,0,1-19.72,25.42l-25.6.94.94,32.62Zm72-189-35.51,15.86a35.68,35.68,0,0,0-20.71,26.87L482.53,703.1l159.66,29.42-.94-32.37,26.59-1A20,20,0,0,0,686.62,675L660.41,554.57a35.3,35.3,0,0,0-20.78-25l-38.07-16C571.58,531.56,555.63,517.14,553.44,514.91Z"/><path class="cls-7" d="M549.61,671.8,525.24,670l-7.39-2.61a22.42,22.42,0,0,0-15.79.32l-32.79,13.12-9.93,12.64,92.2,0Z"/><path class="cls-3" d="M469,680.42l32.91-13.17a22.89,22.89,0,0,1,16.14-.33l7.33,2.58,24.31,1.8.42,0,2,22.6-93.77,0Zm80.19-8.15L525.2,670.5l-7.52-2.64a21.9,21.9,0,0,0-15.44.32l-32.66,13.06L460.37,693l90.62,0Z"/><polygon class="cls-4" points="444.38 974.61 461.93 1012.63 509.01 997.34 495.92 956.32 444.38 974.61"/><path class="cls-4" d="M341.6,597.78H473.45a7,7,0,0,1,6.9,5.63l20.51,100H354.62L334.7,606.24A7,7,0,0,1,341.6,597.78Z"/><path class="cls-8" d="M229.88,1014.77l100.28,37.48,16-44.58,12.05-33.61L308.79,955.6l-12.66,36.58-2.49,7.19S255.68,1000.53,229.88,1014.77Z"/><path class="cls-8" d="M228.68,1014.86l.95-.52c24.31-13.42,59.77-15.29,63.65-15.45L308.48,955l50.33,18.81-28.35,79.13Zm80.41-58.61-12.49,36.1-2.6,7.51-.35,0c-.37,0-37.19,1.28-62.57,14.81l98.78,36.92,27.68-77.25Z"/><polygon class="cls-4" points="296.13 992.18 346.13 1007.67 358.18 974.07 308.79 955.61 296.13 992.18"/><polygon class="cls-4" points="409.9 704.4 553.28 704.4 553.28 693.11 409.75 693.11 409.9 704.4"/><path class="cls-11" d="M479.35,806.29c-3.06-22-36.22-58.86-75.54-33.54-16.93,10.9-13.12,50.7-3.06,88.76L443,1007,509,994.52S485.52,850.54,479.35,806.29Z"/><path class="cls-3" d="M400.26,861.64c-5.91-22.41-17.44-76,3.28-89.31,19-12.25,35.24-9.22,45.49-4.52,17.67,8.11,29.07,25.84,30.82,38.41l-.5.07.5-.07C485.94,850,509.3,993,509.54,994.44l.08.48-67,12.62Zm78.6-55.28c-1.74-12.48-13.53-30-30.25-37.64-10-4.6-25.88-7.56-44.53,4.45-20.17,13-8.71,66-2.85,88.21l42.11,145,65.13-12.27C507,984.9,484.77,848.83,478.86,806.36Z"/><path class="cls-11" d="M286.92,974.21,355.53,1004,439,796.83l26.18,9s5.33,1.87,14.12,4.63c35.88,11.23,129.32,37.19,152.88,10.72,29.72-33.38,9.48-103.36,9.48-103.36l-265-23.92C342.89,772.91,286.92,974.21,286.92,974.21Z"/><path class="cls-3" d="M286.72,974.67l-.4-.17.12-.42c.56-2,56.36-202.24,89.84-280.36l.14-.33,265.31,24,.34,0,.1.33c.2.7,20,70.63-9.59,103.83-7.57,8.51-22.19,11.69-39.81,11.69-37.14,0-87.62-14.13-113.59-22.27-8.69-2.72-14.08-4.61-14.14-4.62l-25.73-8.87L356,1004.19l-.19.47ZM465.37,805.38c.06,0,5.43,1.9,14.11,4.62,38.1,11.93,129.2,36.88,152.35,10.87,28.17-31.63,10.91-97.33,9.47-102.56L377.06,694.45C344.33,771,290.41,963.58,287.52,973.92l67.74,29.42,83.3-206.7.18-.44Z"/><path class="cls-7" d="M336.18,597.78H468a7,7,0,0,1,6.91,5.63l20.51,100H349.21l-19.93-97.16A7,7,0,0,1,336.18,597.78Z"/><path class="cls-3" d="M328.79,606.34a7.54,7.54,0,0,1,7.39-9.06H468a7.58,7.58,0,0,1,7.39,6L496.06,703.9H348.8Zm145.66-2.83a6.57,6.57,0,0,0-6.41-5.23H336.18a6.55,6.55,0,0,0-6.41,7.86l19.85,96.76H494.83Z"/><polygon class="cls-3" points="551.38 704.36 643.51 701.19 643.48 700.19 552.32 703.33 550.14 670.43 629.68 659.58 617.8 615.7 616.83 615.97 628.42 658.75 549.08 669.56 551.38 704.36"/><rect class="cls-3" x="500.86" y="832.89" width="166.55" height="1"/><path class="cls-4" d="M393.89,650.36c0,5.36,5.35,9.71,10.71,9.71s8.7-4.35,8.7-9.71a9.71,9.71,0,0,0-19.41,0Z"/><g id="Underline"><rect class="cls-3" x="-5.07" y="1056.57" width="870" height="1.49"/></g></svg>